<svg width="20" height="20" viewBox="0 0 20 20" fill="none" xmlns="http://www.w3.org/2000/svg">
<path d="M9.96094 0C4.46854 0 0 4.48593 0 10C0 15.5141 4.46854 20 9.96094 20C12.4091 20 13.2561 18.8376 13.5431 18.1448C13.9696 17.115 13.703 15.8315 12.8947 15.0232C12.338 14.4664 12.338 13.5609 12.8947 13.0042C13.4508 12.4481 14.3832 12.4461 14.9411 13.0042C15.7672 13.8301 17.0663 14.1078 18.1007 13.6794C20.1895 12.814 19.9402 9.88739 19.9609 9.82422L19.9608 9.81339C19.8618 4.4223 15.4318 0 9.96094 0V0ZM17.6524 12.5967C16.9812 12.8748 16.1815 12.5871 15.7698 12.1756C14.7548 11.1604 13.0811 11.1606 12.0662 12.1756C11.0513 13.1903 11.0513 14.837 12.0662 15.8519C12.4731 16.2589 12.7394 17.0232 12.4605 17.6964C12.1581 18.4262 11.2704 18.8281 9.96094 18.8281C5.11459 18.8281 1.17188 14.8679 1.17188 10C1.17188 5.13214 5.11459 1.17188 9.96094 1.17188C14.7392 1.17188 18.6984 5.05524 18.7891 9.82971C18.7766 9.90616 18.9276 12.0685 17.6524 12.5967Z" fill="#4B5563"/>
<path d="M14.1016 8.82812C14.1016 9.79736 14.8901 10.5859 15.8594 10.5859C16.8286 10.5859 17.6172 9.79736 17.6172 8.82812C17.6172 7.85889 16.8286 7.07031 15.8594 7.07031C14.8901 7.07031 14.1016 7.85889 14.1016 8.82812ZM16.4453 8.82812C16.4453 9.15115 16.1824 9.41406 15.8594 9.41406C15.5363 9.41406 15.2734 9.15115 15.2734 8.82812C15.2734 8.5051 15.5363 8.24219 15.8594 8.24219C16.1824 8.24219 16.4453 8.5051 16.4453 8.82812Z" fill="#4B5563"/>
<path d="M8.78906 2.38281C7.81982 2.38281 7.03125 3.17139 7.03125 4.14062C7.03125 5.10986 7.81982 5.89844 8.78906 5.89844C9.7583 5.89844 10.5469 5.10986 10.5469 4.14062C10.5469 3.17139 9.7583 2.38281 8.78906 2.38281ZM8.78906 4.72656C8.46603 4.72656 8.20312 4.46365 8.20312 4.14062C8.20312 3.8176 8.46603 3.55469 8.78906 3.55469C9.11209 3.55469 9.375 3.8176 9.375 4.14062C9.375 4.46365 9.11209 4.72656 8.78906 4.72656Z" fill="#4B5563"/>
<path d="M5.27344 9.41406C6.24268 9.41406 7.03125 8.62549 7.03125 7.65625C7.03125 6.68701 6.24268 5.89844 5.27344 5.89844C4.3042 5.89844 3.51562 6.68701 3.51562 7.65625C3.51562 8.62549 4.3042 9.41406 5.27344 9.41406ZM5.27344 7.07031C5.59647 7.07031 5.85938 7.33322 5.85938 7.65625C5.85938 7.97928 5.59647 8.24219 5.27344 8.24219C4.95041 8.24219 4.6875 7.97928 4.6875 7.65625C4.6875 7.33322 4.95041 7.07031 5.27344 7.07031Z" fill="#4B5563"/>
<path d="M5.27344 10.5859C4.3042 10.5859 3.51562 11.3745 3.51562 12.3438C3.51562 13.313 4.3042 14.1016 5.27344 14.1016C6.24268 14.1016 7.03125 13.313 7.03125 12.3438C7.03125 11.3745 6.24268 10.5859 5.27344 10.5859ZM5.27344 12.9297C4.95041 12.9297 4.6875 12.6668 4.6875 12.3438C4.6875 12.0207 4.95041 11.7578 5.27344 11.7578C5.59647 11.7578 5.85938 12.0207 5.85938 12.3438C5.85938 12.6668 5.59647 12.9297 5.27344 12.9297Z" fill="#4B5563"/>
<path d="M8.78906 14.1016C7.81982 14.1016 7.03125 14.8901 7.03125 15.8594C7.03125 16.8286 7.81982 17.6172 8.78906 17.6172C9.7583 17.6172 10.5469 16.8286 10.5469 15.8594C10.5469 14.8901 9.7583 14.1016 8.78906 14.1016ZM8.78906 16.4453C8.46603 16.4453 8.20312 16.1824 8.20312 15.8594C8.20312 15.5363 8.46603 15.2734 8.78906 15.2734C9.11209 15.2734 9.375 15.5363 9.375 15.8594C9.375 16.1824 9.11209 16.4453 8.78906 16.4453Z" fill="#4B5563"/>
</svg>
