<svg xmlns="http://www.w3.org/2000/svg" xmlns:xlink="http://www.w3.org/1999/xlink" viewBox="0 0 500 500"><defs><clipPath id="freepik--clip-path--inject-873"><path d="M171.72,156.62c-2.34-12-10.31-13.56-12.12-14.13-12.47-3.93-21-4.59-30.86-.27-11.55,5.08-13.87,5.26-17.43,18.44-2,7.21,1.93,31.49,4.27,42.06,1.87,8.41,1.4,30.2,5,33.69,6.68,6.47,16.15,5.54,25.31,3.92,7.93-1.41,21.17-3.29,24.18-10.76.43-1.07.39-5.59.24-12.11-.48-19.73.84-31.05.64-43.68l2.68-1.24S173.86,167.55,171.72,156.62Z" style="fill:#407BFF;stroke:#263238;stroke-miterlimit:10"></path></clipPath></defs><g id="freepik--background-simple--inject-873"><path d="M291.77,48.17c-44.3-.48-88.63,11.38-128.18,31.36S89.55,131,70.44,171s-21.55,88.63-2.16,128.47c7.27,14.93,18.25,29.1,33.77,35,19.85,7.54,41.85.08,63.06-.71,28.75-1.06,56.47,10.33,82,23.63s50.17,28.86,77.68,37.27,59.24,8.73,83.15-7.26c22.57-15.09,34.54-42.42,37.4-69.42s-2.2-54.13-7.23-80.81C432.83,209.3,407.33,49.41,291.77,48.17Z" style="fill:#407BFF"></path><g style="opacity:0.7000000000000001"><path d="M291.77,48.17c-44.3-.48-88.63,11.38-128.18,31.36S89.55,131,70.44,171s-21.55,88.63-2.16,128.47c7.27,14.93,18.25,29.1,33.77,35,19.85,7.54,41.85.08,63.06-.71,28.75-1.06,56.47,10.33,82,23.63s50.17,28.86,77.68,37.27,59.24,8.73,83.15-7.26c22.57-15.09,34.54-42.42,37.4-69.42s-2.2-54.13-7.23-80.81C432.83,209.3,407.33,49.41,291.77,48.17Z" style="fill:#fff"></path></g></g><g id="freepik--Shadow--inject-873"><ellipse cx="251.8" cy="436.78" rx="144" ry="13.78" style="fill:#407BFF"></ellipse><ellipse cx="251.8" cy="436.78" rx="144" ry="13.78" style="fill:#fff;opacity:0.5"></ellipse></g><g id="freepik--Plant--inject-873"><path d="M361.41,169.54c.49,4.06-1.47,10-5.67,9.55a8,8,0,0,1-2-.52c.41-3-1.4-6.39.1-9,.81-1.46,2.87-4.17,4.47-4.41C360.49,164.81,361.13,167.31,361.41,169.54Z" style="fill:#407BFF"></path><path d="M356.78,182.4c-1.4,3-3.32,5.45-7.83,5.33a5.67,5.67,0,0,1-2.84-.9,3.44,3.44,0,0,1-1.61-2.36,3.22,3.22,0,0,1,1.79-3.11,9.05,9.05,0,0,1,3.71-.92,12.44,12.44,0,0,1,4.08.42A9,9,0,0,1,356.78,182.4Z" style="fill:#407BFF"></path><path d="M346.81,171.51c4.73,5.41,9.94,10.23,14.65,15.44" style="fill:none;stroke:#407BFF;stroke-miterlimit:10"></path><path d="M376.49,186.12a10.73,10.73,0,0,1-1.71,6.52c-1.21,1.8-3,2.87-5,2.38a9.91,9.91,0,0,1-1.88-.77,14.46,14.46,0,0,0,.11-4.7,7.48,7.48,0,0,1,.59-4.46c.84-1.45,2.84-4.25,4.58-4.29C375.5,180.75,376.36,183.69,376.49,186.12Z" style="fill:#407BFF"></path><path d="M370.29,198.43a10.17,10.17,0,0,1-3.37,3.32,8.11,8.11,0,0,1-5.18.76,5,5,0,0,1-2.5-1.07,2.58,2.58,0,0,1-1.09-2.2,3.6,3.6,0,0,1,2.15-2.85,8.23,8.23,0,0,1,3.66-.67,10.07,10.07,0,0,1,3.92.81A8.81,8.81,0,0,1,370.29,198.43Z" style="fill:#407BFF"></path><path d="M361.46,187c2.39,2.57,4.58,5.3,6.72,8.06s4.06,5.7,5.85,8.71" style="fill:none;stroke:#407BFF;stroke-miterlimit:10"></path><path d="M388.94,205.73c-.61,4.38-4.4,9.2-8.26,7.49a7.68,7.68,0,0,1-1.71-1.1,8.38,8.38,0,0,0,.69-2.23c.13-.77.2-1.57.29-2.36a7.47,7.47,0,0,1,1.47-4.26c1.11-1.26,3.58-3.61,5.33-3.33C389,200.34,389.26,203.37,388.94,205.73Z" style="fill:#407BFF"></path><path d="M380.59,216.67c-2.35,2.43-4.95,4-9.13,2.51-1.79-.59-3.4-2.22-3-4a3.49,3.49,0,0,1,2.62-2.4,8.44,8.44,0,0,1,3.77,0,10.88,10.88,0,0,1,3.69,1.56A8.11,8.11,0,0,1,380.59,216.67Z" style="fill:#407BFF"></path><path d="M374,203.72a141.7,141.7,0,0,1,9.43,18.8" style="fill:none;stroke:#407BFF;stroke-miterlimit:10"></path><path d="M398,227.09a10.21,10.21,0,0,1-4,5.58c-1.8,1.21-3.85,1.5-5.53.27a8.87,8.87,0,0,1-1.46-1.41,12,12,0,0,0,1.75-4.38,7.26,7.26,0,0,1,2-4c1.26-1.08,4.08-3,5.74-2.54a2.59,2.59,0,0,1,1.78,2.36A9.5,9.5,0,0,1,398,227.09Z" style="fill:#407BFF"></path><path d="M387.65,236.28c-2.84,1.82-5.76,2.59-9.45.46-1.56-.89-2.79-2.54-2-4a4.12,4.12,0,0,1,3-1.79,7.46,7.46,0,0,1,3.63.51,9.38,9.38,0,0,1,3.31,2.14A8,8,0,0,1,387.65,236.28Z" style="fill:#407BFF"></path><path d="M383.46,222.52l2,4.89a45.61,45.61,0,0,1,1.57,4.93A76.9,76.9,0,0,1,389,242.59" style="fill:none;stroke:#407BFF;stroke-miterlimit:10"></path><path d="M401.56,251a10.65,10.65,0,0,1-5.37,4.24c-2.08.67-4.1.37-5.4-1.27a8.81,8.81,0,0,1-1-1.76c2.48-1.82,3.3-5.67,6.06-7,1.53-.68,4.79-1.8,6.23-.77C404,245.91,402.91,249,401.56,251Z" style="fill:#407BFF"></path><path d="M389,257a10.17,10.17,0,0,1-4.71.39,8.59,8.59,0,0,1-4.49-2.54c-1.26-1.26-2-3.17-.83-4.49a3.75,3.75,0,0,1,3.43-.93,8.17,8.17,0,0,1,3.34,1.63,9.88,9.88,0,0,1,2.58,3A7.65,7.65,0,0,1,389,257Z" style="fill:#407BFF"></path><path d="M389,242.59a66.44,66.44,0,0,1-.51,20.74" style="fill:none;stroke:#407BFF;stroke-miterlimit:10"></path><path d="M397.2,276a11,11,0,0,1-3.29,1.66,9.17,9.17,0,0,1-3.47.36,4.66,4.66,0,0,1-4.37-3.43,11.24,11.24,0,0,1-.22-2,11.5,11.5,0,0,0,4.11-2.31,8.51,8.51,0,0,1,4.09-2.06c1.67-.14,5.15-.2,6.14,1.35C401.55,271.6,399.3,274.38,397.2,276Z" style="fill:#407BFF"></path><path d="M383.24,276.46a9.18,9.18,0,0,1-7.4-5.82c-.71-1.55-.73-3.24.75-3.87a4.18,4.18,0,0,1,3.5.49,7.86,7.86,0,0,1,2.54,2.64,8.63,8.63,0,0,1,1.22,3.66A6.65,6.65,0,0,1,383.24,276.46Z" style="fill:#407BFF"></path><path d="M388.45,263.33a45.6,45.6,0,0,1-3.13,9.81,35.15,35.15,0,0,1-5.57,8.55" style="fill:none;stroke:#407BFF;stroke-miterlimit:10"></path><path d="M382.19,296.29a12,12,0,0,1-6.53-.94c-2-.93-3.29-2.5-3.11-4.59a7.49,7.49,0,0,1,.49-2c3,.38,6.37-1.52,9-.05a23.86,23.86,0,0,1,2.76,1.8,4,4,0,0,1,1.72,2.6C386.92,295.25,384.45,296,382.19,296.29Z" style="fill:#407BFF"></path><path d="M369.24,291.79c-3-1.44-5.33-3.44-5.33-7.82,0-1.85,1.09-4.05,3.07-4.34a3.21,3.21,0,0,1,3.15,1.74,9.2,9.2,0,0,1,1,3.68,11.91,11.91,0,0,1-.35,4.07A8.39,8.39,0,0,1,369.24,291.79Z" style="fill:#407BFF"></path><path d="M379.75,281.69c-.53.66-1.18,1.23-1.76,1.85l-1.91,1.86-3.77,3.77c-1.25,1.24-2.49,2.48-3.77,3.67-.64.59-1.28,1.18-1.94,1.75s-1.33,1.12-2,1.74" style="fill:none;stroke:#407BFF;stroke-miterlimit:10"></path><path d="M368,310.23a16.85,16.85,0,0,1-3,.09,15.82,15.82,0,0,1-3.21-.53c-2-.56-3.8-1.72-4-3.81a7.13,7.13,0,0,1,.16-2.05c3.1-.1,6.15-2.13,8.86-.66,1.47.75,4.18,2.78,4.6,4.27a1.64,1.64,0,0,1,0,1.19,1.55,1.55,0,0,1-.73.77A8.81,8.81,0,0,1,368,310.23Z" style="fill:#407BFF"></path><path d="M354.77,307.79a10.17,10.17,0,0,1-4.49-1.53c-1.27-.92-2.2-2.39-2.44-5-.22-2.17,1-5.17,3.16-5.9a2.86,2.86,0,0,1,3.39,1.29,10,10,0,0,1,1.22,3.76,17.71,17.71,0,0,1,.12,4.27A12.09,12.09,0,0,1,354.77,307.79Z" style="fill:#407BFF"></path><path d="M364.59,296.33A49,49,0,0,0,352,314" style="fill:none;stroke:#407BFF;stroke-miterlimit:10"></path><path d="M361,325.09a16.18,16.18,0,0,1-5.77,2.23c-2.12.33-4.15.06-5.24-1.75a6.09,6.09,0,0,1-.72-1.93c2.73-1.41,4.67-4.53,7.73-4.38,1.65,0,5,.69,6,1.88C364.33,322.68,362.62,324,361,325.09Z" style="fill:#407BFF"></path><path d="M348,328.5c-3.22.91-6.37,1.52-9.07-2.95a7.42,7.42,0,0,1-.87-3.46,4.84,4.84,0,0,1,1.22-3.23,2.91,2.91,0,0,1,3.65-.26,10.22,10.22,0,0,1,2.68,2.87,18.11,18.11,0,0,1,1.94,3.82,6.56,6.56,0,0,1,.31,1.6C348,327.43,348,328,348,328.5Z" style="fill:#407BFF"></path><path d="M352,314a48.69,48.69,0,0,0-3.85,21.32" style="fill:none;stroke:#407BFF;stroke-miterlimit:10"></path><path d="M433,282a10,10,0,0,1-3.12,2.1,8.5,8.5,0,0,1-3.41.74,4.62,4.62,0,0,1-4.69-3,8.67,8.67,0,0,1-.42-2,11.18,11.18,0,0,0,3.81-2.82,9.59,9.59,0,0,1,3.77-2.76c1.63-.42,5.05-1.18,6.28.33a3.76,3.76,0,0,1,.26,3.75A10.58,10.58,0,0,1,433,282Z" style="fill:#407BFF"></path><path d="M419.09,284.06a9,9,0,0,1-7.95-5.07c-.79-1.46-1.12-3.08.3-3.75a4.62,4.62,0,0,1,3.51.12,7.3,7.3,0,0,1,2.84,2.25,8.09,8.09,0,0,1,1.64,3.49A6.9,6.9,0,0,1,419.09,284.06Z" style="fill:#407BFF"></path><path d="M422.52,270.46a34.4,34.4,0,0,1-6.33,19.27" style="fill:none;stroke:#407BFF;stroke-miterlimit:10"></path><path d="M419.34,304.76a10.17,10.17,0,0,1-6.9-.76c-1.93-1-3.12-2.69-2.84-4.78a11,11,0,0,1,.56-2c3,.51,6.38-1.74,9.29-.86,1.59.53,4.82,1.84,5.11,3.65C425,302.51,421.86,304.16,419.34,304.76Z" style="fill:#407BFF"></path><path d="M406.25,300a10.2,10.2,0,0,1-3.55-3.13,8.77,8.77,0,0,1-1.27-5,4.86,4.86,0,0,1,.62-2.44,2.12,2.12,0,0,1,1.82-1.13,4,4,0,0,1,3.06,1.79,7.93,7.93,0,0,1,1.28,3.45,9.22,9.22,0,0,1-.3,3.92A7.71,7.71,0,0,1,406.25,300Z" style="fill:#407BFF"></path><path d="M416.19,289.73a47.48,47.48,0,0,1-6.75,7.89,62.71,62.71,0,0,1-8.24,6.44" style="fill:none;stroke:#407BFF;stroke-miterlimit:10"></path><path d="M399.27,319.09a10.8,10.8,0,0,1-6.11-2.87c-1.55-1.53-2.28-3.45-1.41-5.36a8.16,8.16,0,0,1,1.11-1.72c2.76,1.37,6.57.38,8.95,2.3,1.29,1.06,3.74,3.48,3.45,5.24C404.86,319,401.69,319.39,399.27,319.09Z" style="fill:#407BFF"></path><path d="M388.28,310.73c-2.4-2.35-3.89-5-2.43-9.15.63-1.74,2.15-3.37,3.9-2.94a3.64,3.64,0,0,1,2.4,2.63,8.27,8.27,0,0,1,0,3.74,10.5,10.5,0,0,1-1.54,3.71A8.58,8.58,0,0,1,388.28,310.73Z" style="fill:#407BFF"></path><path d="M401.2,304.06a103.5,103.5,0,0,1-18.84,9.47" style="fill:none;stroke:#407BFF;stroke-miterlimit:10"></path><path d="M378.47,327.88a12.27,12.27,0,0,1-5.41-3.55c-1.4-1.62-2.12-3.55-1.12-5.42a7.59,7.59,0,0,1,1.26-1.62c2.64,1.59,6.44,1.24,8.41,3.58,1.06,1.28,2.95,4.14,2.44,5.78C383.37,328.83,380.58,328.53,378.47,327.88Z" style="fill:#407BFF"></path><path d="M368.43,318.66c-2.36-2.37-4.18-4.94-2-9.29.94-1.83,3.11-3.5,5-2.93a3.24,3.24,0,0,1,2.14,2.88,8.78,8.78,0,0,1-.63,3.76,12.94,12.94,0,0,1-2.05,3.62A10.71,10.71,0,0,1,368.43,318.66Z" style="fill:#407BFF"></path><path d="M382.36,313.53c-6.56,2.61-13.46,4.79-19.87,8.34" style="fill:none;stroke:#407BFF;stroke-miterlimit:10"></path><path d="M363,336.05a19.7,19.7,0,0,1-5.78-1.68c-1.88-.9-3.52-2.24-3.4-4.36a6.3,6.3,0,0,1,.53-2,31.64,31.64,0,0,0,4.67,0,6,6,0,0,1,4.12,1.16c1.28,1.05,3.49,3.61,3.58,5.16C366.89,336.32,364.87,336.22,363,336.05Z" style="fill:#407BFF"></path><path d="M350.56,331.44a10.26,10.26,0,0,1-4.35-1.92c-1.15-1-1.91-2.75-1.59-5.56.24-2.38,2.24-5.39,4.61-5.75a2.78,2.78,0,0,1,3.13,1.91,10.42,10.42,0,0,1,.37,4,21.5,21.5,0,0,1-.72,4.33A16.83,16.83,0,0,1,350.56,331.44Z" style="fill:#407BFF"></path><path d="M362.49,321.87a40,40,0,0,0-8.88,6.53,25.75,25.75,0,0,0-6.2,9.3" style="fill:none;stroke:#407BFF;stroke-miterlimit:10"></path><path d="M325.14,442.32c-.33.08-11.85.08-12.19,0-8.45-1.86-38.46-11.72-11.41-43.65h34.63C363.2,430.59,333.6,440.46,325.14,442.32Z" style="fill:#fff;stroke:#263238;stroke-miterlimit:10"></path><path d="M336.16,398.88c0,.52-.78,1-2.15,1.43-3-.93-8.68-1.55-15.26-1.55s-12.29.62-15.25,1.55c-1.37-.42-2.15-.91-2.15-1.43,0-1.64,7.79-3,17.4-3S336.16,397.24,336.16,398.88Z" style="fill:#fff;stroke:#263238;stroke-miterlimit:10"></path><path d="M334,400.31c-3,.92-8.68,1.54-15.26,1.54s-12.29-.62-15.25-1.54c3-.93,8.68-1.55,15.25-1.55S331.05,399.38,334,400.31Z" style="fill:#263238;stroke:#263238;stroke-miterlimit:10"></path><path d="M332.09,407.92c1.21-.25,2.41-.53,3.58-.84" style="fill:#fff;stroke:#263238;stroke-miterlimit:10"></path><path d="M302.22,406.57c8.26,3,17.95,3.29,26.93,1.88" style="fill:#fff;stroke:#263238;stroke-miterlimit:10"></path><path d="M344,349.81c-3.95.33-9.42-2.15-9.25-6a7.21,7.21,0,0,1,.38-1.8c2.86.67,5.87-.91,8.57.4,1.48.74,4.41,2.5,4.71,4.16C348.77,348.78,346.15,349.63,344,349.81Z" style="fill:#407BFF"></path><path d="M331.7,344.47c-2.9-1.56-5.24-3.56-5.29-7.82,0-1.79.88-3.69,2.57-3.67a3.9,3.9,0,0,1,3,1.92,8.79,8.79,0,0,1,1.2,3.44,10.1,10.1,0,0,1-.13,3.75A7.18,7.18,0,0,1,331.7,344.47Z" style="fill:#407BFF"></path><path d="M340.84,335.79c-4,4.52-8.65,8.51-13.12,12.81" style="fill:none;stroke:#407BFF;stroke-miterlimit:10"></path><path d="M331.47,362a14.83,14.83,0,0,1-5.91-1.12c-1.87-.82-3.61-2.06-3.78-4a5.74,5.74,0,0,1,.17-1.85c2.9.29,5.76-1.27,8.39.2,1.44.79,4.18,2.77,4.59,4.28C335.46,361.53,333.37,361.94,331.47,362Z" style="fill:#407BFF"></path><path d="M318.89,358.2a11.47,11.47,0,0,1-4.38-1.83c-1.24-1-2.1-2.43-2.2-5-.1-2.14.94-4.56,2.91-4.94a3.26,3.26,0,0,1,3.2,1.61,9.79,9.79,0,0,1,1.25,3.53,13.84,13.84,0,0,1,.16,3.91A10.09,10.09,0,0,1,318.89,358.2Z" style="fill:#407BFF"></path><path d="M327.72,348.6a83.14,83.14,0,0,0-6.41,6.83,34.21,34.21,0,0,0-2.8,3.88c-.4.7-.83,1.37-1.19,2.09l-1,2.16" style="fill:none;stroke:#407BFF;stroke-miterlimit:10"></path><path d="M325.53,373.78a16,16,0,0,1-5.76,1.72c-2.07.2-4.15-.18-5.2-1.81a6.25,6.25,0,0,1-.71-1.71,20.6,20.6,0,0,0,3.66-2.27,6.08,6.08,0,0,1,3.88-1.21c1.62.11,4.93.9,6,1.95.72.71.67,1.3.22,1.83A6.64,6.64,0,0,1,325.53,373.78Z" style="fill:#407BFF"></path><path d="M312.57,376.12c-3.25.58-6.39.83-9-3.06-1.07-1.65-1.31-4.39.32-5.71a3.11,3.11,0,0,1,3.58-.07,10,10,0,0,1,2.72,2.64,14.74,14.74,0,0,1,1.95,3.4A9.46,9.46,0,0,1,312.57,376.12Z" style="fill:#407BFF"></path><path d="M316.28,363.56a46.92,46.92,0,0,0-2.81,9.05,61.23,61.23,0,0,0-1.2,9.33" style="fill:none;stroke:#407BFF;stroke-miterlimit:10"></path><path d="M324.23,389.12a14.29,14.29,0,0,1-5.08,3.37c-2,.74-4,.87-5.5-.42a5.94,5.94,0,0,1-1.14-1.46c2.33-1.77,3.28-4.92,6.22-5.64,1.59-.41,4.94-.83,6.28-.05C326.75,385.92,325.54,387.68,324.23,389.12Z" style="fill:#407BFF"></path><path d="M312.32,394.92c-2.95,1.36-6,2.3-9.43-.67-1.47-1.25-2.35-3.67-1.22-5.24a3.34,3.34,0,0,1,3.44-1,10.11,10.11,0,0,1,3.35,1.67,12.8,12.8,0,0,1,2.78,2.7A7.93,7.93,0,0,1,312.32,394.92Z" style="fill:#407BFF"></path><path d="M312.27,381.94a81.71,81.71,0,0,0,1.14,18.68" style="fill:none;stroke:#407BFF;stroke-miterlimit:10"></path><path d="M349.74,380.84c-3.95,1.22-9.87-.15-10.27-4.13a7.22,7.22,0,0,1,.12-1.92c3,.07,5.77-2.2,8.71-1.47,1.6.43,4.84,1.58,5.4,3.2C354.43,378.71,351.9,380.22,349.74,380.84Z" style="fill:#407BFF"></path><path d="M336.5,378c-3.16-1-5.81-2.56-6.51-6.85-.3-1.81.29-3.91,2-4.25a3.8,3.8,0,0,1,3.28,1.33A8.36,8.36,0,0,1,337,371.5a10.42,10.42,0,0,1,.45,3.83A7.8,7.8,0,0,1,336.5,378Z" style="fill:#407BFF"></path><path d="M344.34,367.22c-3.23,5.51-7.35,10.56-11.27,15.8" style="fill:none;stroke:#407BFF;stroke-miterlimit:10"></path><path d="M338.34,396.3a13.35,13.35,0,0,1-6.21-.11c-2.05-.55-3.79-1.66-4.14-3.64a6.25,6.25,0,0,1,0-1.93c3-.13,5.72-2.27,8.58-1.27,1.56.54,4.61,2,5.19,3.53C342.51,394.88,340.3,395.81,338.34,396.3Z" style="fill:#407BFF"></path><path d="M325.14,394.2c-3.26-.6-6.25-1.54-7.16-6.22a5.85,5.85,0,0,1,.29-3.08,3.4,3.4,0,0,1,2-2.06,3.28,3.28,0,0,1,3.38,1.17,9.1,9.1,0,0,1,1.69,3.38,13.17,13.17,0,0,1,.56,3.95A9.42,9.42,0,0,1,325.14,394.2Z" style="fill:#407BFF"></path><path d="M333.07,383a91.29,91.29,0,0,0-10.53,16.8" style="fill:none;stroke:#407BFF;stroke-miterlimit:10"></path><path d="M417.93,268.52a9.55,9.55,0,0,1,1.28-6.79c.15-.19,2.36-2.88,3.11-2.81a8.28,8.28,0,0,1,3.79,3.89,10.11,10.11,0,0,1,1.13,5.75c-.23,1.86-2.08,5.41-4.58,5.56S418.26,270.23,417.93,268.52Z" style="fill:#407BFF"></path></g><g id="freepik--Note--inject-873"><rect x="164.95" y="89.61" width="192" height="255.21" style="fill:#fff"></rect><path d="M357,345.32H165a.5.5,0,0,1-.5-.5V89.61a.5.5,0,0,1,.5-.5H357a.5.5,0,0,1,.5.5V344.82A.5.5,0,0,1,357,345.32Zm-191.5-1h191V90.11h-191Z" style="fill:#263238"></path><rect x="185.98" y="221.11" width="146.14" height="6" style="fill:#263238"></rect><rect x="213.07" y="145.54" width="119.05" height="6" style="fill:#263238"></rect><rect x="185.98" y="183.33" width="146.14" height="6" style="fill:#263238"></rect><path d="M294.57,296.67q-2.79,3-5.7,6H186v-6Z" style="fill:#263238"></path><path d="M323.28,258.89c-1.28,2-2.59,4-3.95,6H186v-6Z" style="fill:#263238"></path><path d="M237.66,337.93s-8.54,4.15-32.46,6.39H165.45" style="fill:none;stroke:#263238;stroke-linecap:round;stroke-linejoin:round"></path><path d="M352.79,199h0a15.84,15.84,0,0,0,2.6-7.43c.3-3.34.52-7.23.59-9.6l.38-13.09V197Z" style="fill:#263238"></path><path d="M355.24,195.84c0,1.22-11.18,30.7-32,63-1.28,2-2.59,4-3.95,6a273.46,273.46,0,0,1-24.76,31.78q-2.79,3-5.7,6c-14.65,14.86-31.53,27.51-50.44,34.76,1.08-.55,17.55-8.86,21.14-34.76q.4-2.85.57-6c.48-8.76-.46-19.26-3.64-31.78q-.74-2.92-1.65-6c-4.62-15.61-12.56-34.11-25.21-56l-3.26-7.1,21.3,6c95.13,22.09,107.55-6,107.55-6S355.24,195.82,355.24,195.84Z" style="fill:#fff;stroke:#263238;stroke-linecap:round;stroke-linejoin:round"></path><path d="M273.39,284.83a44.17,44.17,0,0,1-.12,5.31" style="fill:#fff;stroke:#263238;stroke-linecap:round;stroke-linejoin:round"></path><path d="M250.51,216.74c13.82,17.9,20.79,48.15,22.61,62.5" style="fill:#fff;stroke:#263238;stroke-linecap:round;stroke-linejoin:round"></path><path d="M188.12,117.43a10.06,10.06,0,1,1,0-20.11,1.5,1.5,0,0,1,0,3,7.06,7.06,0,1,0,7,7.06,1.5,1.5,0,1,1,3,0A10.06,10.06,0,0,1,188.12,117.43Z" style="fill:#263238"></path><path d="M187.88,113.28c-9.19,0-9.69-19.86-9.7-23.84v-.12c0-4,.47-24,9.7-24s9.87,21.54,9.92,24l-8,.15a48.88,48.88,0,0,0-2-13.67,48.42,48.42,0,0,0-1.64,13.48v.12a47.45,47.45,0,0,0,1.7,13.54c.09-.29.18-.61.28-1l.63-2.17,5.58,1.63a2.19,2.19,0,0,1,1.49,2.72h0C194.22,110.19,191.53,113.28,187.88,113.28Z" style="fill:#bfbfbf;stroke:#263238;stroke-linecap:round;stroke-linejoin:round"></path><path d="M196.67,108.88a1.5,1.5,0,0,1-1.5-1.5,7.06,7.06,0,0,0-7-7.06,1.5,1.5,0,0,1,0-3,10.07,10.07,0,0,1,10,10.06A1.5,1.5,0,0,1,196.67,108.88Z" style="fill:#263238"></path><path d="M235.52,117.43a10.06,10.06,0,0,1,0-20.11,1.5,1.5,0,1,1,0,3,7.06,7.06,0,1,0,7.06,7.06,1.5,1.5,0,0,1,3,0A10.07,10.07,0,0,1,235.52,117.43Z" style="fill:#263238"></path><path d="M235.29,113.28c-9.19,0-9.7-19.86-9.7-23.84v-.12c0-4,.46-24,9.7-24s9.87,21.54,9.92,24l-8,.15a48.81,48.81,0,0,0-2-13.67,48.5,48.5,0,0,0-1.63,13.48v.12A47.89,47.89,0,0,0,235.28,103c.1-.29.19-.61.29-1l.63-2.17,5.58,1.63a2.19,2.19,0,0,1,1.49,2.72h0C241.63,110.19,238.94,113.28,235.29,113.28Z" style="fill:#bfbfbf;stroke:#263238;stroke-linecap:round;stroke-linejoin:round"></path><path d="M244.08,108.88a1.5,1.5,0,0,1-1.5-1.5,7.07,7.07,0,0,0-7.06-7.06,1.5,1.5,0,0,1,0-3,10.07,10.07,0,0,1,10.06,10.06A1.5,1.5,0,0,1,244.08,108.88Z" style="fill:#263238"></path><path d="M282.93,117.43a10.06,10.06,0,0,1,0-20.11,1.5,1.5,0,0,1,0,3,7.06,7.06,0,1,0,7.06,7.06,1.5,1.5,0,0,1,3,0A10.07,10.07,0,0,1,282.93,117.43Z" style="fill:#263238"></path><path d="M282.69,113.28c-9.19,0-9.69-19.86-9.7-23.84v-.12c0-4,.47-24,9.7-24s9.88,21.54,9.92,24l-8,.15a48.88,48.88,0,0,0-2-13.67A48.42,48.42,0,0,0,281,89.32v.12a47.45,47.45,0,0,0,1.7,13.54c.09-.29.19-.61.28-1l.64-2.17,5.57,1.63a2.19,2.19,0,0,1,1.49,2.72h0C289,110.19,286.35,113.28,282.69,113.28Z" style="fill:#bfbfbf;stroke:#263238;stroke-linecap:round;stroke-linejoin:round"></path><path d="M291.49,108.88a1.5,1.5,0,0,1-1.5-1.5,7.07,7.07,0,0,0-7.06-7.06,1.5,1.5,0,0,1,0-3A10.07,10.07,0,0,1,293,107.38,1.51,1.51,0,0,1,291.49,108.88Z" style="fill:#263238"></path><path d="M330.34,117.43a10.06,10.06,0,1,1,0-20.11,1.5,1.5,0,0,1,0,3,7.06,7.06,0,1,0,7.05,7.06,1.5,1.5,0,0,1,3,0A10.06,10.06,0,0,1,330.34,117.43Z" style="fill:#263238"></path><path d="M330.1,113.28c-9.19,0-9.69-19.86-9.7-23.84v-.12c0-4,.47-24,9.7-24S340,86.9,340,89.36l-8,.15a49.26,49.26,0,0,0-2-13.67,48,48,0,0,0-1.64,13.48v.12A47.89,47.89,0,0,0,330.09,103c.1-.29.19-.61.29-1l.63-2.17,5.58,1.63a2.19,2.19,0,0,1,1.49,2.72h0C336.44,110.19,333.75,113.28,330.1,113.28Z" style="fill:#bfbfbf;stroke:#263238;stroke-linecap:round;stroke-linejoin:round"></path><path d="M338.89,108.88a1.5,1.5,0,0,1-1.5-1.5,7.06,7.06,0,0,0-7.05-7.06,1.5,1.5,0,0,1,0-3,10.07,10.07,0,0,1,10.05,10.06A1.5,1.5,0,0,1,338.89,108.88Z" style="fill:#263238"></path></g><g id="freepik--Graphic--inject-873"><circle cx="345.96" cy="333.53" r="37.53" transform="translate(-56.63 595.93) rotate(-77.05)" style="fill:#407BFF;stroke:#263238;stroke-miterlimit:10"></circle><path d="M367.85,333.53a3.49,3.49,0,0,1-3.5,3.5H349.46v14.9a3.5,3.5,0,0,1-7,0V337H327.57a3.5,3.5,0,1,1,0-7h14.89V315.14a3.5,3.5,0,0,1,7,0V330h14.89A3.5,3.5,0,0,1,367.85,333.53Z" style="fill:#fff"></path></g></svg>