<svg width="249" height="290" viewBox="0 0 249 290" fill="none" xmlns="http://www.w3.org/2000/svg">
<g clip-path="url(#clip0_1575_108834)">
<path opacity="0.1" d="M41.89 265.848C41.89 265.848 7.91951 244.543 17.702 223.142C23.4522 210.56 48.4117 215.245 45.7898 194.305C42.3481 166.847 14.9173 148.352 30.7453 124.872C47.0435 100.697 87.7406 129.533 127.516 103.95C153.192 87.4382 198.886 78.1996 215.45 104.454C231.272 129.533 199.646 157.435 222.604 176.17C245.569 194.911 271.866 223.184 213.816 256.501C155.766 289.819 109.289 264.092 109.289 264.092" fill="white"/>
<g opacity="0.8">
<path d="M63.8815 224.705C65.3992 225.855 65.6169 227.76 65.6169 227.76C65.6169 227.76 63.8471 227.691 62.4324 226.255C62.0201 225.837 61.98 225.185 62.3809 224.756C62.7818 224.327 63.4175 224.35 63.8815 224.705Z" fill="white"/>
<path d="M60.1414 218.67C60.4851 218.195 61.1151 218.138 61.6248 218.43C62.6386 219.013 63.2056 219.94 63.492 220.569C63.0109 219.145 62.5126 217.732 61.9742 216.33C61.8081 215.89 62.4782 215.604 62.6443 216.044C62.7474 216.307 62.839 216.57 62.9364 216.828C62.8906 216.393 62.9192 215.844 63.1598 215.3C63.3201 214.94 63.6867 214.723 64.059 214.848C64.4313 214.974 64.6203 215.369 64.5114 215.747C64.2079 216.805 63.4805 217.4 63.217 217.589C63.7268 218.967 64.2022 220.357 64.6546 221.759C64.5515 221.09 64.5286 220.146 64.9524 219.213C65.193 218.681 65.7314 218.367 66.2812 218.55C66.831 218.733 67.1059 219.322 66.9456 219.877C66.453 221.605 65.193 222.497 64.9353 222.663C65.319 223.881 65.6856 225.111 66.0235 226.341C66.0693 226.513 66.1151 226.69 66.1609 226.862C66.0521 226.027 66.0578 224.9 66.5561 223.784C66.8597 223.115 67.5412 222.709 68.2457 222.937C68.9444 223.172 69.2938 223.916 69.0934 224.625C68.4404 226.908 66.7279 228.046 66.5103 228.183C66.7566 229.144 66.9857 230.105 67.2033 231.072C67.2319 230.472 67.358 229.819 67.65 229.167C67.9536 228.498 68.6352 228.092 69.3339 228.321C70.0326 228.555 70.382 229.299 70.1816 230.008C69.5974 232.045 68.1712 233.172 67.7188 233.486C67.9479 234.625 68.1655 235.763 68.3602 236.902C68.4347 237.325 68.4977 237.754 68.5664 238.183C68.5836 237.668 68.6982 237.016 69.0819 236.415C69.3282 236.026 69.7864 235.838 70.1987 236.044C70.6111 236.249 70.76 236.741 70.571 237.159C70.0097 238.418 68.9616 238.984 68.7039 239.11C68.8872 240.374 69.0533 241.644 69.1964 242.914C69.248 243.383 68.5263 243.486 68.4748 243.023C68.303 241.478 68.0911 239.934 67.8562 238.4C67.4897 238.481 66.3957 238.646 65.2331 238.069C64.8207 237.863 64.6203 237.394 64.8093 236.97C64.9983 236.553 65.4736 236.404 65.9089 236.547C66.9055 236.873 67.524 237.64 67.8047 238.063C67.5011 236.158 67.1575 234.264 66.7508 232.377C66.7394 232.331 66.7279 232.285 66.7222 232.239C66.579 232.234 64.9066 232.108 63.5492 230.735C63.1369 230.317 63.0968 229.665 63.4977 229.236C63.8986 228.807 64.5343 228.83 64.9983 229.184C65.8803 229.854 66.3213 230.769 66.5389 231.427C65.8345 228.263 64.9925 225.134 64.0017 222.051C63.9158 221.776 63.8184 221.507 63.7268 221.238C63.5206 221.25 61.8826 221.319 60.3934 220.152C59.9238 219.791 59.7978 219.145 60.1414 218.67Z" fill="white"/>
<path d="M52.4724 235.592C51.9283 236.049 50.3418 237.302 48.2284 238.275C45.5996 239.487 43.1654 239.814 43.1654 239.814C43.1654 239.814 44.9867 238.166 47.6156 236.953C49.6316 236.021 51.5331 235.615 52.3063 235.477C51.6534 235.002 51.0005 234.533 50.3304 234.081C50.044 234.333 48.6465 235.5 46.7164 236.393C44.5457 237.394 42.5354 237.663 42.5354 237.663C42.5354 237.663 44.0417 236.301 46.2067 235.3C48.0738 234.436 49.8149 234.121 50.2731 234.047C49.4312 233.475 48.5778 232.926 47.713 232.394C47.2949 232.72 46.5389 233.258 45.5938 233.692C44.1276 234.373 42.7645 234.551 42.7645 234.551C42.7645 234.551 43.784 233.63 45.2502 232.949C46.0921 232.56 46.894 232.337 47.4266 232.217C46.9799 231.942 46.5331 231.662 46.0749 231.398C45.7256 231.198 45.7084 230.649 45.9317 230.357C46.2009 230.003 46.6248 230.014 46.9741 230.214C48.0337 230.826 49.0704 231.473 50.0956 232.142C49.8149 231.393 49.4083 230.128 49.2021 228.664C48.8756 226.301 49.2135 224.299 49.2135 224.299C49.2135 224.299 50.0727 226.135 50.3991 228.498C50.6282 230.163 50.5308 231.639 50.4507 232.377C51.3384 232.96 52.2147 233.561 53.0738 234.19C52.8791 233.189 52.5927 231.261 52.6958 229.07C52.8504 225.861 53.784 223.304 53.784 223.304C53.784 223.304 54.4713 225.941 54.3167 229.15C54.2021 231.524 53.6637 233.544 53.3888 234.436C53.9272 234.831 54.4598 235.231 54.9868 235.643C55.0154 234.511 55.1643 232.4 55.7829 230.094C56.6993 226.679 58.3029 224.145 58.3029 224.145C58.3029 224.145 58.4232 227.142 57.5068 230.558C56.8539 232.995 55.8459 234.98 55.3247 235.918C55.8974 236.37 56.4587 236.827 57.0143 237.296C57.2548 236.141 57.7416 234.236 58.6523 232.239C60.1185 229.019 62.1174 226.782 62.1174 226.782C62.1174 226.782 61.7451 229.762 60.2789 232.977C59.3281 235.071 58.1483 236.747 57.4381 237.668C57.8848 238.052 58.3373 238.435 58.7726 238.835C59.6202 238.012 61.0864 236.707 62.9593 235.563C65.9776 233.715 68.8872 232.977 68.8872 232.977C68.8872 232.977 66.9112 235.237 63.8929 237.085C62.1117 238.177 60.3762 238.875 59.2422 239.27C59.7634 239.745 60.2732 240.225 60.7772 240.717C61.7165 240.157 63.6466 239.104 66.0292 238.378C69.4141 237.342 72.421 237.359 72.421 237.359C72.421 237.359 69.941 239.053 66.5561 240.082C64.3339 240.763 62.2835 240.986 61.1323 241.061C61.4816 241.404 61.8367 241.747 62.1804 242.102C62.3751 242.302 62.5584 242.502 62.7474 242.703C63.8585 242.285 65.7027 241.69 67.839 241.392C71.3442 240.9 74.311 241.387 74.311 241.387C74.311 241.387 71.5962 242.668 68.0911 243.16C66.2354 243.418 64.5401 243.406 63.3488 243.337C63.807 243.835 64.2594 244.339 64.7062 244.842C65.8459 244.745 67.9364 244.659 70.2617 245.002C73.7612 245.523 76.4702 246.827 76.4702 246.827C76.4702 246.827 73.5034 247.285 69.9983 246.764C68.1197 246.484 66.4817 245.98 65.3534 245.574C66.2411 246.615 67.0888 247.685 67.9192 248.772C69.0876 248.938 71.0349 249.304 73.1083 250.088C76.4187 251.346 78.7784 253.194 78.7784 253.194C78.7784 253.194 75.7772 253.011 72.4725 251.753C71.0407 251.209 69.7864 250.551 68.8242 249.985C70.5939 252.422 72.2148 254.968 73.6695 257.605C75.4164 260.786 76.917 264.098 78.1484 267.513C78.4748 268.411 77.1003 269.006 76.7795 268.102C74.6203 262.113 71.6306 256.438 67.925 251.261C67.8677 251.181 67.8047 251.106 67.7474 251.026C67.6901 251.93 67.5355 253.309 67.1117 254.796C66.3843 257.365 65.1472 259.258 65.1472 259.258C65.1472 259.258 65.0899 256.993 65.8116 254.43C66.2927 252.731 66.9914 251.335 67.4152 250.58C66.3843 249.178 65.3075 247.822 64.1792 246.501C64.1621 247.353 64.0475 249.367 63.4232 251.581C62.5928 254.51 61.1838 256.672 61.1838 256.672C61.1838 256.672 61.1151 254.087 61.9456 251.163C62.6099 248.818 63.6466 246.964 64.0303 246.318C63.4003 245.586 62.7588 244.859 62.0945 244.15C62.0486 245.305 61.8711 247.445 61.2067 249.773C60.2273 253.24 58.5549 255.797 58.5549 255.797C58.5549 255.797 58.4748 252.742 59.4541 249.276C60.1643 246.764 61.2354 244.733 61.7737 243.807C61.1552 243.154 60.5252 242.514 59.878 241.884C59.6832 242.708 59.0876 244.911 57.8447 247.222C56.2697 250.139 54.2594 252.113 54.2594 252.113C54.2594 252.113 54.7978 249.35 56.3728 246.432C57.6386 244.081 59.1907 242.348 59.7462 241.759C59.1563 241.187 58.5549 240.62 57.9478 240.071C57.8046 240.494 56.9398 242.926 55.2044 245.397C53.2972 248.109 51.0692 249.83 51.0692 249.83C51.0692 249.83 51.9283 247.147 53.8356 244.436C55.5767 241.959 57.5813 240.311 57.9192 240.042C57.3293 239.505 56.7279 238.978 56.1151 238.463C55.8459 238.893 54.4713 241.038 52.2663 243.023C49.8035 245.242 47.2433 246.421 47.2433 246.421C47.2433 246.421 48.6809 244.001 51.1437 241.781C53.3315 239.808 55.5939 238.658 56.0692 238.429C55.697 238.115 55.3247 237.794 54.9467 237.485C54.6889 237.279 54.4255 237.079 54.162 236.879C53.5721 237.52 52.2834 238.807 50.5366 239.951C48.1139 241.535 45.7485 242.205 45.7485 242.205C45.7485 242.205 47.3121 240.311 49.7347 238.732C51.4014 237.645 53.0395 236.988 53.8986 236.684C53.4346 236.313 52.9593 235.946 52.4724 235.592Z" fill="white"/>
<path d="M33.9265 278.195C36.3302 276.442 39.3013 276.964 39.3013 276.964C39.3013 276.964 38.4055 279.582 35.6136 281.065C34.7999 281.498 33.7996 281.259 33.3367 280.469C32.8664 279.678 33.18 278.739 33.9265 278.195Z" fill="white"/>
<path d="M23.1769 281.095C22.6171 280.371 22.8111 279.395 23.4755 278.761C24.8043 277.501 26.4541 277.068 27.5291 276.927C25.1776 277.009 22.8261 277.12 20.482 277.299C19.7504 277.359 19.6161 276.218 20.3477 276.166C20.7881 276.136 21.2211 276.114 21.6615 276.084C20.9897 275.957 20.176 275.674 19.4668 275.063C18.9965 274.66 18.8397 274.011 19.1906 273.512C19.5414 273.005 20.2282 272.908 20.7433 273.236C22.1915 274.16 22.7664 275.525 22.9306 276.002C25.2298 275.86 27.5366 275.763 29.8433 275.719C28.7907 275.577 27.3649 275.182 26.148 274.131C25.4613 273.534 25.2224 272.58 25.7449 271.841C26.2675 271.096 27.2753 270.947 28.0367 271.439C30.4106 272.952 31.187 275.241 31.3214 275.704C33.3295 275.681 35.3376 275.681 37.3383 275.726C37.6219 275.734 37.8981 275.749 38.1818 275.756C36.8754 275.547 35.1808 275.025 33.7326 273.78C32.8592 273.027 32.5606 271.819 33.225 270.872C33.8894 269.925 35.1659 269.739 36.1364 270.365C39.2717 272.371 40.2123 275.45 40.3243 275.838C41.877 275.905 43.4223 275.987 44.9751 276.092C44.0867 275.778 43.161 275.301 42.3175 274.57C41.4441 273.817 41.1455 272.609 41.8099 271.662C42.4742 270.716 43.7508 270.529 44.7212 271.155C47.5207 272.945 48.5732 275.584 48.842 276.412C50.6485 276.576 52.4626 276.763 54.2617 276.986C54.9335 277.068 55.6054 277.158 56.2772 277.255C55.5158 277.001 54.5901 276.531 53.8511 275.689C53.3808 275.145 53.2987 274.369 53.7914 273.847C54.284 273.325 55.0903 273.318 55.6352 273.788C57.2701 275.197 57.6583 277.016 57.7255 277.463C59.7112 277.754 61.6894 278.075 63.6602 278.433C64.3843 278.567 64.2201 279.7 63.496 279.566C61.0997 279.126 58.6885 278.753 56.2698 278.418C56.225 278.999 55.9786 280.722 54.5976 282.198C54.1049 282.728 53.3061 282.81 52.7537 282.34C52.2087 281.87 52.2013 281.095 52.6119 280.498C53.545 279.149 54.9783 278.567 55.7397 278.336C52.7462 277.933 49.7378 277.605 46.7219 277.359C46.6472 277.352 46.5726 277.352 46.4979 277.344C46.4233 277.56 45.4902 280.006 42.8176 281.423C42.0039 281.855 41.0036 281.617 40.5408 280.826C40.0779 280.036 40.3915 279.096 41.138 278.552C42.534 277.531 44.1166 277.285 45.199 277.255C40.1302 276.897 35.0465 276.748 29.9702 276.852C29.5223 276.86 29.0744 276.889 28.6265 276.897C28.5518 277.21 27.9173 279.693 25.4986 281.4C24.7595 281.922 23.7368 281.818 23.1769 281.095Z" fill="white"/>
</g>
<g opacity="0.8">
<path d="M192.874 224.705C191.356 225.855 191.138 227.76 191.138 227.76C191.138 227.76 192.908 227.691 194.323 226.255C194.735 225.837 194.775 225.185 194.374 224.756C193.973 224.327 193.338 224.35 192.874 224.705Z" fill="white"/>
<path d="M196.614 218.67C196.27 218.195 195.64 218.138 195.13 218.43C194.117 219.013 193.55 219.94 193.263 220.569C193.744 219.145 194.243 217.732 194.781 216.33C194.947 215.89 194.277 215.604 194.111 216.044C194.008 216.307 193.916 216.57 193.819 216.828C193.865 216.393 193.836 215.844 193.596 215.3C193.435 214.94 193.069 214.723 192.696 214.848C192.324 214.974 192.135 215.369 192.244 215.747C192.547 216.805 193.275 217.4 193.538 217.589C193.028 218.967 192.553 220.357 192.101 221.759C192.204 221.09 192.227 220.146 191.803 219.213C191.562 218.681 191.024 218.367 190.474 218.55C189.924 218.733 189.649 219.322 189.81 219.877C190.302 221.605 191.562 222.497 191.82 222.663C191.436 223.881 191.07 225.111 190.732 226.341C190.686 226.513 190.64 226.69 190.594 226.862C190.703 226.027 190.697 224.9 190.199 223.784C189.896 223.115 189.214 222.709 188.51 222.937C187.811 223.172 187.461 223.916 187.662 224.625C188.315 226.908 190.027 228.046 190.245 228.183C189.999 229.144 189.77 230.105 189.552 231.072C189.523 230.472 189.397 229.819 189.105 229.167C188.802 228.498 188.12 228.092 187.416 228.321C186.717 228.555 186.368 229.299 186.568 230.008C187.152 232.045 188.578 233.172 189.031 233.486C188.802 234.625 188.584 235.763 188.389 236.902C188.315 237.325 188.252 237.754 188.183 238.183C188.166 237.668 188.051 237.016 187.668 236.415C187.421 236.026 186.963 235.838 186.551 236.044C186.138 236.249 185.99 236.741 186.179 237.159C186.74 238.418 187.788 238.984 188.046 239.11C187.862 240.374 187.696 241.644 187.553 242.914C187.502 243.383 188.223 243.486 188.275 243.023C188.447 241.478 188.658 239.934 188.893 238.4C189.26 238.481 190.354 238.646 191.516 238.069C191.929 237.863 192.129 237.394 191.94 236.97C191.751 236.553 191.276 236.404 190.841 236.547C189.844 236.873 189.226 237.64 188.945 238.063C189.248 236.158 189.592 234.264 189.999 232.377C190.01 232.331 190.022 232.285 190.027 232.239C190.171 232.234 191.843 232.108 193.2 230.735C193.613 230.317 193.653 229.665 193.252 229.236C192.851 228.807 192.215 228.83 191.751 229.184C190.869 229.854 190.428 230.769 190.211 231.427C190.915 228.263 191.757 225.134 192.748 222.051C192.834 221.776 192.931 221.507 193.023 221.238C193.229 221.25 194.867 221.319 196.356 220.152C196.831 219.791 196.957 219.145 196.614 218.67Z" fill="white"/>
<path d="M222.731 214.517C223.55 215.203 225.944 217.091 229.117 218.556C233.069 220.386 236.74 220.867 236.74 220.867C236.74 220.867 233.997 218.39 230.045 216.559C227.009 215.158 224.146 214.545 222.983 214.334C223.962 213.619 224.947 212.915 225.955 212.234C226.391 212.612 228.493 214.368 231.391 215.707C234.655 217.217 237.685 217.617 237.685 217.617C237.685 217.617 235.423 215.569 232.158 214.059C229.352 212.761 226.723 212.286 226.041 212.177C227.307 211.319 228.596 210.495 229.902 209.694C230.537 210.186 231.671 210.993 233.097 211.651C235.308 212.675 237.359 212.944 237.359 212.944C237.359 212.944 235.824 211.559 233.613 210.535C232.341 209.946 231.144 209.614 230.337 209.431C231.013 209.019 231.683 208.602 232.37 208.201C232.897 207.898 232.92 207.069 232.588 206.628C232.181 206.096 231.54 206.107 231.013 206.411C229.42 207.332 227.857 208.31 226.316 209.311C226.74 208.184 227.353 206.285 227.656 204.071C228.143 200.513 227.645 197.504 227.645 197.504C227.645 197.504 226.351 200.267 225.858 203.825C225.514 206.331 225.663 208.556 225.778 209.66C224.443 210.541 223.12 211.445 221.826 212.389C222.118 210.884 222.548 207.984 222.393 204.683C222.164 199.855 220.755 195.999 220.755 195.999C220.755 195.999 219.724 199.969 219.953 204.797C220.125 208.373 220.938 211.411 221.351 212.749C220.543 213.344 219.735 213.945 218.945 214.563C218.899 212.858 218.682 209.683 217.748 206.21C216.368 201.073 213.951 197.252 213.951 197.252C213.951 197.252 213.773 201.765 215.148 206.903C216.133 210.575 217.645 213.561 218.43 214.974C217.57 215.655 216.723 216.342 215.887 217.051C215.526 215.306 214.793 212.446 213.424 209.437C211.219 204.591 208.212 201.222 208.212 201.222C208.212 201.222 208.773 205.701 210.978 210.547C212.41 213.699 214.186 216.222 215.251 217.6C214.575 218.178 213.899 218.756 213.241 219.351C211.963 218.109 209.753 216.147 206.946 214.425C202.404 211.639 198.023 210.53 198.023 210.53C198.023 210.53 201.001 213.928 205.537 216.714C208.218 218.355 210.835 219.414 212.536 220.009C211.757 220.724 210.984 221.45 210.222 222.188C208.813 221.347 205.904 219.763 202.318 218.67C197.227 217.114 192.702 217.137 192.702 217.137C192.702 217.137 196.436 219.683 201.534 221.239C204.879 222.257 207.966 222.6 209.701 222.709C209.174 223.229 208.641 223.744 208.12 224.276C207.828 224.574 207.553 224.883 207.267 225.186C205.589 224.557 202.822 223.664 199.604 223.212C194.329 222.474 189.867 223.201 189.867 223.201C189.867 223.201 193.956 225.129 199.231 225.872C202.021 226.261 204.575 226.244 206.368 226.136C205.675 226.879 204.993 227.64 204.323 228.401C202.605 228.252 199.466 228.121 195.961 228.641C190.692 229.425 186.62 231.387 186.62 231.387C186.62 231.387 191.087 232.079 196.356 231.296C199.18 230.878 201.654 230.117 203.344 229.505C202.009 231.072 200.726 232.68 199.483 234.316C197.725 234.562 194.793 235.117 191.671 236.301C186.694 238.195 183.132 240.981 183.132 240.981C183.132 240.981 187.645 240.7 192.622 238.813C194.775 237.994 196.665 237.005 198.114 236.152C195.451 239.819 193.006 243.652 190.818 247.622C188.183 252.405 185.932 257.393 184.077 262.53C183.59 263.886 185.652 264.773 186.138 263.417C189.386 254.401 193.888 245.86 199.466 238.069C199.552 237.949 199.644 237.834 199.73 237.714C199.816 239.07 200.05 241.152 200.686 243.389C201.78 247.251 203.641 250.105 203.641 250.105C203.641 250.105 203.733 246.701 202.639 242.834C201.917 240.277 200.864 238.178 200.228 237.039C201.774 234.934 203.401 232.886 205.096 230.901C205.125 232.182 205.297 235.214 206.236 238.549C207.485 242.96 209.609 246.215 209.609 246.215C209.609 246.215 209.712 242.325 208.464 237.92C207.467 234.39 205.909 231.604 205.325 230.632C206.276 229.528 207.244 228.435 208.241 227.371C208.309 229.11 208.578 232.331 209.575 235.838C211.053 241.055 213.567 244.905 213.567 244.905C213.567 244.905 213.687 240.306 212.21 235.088C211.139 231.313 209.529 228.258 208.722 226.851C209.649 225.867 210.606 224.906 211.574 223.962C211.866 225.203 212.765 228.521 214.638 231.993C217.003 236.387 220.033 239.35 220.033 239.35C220.033 239.35 219.226 235.191 216.855 230.798C214.947 227.257 212.611 224.648 211.774 223.767C212.662 222.903 213.567 222.057 214.483 221.227C214.701 221.862 216.001 225.523 218.607 229.242C221.477 233.326 224.833 235.918 224.833 235.918C224.833 235.918 223.538 231.885 220.669 227.8C218.052 224.07 215.033 221.593 214.523 221.193C215.417 220.386 216.322 219.591 217.238 218.819C217.639 219.471 219.718 222.692 223.034 225.678C226.746 229.019 230.595 230.792 230.595 230.792C230.595 230.792 228.43 227.148 224.724 223.807C221.425 220.838 218.023 219.111 217.307 218.762C217.868 218.287 218.43 217.806 219.002 217.343C219.386 217.028 219.787 216.736 220.182 216.428C221.07 217.389 223.011 219.334 225.64 221.05C229.289 223.43 232.845 224.442 232.845 224.442C232.845 224.442 230.491 221.593 226.843 219.214C224.335 217.577 221.872 216.588 220.577 216.13C221.288 215.604 222.003 215.055 222.731 214.517Z" fill="white"/>
<path d="M223.035 279.42C220.565 277.619 217.512 278.156 217.512 278.156C217.512 278.156 218.432 280.845 221.301 282.37C222.137 282.814 223.165 282.569 223.641 281.757C224.124 280.945 223.802 279.979 223.035 279.42Z" fill="white"/>
<path d="M234.08 282.401C234.656 281.658 234.456 280.654 233.774 280.003C232.408 278.708 230.713 278.263 229.608 278.118C232.025 278.202 234.441 278.317 236.85 278.501C237.601 278.562 237.739 277.39 236.988 277.336C236.535 277.305 236.09 277.283 235.638 277.252C236.328 277.122 237.164 276.83 237.893 276.202C238.376 275.788 238.537 275.122 238.177 274.608C237.816 274.087 237.11 273.988 236.581 274.325C235.093 275.275 234.502 276.677 234.334 277.168C231.971 277.022 229.601 276.922 227.23 276.876C228.312 276.731 229.777 276.325 231.027 275.244C231.733 274.631 231.979 273.651 231.442 272.892C230.905 272.126 229.869 271.973 229.087 272.478C226.647 274.034 225.849 276.386 225.711 276.861C223.648 276.838 221.584 276.838 219.529 276.884C219.237 276.892 218.953 276.907 218.662 276.915C220.004 276.7 221.745 276.164 223.234 274.884C224.131 274.11 224.438 272.869 223.755 271.896C223.073 270.923 221.761 270.732 220.764 271.375C217.542 273.436 216.575 276.601 216.46 276.999C214.865 277.068 213.277 277.152 211.681 277.26C212.594 276.938 213.545 276.447 214.412 275.696C215.309 274.923 215.616 273.681 214.934 272.708C214.251 271.735 212.939 271.544 211.942 272.187C209.065 274.026 207.984 276.739 207.707 277.589C205.851 277.758 203.987 277.949 202.138 278.179C201.448 278.263 200.758 278.355 200.067 278.455C200.85 278.194 201.801 277.712 202.56 276.846C203.044 276.286 203.128 275.49 202.622 274.953C202.115 274.417 201.287 274.409 200.727 274.892C199.047 276.34 198.648 278.21 198.579 278.669C196.539 278.968 194.506 279.298 192.481 279.665C191.736 279.803 191.905 280.968 192.649 280.83C195.112 280.378 197.589 279.995 200.075 279.65C200.121 280.248 200.374 282.018 201.793 283.535C202.299 284.079 203.12 284.163 203.688 283.68C204.248 283.198 204.256 282.401 203.834 281.788C202.875 280.401 201.402 279.803 200.619 279.566C203.696 279.152 206.787 278.815 209.886 278.562C209.963 278.554 210.039 278.554 210.116 278.547C210.193 278.769 211.152 281.282 213.898 282.738C214.734 283.182 215.762 282.937 216.238 282.125C216.713 281.313 216.391 280.347 215.624 279.788C214.189 278.738 212.563 278.485 211.451 278.455C216.66 278.087 221.884 277.934 227.1 278.041C227.56 278.049 228.02 278.079 228.481 278.087C228.557 278.409 229.209 280.96 231.695 282.715C232.454 283.251 233.505 283.144 234.08 282.401Z" fill="white"/>
</g>
<path d="M128.068 204.248L128.796 198.739C129.185 195.799 127.307 193.413 124.603 193.413H80.5367L79.1049 204.248L78.2228 210.935L69.9468 273.52C69.0476 280.339 73.3946 285.865 79.6604 285.865H175.858C182.124 285.865 187.937 280.339 188.836 273.52L198 204.254H128.068V204.248Z" fill="#C0C2CA"/>
<path d="M162.96 217.926C142.633 205.936 122.307 193.939 101.98 181.949C131.087 166.114 116.281 124.382 145.388 108.547C165.715 120.537 186.041 132.534 206.368 144.524C177.267 160.353 192.066 202.091 162.96 217.926Z" fill="white"/>
<path d="M149.569 168.917C141.717 164.284 133.865 159.65 126.012 155.022C129.953 140.634 131.986 125.12 143.51 115.206C151.362 119.84 159.214 124.474 167.066 129.102C155.543 139.015 153.51 154.53 149.569 168.917Z" fill="#D9D9D9"/>
<path d="M193.796 148.752C185.48 143.844 177.164 138.941 168.848 134.033C169.632 133.203 170.468 132.402 171.356 131.63C179.672 136.538 187.988 141.441 196.305 146.349C195.411 147.116 194.575 147.917 193.796 148.752Z" fill="#FEAE1A"/>
<path d="M179.397 145.851C174.856 143.168 170.308 140.491 165.766 137.808C166.178 137.224 166.614 136.647 167.066 136.086C171.608 138.769 176.156 141.446 180.697 144.129C180.245 144.69 179.81 145.262 179.397 145.851Z" fill="#868686"/>
<path d="M138.618 166.606C134.076 163.923 129.529 161.246 124.987 158.563C125.205 157.859 125.411 157.156 125.611 156.44C130.153 159.123 134.701 161.801 139.243 164.484C139.042 165.199 138.836 165.902 138.618 166.606Z" fill="#868686"/>
<path d="M147.914 174.432C140.062 169.798 132.209 165.164 124.357 160.536C124.472 160.187 124.586 159.838 124.695 159.489C132.547 164.123 140.4 168.757 148.252 173.385C148.143 173.739 148.034 174.088 147.914 174.432Z" fill="#D9D9D9"/>
<path d="M147.244 176.376C139.391 171.743 131.539 167.109 123.687 162.481C123.813 162.138 123.933 161.794 124.048 161.451C131.9 166.085 139.752 170.719 147.605 175.347C147.49 175.69 147.37 176.033 147.244 176.376Z" fill="#D9D9D9"/>
<path d="M188.481 156.075C180.165 151.166 171.849 146.264 163.532 141.355C163.653 141.138 163.779 140.921 163.905 140.703C172.221 145.611 180.537 150.514 188.853 155.422C188.727 155.64 188.601 155.857 188.481 156.075Z" fill="#D9D9D9"/>
<path d="M186.688 159.632C178.372 154.724 170.056 149.821 161.74 144.913C161.843 144.684 161.952 144.455 162.055 144.227C170.371 149.135 178.687 154.038 187.003 158.946C186.9 159.175 186.791 159.403 186.688 159.632Z" fill="#D9D9D9"/>
<path d="M185.159 163.346C176.843 158.437 168.527 153.535 160.211 148.626C160.302 148.386 160.388 148.151 160.48 147.911C168.796 152.819 177.112 157.722 185.428 162.63C185.342 162.871 185.251 163.105 185.159 163.346Z" fill="#D9D9D9"/>
<path d="M183.842 167.184C175.526 162.276 167.209 157.373 158.893 152.465C158.973 152.219 159.048 151.973 159.128 151.732C167.444 156.641 175.761 161.543 184.077 166.452C184.002 166.692 183.922 166.938 183.842 167.184Z" fill="#D9D9D9"/>
<path d="M182.685 171.108C174.369 166.2 166.053 161.297 157.736 156.389C157.805 156.137 157.874 155.891 157.948 155.64C166.264 160.548 174.581 165.451 182.897 170.359C182.822 170.611 182.754 170.862 182.685 171.108Z" fill="#D9D9D9"/>
<path d="M181.625 175.101C173.309 170.193 164.993 165.29 156.677 160.382C156.74 160.13 156.808 159.879 156.871 159.621C165.188 164.529 173.504 169.432 181.82 174.34C181.757 174.592 181.688 174.85 181.625 175.101Z" fill="#D9D9D9"/>
<path d="M180.617 179.117C172.301 174.209 163.985 169.306 155.669 164.398C155.732 164.146 155.795 163.888 155.858 163.637C164.174 168.545 172.49 173.448 180.806 178.356C180.743 178.613 180.68 178.865 180.617 179.117Z" fill="#D9D9D9"/>
<path d="M179.609 183.138C171.293 178.23 162.977 173.327 154.661 168.419C154.724 168.167 154.792 167.916 154.855 167.658C163.172 172.567 171.488 177.469 179.804 182.377C179.735 182.629 179.672 182.887 179.609 183.138Z" fill="#D9D9D9"/>
<path d="M178.544 187.12C170.228 182.212 161.912 177.309 153.595 172.401C153.664 172.149 153.733 171.903 153.802 171.651C162.118 176.56 170.434 181.462 178.75 186.371C178.681 186.622 178.613 186.868 178.544 187.12Z" fill="#D9D9D9"/>
<path d="M177.364 191.039C169.048 186.131 160.732 181.228 152.416 176.32C152.496 176.074 152.57 175.828 152.65 175.588C160.967 180.496 169.283 185.399 177.599 190.307C177.519 190.553 177.444 190.793 177.364 191.039Z" fill="#D9D9D9"/>
<path d="M176.024 194.86C167.708 189.952 159.391 185.049 151.075 180.141C151.167 179.901 151.253 179.666 151.345 179.426C159.661 184.334 167.977 189.237 176.293 194.145C176.207 194.385 176.115 194.626 176.024 194.86Z" fill="#D9D9D9"/>
<path d="M174.466 198.556C166.15 193.648 157.834 188.745 149.517 183.837C149.626 183.608 149.729 183.379 149.832 183.15C158.149 188.059 166.465 192.961 174.781 197.87C174.678 198.099 174.575 198.333 174.466 198.556Z" fill="#D9D9D9"/>
<path d="M76.98 232.319H162.736L171.791 137.099H86.035L76.98 232.319Z" fill="#D9D9D9"/>
<path d="M75.4336 232.01H161.184L168.847 134.295H83.0911L75.4336 232.01Z" fill="#FE811A"/>
<path d="M73.8185 228.858H160.852L167.232 131.144H91.3615L73.8185 228.858Z" fill="#FEAE1A"/>
<path d="M161.625 232.228H75.8746V139.318L86.2011 129.004H161.625V232.228Z" fill="white"/>
<path d="M114.907 137.099H81.7795V189.374H114.907V137.099Z" fill="#D9D9D9"/>
<path d="M112.576 139.124L83.8872 187.035" stroke="white" stroke-miterlimit="10" stroke-linecap="round" stroke-linejoin="round"/>
<path d="M83.8872 139.124L112.576 187.035" stroke="white" stroke-miterlimit="10" stroke-linecap="round" stroke-linejoin="round"/>
<path d="M156.018 137.099H120.938V141.143H156.018V137.099Z" fill="#FEAE1A"/>
<path d="M140.107 144.381H120.938V146.978H140.107V144.381Z" fill="#868686"/>
<path d="M100.949 191.102H81.7795V193.699H100.949V191.102Z" fill="#868686"/>
<path d="M114.907 194.843H81.7795V196.141H114.907V194.843Z" fill="#D9D9D9"/>
<path d="M114.907 197.28H81.7795V198.579H114.907V197.28Z" fill="#D9D9D9"/>
<path d="M156.018 151.143H120.938V152.052H156.018V151.143Z" fill="#D9D9D9"/>
<path d="M156.018 155.948H120.938V156.858H156.018V155.948Z" fill="#D9D9D9"/>
<path d="M156.018 160.76H120.938V161.669H156.018V160.76Z" fill="#D9D9D9"/>
<path d="M156.018 165.57H120.938V166.48H156.018V165.57Z" fill="#D9D9D9"/>
<path d="M156.018 170.382H120.938V171.291H156.018V170.382Z" fill="#D9D9D9"/>
<path d="M156.018 175.187H120.938V176.096H156.018V175.187Z" fill="#D9D9D9"/>
<path d="M156.018 179.998H120.938V180.908H156.018V179.998Z" fill="#D9D9D9"/>
<path d="M156.018 184.809H120.938V185.718H156.018V184.809Z" fill="#D9D9D9"/>
<path d="M156.018 189.62H120.938V190.53H156.018V189.62Z" fill="#D9D9D9"/>
<path d="M156.018 194.432H120.938V195.341H156.018V194.432Z" fill="#D9D9D9"/>
<path d="M156.018 199.236H120.938V200.146H156.018V199.236Z" fill="#D9D9D9"/>
<path d="M156.018 204.048H120.938V204.957H156.018V204.048Z" fill="#D9D9D9"/>
<path d="M161.608 210.821L118.973 208.744V205.014C118.973 201.845 116.402 199.271 113.229 199.265L75.8746 199.208V205.764L123.693 227.703" fill="#C0C2CA"/>
<path d="M117.272 210.93V205.873C117.272 203.173 115.079 200.987 112.381 200.987H68.3145V210.936V217.074V274.532C68.3145 280.791 73.3947 285.865 79.6604 285.865H175.858C182.124 285.865 187.204 280.791 187.204 274.532V210.93H117.272Z" fill="#FFF1CE"/>
<path d="M75.8746 139.318L86.2011 129.004L84.5917 140.645L75.8746 139.318Z" fill="#D9D9D9"/>
<path d="M75.8746 139.318L86.2011 129.004V139.318H75.8746Z" fill="#EBE6FC"/>
<path d="M63.5836 193.007H58.0166V187.446C58.0166 187.223 57.8333 187.04 57.6099 187.04C57.3866 187.04 57.2033 187.223 57.2033 187.446V193.007H51.6305C51.4072 193.007 51.2239 193.19 51.2239 193.413C51.2239 193.636 51.4072 193.819 51.6305 193.819H57.1976V199.38C57.1976 199.603 57.3808 199.786 57.6042 199.786C57.8276 199.786 58.0108 199.603 58.0108 199.38V193.819H63.5779C63.8012 193.819 63.9845 193.636 63.9845 193.413C63.9902 193.19 63.807 193.007 63.5836 193.007Z" fill="white"/>
<path d="M201.116 177.081H195.549V171.52C195.549 171.297 195.365 171.114 195.142 171.114C194.919 171.114 194.735 171.297 194.735 171.52V177.081H189.168C188.945 177.081 188.762 177.264 188.762 177.487C188.762 177.71 188.945 177.893 189.168 177.893H194.735V183.454C194.735 183.677 194.919 183.86 195.142 183.86C195.365 183.86 195.549 183.677 195.549 183.454V177.893H201.116C201.339 177.893 201.522 177.71 201.522 177.487C201.522 177.264 201.339 177.081 201.116 177.081Z" fill="white"/>
<path d="M220.973 246.151H216.62V241.804C216.62 241.626 216.477 241.483 216.299 241.483C216.121 241.483 215.978 241.626 215.978 241.804V246.151H211.625C211.448 246.151 211.305 246.294 211.305 246.472C211.305 246.649 211.448 246.792 211.625 246.792H215.978V251.14C215.978 251.317 216.121 251.46 216.299 251.46C216.477 251.46 216.62 251.317 216.62 251.14V246.792H220.973C221.15 246.792 221.293 246.649 221.293 246.472C221.293 246.294 221.15 246.151 220.973 246.151Z" fill="#FEAE1A"/>
<path d="M212.943 211.273H209.982V208.315C209.982 208.195 209.884 208.098 209.764 208.098C209.644 208.098 209.546 208.195 209.546 208.315V211.273H206.585C206.465 211.273 206.368 211.37 206.368 211.49C206.368 211.61 206.465 211.707 206.585 211.707H209.546V214.665C209.546 214.785 209.644 214.882 209.764 214.882C209.884 214.882 209.982 214.785 209.982 214.665V211.707H212.943C213.063 211.707 213.16 211.61 213.16 211.49C213.16 211.37 213.063 211.273 212.943 211.273Z" fill="#FEAE1A"/>
<path d="M232.46 181.961H225.04V174.541C225.04 174.244 224.797 174.001 224.5 174.001C224.203 174.001 223.96 174.244 223.96 174.541V181.961H216.54C216.243 181.961 216 182.204 216 182.501C216 182.798 216.243 183.041 216.54 183.041H223.96V190.461C223.96 190.758 224.203 191.001 224.5 191.001C224.797 191.001 225.04 190.758 225.04 190.461V183.041H232.46C232.757 183.041 233 182.798 233 182.501C233 182.204 232.757 181.961 232.46 181.961Z" fill="#FEAE1A"/>
<path d="M69.0304 175.381H65.3992V171.754C65.3992 171.606 65.2789 171.491 65.1358 171.491C64.9868 171.491 64.8723 171.611 64.8723 171.754V175.381H61.2411C61.0922 175.381 60.9777 175.501 60.9777 175.644C60.9777 175.793 61.0979 175.908 61.2411 175.908H64.8723V179.534C64.8723 179.683 64.9926 179.798 65.1358 179.798C65.2847 179.798 65.3992 179.677 65.3992 179.534V175.908H69.0304C69.1793 175.908 69.2938 175.787 69.2938 175.644C69.2938 175.496 69.1793 175.381 69.0304 175.381Z" fill="white"/>
<path d="M64.5916 207.131H61.453V203.996C61.453 203.871 61.3499 203.768 61.2239 203.768C61.0979 203.768 60.9948 203.871 60.9948 203.996V207.131H57.8562C57.7302 207.131 57.6271 207.234 57.6271 207.36C57.6271 207.486 57.7302 207.589 57.8562 207.589H60.9948V210.724C60.9948 210.85 61.0979 210.953 61.2239 210.953C61.3499 210.953 61.453 210.85 61.453 210.724V207.589H64.5916C64.7176 207.589 64.8207 207.486 64.8207 207.36C64.8207 207.234 64.7176 207.131 64.5916 207.131Z" fill="white"/>
<path d="M49.6531 212.155H44.8452V207.347C44.8452 207.149 44.6806 207.001 44.4994 207.001C44.3018 207.001 44.1537 207.166 44.1537 207.347V212.155H39.3458C39.1482 212.155 39 212.32 39 212.501C39 212.699 39.1647 212.847 39.3458 212.847H44.1537V217.655C44.1537 217.853 44.3183 218.001 44.4994 218.001C44.697 218.001 44.8452 217.836 44.8452 217.655V212.847H49.6531C49.8507 212.847 49.9989 212.682 49.9989 212.501C50.0153 212.32 49.8507 212.155 49.6531 212.155Z" fill="#FEAE1A"/>
<path d="M216.748 128.749H213.251V125.252C213.251 125.109 213.131 125.001 213 125.001C212.856 125.001 212.748 125.121 212.748 125.252V128.749H209.251C209.108 128.749 209 128.869 209 129.001C209 129.145 209.12 129.252 209.251 129.252H212.748V132.749C212.748 132.893 212.868 133.001 213 133.001C213.143 133.001 213.251 132.881 213.251 132.749V129.252H216.748C216.891 129.252 216.999 129.133 216.999 129.001C217.011 128.869 216.891 128.749 216.748 128.749Z" fill="#FEAE1A"/>
<path d="M192.593 122.569H188.504V118.484C188.504 118.318 188.372 118.187 188.206 118.187C188.04 118.187 187.908 118.324 187.908 118.484V122.569H183.819C183.653 122.569 183.521 122.7 183.521 122.866C183.521 123.032 183.658 123.164 183.819 123.164H187.908V127.248C187.908 127.414 188.04 127.546 188.206 127.546C188.372 127.546 188.504 127.414 188.504 127.248V123.164H192.593C192.759 123.164 192.891 123.026 192.891 122.866C192.891 122.706 192.759 122.569 192.593 122.569Z" fill="white"/>
<path d="M128.773 123.249H124.684V119.165C124.684 118.999 124.546 118.867 124.386 118.867C124.22 118.867 124.088 118.999 124.088 119.165V123.249H119.999C119.832 123.249 119.701 123.381 119.701 123.547C119.701 123.713 119.838 123.844 119.999 123.844H124.088V127.929C124.088 128.095 124.225 128.226 124.386 128.226C124.552 128.226 124.684 128.095 124.684 127.929V123.844H128.773C128.939 123.844 129.071 123.707 129.071 123.547C129.071 123.387 128.939 123.249 128.773 123.249Z" fill="white"/>
<path d="M117.679 122.68H113.321V118.322C113.321 118.15 113.183 118.001 113 118.001C112.828 118.001 112.679 118.139 112.679 118.322V122.68H108.321C108.149 122.68 108 122.817 108 123.001C108 123.173 108.138 123.322 108.321 123.322H112.679V127.68C112.679 127.852 112.817 128.001 113 128.001C113.172 128.001 113.321 127.863 113.321 127.68V123.322H117.679C117.851 123.322 118 123.173 118 123.001C118 122.829 117.862 122.68 117.679 122.68Z" fill="#FEAE1A"/>
</g>
<path d="M175.536 29.0721L205.489 3.21468L175.281 21.6441L175.536 29.0721Z" fill="#474748"/>
<path d="M172.58 19.6083L205.489 3.21499L163.781 12.9658L172.58 19.6083Z" fill="white"/>
<path d="M175.281 21.6438L184.994 28.9819L205.489 3.21436L175.281 21.6438Z" fill="white"/>
<path d="M172.58 19.6079L175.536 29.0721L175.281 21.6441L205.489 3.21468L172.58 19.6079Z" fill="#AEAEAE"/>
<path d="M18.0415 117.021C17.9883 117.041 17.9205 117.054 17.8594 117.052C17.5472 117.059 17.284 116.805 17.2775 116.493C17.2597 115.725 17.2633 114.949 17.2814 114.18C17.2855 113.864 17.5469 113.622 17.8631 113.626C18.1792 113.631 18.4211 113.892 18.417 114.208C18.3949 114.966 18.3942 115.717 18.4147 116.46C18.4268 116.721 18.2651 116.939 18.0415 117.021ZM18.5043 109.045C18.4191 109.077 18.3261 109.087 18.2358 109.072C17.9292 109.028 17.7046 108.748 17.7446 108.431C17.849 107.666 17.9681 106.908 18.0977 106.146C18.1523 105.836 18.4508 105.628 18.7507 105.687C19.0613 105.741 19.2685 106.04 19.21 106.34C19.0725 107.08 18.9602 107.824 18.8624 108.574C18.8414 108.812 18.6959 108.974 18.5043 109.045ZM20.1432 101.239C20.0368 101.279 19.9078 101.29 19.7951 101.247C19.498 101.163 19.3188 100.842 19.4025 100.545C19.6117 99.8022 19.8396 99.0766 20.0741 98.3364C20.1684 98.0353 20.4973 97.8774 20.7877 97.9757C21.0888 98.07 21.2467 98.3989 21.1484 98.6893C20.9167 99.4043 20.6889 100.13 20.4863 100.858C20.4417 101.032 20.3029 101.18 20.1432 101.239ZM151.729 46.5392C151.718 46.5431 151.708 46.547 151.697 46.551C150.972 46.7828 150.229 46.9972 149.477 47.1904C149.178 47.2648 148.86 47.092 148.782 46.7821C148.703 46.4722 148.884 46.1755 149.19 46.0866C149.931 45.8973 150.649 45.6801 151.357 45.4668C151.659 45.3672 151.977 45.54 152.062 45.8353C152.157 46.1267 152.006 46.4368 151.729 46.5392ZM157.06 44.4952C156.783 44.5975 156.47 44.4713 156.346 44.2024C156.215 43.9122 156.344 43.574 156.624 43.4465C157.317 43.1295 157.981 42.7991 158.652 42.4541C158.917 42.3198 159.269 42.4197 159.418 42.6914C159.556 42.967 159.452 43.3079 159.181 43.4568C158.499 43.8057 157.803 44.1479 157.098 44.4688C157.081 44.4873 157.07 44.4913 157.06 44.4952ZM22.8289 93.7116C22.7012 93.7589 22.5431 93.7568 22.4012 93.7004C22.1135 93.5769 21.9769 93.2402 22.1005 92.9525C22.4079 92.2459 22.7192 91.5499 23.0558 90.8567C23.1939 90.5757 23.5239 90.4537 23.8155 90.5879C24.0965 90.726 24.2185 91.0559 24.0844 91.3476C23.7545 92.0262 23.4538 92.7182 23.1531 93.4103C23.086 93.5561 22.9673 93.6605 22.8289 93.7116ZM143.941 48.3182C143.909 48.33 143.866 48.3458 143.83 48.3469C143.077 48.4684 142.319 48.5791 141.553 48.6686C141.242 48.7111 140.955 48.4906 140.913 48.1795C140.87 47.8685 141.101 47.5773 141.406 47.5495C142.157 47.4533 142.904 47.3464 143.647 47.2289C143.954 47.1759 144.252 47.3924 144.294 47.7035C144.346 47.9747 144.186 48.2277 143.941 48.3182ZM163.999 40.5497C163.764 40.6363 163.482 40.5593 163.342 40.3448C163.161 40.0849 163.225 39.7345 163.485 39.5537C164.099 39.1208 164.71 38.6773 165.302 38.2164C165.547 38.0289 165.9 38.0677 166.102 38.3197C166.29 38.5649 166.251 38.9181 165.999 39.1202C165.386 39.589 164.769 40.0471 164.133 40.4879C164.08 40.5076 164.041 40.534 163.999 40.5497ZM136.004 49.172C135.951 49.1917 135.893 49.2008 135.847 49.2059C135.08 49.2595 134.32 49.2985 133.556 49.3269C133.248 49.3441 132.974 49.0945 132.968 48.7823C132.95 48.474 133.204 48.2108 133.512 48.1936C134.272 48.1546 135.022 48.1195 135.778 48.0698C136.086 48.0526 136.367 48.2877 136.373 48.5999C136.385 48.8616 136.227 49.0894 136.004 49.172ZM170.135 35.4488C169.933 35.5236 169.698 35.4774 169.527 35.3106C169.312 35.0878 169.311 34.7251 169.533 34.5096C170.066 33.986 170.605 33.4478 171.119 32.9069C171.338 32.6807 171.696 32.6691 171.923 32.888C172.149 33.1068 172.16 33.4655 171.941 33.6917C171.41 34.2512 170.875 34.8 170.321 35.3315C170.28 35.3831 170.209 35.4213 170.135 35.4488ZM128.011 49.4172C127.947 49.4408 127.88 49.4538 127.819 49.4522C127.057 49.4554 126.292 49.4479 125.531 49.4511C125.215 49.447 124.962 49.1895 124.967 48.8733C124.971 48.5572 125.228 48.3047 125.534 48.3127C126.299 48.3202 127.049 48.3209 127.81 48.3177C128.123 48.3112 128.375 48.5687 128.382 48.8809C128.379 49.136 128.224 49.3385 128.011 49.4172ZM26.4546 86.5988C26.3055 86.654 26.1222 86.6491 25.9685 86.5608C25.7049 86.4042 25.6109 86.0517 25.7675 85.7881C26.1518 85.1256 26.5506 84.4699 26.964 83.8209C27.1313 83.5533 27.481 83.4845 27.7485 83.6518C28.0161 83.8191 28.0849 84.1687 27.9283 84.4324C27.5216 85.0668 27.1294 85.7079 26.7452 86.3704C26.6836 86.4657 26.5717 86.5555 26.4546 86.5988ZM175.475 29.5049C175.294 29.5718 175.089 29.539 174.923 29.4187C174.68 29.2183 174.636 28.8714 174.833 28.6172C175.305 28.0309 175.76 27.4273 176.214 26.8236C176.4 26.5734 176.754 26.5152 177.008 26.7116C177.258 26.8974 177.306 27.255 177.12 27.5052C176.659 28.1234 176.194 28.731 175.714 29.3319C175.659 29.4127 175.571 29.4694 175.475 29.5049ZM120.015 49.325C119.951 49.3486 119.883 49.3616 119.808 49.3533L117.526 49.3017C117.21 49.2976 116.968 49.0361 116.972 48.72C116.976 48.4039 117.237 48.162 117.553 48.1661L119.835 48.2176C120.151 48.2217 120.393 48.4832 120.389 48.7993C120.383 49.0437 120.228 49.2463 120.015 49.325ZM30.907 79.9547C30.726 80.0217 30.5242 79.9995 30.3693 79.8753C30.1191 79.6895 30.0716 79.3319 30.2574 79.0817C30.7224 78.4741 31.1981 77.8626 31.6817 77.2723C31.882 77.0288 32.2329 76.9959 32.487 77.1923C32.7305 77.3927 32.7635 77.7435 32.567 77.9977C32.0941 78.584 31.6251 79.1809 31.1707 79.7846C31.0907 79.8626 31.0028 79.9193 30.907 79.9547ZM112.023 49.1464C111.959 49.1701 111.891 49.183 111.82 49.1854C111.065 49.174 110.3 49.1665 109.535 49.159C109.219 49.1549 108.966 48.8974 108.974 48.5919C108.978 48.2758 109.225 48.0272 109.541 48.0313C110.306 48.0387 111.072 48.0462 111.826 48.0576C112.142 48.0617 112.395 48.3192 112.391 48.6354C112.391 48.8652 112.236 49.0677 112.023 49.1464ZM104.023 49.1764C103.97 49.1961 103.902 49.2091 103.841 49.2075C103.088 49.2319 102.324 49.2603 101.571 49.2848C101.263 49.302 100.989 49.0523 100.982 48.7401C100.976 48.4279 101.215 48.158 101.527 48.1515C102.287 48.1124 103.055 48.0947 103.819 48.0663C104.131 48.0597 104.39 48.3027 104.397 48.6149C104.409 48.8766 104.247 49.0937 104.023 49.1764ZM36.0887 73.8759C35.8971 73.9467 35.6661 73.9111 35.4995 73.755C35.2733 73.5361 35.2617 73.1774 35.4805 72.9512C36.0118 72.3917 36.5509 71.8535 37.1007 71.3114C37.3235 71.0959 37.6861 71.0949 37.9016 71.3177C38.1171 71.5406 38.1181 71.9032 37.8953 72.1187C37.3523 72.6463 36.8238 73.1805 36.3032 73.736C36.2444 73.8062 36.1632 73.8483 36.0887 73.8759ZM96.0513 49.6076C96.0087 49.6234 95.9516 49.6324 95.8944 49.6415C95.1423 49.7018 94.3795 49.7661 93.6274 49.8264C93.3124 49.8582 93.0426 49.6192 93.0147 49.3148C92.9829 48.9999 93.2074 48.7233 93.5263 48.7022C94.289 48.6379 95.0518 48.5736 95.8039 48.5133C96.1228 48.4921 96.3888 48.7205 96.4099 49.0394C96.4287 49.2866 96.2749 49.525 96.0513 49.6076ZM41.941 68.4323C41.7175 68.515 41.4641 68.4514 41.3108 68.2661C41.1127 68.0247 41.1369 67.6649 41.3889 67.4628C41.9796 66.966 42.5782 66.4905 43.1914 66.0217C43.4367 65.8342 43.8005 65.8691 43.9919 66.125C44.1794 66.3703 44.1406 66.7235 43.8886 66.9256C43.2861 67.3904 42.6981 67.8619 42.1141 68.3441C42.0542 68.3784 41.9943 68.4127 41.941 68.4323ZM88.0909 50.3976C88.0483 50.4133 88.0057 50.4291 87.9698 50.4303C87.2188 50.5265 86.4679 50.6227 85.7102 50.7335C85.3992 50.7759 85.1119 50.5554 85.0735 50.255C85.031 49.944 85.2409 49.6607 85.5519 49.6182C86.3096 49.5075 87.0605 49.4113 87.8261 49.3218C88.1371 49.2793 88.4244 49.4998 88.4561 49.8148C88.4962 50.0541 88.3357 50.3071 88.0909 50.3976ZM48.3693 63.6955C48.1245 63.786 47.8486 63.6944 47.6942 63.4732C47.524 63.2094 47.5987 62.8551 47.8625 62.6849C48.506 62.2654 49.1535 61.8566 49.8155 61.4545C50.0832 61.295 50.4269 61.3736 50.601 61.648C50.7605 61.9157 50.6819 62.2594 50.4075 62.4335C49.7667 62.8278 49.126 63.222 48.4931 63.6376C48.4545 63.664 48.4119 63.6797 48.3693 63.6955ZM80.1908 51.6129C80.1589 51.6247 80.127 51.6365 80.0911 51.6377C79.3452 51.7804 78.5994 51.9231 77.8575 52.0765C77.5543 52.1402 77.2497 51.9383 77.186 51.6351C77.1223 51.3319 77.3243 51.0273 77.6274 50.9636C78.38 50.8063 79.1258 50.6636 79.8823 50.5169C80.1894 50.4639 80.494 50.6658 80.5471 50.9729C80.6029 51.2548 80.4463 51.5184 80.1908 51.6129ZM55.2923 59.7074C55.0262 59.8058 54.7172 59.6902 54.5869 59.4359C54.4487 59.1603 54.5631 58.8154 54.8387 58.6772C55.5205 58.3283 56.2207 57.9967 56.9103 57.6691C57.1752 57.5348 57.5347 57.656 57.6662 57.9462C57.7977 58.2364 57.6793 58.5706 57.3891 58.7021C56.7101 59.0258 56.0205 59.3534 55.3495 59.6984C55.3349 59.6917 55.3136 59.6995 55.2923 59.7074ZM72.3935 53.3348C72.3722 53.3427 72.3615 53.3466 72.3403 53.3545C71.6101 53.5398 70.8773 53.7503 70.155 53.9569C69.8491 54.0458 69.5417 53.8691 69.4528 53.5632C69.3638 53.2572 69.5366 52.9392 69.8465 52.8609C70.5794 52.6504 71.3162 52.4505 72.0676 52.2573C72.3775 52.1791 72.6849 52.3558 72.7632 52.6657C72.819 52.9475 72.6596 53.2364 72.3935 53.3348ZM62.6024 56.4716C62.315 56.5779 61.9836 56.4343 61.8773 56.1469C61.7671 55.8488 61.9147 55.528 62.1981 55.4111C62.918 55.1327 63.6312 54.869 64.359 54.6119C64.6571 54.5017 64.9818 54.6599 65.0814 54.9619C65.1877 55.2493 65.0295 55.5741 64.7421 55.6804C64.7421 55.6804 64.7421 55.6804 64.7314 55.6843C64.0249 55.9335 63.3223 56.1933 62.6024 56.4716Z" fill="white"/>
<path d="M7.70975 109.168C7.65343 109.241 7.57594 109.297 7.48448 109.333C7.30158 109.406 7.10157 109.374 6.94618 109.256L1.74204 105.107C1.59386 104.987 1.51642 104.789 1.54393 104.599C1.57144 104.408 1.70121 104.241 1.88637 104.175L8.08263 101.75C8.26554 101.677 8.46556 101.709 8.62096 101.827C8.76915 101.947 8.84659 102.144 8.81908 102.335L7.82917 108.917C7.80844 109.003 7.76608 109.095 7.70975 109.168ZM3.1539 104.84L6.88517 107.82L7.60086 103.095L3.1539 104.84Z" fill="white"/>
<path d="M101.346 53.4132C101.181 53.164 100.843 53.0955 100.596 53.2675L98.692 54.5425L97.4171 52.6386C97.2522 52.3894 96.9144 52.3209 96.6675 52.493C96.4183 52.6578 96.3498 52.9956 96.5218 53.2425L97.7968 55.1465L95.8929 56.4215C95.6438 56.5863 95.5752 56.9241 95.7473 57.171C95.9121 57.4202 96.25 57.4887 96.4968 57.3167L98.4008 56.0417L99.6758 57.9456C99.8406 58.1947 100.178 58.2633 100.425 58.0912C100.674 57.9264 100.743 57.5886 100.571 57.3417L99.296 55.4377L101.2 54.1627C101.442 54.0002 101.51 53.6623 101.346 53.4132Z" fill="white"/>
<defs>
<clipPath id="clip0_1575_108834">
<rect width="233" height="202" fill="white" transform="translate(15.9326 88.001)"/>
</clipPath>
</defs>
</svg>
