<svg width="1288" height="184" viewBox="0 0 1288 184" fill="none" xmlns="http://www.w3.org/2000/svg">
<g clip-path="url(#clip0_240_70746)">
<path d="M232.069 25.8158L263.829 12.0332L233.793 19.5456L232.069 25.8158Z" fill="#6DD794"/>
<path d="M232.069 17.1409L263.83 12.0335L226.453 9.2981L232.069 17.1409Z" fill="#00A63D"/>
<path d="M233.794 19.5458L239.991 28.2079L263.83 12.0334L233.794 19.5458Z" fill="#00A63D"/>
<path d="M232.069 17.1406V25.8158L233.793 19.5456L263.829 12.0332L232.069 17.1406Z" fill="#A1F3BF"/>
<path d="M227.246 24.2377C227.147 24.2377 227.048 24.1914 226.981 24.1055C226.869 23.9602 226.902 23.7487 227.048 23.643C227.219 23.5109 227.398 23.3787 227.576 23.2466C227.721 23.1343 227.926 23.1673 228.039 23.3127C228.151 23.458 228.118 23.6628 227.973 23.7752C227.794 23.9073 227.616 24.0461 227.444 24.1716C227.384 24.2178 227.312 24.2377 227.246 24.2377Z" fill="#00A63D"/>
<path d="M118.696 46.7019C118.676 46.7019 118.656 46.7019 118.63 46.6953C118.451 46.6623 118.332 46.4839 118.372 46.3055C118.412 46.0874 118.458 45.8694 118.511 45.6514C118.55 45.473 118.729 45.3606 118.907 45.4003C119.085 45.4399 119.198 45.6183 119.158 45.7967C119.112 46.0082 119.066 46.2196 119.026 46.4376C118.986 46.5962 118.848 46.7019 118.696 46.7019Z" fill="#00A63D"/>
<path d="M119.733 42.857C119.7 42.857 119.661 42.8504 119.628 42.8372C119.456 42.7778 119.363 42.5862 119.423 42.4144C119.568 41.9915 119.727 41.5686 119.892 41.1524C119.958 40.9806 120.15 40.9013 120.321 40.9674C120.493 41.0335 120.572 41.2251 120.506 41.3969C120.341 41.8065 120.189 42.2161 120.05 42.6258C120.004 42.7712 119.872 42.857 119.733 42.857ZM121.597 38.5954C121.544 38.5954 121.491 38.5822 121.445 38.5558C121.286 38.4699 121.22 38.2716 121.306 38.1065C121.517 37.71 121.735 37.3202 121.96 36.9304C122.052 36.7718 122.257 36.719 122.409 36.8115C122.568 36.904 122.621 37.1088 122.528 37.2607C122.304 37.6374 122.092 38.0206 121.887 38.4104C121.828 38.5359 121.716 38.5954 121.597 38.5954ZM124.068 34.6641C124.002 34.6641 123.929 34.6443 123.876 34.598C123.731 34.4923 123.698 34.2809 123.803 34.1355C124.068 33.7721 124.339 33.422 124.616 33.0652C124.728 32.9198 124.94 32.9 125.079 33.0123C125.224 33.1246 125.244 33.3361 125.131 33.4748C124.861 33.8184 124.59 34.1686 124.332 34.5254C124.273 34.6113 124.167 34.6641 124.068 34.6641ZM206.962 31.3671C206.955 31.3671 206.948 31.3671 206.942 31.3671C206.499 31.3473 206.05 31.3143 205.601 31.268C205.422 31.2482 205.283 31.0896 205.303 30.9046C205.323 30.7196 205.482 30.5941 205.667 30.6073C206.109 30.6535 206.545 30.68 206.975 30.7064C207.16 30.713 207.299 30.8716 207.285 31.05C207.279 31.2284 207.133 31.3671 206.962 31.3671ZM210.285 31.3275C210.113 31.3275 209.968 31.1953 209.955 31.0235C209.942 30.8385 210.08 30.68 210.259 30.6668C210.701 30.6337 211.131 30.5875 211.567 30.5346C211.739 30.5148 211.91 30.6403 211.937 30.8187C211.957 30.9971 211.831 31.1623 211.653 31.1887C211.21 31.2416 210.761 31.2878 210.312 31.3209C210.298 31.3275 210.292 31.3275 210.285 31.3275ZM127.054 31.0962C126.975 31.0962 126.889 31.0632 126.823 31.0037C126.691 30.8782 126.684 30.6668 126.81 30.5346C127.12 30.2109 127.431 29.8937 127.754 29.5832C127.887 29.4576 128.091 29.4576 128.224 29.5898C128.349 29.7219 128.349 29.9267 128.217 30.0589C127.9 30.3628 127.596 30.68 127.292 30.9971C127.226 31.0632 127.14 31.0962 127.054 31.0962ZM202.35 30.7659C202.33 30.7659 202.304 30.7659 202.284 30.7593C201.848 30.6734 201.412 30.5809 200.976 30.4751C200.797 30.4355 200.685 30.2571 200.724 30.0787C200.764 29.9003 200.949 29.788 201.121 29.8342C201.55 29.9334 201.98 30.0259 202.409 30.1117C202.588 30.1448 202.707 30.3232 202.667 30.5016C202.641 30.6601 202.502 30.7659 202.35 30.7659ZM214.871 30.5743C214.725 30.5743 214.586 30.4751 214.553 30.3298C214.507 30.1514 214.613 29.973 214.791 29.9267C215.214 29.8144 215.637 29.6955 216.053 29.5633C216.225 29.5105 216.41 29.603 216.469 29.7814C216.522 29.9532 216.43 30.1382 216.251 30.1976C215.822 30.3298 215.392 30.4553 214.956 30.5676C214.923 30.5676 214.897 30.5743 214.871 30.5743ZM197.844 29.6294C197.811 29.6294 197.778 29.6228 197.751 29.6162C197.322 29.4907 196.899 29.3585 196.476 29.2198C196.304 29.1669 196.205 28.9753 196.265 28.8035C196.317 28.6317 196.509 28.5392 196.681 28.5921C197.104 28.7242 197.52 28.8564 197.943 28.9819C198.115 29.0348 198.22 29.2198 198.161 29.3916C198.115 29.5369 197.982 29.6294 197.844 29.6294ZM219.251 29.0282C219.126 29.0282 219.007 28.9555 218.947 28.8299C218.874 28.6648 218.947 28.4666 219.112 28.3939C219.509 28.2155 219.912 28.0305 220.302 27.8389C220.467 27.7596 220.665 27.8257 220.744 27.9908C220.824 28.156 220.758 28.3542 220.592 28.4335C220.189 28.6317 219.786 28.8233 219.377 29.0017C219.344 29.0216 219.297 29.0282 219.251 29.0282ZM193.43 28.1494C193.39 28.1494 193.351 28.1428 193.318 28.1296C192.902 27.9776 192.485 27.819 192.069 27.6671C191.897 27.601 191.811 27.4094 191.877 27.2376C191.944 27.0658 192.135 26.9799 192.3 27.046C192.717 27.2046 193.126 27.3565 193.542 27.5085C193.714 27.568 193.8 27.7596 193.741 27.9314C193.688 28.0701 193.562 28.1494 193.43 28.1494ZM130.47 27.9446C130.378 27.9446 130.278 27.9049 130.212 27.8257C130.1 27.6869 130.12 27.4755 130.259 27.3632C130.602 27.079 130.952 26.8015 131.309 26.5306C131.455 26.4183 131.659 26.4514 131.772 26.5967C131.884 26.7421 131.851 26.9469 131.712 27.0592C131.362 27.3235 131.018 27.5944 130.675 27.8785C130.622 27.9182 130.543 27.9446 130.47 27.9446ZM223.367 26.861C223.255 26.861 223.149 26.8015 223.083 26.7024C222.991 26.5439 223.037 26.3456 223.196 26.2465C223.572 26.0219 223.942 25.784 224.312 25.5462C224.464 25.4471 224.669 25.4867 224.768 25.6453C224.867 25.7972 224.821 26.0021 224.669 26.1012C224.292 26.3456 223.916 26.5835 223.533 26.8148C223.486 26.8478 223.427 26.861 223.367 26.861ZM189.083 26.4844C189.043 26.4844 189.003 26.4778 188.964 26.458L187.728 25.969C187.556 25.903 187.477 25.7113 187.543 25.5396C187.609 25.3678 187.801 25.2885 187.973 25.3546L189.208 25.8435C189.38 25.9096 189.459 26.1012 189.393 26.273C189.34 26.4051 189.215 26.4844 189.083 26.4844ZM134.243 25.2158C134.13 25.2158 134.025 25.163 133.965 25.0638C133.866 24.9119 133.912 24.7071 134.064 24.6079C134.441 24.3701 134.824 24.1322 135.207 23.9076C135.366 23.8151 135.564 23.8679 135.663 24.0265C135.756 24.1851 135.703 24.3833 135.544 24.4824C135.168 24.7071 134.791 24.9383 134.421 25.1762C134.362 25.2026 134.302 25.2158 134.243 25.2158ZM184.755 24.7731C184.715 24.7731 184.676 24.7665 184.636 24.7533C184.226 24.5947 183.81 24.4362 183.394 24.2776C183.222 24.2115 183.136 24.0199 183.202 23.8547C183.268 23.6829 183.453 23.597 183.625 23.6631C184.041 23.8217 184.458 23.9803 184.867 24.1388C185.039 24.2049 185.125 24.3965 185.059 24.5683C185.013 24.6938 184.887 24.7731 184.755 24.7731ZM180.381 23.1742C180.348 23.1742 180.308 23.1676 180.275 23.1544C179.859 23.0156 179.436 22.8769 179.02 22.7381C178.848 22.6853 178.749 22.4936 178.808 22.3219C178.868 22.1501 179.053 22.051 179.225 22.1104C179.647 22.2426 180.07 22.3879 180.493 22.5267C180.665 22.5861 180.757 22.7711 180.698 22.9429C180.652 23.0883 180.52 23.1742 180.381 23.1742ZM138.3 22.9429C138.181 22.9429 138.062 22.8769 138.002 22.7579C137.923 22.5927 137.989 22.3945 138.154 22.3152C138.557 22.117 138.96 21.932 139.37 21.747C139.535 21.6743 139.733 21.747 139.806 21.9122C139.879 22.0774 139.806 22.2756 139.641 22.3483C139.238 22.5267 138.841 22.7117 138.445 22.9099C138.399 22.9363 138.346 22.9429 138.3 22.9429ZM175.941 21.7999C175.914 21.7999 175.881 21.7933 175.848 21.7867C175.425 21.6677 174.996 21.5488 174.573 21.4299C174.395 21.3836 174.296 21.1986 174.342 21.0268C174.388 20.8484 174.567 20.7427 174.745 20.7956C175.174 20.9145 175.604 21.0334 176.027 21.1524C176.205 21.2052 176.304 21.3836 176.251 21.562C176.212 21.7008 176.08 21.7999 175.941 21.7999ZM142.594 21.1524C142.456 21.1524 142.33 21.0665 142.284 20.9343C142.224 20.7626 142.31 20.5709 142.489 20.5115C142.911 20.3595 143.334 20.2208 143.764 20.0886C143.936 20.0358 144.127 20.1283 144.18 20.3067C144.233 20.4784 144.14 20.6634 143.962 20.7229C143.539 20.8551 143.123 20.9938 142.707 21.1392C142.667 21.1458 142.627 21.1524 142.594 21.1524ZM171.435 20.6238C171.408 20.6238 171.382 20.6238 171.362 20.6172C170.933 20.5181 170.503 20.419 170.067 20.3265C169.889 20.2868 169.776 20.1084 169.816 19.9366C169.856 19.7583 170.027 19.6459 170.206 19.6856C170.642 19.7781 171.071 19.8772 171.507 19.9829C171.686 20.0225 171.798 20.2009 171.752 20.3793C171.725 20.5181 171.587 20.6238 171.435 20.6238ZM147.061 19.864C146.909 19.864 146.777 19.7583 146.737 19.6063C146.697 19.4279 146.81 19.2495 146.988 19.2099C147.424 19.1107 147.86 19.0183 148.303 18.9324C148.481 18.8993 148.653 19.0116 148.693 19.1966C148.726 19.375 148.613 19.5468 148.428 19.5865C147.999 19.6724 147.57 19.7583 147.14 19.8574C147.114 19.864 147.087 19.864 147.061 19.864ZM166.876 19.6922C166.856 19.6922 166.836 19.6922 166.816 19.6856C166.38 19.6129 165.944 19.5402 165.508 19.4741C165.33 19.4477 165.204 19.2759 165.231 19.0975C165.257 18.9191 165.429 18.7936 165.607 18.82C166.05 18.8861 166.486 18.9588 166.929 19.0315C167.107 19.0645 167.233 19.2363 167.2 19.4147C167.173 19.5799 167.034 19.6922 166.876 19.6922ZM151.646 19.0843C151.481 19.0843 151.336 18.9588 151.316 18.7936C151.296 18.6152 151.428 18.45 151.607 18.4302C152.049 18.3773 152.498 18.3377 152.941 18.2981C153.113 18.2782 153.285 18.417 153.298 18.602C153.311 18.787 153.179 18.9456 152.994 18.9588C152.558 18.9984 152.115 19.0381 151.679 19.0909C151.673 19.0843 151.659 19.0843 151.646 19.0843ZM162.271 19.0579C162.257 19.0579 162.251 19.0579 162.238 19.0579C161.801 19.0116 161.359 18.9786 160.923 18.9456C160.738 18.9324 160.606 18.7738 160.619 18.5888C160.632 18.4038 160.791 18.265 160.976 18.2848C161.418 18.3179 161.861 18.3575 162.31 18.4038C162.495 18.4236 162.627 18.5822 162.608 18.7672C162.581 18.9324 162.436 19.0579 162.271 19.0579ZM156.291 18.7936C156.113 18.7936 155.961 18.6482 155.961 18.4699C155.961 18.2849 156.106 18.1395 156.284 18.1329C156.734 18.1263 157.176 18.1263 157.626 18.1329C157.811 18.1329 157.956 18.2849 157.949 18.4699C157.949 18.6482 157.797 18.7936 157.619 18.7936C157.619 18.7936 157.619 18.7936 157.612 18.7936C157.176 18.787 156.74 18.787 156.291 18.7936C156.298 18.7936 156.291 18.7936 156.291 18.7936Z" fill="#00A63D"/>
<path d="M113.718 43.5646C113.657 43.6075 113.583 43.6321 113.503 43.6382C113.344 43.6505 113.196 43.5769 113.104 43.448L110.074 38.9699C109.988 38.841 109.976 38.6693 110.043 38.5282C110.111 38.3871 110.252 38.2889 110.411 38.2828L115.804 37.9024C115.963 37.8902 116.11 37.9638 116.202 38.0926C116.288 38.2214 116.3 38.3932 116.233 38.5343L113.871 43.399C113.834 43.4603 113.779 43.5217 113.718 43.5646ZM111.233 39.1048L113.405 42.3193L115.104 38.8288L111.233 39.1048Z" fill="#00A63D"/>
<path d="M163.757 26.7939C163.684 26.5428 163.42 26.3975 163.169 26.4768L161.246 27.045L160.678 25.1223C160.605 24.8712 160.341 24.7259 160.09 24.8051C159.839 24.8778 159.693 25.1421 159.773 25.3932L160.341 27.3159L158.418 27.8841C158.167 27.9568 158.022 28.2211 158.101 28.4721C158.174 28.7232 158.438 28.8686 158.689 28.7893L160.612 28.2211L161.18 30.1438C161.253 30.3948 161.517 30.5402 161.768 30.4609C162.019 30.3882 162.164 30.1239 162.085 29.8729L161.517 27.9502L163.44 27.3819C163.684 27.3093 163.829 27.045 163.757 26.7939Z" fill="#00A63D"/>
<rect width="1288" height="184" rx="8" fill="#DAF4DE"/>
<path d="M232.069 25.8161L263.829 12.0334L233.793 19.5458L232.069 25.8161Z" fill="#6DD794"/>
<path d="M232.069 17.1411L263.83 12.0337L226.453 9.29834L232.069 17.1411Z" fill="#00A63D"/>
<path d="M233.794 19.5461L239.991 28.2081L263.83 12.0337L233.794 19.5461Z" fill="#00A63D"/>
<path d="M232.069 17.1408V25.8161L233.793 19.5458L263.829 12.0334L232.069 17.1408Z" fill="#A1F3BF"/>
<path d="M227.246 24.2379C227.147 24.2379 227.048 24.1917 226.981 24.1058C226.869 23.9604 226.902 23.749 227.048 23.6433C227.219 23.5111 227.398 23.379 227.576 23.2468C227.721 23.1345 227.926 23.1675 228.039 23.3129C228.151 23.4583 228.118 23.6631 227.973 23.7754C227.794 23.9075 227.616 24.0463 227.444 24.1718C227.384 24.2181 227.312 24.2379 227.246 24.2379Z" fill="#00A63D"/>
<path d="M118.696 46.7022C118.676 46.7022 118.656 46.7022 118.63 46.6955C118.451 46.6625 118.332 46.4841 118.372 46.3057C118.412 46.0877 118.458 45.8697 118.511 45.6516C118.55 45.4732 118.729 45.3609 118.907 45.4005C119.085 45.4402 119.198 45.6186 119.158 45.797C119.112 46.0084 119.066 46.2198 119.026 46.4379C118.986 46.5964 118.848 46.7022 118.696 46.7022Z" fill="#00A63D"/>
<path d="M119.733 42.8573C119.7 42.8573 119.661 42.8507 119.628 42.8375C119.456 42.778 119.363 42.5864 119.423 42.4146C119.568 41.9917 119.727 41.5689 119.892 41.1526C119.958 40.9808 120.15 40.9016 120.321 40.9676C120.493 41.0337 120.572 41.2253 120.506 41.3971C120.341 41.8067 120.189 42.2164 120.05 42.626C120.004 42.7714 119.872 42.8573 119.733 42.8573ZM121.597 38.5956C121.544 38.5956 121.491 38.5824 121.445 38.556C121.286 38.4701 121.22 38.2719 121.306 38.1067C121.517 37.7103 121.735 37.3205 121.96 36.9306C122.052 36.7721 122.257 36.7192 122.409 36.8117C122.568 36.9042 122.621 37.109 122.528 37.261C122.304 37.6376 122.092 38.0208 121.887 38.4106C121.828 38.5362 121.716 38.5956 121.597 38.5956ZM124.068 34.6644C124.002 34.6644 123.929 34.6445 123.876 34.5983C123.731 34.4926 123.698 34.2811 123.803 34.1358C124.068 33.7724 124.339 33.4222 124.616 33.0654C124.728 32.9201 124.94 32.9002 125.079 33.0126C125.224 33.1249 125.244 33.3363 125.131 33.4751C124.861 33.8186 124.59 34.1688 124.332 34.5256C124.273 34.6115 124.167 34.6644 124.068 34.6644ZM206.962 31.3674C206.955 31.3674 206.948 31.3674 206.942 31.3674C206.499 31.3475 206.05 31.3145 205.601 31.2683C205.422 31.2484 205.283 31.0899 205.303 30.9049C205.323 30.7199 205.482 30.5943 205.667 30.6075C206.109 30.6538 206.545 30.6802 206.975 30.7066C207.16 30.7132 207.299 30.8718 207.285 31.0502C207.279 31.2286 207.133 31.3674 206.962 31.3674ZM210.285 31.3277C210.113 31.3277 209.968 31.1956 209.955 31.0238C209.942 30.8388 210.08 30.6802 210.259 30.667C210.701 30.634 211.131 30.5877 211.567 30.5349C211.739 30.515 211.91 30.6406 211.937 30.819C211.957 30.9974 211.831 31.1625 211.653 31.189C211.21 31.2418 210.761 31.2881 210.312 31.3211C210.298 31.3277 210.292 31.3277 210.285 31.3277ZM127.054 31.0965C126.975 31.0965 126.889 31.0634 126.823 31.004C126.691 30.8784 126.684 30.667 126.81 30.5349C127.12 30.2111 127.431 29.894 127.754 29.5834C127.887 29.4579 128.091 29.4579 128.224 29.59C128.349 29.7222 128.349 29.927 128.217 30.0591C127.9 30.3631 127.596 30.6802 127.292 30.9974C127.226 31.0634 127.14 31.0965 127.054 31.0965ZM202.35 30.7661C202.33 30.7661 202.304 30.7661 202.284 30.7595C201.848 30.6736 201.412 30.5811 200.976 30.4754C200.797 30.4357 200.685 30.2574 200.724 30.079C200.764 29.9006 200.949 29.7882 201.121 29.8345C201.55 29.9336 201.98 30.0261 202.409 30.112C202.588 30.145 202.707 30.3234 202.667 30.5018C202.641 30.6604 202.502 30.7661 202.35 30.7661ZM214.871 30.5745C214.725 30.5745 214.586 30.4754 214.553 30.33C214.507 30.1516 214.613 29.9732 214.791 29.927C215.214 29.8147 215.637 29.6957 216.053 29.5636C216.225 29.5107 216.41 29.6032 216.469 29.7816C216.522 29.9534 216.43 30.1384 216.251 30.1979C215.822 30.33 215.392 30.4556 214.956 30.5679C214.923 30.5679 214.897 30.5745 214.871 30.5745ZM197.844 29.6297C197.811 29.6297 197.778 29.6231 197.751 29.6164C197.322 29.4909 196.899 29.3588 196.476 29.22C196.304 29.1672 196.205 28.9756 196.265 28.8038C196.317 28.632 196.509 28.5395 196.681 28.5923C197.104 28.7245 197.52 28.8566 197.943 28.9822C198.115 29.035 198.22 29.22 198.161 29.3918C198.115 29.5372 197.982 29.6297 197.844 29.6297ZM219.251 29.0284C219.126 29.0284 219.007 28.9557 218.947 28.8302C218.874 28.665 218.947 28.4668 219.112 28.3941C219.509 28.2157 219.912 28.0307 220.302 27.8391C220.467 27.7598 220.665 27.8259 220.744 27.9911C220.824 28.1563 220.758 28.3545 220.592 28.4338C220.189 28.632 219.786 28.8236 219.377 29.002C219.344 29.0218 219.297 29.0284 219.251 29.0284ZM193.43 28.1496C193.39 28.1496 193.351 28.143 193.318 28.1298C192.902 27.9779 192.485 27.8193 192.069 27.6673C191.897 27.6013 191.811 27.4096 191.877 27.2379C191.944 27.0661 192.135 26.9802 192.3 27.0462C192.717 27.2048 193.126 27.3568 193.542 27.5087C193.714 27.5682 193.8 27.7598 193.741 27.9316C193.688 28.0704 193.562 28.1496 193.43 28.1496ZM130.47 27.9448C130.378 27.9448 130.278 27.9052 130.212 27.8259C130.1 27.6871 130.12 27.4757 130.259 27.3634C130.602 27.0793 130.952 26.8018 131.309 26.5309C131.455 26.4186 131.659 26.4516 131.772 26.597C131.884 26.7423 131.851 26.9471 131.712 27.0595C131.362 27.3238 131.018 27.5946 130.675 27.8788C130.622 27.9184 130.543 27.9448 130.47 27.9448ZM223.367 26.8612C223.255 26.8612 223.149 26.8018 223.083 26.7027C222.991 26.5441 223.037 26.3459 223.196 26.2468C223.572 26.0221 223.942 25.7843 224.312 25.5464C224.464 25.4473 224.669 25.4869 224.768 25.6455C224.867 25.7975 224.821 26.0023 224.669 26.1014C224.292 26.3459 223.916 26.5837 223.533 26.815C223.486 26.848 223.427 26.8612 223.367 26.8612ZM189.083 26.4846C189.043 26.4846 189.003 26.478 188.964 26.4582L187.728 25.9693C187.556 25.9032 187.477 25.7116 187.543 25.5398C187.609 25.368 187.801 25.2887 187.973 25.3548L189.208 25.8437C189.38 25.9098 189.459 26.1014 189.393 26.2732C189.34 26.4053 189.215 26.4846 189.083 26.4846ZM134.243 25.2161C134.13 25.2161 134.025 25.1632 133.965 25.0641C133.866 24.9121 133.912 24.7073 134.064 24.6082C134.441 24.3703 134.824 24.1325 135.207 23.9078C135.366 23.8153 135.564 23.8682 135.663 24.0268C135.756 24.1853 135.703 24.3835 135.544 24.4827C135.168 24.7073 134.791 24.9385 134.421 25.1764C134.362 25.2028 134.302 25.2161 134.243 25.2161ZM184.755 24.7734C184.715 24.7734 184.676 24.7668 184.636 24.7535C184.226 24.595 183.81 24.4364 183.394 24.2778C183.222 24.2118 183.136 24.0201 183.202 23.855C183.268 23.6832 183.453 23.5973 183.625 23.6634C184.041 23.8219 184.458 23.9805 184.867 24.1391C185.039 24.2051 185.125 24.3968 185.059 24.5685C185.013 24.6941 184.887 24.7734 184.755 24.7734ZM180.381 23.1744C180.348 23.1744 180.308 23.1678 180.275 23.1546C179.859 23.0159 179.436 22.8771 179.02 22.7384C178.848 22.6855 178.749 22.4939 178.808 22.3221C178.868 22.1503 179.053 22.0512 179.225 22.1107C179.647 22.2428 180.07 22.3882 180.493 22.5269C180.665 22.5864 180.758 22.7714 180.698 22.9432C180.652 23.0885 180.52 23.1744 180.381 23.1744ZM138.3 22.9432C138.181 22.9432 138.062 22.8771 138.002 22.7582C137.923 22.593 137.989 22.3948 138.154 22.3155C138.557 22.1173 138.96 21.9323 139.37 21.7473C139.535 21.6746 139.733 21.7473 139.806 21.9125C139.879 22.0776 139.806 22.2758 139.641 22.3485C139.238 22.5269 138.841 22.7119 138.445 22.9101C138.399 22.9366 138.346 22.9432 138.3 22.9432ZM175.941 21.8001C175.914 21.8001 175.881 21.7935 175.848 21.7869C175.425 21.668 174.996 21.5491 174.573 21.4301C174.395 21.3839 174.296 21.1989 174.342 21.0271C174.388 20.8487 174.567 20.743 174.745 20.7958C175.174 20.9148 175.604 21.0337 176.027 21.1526C176.205 21.2055 176.304 21.3839 176.251 21.5623C176.212 21.701 176.08 21.8001 175.941 21.8001ZM142.594 21.1526C142.456 21.1526 142.33 21.0667 142.284 20.9346C142.224 20.7628 142.31 20.5712 142.489 20.5117C142.911 20.3598 143.334 20.221 143.764 20.0889C143.936 20.036 144.127 20.1285 144.18 20.3069C144.233 20.4787 144.14 20.6637 143.962 20.7232C143.539 20.8553 143.123 20.994 142.707 21.1394C142.667 21.146 142.627 21.1526 142.594 21.1526ZM171.435 20.624C171.408 20.624 171.382 20.624 171.362 20.6174C170.933 20.5183 170.503 20.4192 170.067 20.3267C169.889 20.2871 169.776 20.1087 169.816 19.9369C169.856 19.7585 170.027 19.6462 170.206 19.6858C170.642 19.7783 171.071 19.8774 171.507 19.9831C171.686 20.0228 171.798 20.2012 171.752 20.3796C171.725 20.5183 171.587 20.624 171.435 20.624ZM147.061 19.8642C146.909 19.8642 146.777 19.7585 146.737 19.6065C146.697 19.4281 146.81 19.2497 146.988 19.2101C147.424 19.111 147.86 19.0185 148.303 18.9326C148.481 18.8996 148.653 19.0119 148.693 19.1969C148.726 19.3753 148.613 19.5471 148.428 19.5867C147.999 19.6726 147.57 19.7585 147.14 19.8576C147.114 19.8642 147.087 19.8642 147.061 19.8642ZM166.876 19.6924C166.856 19.6924 166.836 19.6924 166.816 19.6858C166.38 19.6131 165.944 19.5405 165.508 19.4744C165.33 19.448 165.204 19.2762 165.231 19.0978C165.257 18.9194 165.429 18.7939 165.607 18.8203C166.05 18.8864 166.486 18.959 166.929 19.0317C167.107 19.0647 167.233 19.2365 167.2 19.4149C167.173 19.5801 167.034 19.6924 166.876 19.6924ZM151.646 19.0846C151.481 19.0846 151.336 18.959 151.316 18.7938C151.296 18.6155 151.428 18.4503 151.607 18.4305C152.049 18.3776 152.498 18.338 152.941 18.2983C153.113 18.2785 153.285 18.4172 153.298 18.6022C153.311 18.7872 153.179 18.9458 152.994 18.959C152.558 18.9987 152.115 19.0383 151.679 19.0912C151.673 19.0846 151.659 19.0846 151.646 19.0846ZM162.271 19.0581C162.257 19.0581 162.251 19.0581 162.238 19.0581C161.801 19.0119 161.359 18.9788 160.923 18.9458C160.738 18.9326 160.606 18.774 160.619 18.589C160.632 18.404 160.791 18.2653 160.976 18.2851C161.418 18.3181 161.861 18.3578 162.31 18.404C162.495 18.4238 162.627 18.5824 162.608 18.7674C162.581 18.9326 162.436 19.0581 162.271 19.0581ZM156.291 18.7938C156.113 18.7938 155.961 18.6485 155.961 18.4701C155.961 18.2851 156.106 18.1397 156.284 18.1331C156.734 18.1265 157.176 18.1265 157.626 18.1331C157.811 18.1331 157.956 18.2851 157.949 18.4701C157.949 18.6485 157.797 18.7938 157.619 18.7938C157.619 18.7938 157.619 18.7938 157.612 18.7938C157.176 18.7872 156.74 18.7872 156.291 18.7938C156.291 18.7938 156.298 18.7938 156.291 18.7938Z" fill="#00A63D"/>
<path d="M113.718 43.5648C113.657 43.6078 113.583 43.6323 113.503 43.6385C113.344 43.6507 113.196 43.5771 113.104 43.4483L110.074 38.9701C109.988 38.8413 109.976 38.6695 110.043 38.5284C110.111 38.3873 110.252 38.2892 110.411 38.283L115.804 37.9027C115.963 37.8904 116.11 37.964 116.202 38.0929C116.288 38.2217 116.3 38.3935 116.233 38.5345L113.871 43.3992C113.834 43.4606 113.779 43.5219 113.718 43.5648ZM111.233 39.1051L113.405 42.3195L115.104 38.829L111.233 39.1051Z" fill="#00A63D"/>
<path d="M163.757 26.7942C163.684 26.5431 163.42 26.3977 163.169 26.477L161.246 27.0452L160.678 25.1225C160.605 24.8715 160.341 24.7261 160.09 24.8054C159.839 24.8781 159.693 25.1424 159.773 25.3934L160.341 27.3161L158.418 27.8843C158.167 27.957 158.022 28.2213 158.101 28.4724C158.174 28.7235 158.438 28.8688 158.689 28.7895L160.612 28.2213L161.18 30.144C161.253 30.3951 161.517 30.5404 161.768 30.4611C162.019 30.3885 162.164 30.1242 162.085 29.8731L161.517 27.9504L163.44 27.3822C163.684 27.3095 163.829 27.0452 163.757 26.7942Z" fill="#00A63D"/>
<circle cx="566.973" cy="26.1406" r="105.281" transform="rotate(75 566.973 26.1406)" fill="url(#paint0_linear_240_70746)"/>
<circle cx="767.259" cy="195.259" r="43.4859" transform="rotate(75 767.259 195.259)" fill="url(#paint1_linear_240_70746)"/>
<circle cx="32.5" cy="204.5" r="116.5" fill="url(#paint2_linear_240_70746)"/>
<g clip-path="url(#clip1_240_70746)">
<g opacity="0.4">
<g opacity="0.4">
<g opacity="0.4">
<path d="M1137.45 106.695C1140.15 99.7528 1143.55 93.0933 1147.57 86.8251C1151.58 80.5474 1156.2 74.6702 1161.34 69.2739C1166.47 63.8822 1172.12 58.976 1178.2 54.6683C1184.45 50.2428 1191.17 46.3546 1198.23 43.3713C1205.88 40.1429 1214.46 38.0503 1222.71 39.9968C1229.41 41.5803 1235.55 45.6948 1238.26 52.1846C1241.25 59.32 1241.5 67.827 1239.45 75.2311C1237.7 81.5654 1234.02 87.1503 1229.19 91.571C1224.4 95.9541 1218.59 99.1825 1212.46 101.294C1206.22 103.443 1199.59 104.494 1192.99 104.301C1191.41 104.254 1189.84 104.136 1188.27 103.943C1187.33 103.825 1187.34 105.309 1188.27 105.423C1194.99 106.247 1201.88 105.715 1208.43 104.046C1214.95 102.387 1221.24 99.5784 1226.65 95.5677C1231.91 91.6653 1236.37 86.6177 1239.07 80.6133C1242.44 73.1244 1243.06 64.4713 1241.18 56.5064C1240.45 53.3864 1239.32 50.2569 1237.42 47.6412C1235.26 44.6579 1232.32 42.3061 1229.02 40.6896C1221.55 37.0276 1213.04 37.169 1205.16 39.3605C1200.83 40.567 1196.67 42.3344 1192.65 44.3233C1189.23 46.0152 1185.89 47.8816 1182.66 49.9129C1176.17 53.9943 1170.09 58.7262 1164.53 63.9953C1158.99 69.2456 1153.96 75.0426 1149.53 81.259C1145.11 87.4755 1141.29 94.1255 1138.19 101.091C1137.43 102.812 1136.7 104.546 1136.02 106.299C1135.68 107.19 1137.11 107.572 1137.45 106.695Z" fill="#00A63D"/>
</g>
</g>
<g opacity="0.4">
<path d="M1142.63 106.934C1156.4 84.1793 1175.52 63.2347 1200.67 54.5487C1205.49 52.885 1210.59 51.6832 1215.66 52.1969C1220.73 52.7106 1225.79 55.1613 1228.49 59.4784C1231.14 63.706 1231.2 69.1259 1229.97 73.9568C1227.79 82.4826 1221.94 89.7359 1214.91 95.0286C1207.87 100.317 1199.67 103.823 1191.4 106.868" fill="#00A63D"/>
<g opacity="0.4">
<path opacity="0.4" d="M1143.27 107.307C1149.01 97.82 1155.57 88.7852 1163.2 80.7119C1170.68 72.7893 1179.2 65.7905 1188.81 60.5874C1193.77 57.901 1199.03 55.634 1204.47 54.1306C1210.27 52.5329 1216.68 52.0192 1222.19 54.8375C1224.58 56.0582 1226.69 57.8491 1228.06 60.1821C1229.53 62.7035 1230.07 65.6444 1229.99 68.5382C1229.86 74.1514 1227.57 79.6043 1224.43 84.19C1217.58 94.1957 1206.57 100.139 1195.56 104.498C1194.11 105.069 1192.66 105.62 1191.21 106.157C1190.32 106.483 1190.7 107.915 1191.6 107.585C1203.29 103.268 1215.19 97.8766 1223.33 88.0783C1226.99 83.6763 1229.84 78.4732 1230.98 72.827C1232.13 67.0866 1231.36 60.7335 1227 56.4682C1222.76 52.3114 1216.58 50.9352 1210.81 51.4536C1204.62 52.0097 1198.58 54.2814 1192.97 56.8641C1182.74 61.5724 1173.56 68.3685 1165.54 76.2345C1157.39 84.223 1150.36 93.3333 1144.25 102.952C1143.48 104.15 1142.74 105.356 1142 106.572C1141.5 107.378 1142.78 108.123 1143.27 107.307Z" fill="#659FEB"/>
</g>
</g>
<g opacity="0.4">
<g opacity="0.4">
<path d="M1119.67 147.536C1121.46 157.282 1125.88 166.524 1133.57 172.976C1140.13 178.476 1148.32 181.596 1156.7 183.001C1160.72 183.675 1164.81 183.991 1168.89 184.005C1174.77 184.024 1180.79 183.218 1185.97 180.253C1196.58 174.178 1198.26 161.18 1203.09 151.047C1207.78 141.211 1214.01 130.979 1224.36 126.351C1225.63 125.785 1226.95 125.328 1228.28 124.956C1229.2 124.701 1228.81 123.273 1227.89 123.528C1222.58 125.007 1217.88 127.958 1213.99 131.832C1210.04 135.767 1206.94 140.49 1204.3 145.372C1202.96 147.851 1201.7 150.382 1200.61 152.979C1199.5 155.599 1198.56 158.286 1197.58 160.958C1195.68 166.166 1193.57 171.558 1189.62 175.587C1185.29 179.994 1179.19 181.936 1173.15 182.398C1168.9 182.723 1164.56 182.52 1160.34 182.035C1152.17 181.092 1144.01 178.646 1137.21 173.914C1129.41 168.485 1124.34 160.265 1121.97 151.146C1121.63 149.821 1121.34 148.488 1121.1 147.144C1120.93 146.206 1119.5 146.602 1119.67 147.536Z" fill="#00A63D"/>
</g>
</g>
<g opacity="0.4">
<path d="M1127.12 107.382C1127.16 107.957 1126.48 108.452 1125.95 108.23C1120.83 92.8611 1121.6 76.2713 1120.83 60.0963C1120.06 43.9213 1117.25 26.8273 1106.63 14.5971C1102.11 9.40338 1095.94 5.18997 1089.06 4.85063C1082.19 4.5113 1074.86 9.03577 1073.7 15.8178C1073.26 18.4146 1073.71 21.068 1073.9 23.6979C1074.25 28.4392 1073.75 33.2464 1072.43 37.818C1071.99 39.3168 1071.44 40.8532 1070.29 41.9089C1067.22 44.7273 1062.2 42.6253 1058.22 43.8507C1055.5 44.6849 1053.5 47.0414 1052.24 49.5817C1049.83 54.4313 1049.62 60.1906 1050.95 65.4409C1052.29 70.6912 1055.07 75.4796 1058.38 79.7684C1068 92.2295 1082.44 100.868 1097.96 103.461" fill="#00A63D"/>
<g opacity="0.4">
<path opacity="0.4" d="M1126.38 107.382C1126.38 107.523 1126.26 107.551 1126.15 107.518C1126.33 107.693 1126.5 107.862 1126.67 108.037C1123.53 98.5543 1122.61 88.5627 1122.2 78.6325C1121.81 69.1593 1121.87 59.6485 1120.81 50.2131C1119.85 41.7156 1118.06 33.2275 1114.45 25.4369C1110.94 17.882 1105.48 10.5485 1097.96 6.63204C1094.34 4.74685 1090.2 3.69585 1086.12 4.2567C1082.49 4.75156 1078.94 6.43881 1076.4 9.09694C1075.15 10.4024 1074.15 11.9342 1073.53 13.6308C1072.73 15.7658 1072.69 18.0658 1072.86 20.3139C1073.05 22.8589 1073.33 25.3756 1073.25 27.9348C1073.17 30.4704 1072.84 32.9918 1072.28 35.4661C1071.81 37.5163 1071.33 40.066 1069.64 41.4988C1068.22 42.7147 1066.21 42.7619 1064.43 42.7383C1062.48 42.7147 1060.51 42.5545 1058.6 42.9881C1056.64 43.4358 1054.92 44.6329 1053.63 46.1458C1050.74 49.5109 1049.5 54.1202 1049.41 58.4797C1049.31 63.1361 1050.55 67.6983 1052.55 71.874C1054.5 75.9272 1057.16 79.6363 1060.1 83.025C1062.87 86.2062 1065.96 89.0953 1069.29 91.6639C1075.97 96.8058 1083.65 100.652 1091.78 102.867C1093.75 103.404 1095.75 103.838 1097.77 104.177C1098.71 104.332 1099.11 102.909 1098.16 102.749C1089.9 101.359 1081.98 98.2856 1074.91 93.7989C1067.76 89.265 1061.43 83.2748 1056.74 76.2147C1051.75 68.6975 1048.63 58.753 1052.8 50.1377C1053.65 48.3656 1054.83 46.6501 1056.48 45.5237C1058.13 44.3878 1060 44.1522 1061.97 44.1616C1063.9 44.171 1065.88 44.3737 1067.79 43.9542C1069.76 43.5254 1071.33 42.2906 1072.22 40.4808C1073.24 38.4165 1073.72 36.0223 1074.11 33.7742C1074.54 31.3281 1074.76 28.8491 1074.74 26.3654C1074.71 21.8786 1073.27 17.0289 1075.48 12.8343C1077.16 9.6625 1080.27 7.40026 1083.65 6.31627C1087.43 5.10032 1091.42 5.4915 1095.09 6.93368C1102.97 10.0254 1108.73 17.3117 1112.43 24.6687C1116.24 32.2519 1118.17 40.6834 1119.19 49.0678C1120.32 58.3619 1120.3 67.7407 1120.65 77.0866C1121.01 86.9179 1121.76 96.8576 1124.58 106.335C1124.74 106.896 1124.92 107.457 1125.1 108.013C1125.28 108.565 1125.45 108.956 1126.09 109.012C1127.04 109.097 1127.84 108.32 1127.86 107.382C1127.88 106.43 1126.41 106.43 1126.38 107.382Z" fill="#659FEB"/>
</g>
</g>
<g opacity="0.4">
<g opacity="0.4">
<path opacity="0.4" d="M1067.68 35.2378C1056.96 34.3754 1047.25 42.7645 1044.77 52.8786C1043.4 58.4682 1043.95 64.4348 1045.92 69.8124C1047.88 75.1852 1051.24 79.9217 1055.44 83.7817C1060.17 88.1224 1065.83 91.3319 1071.81 93.6271C1072.7 93.9712 1073.08 92.5384 1072.2 92.1991C1062.19 88.3486 1052.77 81.5336 1048.22 71.5609C1045.96 66.5981 1044.95 60.9237 1045.76 55.5084C1046.52 50.4137 1048.91 45.7667 1052.69 42.2508C1056.72 38.5087 1062.14 36.27 1067.68 36.7177C1068.63 36.7931 1068.63 35.3133 1067.68 35.2378Z" fill="#659FEB"/>
</g>
</g>
<g opacity="0.4">
<path d="M1094.9 96.6247C1086.09 94.3577 1071.41 99.2357 1062.32 99.5231C1053.22 99.8106 1043.86 102.794 1037.62 109.416C1034.83 112.38 1032.71 116.895 1034.73 120.425C1035.48 121.726 1036.7 122.692 1037.99 123.446C1044.96 127.509 1053.77 125.85 1061.66 127.57C1064.95 128.291 1068.49 130.03 1069.38 133.278C1070.5 137.373 1066.83 141.733 1068.18 145.758C1068.95 148.053 1071.25 149.58 1073.63 150.018C1076.01 150.456 1078.46 149.971 1080.78 149.292C1086.19 147.714 1091.35 145.018 1095.24 140.946C1099.13 136.878 1101.64 131.35 1101.46 125.727C1101.32 121.457 1116.03 99.1131 1114.2 95.2532" fill="#00A63D"/>
<g opacity="0.4">
<path opacity="0.4" d="M1095.1 95.913C1091.82 95.0882 1088.36 95.1966 1085.02 95.5218C1081.18 95.8941 1077.38 96.5869 1073.59 97.2609C1070.16 97.8736 1066.72 98.5287 1063.24 98.7408C1061.33 98.8586 1059.43 98.9293 1057.54 99.1838C1055.58 99.4477 1053.63 99.8436 1051.73 100.381C1047.91 101.465 1044.22 103.124 1041.01 105.471C1037.87 107.771 1034.88 110.721 1033.66 114.51C1033.09 116.283 1032.98 118.248 1033.71 119.987C1034.46 121.83 1036 123.154 1037.7 124.13C1041.31 126.203 1045.49 126.821 1049.58 127.127C1053.7 127.433 1057.91 127.391 1061.94 128.39C1065.2 129.196 1068.86 131.161 1068.86 134.97C1068.85 138.679 1066.21 142.199 1067.47 145.951C1068.78 149.877 1073.25 151.258 1077.01 150.838C1079.23 150.593 1081.39 149.947 1083.48 149.189C1085.43 148.477 1087.33 147.624 1089.13 146.597C1092.68 144.57 1095.85 141.86 1098.2 138.495C1100.53 135.144 1102.02 131.161 1102.2 127.071C1102.22 126.5 1102.17 125.925 1102.22 125.355C1102.2 125.581 1102.25 125.214 1102.27 125.134C1102.3 124.973 1102.34 124.813 1102.39 124.653C1102.6 123.908 1102.91 123.121 1103.2 122.457C1105.2 117.819 1107.73 113.408 1110.04 108.921C1111.21 106.635 1112.36 104.34 1113.37 101.979C1114.1 100.277 1114.88 98.4863 1115.07 96.6246C1115.13 96.0261 1115.09 95.437 1114.84 94.8855C1114.44 94.0184 1113.17 94.7724 1113.56 95.6302C1113.46 95.3993 1113.57 95.7009 1113.59 95.7763C1113.62 95.8847 1113.61 95.9036 1113.6 95.7763C1113.61 95.847 1113.61 95.9177 1113.61 95.9931C1113.62 96.1251 1113.61 96.257 1113.61 96.389C1113.6 96.455 1113.6 96.521 1113.59 96.5916C1113.57 96.7425 1113.6 96.5351 1113.57 96.733C1113.44 97.5201 1113.21 98.2836 1112.95 99.033C1112.22 101.102 1111.28 103.091 1110.31 105.061C1108.04 109.713 1105.51 114.228 1103.23 118.879C1102.41 120.562 1101.56 122.282 1101.01 124.083C1100.83 124.653 1100.71 125.237 1100.72 125.836C1100.74 127.825 1100.49 129.762 1099.91 131.666C1097.54 139.48 1090.79 144.9 1083.35 147.671C1079.67 149.043 1074.96 150.57 1071.3 148.378C1069.84 147.506 1068.76 146.078 1068.63 144.348C1068.49 142.539 1069.11 140.776 1069.6 139.056C1070.1 137.307 1070.52 135.502 1070.22 133.678C1069.95 132.043 1068.99 130.582 1067.73 129.535C1064.85 127.16 1060.99 126.547 1057.39 126.189C1053.34 125.784 1049.24 125.855 1045.22 125.157C1043.31 124.827 1041.4 124.323 1039.64 123.489C1037.92 122.669 1036.14 121.575 1035.24 119.822C1033.5 116.462 1035.85 112.39 1038.14 109.944C1040.77 107.139 1044.03 104.99 1047.53 103.444C1051.04 101.898 1054.85 100.956 1058.66 100.527C1060.42 100.329 1062.19 100.315 1063.95 100.169C1065.6 100.037 1067.25 99.8106 1068.89 99.5561C1075.97 98.4533 1083.12 96.5681 1090.34 96.7802C1091.81 96.8226 1093.27 96.9781 1094.69 97.3363C1095.63 97.572 1096.02 96.1439 1095.1 95.913Z" fill="#659FEB"/>
</g>
</g>
<g opacity="0.4">
<g opacity="0.4">
<path opacity="0.4" d="M1066.91 127.698C1067.18 130.031 1066.25 132.449 1065.47 134.603C1064.5 137.285 1063.37 139.905 1062.54 142.639C1061.89 144.788 1061.24 147.366 1062.03 149.562C1063.08 152.479 1065.69 154.69 1068.43 155.972C1074.7 158.903 1082.16 158.069 1088.36 155.397C1095 152.541 1100.46 147.436 1104.2 141.305C1108.17 134.787 1110.25 127.284 1111.11 119.748C1111.21 118.824 1111.3 117.9 1111.37 116.976C1111.44 116.024 1109.96 116.029 1109.89 116.976C1109.35 124.216 1107.71 131.492 1104.37 137.978C1101.16 144.194 1096.37 149.506 1090.19 152.866C1084.49 155.962 1077.44 157.428 1071.14 155.444C1068.28 154.544 1065.52 152.856 1063.98 150.217C1063.44 149.284 1063.16 148.374 1063.16 147.295C1063.17 146.164 1063.41 145.052 1063.7 143.963C1064.4 141.324 1065.47 138.798 1066.43 136.248C1067.3 133.948 1068.21 131.563 1068.4 129.094C1068.44 128.627 1068.44 128.16 1068.39 127.694C1068.28 126.765 1066.8 126.756 1066.91 127.698Z" fill="#659FEB"/>
</g>
</g>
<g opacity="0.4">
<path d="M1111.55 100.44C1114.13 106.925 1127.04 149.667 1130.59 155.69C1132.86 159.555 1135.36 163.354 1138.7 166.347C1142.37 169.646 1146.9 171.823 1151.45 173.755C1157.89 176.494 1165.52 178.765 1171.63 175.353C1176.9 172.407 1179.33 165.894 1179.1 159.866C1178.88 153.838 1170.69 104.357 1168.32 98.8093" fill="#00A63D"/>
<g opacity="0.4">
<path d="M1110.84 100.638C1112.37 104.484 1113.54 108.49 1114.81 112.425C1116.86 118.731 1118.88 125.042 1120.94 131.338C1122.88 137.229 1124.82 143.125 1126.96 148.941C1127.67 150.864 1128.39 152.792 1129.24 154.658C1129.63 155.521 1130.09 156.317 1130.58 157.128C1131.93 159.366 1133.38 161.553 1135.05 163.58C1138.46 167.723 1142.86 170.616 1147.68 172.883C1152.29 175.051 1157.15 177.092 1162.25 177.672C1166.97 178.209 1171.82 177.054 1175.16 173.52C1178.17 170.329 1179.64 165.889 1179.83 161.563C1179.91 159.904 1179.73 158.278 1179.52 156.633C1179.26 154.474 1178.95 152.32 1178.64 150.167C1177.74 144.101 1176.76 138.045 1175.75 132.003C1174.67 125.631 1173.55 119.264 1172.33 112.915C1171.49 108.589 1170.72 104.187 1169.48 99.9544C1169.33 99.4407 1169.16 98.9317 1168.95 98.4368C1168.8 98.0645 1168.26 97.9938 1167.94 98.1729C1167.56 98.3897 1167.52 98.8186 1167.68 99.1862C1167.56 98.9128 1167.69 99.2286 1167.72 99.304C1167.76 99.4218 1167.8 99.5397 1167.84 99.6575C1167.93 99.9356 1168.01 100.214 1168.1 100.496C1168.31 101.25 1168.5 102.014 1168.68 102.777C1169.2 104.927 1169.65 107.085 1170.09 109.253C1171.3 115.225 1172.38 121.219 1173.42 127.224C1174.51 133.483 1175.55 139.751 1176.52 146.029C1177.17 150.28 1177.84 154.385 1178.26 158.603C1178.95 165.597 1175.94 173.746 1168.59 175.815C1163.83 177.153 1158.71 175.782 1154.22 174.09C1149.43 172.285 1144.51 170.088 1140.47 166.893C1136.55 163.782 1133.61 159.555 1131.16 155.228C1130.35 153.805 1129.9 152.537 1129.31 151.029C1127.26 145.741 1125.47 140.345 1123.69 134.963C1121.58 128.609 1119.53 122.237 1117.47 115.87C1115.97 111.228 1114.52 106.567 1112.89 101.962C1112.69 101.392 1112.48 100.822 1112.26 100.256C1111.92 99.37 1110.48 99.747 1110.84 100.638Z" fill="#6C10B9"/>
</g>
</g>
<g opacity="0.4">
<path d="M1160.89 83.9392C1164.07 78.0668 1167.27 72.1143 1168.85 65.6292C1170.42 59.1441 1170.2 51.9521 1166.79 46.2164C1166.1 45.0711 1165.27 43.9589 1164.1 43.3132C1162.94 42.6628 1161.38 42.578 1160.33 43.398C1159.47 44.0673 1159.1 45.1701 1158.78 46.2117C1157.97 48.8086 1157.17 51.4007 1156.36 53.9976C1156.2 54.5254 1156.02 55.0768 1155.62 55.4727C1154.72 56.3776 1153.12 55.9817 1152.15 55.1475C1151.18 54.3133 1150.54 53.1398 1149.57 52.3103C1147.03 50.1423 1142.82 51.0849 1140.63 53.6064C1138.43 56.1231 1144.21 98.6249 1144.33 101.962" fill="#00A63D"/>
<g opacity="0.4">
<path opacity="0.4" d="M1161.53 84.3114C1164.76 78.3494 1168.04 72.2744 1169.61 65.6338C1171.02 59.653 1170.96 53.116 1168.3 47.4793C1167.11 44.9626 1165.1 41.8473 1161.91 42.0688C1160.48 42.1678 1159.34 43.0067 1158.71 44.2886C1157.97 45.7968 1157.59 47.5264 1157.09 49.1241C1156.84 49.9395 1156.59 50.7548 1156.33 51.5702C1156.05 52.4798 1155.82 53.4412 1155.46 54.3226C1154.91 55.6705 1153.42 55.3029 1152.53 54.4875C1151.41 53.479 1150.72 52.1216 1149.44 51.2874C1148.38 50.5993 1147.08 50.3071 1145.83 50.3589C1144.58 50.4108 1143.35 50.7737 1142.25 51.3675C1141.42 51.82 1140.42 52.4892 1139.92 53.3187C1139.57 53.8843 1139.53 54.6431 1139.47 55.2793C1139.25 57.7206 1139.43 60.2138 1139.57 62.6552C1140.02 70.1347 1140.86 77.5906 1141.7 85.0324C1142.31 90.4618 1143.07 95.8865 1143.55 101.33C1143.57 101.537 1143.59 101.745 1143.59 101.952C1143.63 102.899 1145.11 102.904 1145.07 101.952C1145.01 100.406 1144.77 98.8557 1144.6 97.3192C1144.25 94.3123 1143.89 91.3054 1143.55 88.2985C1142.7 80.9227 1141.87 73.5375 1141.3 66.1333C1141.07 63.2914 1140.87 60.4353 1140.87 57.5793C1140.87 56.6649 1140.89 55.7459 1141 54.841C1140.97 55.0767 1141.03 54.6478 1141.05 54.5488C1141.08 54.4168 1141.12 54.2896 1141.15 54.1623C1141.2 53.9644 1141.14 54.1906 1141.14 54.1623C1141.14 54.1529 1141.18 54.0681 1141.2 54.0586C1141.35 53.988 1140.95 54.299 1141.26 53.9927C1141.48 53.7664 1141.7 53.5355 1141.95 53.3329C1143.72 51.886 1146.51 51.2309 1148.56 52.4751C1149.79 53.2197 1150.44 54.5771 1151.48 55.5291C1152.41 56.3822 1153.76 56.9571 1155.03 56.6178C1156.56 56.2078 1156.93 54.6242 1157.34 53.2904C1157.87 51.5843 1158.4 49.8782 1158.93 48.1721C1159.17 47.4039 1159.39 46.631 1159.65 45.8722C1159.87 45.2124 1160.15 44.4866 1160.7 44.0247C1161.77 43.1245 1163.36 43.5675 1164.35 44.3593C1165.5 45.2783 1166.26 46.6592 1166.89 47.9553C1167.54 49.2938 1168.03 50.7171 1168.38 52.164C1169.09 55.0955 1169.19 58.1542 1168.88 61.147C1168.22 67.5802 1165.5 73.5987 1162.54 79.2732C1161.79 80.7106 1161.02 82.1339 1160.26 83.5573C1159.8 84.4056 1161.08 85.1503 1161.53 84.3114Z" fill="#659FEB"/>
</g>
</g>
</g>
<path d="M1028.85 51.4986C1045.68 64.8599 1074.54 43.7928 1074.54 43.7928L1080.47 38.6839C1087.65 35.4979 1090.02 33.0001 1090.02 33.0001L1085.35 35.1445L1090.92 30.7472C1091.07 30.6247 1090.42 30.7143 1090.25 30.8038L1085.04 33.5138L1090.4 28.7489C1090.52 28.6405 1090.39 28.452 1090.25 28.5274L1083.85 32.0575C1083.85 32.0575 1088.89 27.3963 1088.09 27.5236C1087.29 27.6508 1080.66 32.2743 1080.66 32.2743C1080.66 32.2743 1083.4 27.8252 1082.57 28.0655C1082.03 28.2211 1079.93 30.9075 1078.52 32.7738C1077.61 33.9756 1077.87 34.3857 1076.55 35.1539L1067.01 40.8048C1059 45.7157 1044.78 49.4531 1034.1 40.6304C1034.1 40.6304 1030.02 38.486 1026.51 42.7984C1023 47.1108 1028.85 51.4986 1028.85 51.4986Z" fill="#FFC3A8" stroke="#FFA47A" stroke-width="0.695911" stroke-miterlimit="10" stroke-linecap="round" stroke-linejoin="round"/>
<path d="M1053.5 45.3527C1047.09 46.2199 1042.01 44.2781 1034.1 40.635C1034.1 40.635 1030.02 38.4906 1026.51 42.803C1023 47.1153 1028.86 51.5031 1028.86 51.5031C1034.52 55.9993 1038.26 58.1532 1045.09 56.9702L1053.5 45.3527Z" fill="#FF7F4D" stroke="#FF7F4D" stroke-width="0.280864" stroke-miterlimit="10"/>
<path d="M1053.87 45.3154L1050.48 55.3871C1050.48 55.3871 1047.87 55.9715 1046.24 55.9904L1053.87 45.3154Z" fill="#C7B836"/>
<path d="M1077.07 34.3618C1077.36 34.8143 1077.57 35.5542 1077.27 35.7427C1076.96 35.936 1076.25 35.5024 1075.97 35.0499" fill="#CF5540"/>
<path d="M1081.73 31.1149C1081.73 31.1149 1080.98 33.264 1080.98 33.2027L1083.98 29.635L1081.73 31.1149Z" fill="#CF5540"/>
<path d="M1024.29 0.692627C1029.29 2.25263 1041.78 19.1063 1041.78 19.1063C1043.53 20.5956 1045.55 23.6496 1046.12 26.567C1046.32 27.6321 1045.6 30.7662 1044.75 31.4261L1028.11 44.9288C1028.11 44.9288 1014.72 40.1875 1017.96 29.8613C1021.19 19.5352 1023.92 21.7409 1022.33 15.8261C1020.74 9.91596 1024.29 0.692627 1024.29 0.692627Z" fill="#00043B"/>
<path d="M1045.38 25.4078C1044.49 23.0418 1043.62 20.6524 1042.44 18.409C1041.2 16.0525 1039.58 13.9552 1037.98 11.8438C1036.03 9.28933 1034.04 6.848 1031.6 4.75071C1029.74 3.15301 1027.82 1.63071 1025.93 0.075425C1025.63 -0.169651 1025.2 0.254519 1025.5 0.499594C1028.28 2.79011 1031.25 4.95337 1033.72 7.58322C1034.89 8.82274 1035.93 10.1612 1036.97 11.5091C1038.51 13.5216 1040.1 15.5246 1041.38 17.7256C1042.81 20.2046 1043.79 22.9005 1044.8 25.568C1044.93 25.9262 1045.52 25.7707 1045.38 25.4078Z" fill="#00043B"/>
<path d="M1034.44 27.2972C1034.34 27.4009 1034.19 27.4009 1034.1 27.2972C1033.72 26.8589 1032.71 25.9352 1031.48 26.8919C1030.23 27.8581 1031.58 29.5595 1031.94 30.356C1032.47 31.5201 1032.86 35.0595 1031.63 37.9675C1030.74 40.0647 1027.13 43.788 1027.13 43.788C1027.13 43.788 1032.07 49.3022 1035.69 46.8939C1035.69 46.8939 1036.04 39.1221 1037.23 37.5857C1037.26 37.5527 1040.33 39.3955 1043.81 34.1829C1047.08 29.272 1043.84 26.1991 1043.05 25.5723C1042.4 25.0397 1039.36 22.1506 1034.44 27.2972Z" fill="#FFC3A8"/>
<path d="M1035.95 43.7458C1035.83 43.7553 1030.88 46.1683 1030.88 46.1683C1030.88 46.1683 1033.17 48.4871 1035.69 46.8894L1035.95 43.7458Z" fill="#CF5540"/>
<path d="M1042.69 35.4035L1039.92 33.8577C1039.92 33.8577 1039.87 35.5732 1040.75 35.8795C1041.63 36.1906 1042.69 35.4035 1042.69 35.4035Z" fill="white"/>
<path d="M1033.64 28.0044C1033.27 27.632 1032.57 27.4529 1032.2 27.8206C1031.83 28.1882 1031.92 28.9611 1032.29 29.3334" fill="#CF5540"/>
<path d="M1042.56 33.0186L1041.63 34.3288L1042.4 34.6681C1042.54 34.7294 1042.69 34.621 1042.68 34.4654L1042.56 33.0186Z" fill="#CF5540"/>
<path d="M1045.28 27.9569C1045.28 27.9569 1037.28 29.6489 1034.1 27.2971C1030.91 24.9453 1039.12 18.776 1042.18 22.4333C1045.25 26.0906 1045.28 27.9569 1045.28 27.9569Z" fill="#00043B"/>
<path d="M1037.26 37.5956C1037.26 37.5956 1035.47 36.7614 1034.47 34.7443C1033.91 33.6179 1033.91 39.0897 1036.37 40.381C1036.37 40.381 1036.81 38.8964 1037.26 37.5956Z" fill="#CF5540"/>
<path d="M1041.5 29.9271C1041.15 29.9696 1041.97 29.3847 1042.36 29.4791C1042.76 29.5734 1043.01 29.9271 1042.93 30.2714C1042.93 30.2714 1042.34 29.8328 1041.5 29.9271Z" fill="#00043B"/>
<path d="M1045.17 31.0721C1044.86 30.8033 1044.4 30.7939 1044.17 31.0627C1044.17 31.0627 1044.63 31.2136 1045.02 31.6617" fill="#00043B"/>
<path d="M1041.46 32.1661C1041.34 32.4208 1041.34 32.6755 1041.46 32.7368C1041.59 32.7981 1041.79 32.6378 1041.91 32.3831C1042.03 32.1284 1042.03 31.8737 1041.91 31.8124C1041.79 31.7511 1041.59 31.9114 1041.46 32.1661Z" fill="#00043B"/>
<path d="M1043.22 33.0185C1043.1 33.2637 1043.1 33.5042 1043.22 33.5656C1043.34 33.6222 1043.53 33.4712 1043.65 33.226C1043.77 32.9807 1043.77 32.7402 1043.65 32.6836C1043.53 32.6223 1043.34 32.7732 1043.22 33.0185Z" fill="#00043B"/>
<path opacity="0.37" d="M1036.53 32.3119C1036.27 33.1225 1036.73 33.985 1037.54 34.2395C1038.35 34.494 1039.21 34.0416 1039.47 33.2309C1039.72 32.4203 1039.27 31.5578 1038.46 31.3033C1037.65 31.0488 1036.78 31.5013 1036.53 32.3119Z" fill="#E8632E" stroke="#E8632E" stroke-width="0.149747" stroke-miterlimit="10"/>
<path d="M1032.89 25.5674C1033.81 26.5854 1034.6 27.7401 1035.69 28.5885C1036.69 29.3708 1037.83 29.7102 1039.1 29.6253C1041.52 29.4651 1044.18 28.7534 1045.98 27.0662C1046.22 26.8494 1045.87 26.5006 1045.64 26.7174C1043.94 28.3057 1041.38 28.9796 1039.1 29.1305C1037.79 29.2153 1036.66 28.8053 1035.67 27.9381C1034.76 27.1274 1034.05 26.1141 1033.24 25.214C1033.02 24.983 1032.67 25.3318 1032.89 25.5674Z" fill="#00043B"/>
<path d="M963.018 50.0519C962.452 46.3287 962.122 37.1289 962.122 37.1289L946.171 37.9914C948.199 38.9717 955.331 43.4019 955.331 43.4019L956.59 50.495C956.585 50.495 963.023 49.986 963.018 50.0519Z" fill="#FFC3A8"/>
<path d="M955.284 43.3916L945.955 38.1743C945.535 37.9434 945.639 37.3071 946.11 37.2317C949.978 36.6331 960.411 35.0967 963.156 34.7008C963.49 34.6537 963.769 34.9459 963.717 35.2805C963.424 37.1374 963.028 42.2887 962.769 43.8016C962.726 44.042 959.67 40.2339 958.599 40.8513C957.675 41.3838 955.364 43.368 955.284 43.3916Z" fill="#CF5540" stroke="#659FEB" stroke-width="0.149747" stroke-miterlimit="10"/>
<path d="M954.732 43.1236L956.203 41.1488C956.552 40.6822 956.453 40.0177 955.987 39.669C955.52 39.3202 954.855 39.4192 954.506 39.8858L952.855 42.1009" stroke="#F8F1EE" stroke-width="0.34147" stroke-miterlimit="10"/>
<path d="M960.099 45.7283C960.198 47.9576 960.344 50.1821 960.344 50.1821L963.127 50.0501L962.769 43.8007C962.769 43.8007 960.491 41.2227 960.127 41.251C959.944 41.2651 959.995 43.4991 960.099 45.7283Z" fill="#EDA07C"/>
<path d="M951.581 79.97C949.105 77.5098 946.658 70.0161 946.658 70.0161C946.658 70.0161 929.73 75.0307 929.886 75.0826C930.037 75.1344 940.154 78.919 940.154 78.919L946.346 83.5613C946.351 83.5566 951.039 80.2433 951.581 79.97Z" fill="#FFC3A8" stroke="#FFA47A" stroke-width="0.614647" stroke-miterlimit="10"/>
<path d="M939.856 79.1823L929.805 75.4355C929.357 75.2658 929.367 74.6201 929.824 74.4835C933.569 73.3429 943.677 70.3407 946.337 69.5584C946.657 69.4641 947.247 69.9826 947.346 70.3078C947.959 72.3343 949.138 75.5533 949.699 76.609C949.813 76.8258 943.677 75.525 942.705 76.2885C941.865 76.9484 940.144 79.3473 939.856 79.1823Z" fill="#CF5540" stroke="#659FEB" stroke-width="0.149747" stroke-miterlimit="10"/>
<path d="M939.054 78.7355L940.059 76.2235C940.276 75.6815 940.017 75.0641 939.474 74.8473C938.932 74.6305 938.314 74.8897 938.097 75.4317L937.064 77.9908" stroke="#F8F1EE" stroke-width="0.34147" stroke-miterlimit="10"/>
<path d="M947.798 82.9194L941.332 77.7021L939.856 79.182L946.445 83.9516L947.798 82.9194Z" fill="#EDA07C"/>
<path d="M1014.09 67.6534C1016.14 68.4358 1017.6 70.1466 1018.34 73.6578C1019.08 77.169 1022.57 71.4709 1022.49 74.9963C1021.12 75.7598 1013.65 85.3837 1011.06 86.4536C999.614 91.2043 990.898 93.2497 979.763 91.0016C968.868 88.8006 962.651 76.3819 959.482 68.1671C956.987 61.6962 957.025 56.4129 955.888 49.81C956.218 49.0465 962.665 48.8674 963.014 49.1643C967.405 62.7802 973.49 70.3587 981.762 71.9281C989.493 73.3938 994.982 72.1873 1000.61 70.3775C1000.61 70.3775 1006.93 64.9105 1014.09 67.6534Z" fill="#8AA4D7" stroke="#778091" stroke-width="0.142389" stroke-miterlimit="10"/>
<g opacity="0.43">
<path opacity="0.43" d="M981.758 71.929C989.488 73.3947 994.978 72.1882 1000.61 70.3784C1000.61 70.3784 1006.93 64.9113 1014.09 67.6543C1016.14 68.4366 1017.6 70.1474 1018.34 73.6586C1019.08 77.1698 1022.37 71.8394 1022.28 75.3647C1020.91 76.1282 1013.64 85.3846 1011.06 86.4544" fill="#365185"/>
</g>
<path d="M1021.82 73.6818C1018.24 70.3686 1011.42 65.1136 1010.85 65.4812C1004.69 66.2211 998.709 71.0237 995.945 76.2928C995.412 77.3061 994.766 78.2534 994.002 79.1017C990.526 82.9711 986.616 86.3362 980.102 88.8388C972.245 91.8598 962.666 89.1263 951.756 79.8652C950.554 81.1378 946.328 83.1266 946.45 83.9514C950.898 88.966 953.648 93.1795 959.18 97.3693C966.203 102.686 978.032 109.972 988.45 106.107C997.831 102.629 1005.54 96.9451 1011.78 88.8529L1021.82 73.6818Z" fill="#B6C8ED" stroke="#4465A6" stroke-width="0.142389" stroke-miterlimit="10"/>
<path opacity="0.5" d="M1010.5 90.3895C1010.5 90.3895 979.145 120.977 946.889 83.6311C946.889 83.6311 954.37 96.5636 969.726 103.699C970.486 103.171 986.437 116.98 1010.5 90.3895Z" fill="#4465A6"/>
<path d="M1035.92 44.4116C1036.14 44.8405 1037.68 55.949 1035.52 59.6864C1034.07 62.1937 1025.91 69.6685 1022.26 74.2496C1022.26 74.2496 1014.85 69.6591 1010.71 65.6813C1011.86 61.3548 1015.76 44.5718 1023.73 40.1558C1023.73 40.1558 1027.32 40.9617 1028.7 41.5414C1028.7 41.5461 1033.03 48.8795 1035.92 44.4116Z" fill="#FFA47A" stroke="#FFA47A" stroke-width="0.695911" stroke-miterlimit="10" stroke-linecap="round" stroke-linejoin="round"/>
<path d="M1011.05 63.1926L1010.71 64.5123L1019.72 72.4112L1011.05 63.1926Z" fill="#CF5540"/>
<path d="M1035.92 44.4116C1036.14 44.8405 1037.68 55.949 1035.52 59.6864C1034.07 62.1937 1025.91 69.6685 1022.26 74.2496C1022.26 74.2496 1019.98 72.7367 1009.89 61.4396C1011.04 57.1131 1015.77 44.5671 1023.73 40.1558C1023.73 40.1558 1027.32 40.9617 1028.7 41.5414C1028.7 41.5461 1033.03 48.8795 1035.92 44.4116Z" fill="white" stroke="#F8F1EE" stroke-width="0.695911" stroke-miterlimit="10"/>
<path d="M1022.26 74.2542C1022.26 74.2542 1019.98 72.7413 1009.89 61.4443C1011.04 57.1178 1015.77 44.5718 1023.73 40.1604C1023.73 40.1604 1027.32 40.9663 1028.7 41.546" fill="white"/>
<path d="M1022.26 74.2542C1022.26 74.2542 1019.98 72.7413 1009.89 61.4443C1011.04 57.1178 1015.77 44.5718 1023.73 40.1604C1023.73 40.1604 1027.32 40.9663 1028.7 41.546" stroke="#F8F1EE" stroke-width="0.695911" stroke-miterlimit="10" stroke-linecap="round" stroke-linejoin="round"/>
<path d="M1106.8 146.192L1172.55 174.503C1175.23 175.639 1178.33 174.555 1179.72 172.001L1221.84 93.3973C1223.5 90.3291 1223.43 86.8273 1220.12 85.6868C1220.12 85.6868 1205.82 72.7261 1180.64 65.4351C1173.34 63.3236 1149.68 61.2546 1149.68 61.2546L1106.8 146.192Z" stroke="#6C0FC9" stroke-width="0.500179" stroke-miterlimit="10" stroke-linecap="round" stroke-linejoin="round"/>
<path d="M1109.74 147.398L1047.64 111.141C1045.14 109.643 1044.19 106.494 1045.44 103.869L1082.52 24.6485C1084.02 21.4908 1087.59 21.2316 1090.87 22.4334C1101.22 26.2273 1110.42 24.2809 1131.16 40.338C1137.16 44.9898 1152.78 62.8991 1152.78 62.8991L1109.74 147.398Z" stroke="#6C0FC9" stroke-width="0.500179" stroke-miterlimit="10" stroke-linecap="round" stroke-linejoin="round"/>
<path d="M1218.06 86.8376C1218.06 86.8376 1204.3 74.3718 1180.08 67.3588C1173.36 65.4124 1152.23 63.5083 1150.43 63.3481C1148.49 61.1424 1135.24 46.0844 1129.89 41.9417C1109.96 26.5066 1101.11 28.3777 1091.17 24.7298C1088.01 23.5751 1084.59 23.8249 1083.14 26.8554L1047.5 103.003C1046.29 105.529 1047.21 108.555 1049.61 109.993L1109.18 144.77L1109.26 144.774L1172.3 172.27C1174.88 173.359 1177.86 172.317 1179.2 169.862L1219.71 94.2559C1221.31 91.3008 1221.24 87.9358 1218.06 86.8376Z" fill="#68B775" stroke="white" stroke-width="0.142389" stroke-miterlimit="10"/>
<path d="M1105.59 143.022L1112.37 146.556L1154.41 63.8292C1154.41 63.8292 1150.8 63.8245 1147.55 60.728L1105.59 143.022Z" fill="#1D2B47" stroke="#1D2B47" stroke-width="0.142389" stroke-miterlimit="10"/>
<path d="M1213.49 89.7699C1213.49 89.7699 1185.11 69.292 1149.45 65.2671C1125.21 38.9733 1092.1 28.157 1092.1 28.157L1052.51 105.035C1060.43 107.17 1103.68 136.476 1110.14 141.679L1110.07 141.816C1110.14 141.82 1110.24 141.834 1110.36 141.853C1110.61 142.065 1110.8 142.23 1110.88 142.334L1111.06 141.99C1117.32 143.314 1146.02 152.076 1174.61 167.007L1213.49 89.7699Z" fill="#CFB2A3"/>
<path d="M1129.63 49.6702C1129.63 49.6702 1133.43 38.4863 1141.32 35.2108C1141.77 35.0269 1142.27 35.3239 1142.31 35.8046L1142.55 38.3213L1145.52 38.7219C1146.12 38.8021 1146.36 39.5373 1145.92 39.9473C1142.98 42.6903 1135.18 50.7354 1135.41 53.714L1129.63 49.6702Z" fill="#FF7F4D" stroke="#FF7F4D" stroke-width="0.280864" stroke-miterlimit="10"/>
<g opacity="0.76">
<g opacity="0.76">
<g opacity="0.76">
<path opacity="0.76" d="M1131.49 49.6993C1131.82 48.8651 1132.03 47.9932 1132.4 47.1731C1132.74 46.4049 1133.16 45.6697 1133.62 44.9675C1134.56 43.5394 1135.66 42.2386 1136.79 40.9567C1137.24 40.4336 1136.48 39.6606 1136.02 40.1885C1134.83 41.5364 1133.66 42.9126 1132.68 44.416C1132.21 45.1418 1131.78 45.9006 1131.43 46.6924C1131.03 47.5785 1130.8 48.5116 1130.44 49.4118C1130.18 50.0622 1131.24 50.3403 1131.49 49.6993Z" fill="#F2FCF9"/>
</g>
</g>
<g opacity="0.76">
<g opacity="0.76">
<path opacity="0.76" d="M1138.39 39.0592C1138.81 38.701 1139.23 38.3475 1139.65 37.9893C1139.75 37.9045 1139.81 37.7348 1139.81 37.6028C1139.81 37.4709 1139.75 37.3106 1139.65 37.2164C1139.55 37.1221 1139.41 37.0514 1139.26 37.0561C1139.11 37.0608 1139 37.1174 1138.88 37.2164C1138.46 37.5746 1138.03 37.928 1137.61 38.2862C1137.51 38.3711 1137.45 38.5407 1137.45 38.6727C1137.45 38.8047 1137.51 38.9649 1137.61 39.0592C1137.72 39.1534 1137.85 39.2241 1138 39.2194C1138.15 39.21 1138.27 39.1581 1138.39 39.0592Z" fill="#F2FCF9"/>
</g>
</g>
</g>
<path d="M1093.48 31.0113C1098.91 29.6398 1099.06 30.7144 1104.48 32.1094C1109.9 33.4998 1113.77 34.9796 1118.6 37.7839C1123.06 40.3713 1128.46 44.0569 1132.16 47.6529C1138.12 53.464 1143.49 58.8227 1149.06 65.0156L1109.96 140.235C1109.96 140.235 1072.93 95.8291 1055.99 104.086L1093.48 31.0113Z" fill="white"/>
<path d="M1093.59 31.4167C1095.26 30.9973 1097.03 30.5967 1098.75 30.9077C1100.41 31.2047 1102 31.8692 1103.62 32.3169C1105.75 32.906 1107.89 33.4575 1109.99 34.2021C1112.01 34.9185 1113.96 35.7763 1115.86 36.7613C1119.81 38.8067 1123.59 41.2575 1127.12 43.9392C1130.84 46.7575 1134.09 50.1179 1137.4 53.4076C1141.28 57.2864 1145.09 61.2406 1148.76 65.3173C1148.73 65.1476 1148.71 64.978 1148.69 64.8036C1148.34 65.4728 1147.99 66.1468 1147.64 66.816C1146.7 68.64 1145.74 70.4686 1144.8 72.2925C1143.39 74.9931 1141.99 77.6936 1140.58 80.3942C1138.88 83.6744 1137.17 86.9499 1135.47 90.2302C1133.59 93.8356 1131.72 97.4458 1129.84 101.051C1127.95 104.694 1126.06 108.338 1124.17 111.976C1122.4 115.374 1120.63 118.767 1118.87 122.165C1117.38 125.036 1115.88 127.906 1114.39 130.776C1113.32 132.84 1112.25 134.905 1111.18 136.964C1110.85 137.605 1110.51 138.241 1110.18 138.882C1110.01 139.208 1109.78 139.542 1109.66 139.886C1109.64 139.929 1109.61 139.971 1109.59 140.014C1109.81 139.985 1110.04 139.957 1110.26 139.929C1109 138.421 1107.7 136.955 1106.38 135.498C1103.21 131.978 1099.93 128.547 1096.55 125.224C1092.35 121.105 1087.98 117.137 1083.34 113.508C1079.02 110.128 1074.43 106.924 1069.37 104.737C1065.6 103.106 1061.14 101.848 1057.09 103.181C1056.64 103.328 1056.21 103.507 1055.78 103.714C1055.98 103.907 1056.17 104.101 1056.36 104.294C1056.7 103.643 1057.03 102.993 1057.36 102.343C1058.27 100.575 1059.18 98.8078 1060.08 97.0357C1061.43 94.4059 1062.78 91.776 1064.13 89.1462C1065.77 85.9508 1067.41 82.7554 1069.05 79.56C1070.85 76.0629 1072.64 72.5612 1074.44 69.0641C1076.25 65.5294 1078.06 61.9994 1079.87 58.4646C1081.56 55.1702 1083.26 51.8758 1084.94 48.5815C1086.38 45.7819 1087.82 42.9871 1089.25 40.1876C1090.28 38.1846 1091.3 36.1863 1092.33 34.1833C1092.82 33.236 1093.32 32.2934 1093.79 31.3366C1093.81 31.2942 1093.83 31.2565 1093.85 31.2141C1094.1 30.7286 1093.37 30.3045 1093.12 30.7852C1092.79 31.4356 1092.46 32.086 1092.12 32.7364C1091.22 34.5037 1090.31 36.2711 1089.4 38.0432C1088.05 40.6731 1086.7 43.3029 1085.35 45.9328C1083.71 49.1282 1082.08 52.3236 1080.43 55.519C1078.64 59.016 1076.85 62.5178 1075.05 66.0148C1073.24 69.5496 1071.43 73.0796 1069.61 76.6143C1067.92 79.9087 1066.23 83.2031 1064.54 86.4975C1063.11 89.297 1061.67 92.0918 1060.23 94.8913C1059.21 96.8943 1058.18 98.8927 1057.15 100.896C1056.67 101.843 1056.16 102.786 1055.69 103.742C1055.67 103.785 1055.65 103.822 1055.63 103.865C1055.43 104.251 1055.83 104.628 1056.21 104.445C1059.9 102.663 1064.25 103.615 1067.89 105.034C1072.86 106.966 1077.39 110.029 1081.62 113.239C1086.26 116.769 1090.63 120.671 1094.82 124.725C1098.33 128.113 1101.72 131.624 1105 135.23C1106.05 136.394 1107.11 137.567 1108.14 138.75C1108.62 139.307 1109.07 139.938 1109.6 140.452C1109.62 140.475 1109.64 140.504 1109.66 140.527C1109.83 140.73 1110.21 140.669 1110.33 140.442C1110.68 139.773 1111.03 139.099 1111.37 138.43C1112.32 136.606 1113.28 134.777 1114.22 132.953C1115.63 130.253 1117.03 127.552 1118.44 124.852C1120.14 121.572 1121.85 118.296 1123.55 115.016C1125.42 111.41 1127.3 107.8 1129.17 104.195C1131.07 100.552 1132.96 96.9085 1134.85 93.2701C1136.62 89.872 1138.39 86.4786 1140.15 83.0806C1141.64 80.2104 1143.14 77.3401 1144.63 74.4699C1145.7 72.4056 1146.77 70.3414 1147.84 68.2818C1148.35 67.3062 1148.87 66.34 1149.36 65.3597C1149.38 65.3173 1149.4 65.2749 1149.43 65.2325C1149.52 65.0581 1149.49 64.8649 1149.36 64.7188C1146.03 61.0191 1142.59 57.4183 1139.07 53.8883C1135.7 50.4996 1132.38 46.9885 1128.62 44.0287C1125.04 41.2103 1121.19 38.6747 1117.18 36.5021C1113.36 34.4331 1109.31 32.9437 1105.12 31.8409C1103.93 31.5298 1102.75 31.1952 1101.57 30.8229C1100.78 30.5684 1099.98 30.295 1099.15 30.1301C1097.21 29.7389 1095.26 30.1348 1093.36 30.6061C1092.83 30.7334 1093.06 31.5487 1093.59 31.4167Z" fill="#F8F1EE"/>
<path d="M1169.19 159.781C1162.77 155.629 1155.96 152.085 1148.88 149.191C1141.74 146.274 1134.33 144.026 1126.77 142.494C1122.57 141.641 1118.32 141.014 1114.04 140.599C1113.5 140.548 1113.51 141.391 1114.04 141.443C1121.62 142.169 1129.12 143.616 1136.42 145.737C1143.73 147.862 1150.83 150.662 1157.62 154.097C1161.44 156.035 1165.17 158.179 1168.76 160.507C1169.22 160.809 1169.65 160.078 1169.19 159.781Z" fill="#F8F1EE"/>
<path d="M1110.64 141.754C1118.9 143.413 1127.05 145.628 1135.05 148.249C1143.36 150.973 1151.54 154.14 1159.46 157.844C1163.68 159.814 1167.82 161.94 1171.85 164.263C1172.32 164.537 1172.75 163.806 1172.28 163.533C1164.96 159.315 1157.27 155.738 1149.44 152.585C1141.32 149.319 1133 146.519 1124.56 144.2C1120.04 142.956 1115.47 141.858 1110.87 140.934C1110.34 140.83 1110.11 141.646 1110.64 141.754Z" fill="#F8F1EE"/>
<path d="M1058.24 104.52C1062.11 105.114 1065.66 106.806 1069.09 108.606C1072.39 110.331 1075.6 112.193 1078.74 114.186C1085.01 118.169 1090.95 122.67 1096.48 127.633C1099.57 130.408 1102.53 133.335 1105.36 136.385C1105.73 136.785 1106.33 136.187 1105.96 135.786C1100.86 130.281 1095.32 125.21 1089.38 120.624C1083.47 116.057 1077.19 111.981 1070.61 108.451C1066.78 106.401 1062.81 104.369 1058.47 103.705C1057.94 103.62 1057.7 104.435 1058.24 104.52Z" fill="#F8F1EE"/>
<path d="M1056.08 104.921C1063.9 108.343 1071.38 112.509 1078.58 117.076C1086.12 121.86 1093.37 127.105 1100.28 132.756C1103.92 135.735 1107.46 138.831 1110.88 142.064C1111.28 142.437 1111.88 141.843 1111.48 141.466C1105.24 135.575 1098.6 130.117 1091.69 125.032C1084.5 119.744 1077.01 114.847 1069.21 110.516C1065.07 108.22 1060.84 106.086 1056.5 104.191C1056.01 103.974 1055.58 104.705 1056.08 104.921Z" fill="#F8F1EE"/>
<path d="M1210.9 90.7827C1207.07 98.0171 1203.23 105.247 1199.39 112.481C1195.56 119.716 1191.72 126.945 1187.89 134.18C1185.72 138.261 1183.55 142.348 1181.39 146.429C1181.13 146.91 1181.86 147.339 1182.12 146.858C1185.95 139.623 1189.79 132.394 1193.63 125.159C1197.46 117.925 1201.3 110.695 1205.13 103.461C1207.3 99.3792 1209.47 95.293 1211.63 91.2115C1211.89 90.7308 1211.16 90.3019 1210.9 90.7827Z" fill="#F8F1EE"/>
<path d="M1209.72 89.7249C1207.63 84.5312 1206.67 85.0402 1202.35 81.4819C1198.03 77.9283 1194.56 75.6755 1189.45 73.418C1184.73 71.3395 1178.57 69.148 1173.49 68.2808C1165.27 66.8858 1157.84 65.9573 1149.55 65.1042L1110.04 140.696C1110.04 140.696 1169.93 146.092 1173.22 164.633L1209.72 89.7249Z" fill="white"/>
<path d="M1210.12 89.6125C1209.52 88.1326 1208.88 86.6386 1207.85 85.4038C1207.03 84.4329 1205.97 83.7118 1204.96 82.9671C1203.28 81.7371 1201.71 80.3797 1200.05 79.1261C1198.29 77.7923 1196.45 76.5622 1194.53 75.4735C1190.53 73.2065 1186.18 71.4722 1181.81 70.0158C1179.54 69.2618 1177.23 68.5925 1174.89 68.1118C1172.38 67.5934 1169.82 67.2399 1167.28 66.8629C1161.39 65.9862 1155.48 65.2887 1149.55 64.6807C1149.42 64.6666 1149.25 64.7703 1149.19 64.8881C1148.84 65.5621 1148.49 66.236 1148.13 66.91C1147.18 68.7433 1146.22 70.5767 1145.26 72.4053C1143.85 75.1153 1142.43 77.8253 1141.01 80.5353C1139.28 83.8438 1137.56 87.1476 1135.82 90.4561C1133.93 94.0804 1132.04 97.7 1130.14 101.324C1128.23 104.982 1126.32 108.639 1124.41 112.296C1122.62 115.708 1120.84 119.116 1119.06 122.528C1117.55 125.412 1116.04 128.292 1114.53 131.176C1113.45 133.25 1112.37 135.324 1111.28 137.398C1110.77 138.383 1110.23 139.358 1109.74 140.348C1109.71 140.39 1109.7 140.433 1109.67 140.475C1109.52 140.777 1109.71 141.083 1110.04 141.111C1112.02 141.29 1113.99 141.531 1115.96 141.781C1120.76 142.389 1125.55 143.133 1130.32 144.015C1136.25 145.117 1142.15 146.432 1147.94 148.143C1153.37 149.75 1158.81 151.668 1163.73 154.51C1167.28 156.561 1171.14 159.374 1172.48 163.437C1172.62 163.861 1172.73 164.299 1172.81 164.738C1172.87 165.086 1173.43 165.157 1173.58 164.837C1173.91 164.172 1174.24 163.503 1174.56 162.838C1175.44 161.024 1176.33 159.209 1177.21 157.395C1178.52 154.713 1179.82 152.027 1181.14 149.345C1182.74 146.055 1184.34 142.761 1185.95 139.471C1187.7 135.885 1189.44 132.293 1191.19 128.707C1192.95 125.082 1194.72 121.463 1196.49 117.839C1198.13 114.459 1199.78 111.085 1201.43 107.706C1202.82 104.85 1204.21 101.994 1205.6 99.1421C1206.6 97.0873 1207.6 95.0324 1208.6 92.9776C1209.08 92.002 1209.57 91.0311 1210.03 90.0508C1210.05 90.0084 1210.07 89.966 1210.09 89.9235C1210.33 89.4381 1209.6 89.0092 1209.36 89.4946C1209.03 90.1592 1208.71 90.8284 1208.38 91.493C1207.5 93.3075 1206.61 95.122 1205.73 96.9365C1204.43 99.6182 1203.12 102.305 1201.81 104.986C1200.2 108.276 1198.6 111.57 1197 114.86C1195.25 118.447 1193.5 122.038 1191.75 125.624C1189.99 129.249 1188.22 132.868 1186.46 136.493C1184.81 139.872 1183.16 143.246 1181.52 146.626C1180.13 149.482 1178.73 152.338 1177.34 155.189C1176.34 157.244 1175.34 159.299 1174.34 161.354C1174.03 161.995 1173.71 162.64 1173.4 163.281C1173.24 163.602 1173.02 163.941 1172.91 164.28C1172.9 164.323 1172.87 164.365 1172.85 164.408C1173.11 164.441 1173.37 164.474 1173.63 164.507C1172.86 160.303 1169.44 157.183 1166.04 154.935C1161.36 151.843 1156.01 149.802 1150.7 148.101C1144.85 146.23 1138.87 144.816 1132.85 143.633C1127.77 142.634 1122.66 141.809 1117.52 141.13C1115.86 140.909 1114.19 140.706 1112.53 140.518C1112 140.461 1111.48 140.404 1110.95 140.348C1110.69 140.32 1110.39 140.244 1110.13 140.268C1110.1 140.272 1110.06 140.263 1110.03 140.258C1110.15 140.47 1110.28 140.682 1110.39 140.895C1110.75 140.221 1111.1 139.547 1111.45 138.873C1112.41 137.039 1113.36 135.206 1114.32 133.377C1115.74 130.667 1117.16 127.957 1118.57 125.247C1120.3 121.939 1122.03 118.635 1123.76 115.327C1125.66 111.702 1127.55 108.083 1129.44 104.458C1131.35 100.801 1133.27 97.1438 1135.18 93.4866C1136.96 90.0743 1138.74 86.6669 1140.53 83.2546C1142.04 80.3703 1143.54 77.4907 1145.05 74.6063C1146.13 72.5326 1147.22 70.4589 1148.3 68.3852C1148.64 67.7395 1148.98 67.0938 1149.32 66.4481C1149.49 66.1229 1149.72 65.7836 1149.85 65.4348C1149.86 65.3924 1149.89 65.35 1149.91 65.3076C1149.79 65.3783 1149.67 65.449 1149.55 65.5149C1154.73 66.0475 1159.91 66.6461 1165.06 67.3766C1169.92 68.0694 1174.8 68.7433 1179.51 70.1619C1183.91 71.4863 1188.28 73.1594 1192.38 75.2614C1194.26 76.2276 1196.07 77.3163 1197.81 78.5228C1199.64 79.7953 1201.34 81.2375 1203.1 82.6043C1204.31 83.5469 1205.66 84.3669 1206.75 85.4462C1207.97 86.648 1208.68 88.2598 1209.31 89.8246C1209.51 90.3383 1210.33 90.1168 1210.12 89.6125Z" fill="#F8F1EE"/>
<path opacity="0.42" d="M1148.68 65.1824C1148.68 65.1824 1125.23 103.754 1111.95 109.098C1093.63 116.464 1070.08 104.918 1070.08 104.918C1070.08 104.918 1105.99 128.049 1109.95 140.242L1148.68 65.1824Z" fill="#E0CFC8"/>
<path opacity="0.42" d="M1152.21 64.521C1152.21 64.521 1135.58 106.486 1139.34 120.295C1144.51 139.34 1167.94 151.132 1167.94 151.132C1167.94 151.132 1127.81 136.47 1115.69 140.674L1152.21 64.521Z" fill="#E0CFC8"/>
<g opacity="0.46">
<g opacity="0.46">
<path opacity="0.46" d="M1095.65 39.5215C1096.48 39.4508 1097.25 39.5356 1098.01 39.677C1098.39 39.7336 1098.76 39.8467 1099.13 39.9362C1099.49 40.0446 1099.85 40.1672 1100.22 40.285C1100.56 40.4311 1100.92 40.5631 1101.27 40.7186C1101.61 40.893 1101.96 41.0391 1102.29 41.2417C1102.96 41.6188 1103.61 42.0524 1104.2 42.6415L1104.16 42.7358C1102.72 42.255 1101.3 41.7272 1099.87 41.2229C1098.45 40.6856 1097.02 40.1766 1095.61 39.6158L1095.65 39.5215Z" fill="#659FEB"/>
</g>
<g opacity="0.46">
<path d="M1108.78 45.4321L1109.95 45.8846L1111.11 46.37L1113.4 47.4022L1115.63 48.538C1116.37 48.9386 1117.09 49.3533 1117.82 49.7634C1118.54 50.1922 1119.26 50.6211 1119.97 51.0689L1122.07 52.4498L1124.11 53.9108L1126.12 55.4284L1128.06 57.0308C1128.69 57.5822 1129.33 58.1242 1129.95 58.6851L1131.77 60.4147C1132.37 61.0039 1132.95 61.6024 1133.54 62.2057C1134.1 62.8231 1134.68 63.431 1135.23 64.0579L1136.85 65.9714L1138.38 67.9602C1138.88 68.6295 1139.36 69.3129 1139.83 70.0057L1139.75 70.0717C1135.5 64.9722 1130.72 60.3252 1125.5 56.2202C1120.31 52.0916 1114.69 48.4956 1108.75 45.5311L1108.78 45.4321Z" fill="#CFB2A3"/>
</g>
<g opacity="0.46">
<path d="M1090.3 48.9009L1091.31 48.9103L1092.33 48.9527L1094.37 49.1271L1096.39 49.4476C1097.06 49.5843 1097.73 49.7445 1098.4 49.8906C1099.06 50.065 1099.72 50.2488 1100.38 50.4467L1102.33 51.1066C1102.96 51.3563 1103.6 51.625 1104.23 51.8842L1106.1 52.7514L1107.91 53.7317C1108.5 54.0852 1109.1 54.4292 1109.68 54.7921L1111.37 55.9562C1111.93 56.3663 1112.46 56.7857 1113 57.2099C1113.52 57.6576 1114.05 58.0959 1114.55 58.5531L1116.02 59.9858L1117.38 61.5129C1117.82 62.036 1118.24 62.5733 1118.64 63.1153L1118.57 63.186C1114.88 59.2695 1110.47 56.0411 1105.65 53.6469C1100.85 51.2244 1095.63 49.6267 1090.28 49.0093L1090.3 48.9009Z" fill="#CFB2A3"/>
</g>
<g opacity="0.46">
<path opacity="0.46" d="M1123.66 68.6621C1124.77 69.1051 1125.76 69.6754 1126.72 70.2928C1127.21 70.5897 1127.66 70.9338 1128.13 71.2543C1128.59 71.5936 1129.03 71.9471 1129.48 72.2911C1129.91 72.6634 1130.35 73.0216 1130.77 73.4034C1131.18 73.7993 1131.61 74.1669 1132 74.5863C1132.81 75.397 1133.57 76.2595 1134.23 77.2445L1134.17 77.3199L1128.85 73.0641L1123.6 68.7328L1123.66 68.6621Z" fill="#659FEB"/>
</g>
<g opacity="0.46">
<path d="M1082.92 69.1848C1084.03 69.4817 1085.16 69.7598 1086.26 70.1227L1087.92 70.6458C1088.47 70.8249 1089.02 71.0182 1089.57 71.2067C1091.75 71.9938 1093.89 72.8939 1096.01 73.8365C1100.24 75.7594 1104.31 78.05 1108.17 80.6421C1112.01 83.2625 1115.7 86.1186 1119.05 89.3423C1120.75 90.9353 1122.36 92.6037 1123.94 94.2956C1124.71 95.1581 1125.47 96.0253 1126.23 96.8972C1126.99 97.7644 1127.73 98.6504 1128.47 99.5412L1128.4 99.6119C1125.19 96.2939 1122 92.9666 1118.54 89.9173C1115.11 86.8444 1111.44 84.0402 1107.62 81.4669C1103.81 78.8794 1099.8 76.5842 1095.67 74.5293C1091.54 72.4886 1087.26 70.7448 1082.89 69.2744L1082.92 69.1848Z" fill="#CFB2A3"/>
</g>
<g opacity="0.46">
<path d="M1079.82 77.6023C1081.2 77.7484 1082.53 78.0972 1083.82 78.5308C1084.47 78.7334 1085.1 79.0021 1085.73 79.2518C1086.35 79.5205 1086.97 79.8174 1087.58 80.1096C1088.18 80.4348 1088.78 80.7506 1089.37 81.0993C1089.95 81.4622 1090.53 81.811 1091.08 82.2163C1092.2 82.9987 1093.26 83.8659 1094.2 84.8933L1094.15 84.9781C1091.88 83.5312 1089.54 82.2069 1087.14 81.0051C1084.75 79.775 1082.29 78.6721 1079.79 77.7013L1079.82 77.6023Z" fill="#CFB2A3"/>
</g>
<g opacity="0.46">
<path d="M1100.36 90.0681L1101.08 90.4781L1101.79 90.9165L1103.19 91.7884C1104.11 92.3916 1105.03 93.0043 1105.92 93.6406C1106.83 94.2627 1107.7 94.9319 1108.59 95.5776L1111.19 97.5901C1112.04 98.2876 1112.9 98.971 1113.74 99.6732C1114.57 100.39 1115.42 101.087 1116.22 101.832C1117.05 102.558 1117.85 103.312 1118.65 104.07C1119.42 104.862 1120.23 105.612 1120.96 106.441L1120.9 106.521L1110.57 98.3724L1100.3 90.1435L1100.36 90.0681Z" fill="#CFB2A3"/>
</g>
<g opacity="0.46">
<path d="M1085.84 102.1C1086.81 101.983 1087.77 102.157 1088.66 102.449C1089.12 102.581 1089.54 102.789 1089.97 102.977C1090.38 103.189 1090.78 103.425 1091.18 103.665C1091.56 103.934 1091.94 104.198 1092.3 104.49C1092.65 104.796 1093 105.088 1093.32 105.433C1093.96 106.097 1094.54 106.832 1094.97 107.695L1094.9 107.77C1093.55 106.597 1092.15 105.466 1090.64 104.504C1089.89 104.014 1089.12 103.557 1088.32 103.166C1087.51 102.774 1086.68 102.435 1085.82 102.195L1085.84 102.1Z" fill="#CFB2A3"/>
</g>
<g opacity="0.46">
<path d="M1098.02 110.848C1099.26 111.555 1100.38 112.385 1101.47 113.256C1102.02 113.681 1102.53 114.152 1103.06 114.595C1103.57 115.057 1104.08 115.533 1104.58 116.004C1105.07 116.494 1105.56 116.98 1106.04 117.479C1106.51 117.993 1107 118.488 1107.44 119.025C1108.35 120.076 1109.21 121.17 1109.97 122.386L1109.9 122.456L1103.89 116.725L1097.96 110.919L1098.02 110.848Z" fill="#CFB2A3"/>
</g>
</g>
<g opacity="0.46">
<g opacity="0.46">
<path d="M1154.36 75.4404C1155.27 75.2094 1156.19 75.1717 1157.08 75.2142C1157.53 75.2189 1157.97 75.2943 1158.41 75.3367C1158.85 75.4074 1159.29 75.4969 1159.72 75.5865C1160.15 75.7043 1160.58 75.8174 1161.01 75.9588C1161.43 76.119 1161.84 76.251 1162.25 76.449C1163.07 76.8166 1163.86 77.2596 1164.57 77.877L1164.54 77.9713C1162.87 77.4434 1161.19 76.9485 1159.49 76.5621C1157.79 76.1379 1156.07 75.8268 1154.34 75.5393L1154.36 75.4404Z" fill="#CFB2A3"/>
</g>
<g opacity="0.46">
<path d="M1170.78 79.8521C1172.12 79.9887 1173.43 80.2668 1174.75 80.5166L1176.71 80.9973C1177.36 81.1764 1178 81.3791 1178.65 81.5676C1179.29 81.775 1179.92 81.987 1180.56 82.2133L1182.44 82.9344C1183.06 83.1936 1183.68 83.4716 1184.3 83.7356L1186.13 84.5933L1187.91 85.5359C1188.5 85.8705 1189.09 86.191 1189.67 86.5351L1191.38 87.6096C1191.94 87.9773 1192.5 88.3637 1193.04 88.7502C1193.58 89.1508 1194.13 89.542 1194.66 89.952L1196.22 91.2245C1197.22 92.1294 1198.23 93.0107 1199.14 93.9957L1199.08 94.0712C1194.95 90.7249 1190.44 87.8406 1185.68 85.4841C1180.93 83.0946 1175.91 81.2282 1170.75 79.9416L1170.78 79.8521Z" fill="#CFB2A3"/>
</g>
<g opacity="0.46">
<path d="M1149.88 85.6342C1151.68 85.4079 1153.5 85.4645 1155.29 85.686C1156.19 85.785 1157.08 85.9688 1157.97 86.1479C1158.42 86.2516 1158.85 86.3694 1159.29 86.4825L1160.6 86.8643L1161.88 87.3214C1162.3 87.4911 1162.73 87.6419 1163.14 87.821C1163.97 88.198 1164.79 88.5656 1165.59 89.0134C1167.17 89.8806 1168.68 90.8986 1170.01 92.1334L1169.96 92.2182C1166.93 90.366 1163.67 88.8908 1160.29 87.8163C1156.92 86.7134 1153.42 86.0065 1149.88 85.7378V85.6342Z" fill="#CFB2A3"/>
</g>
<g opacity="0.46">
<path d="M1177.12 94.9001C1178.93 95.329 1180.67 95.9417 1182.38 96.644C1183.23 96.9833 1184.06 97.3839 1184.9 97.7609C1185.73 98.1615 1186.55 98.5857 1187.37 99.0099C1188.17 99.4623 1188.97 99.9101 1189.76 100.386C1190.54 100.881 1191.32 101.352 1192.08 101.885C1193.6 102.922 1195.07 104.043 1196.42 105.321L1196.37 105.405C1193.28 103.45 1190.12 101.611 1186.89 99.8912C1183.68 98.1427 1180.41 96.5073 1177.08 94.9944L1177.12 94.9001Z" fill="#CFB2A3"/>
</g>
<g opacity="0.46">
<path d="M1143.61 97.5958C1144.55 97.5534 1145.45 97.6712 1146.32 97.8456C1146.77 97.9163 1147.19 98.0483 1147.62 98.1473C1148.04 98.2698 1148.46 98.4112 1148.88 98.5431C1149.29 98.7034 1149.71 98.8542 1150.12 99.0239C1150.52 99.2124 1150.93 99.3774 1151.32 99.5942C1152.11 100.004 1152.88 100.471 1153.6 101.093L1153.56 101.187C1151.88 100.645 1150.22 100.051 1148.55 99.4857C1146.89 98.8872 1145.23 98.3122 1143.58 97.6901L1143.61 97.5958Z" fill="#CFB2A3"/>
</g>
<g opacity="0.46">
<path opacity="0.46" d="M1157.32 102.893C1157.83 102.808 1158.24 102.841 1158.62 102.898C1159 102.959 1159.35 103.063 1159.68 103.204C1160.01 103.345 1160.32 103.524 1160.63 103.76C1160.93 104 1161.24 104.269 1161.53 104.703L1161.5 104.802C1160.74 104.67 1160 104.415 1159.28 104.128C1158.58 103.807 1157.89 103.444 1157.26 102.982L1157.32 102.893Z" fill="#659FEB"/>
</g>
<g opacity="0.46">
<path d="M1134.3 114.393L1135.85 114.581L1137.4 114.803L1140.49 115.34L1143.55 116.037L1146.58 116.829C1147.58 117.121 1148.59 117.418 1149.58 117.739L1152.55 118.766L1155.47 119.911L1158.36 121.151C1162.17 122.9 1165.87 124.874 1169.37 127.17L1171.97 128.927L1174.51 130.761L1176.95 132.726C1177.74 133.4 1178.53 134.088 1179.3 134.786L1179.24 134.866C1172.68 129.771 1165.51 125.473 1157.94 122.061C1150.39 118.62 1142.43 116.061 1134.28 114.492L1134.3 114.393Z" fill="#CFB2A3"/>
</g>
<g opacity="0.46">
<path d="M1146.75 127.284C1147.72 126.85 1148.86 126.878 1149.87 127.081C1150.4 127.166 1150.88 127.345 1151.37 127.51C1151.86 127.694 1152.32 127.92 1152.77 128.141C1153.22 128.396 1153.66 128.646 1154.08 128.924C1154.48 129.221 1154.9 129.499 1155.28 129.829C1156.05 130.47 1156.77 131.167 1157.4 132.001L1157.34 132.086C1155.68 131.021 1154.05 129.923 1152.31 129.023C1151.44 128.561 1150.55 128.141 1149.63 127.83C1148.7 127.524 1147.73 127.317 1146.76 127.383L1146.75 127.284Z" fill="#CFB2A3"/>
</g>
<g opacity="0.46">
<path d="M1162.04 134.258C1163.33 134.564 1164.53 135.021 1165.71 135.53C1166.31 135.771 1166.87 136.068 1167.45 136.332C1168.02 136.619 1168.59 136.921 1169.15 137.218C1169.7 137.543 1170.25 137.854 1170.8 138.184C1171.33 138.533 1171.88 138.858 1172.4 139.235C1173.46 139.961 1174.48 140.743 1175.43 141.667L1175.38 141.756L1168.67 138.094L1162 134.343L1162.04 134.258Z" fill="#CFB2A3"/>
</g>
</g>
<path d="M1019.99 45.8667C1018.43 67.2826 1052.11 79.2395 1052.11 79.2395L1059.67 81.2519C1066.36 85.3852 1069.76 85.9366 1069.76 85.9366L1065.35 83.2926L1072.12 85.4135C1072.31 85.4653 1071.87 84.9799 1071.7 84.8903L1066.52 82.1144L1073.48 83.8582C1073.64 83.8959 1073.72 83.6791 1073.58 83.6084L1067.05 80.3187C1067.05 80.3187 1073.75 81.8552 1073.19 81.266C1072.63 80.6769 1066.05 78.0801 1066.05 78.0801C1066.05 78.0801 1068.2 74.8894 1068.01 74.6066C1067.7 74.1447 1065.39 75.5021 1063.03 75.8744C1061.54 76.11 1050.33 71.3452 1050.33 71.3452C1041.76 67.4994 1030.66 57.8755 1031.93 44.0805C1031.93 44.0805 1031.4 39.5042 1025.86 39.0423C1020.32 38.5663 1019.99 45.8667 1019.99 45.8667Z" fill="#FFC3A8" stroke="#FFA47A" stroke-width="0.695911" stroke-miterlimit="10" stroke-linecap="round" stroke-linejoin="round"/>
<path d="M1038.97 62.7482C1034.64 57.9457 1033.38 52.6577 1031.94 44.0706C1031.94 44.0706 1031.41 39.4943 1025.87 39.0324C1020.32 38.5658 1019.99 45.871 1019.99 45.871C1019.47 53.0771 1019.8 57.3848 1024.62 62.3523L1038.97 62.7482Z" fill="#FF7F4D" stroke="#FF7F4D" stroke-width="0.280864" stroke-miterlimit="10"/>
<path d="M1039.4 63.0596L1028.77 65.5952C1028.77 65.5952 1027.01 64.0917 1026.07 62.7485L1039.4 63.0596Z" fill="#C7B836"/>
<path d="M1097.64 134.64C1093.33 146.682 1085.02 154.275 1073.09 153.441C1063.51 152.771 1054.63 148.412 1046.03 144.132C1043.09 142.667 1040.07 141.149 1037.86 138.712C1034.6 135.131 1033.56 130.121 1032.63 125.37C1031.71 120.633 1030.8 115.897 1029.88 111.16C1029.18 107.55 1028.43 103.817 1026.31 100.811C1024.2 97.8036 1020.31 95.7158 1016.8 96.8328C1013.3 97.9544 1011.5 103.139 1014.27 105.566C1020.1 102.069 1019.71 93.5148 1017.74 87.0156C1014.44 76.1663 1008.76 66.0475 1001.23 57.5735C996.059 51.7577 989.39 46.4509 981.612 46.1021C971.543 45.6496 963.072 53.5251 957.28 61.7681C951.276 70.3127 946.64 80.1393 945.989 90.555C945.663 95.7959 946.682 101.682 950.875 104.85C955.063 108.017 962.779 105.886 962.959 100.636" stroke="#00A63D" stroke-width="1.00036" stroke-miterlimit="10" stroke-linecap="round" stroke-linejoin="round" stroke-dasharray="4.29 4.29"/>
<path d="M1206.72 92.2662C1210.85 93.9833 1215.74 93.0694 1219.56 90.7291C1223.37 88.3889 1226.25 84.7885 1228.66 81.015C1232.04 75.7182 1234.7 69.4037 1233.38 63.2622C1232.68 60.0426 1230.94 57.1485 1229.03 54.462C1226.65 51.1109 1223.91 47.9466 1220.52 45.6272C1213.79 41.0366 1204.64 40.275 1197.25 43.6954C1189.86 47.1158 1184.51 54.5935 1183.65 62.7014" stroke="#00A63D" stroke-width="1.00036" stroke-miterlimit="10" stroke-linecap="round" stroke-linejoin="round" stroke-dasharray="3.46 3.46"/>
<path d="M1237.5 121.687C1237.3 122.771 1236.25 123.483 1235.17 123.276C1234.08 123.073 1233.37 122.027 1233.58 120.947C1233.78 119.863 1234.83 119.152 1235.91 119.359C1236.99 119.562 1237.7 120.603 1237.5 121.687Z" fill="#00A63D"/>
<path d="M1214.91 116.697C1216.38 116.697 1217.57 115.507 1217.57 114.038C1217.57 112.57 1216.38 111.38 1214.91 111.38C1213.44 111.38 1212.25 112.57 1212.25 114.038C1212.25 115.507 1213.44 116.697 1214.91 116.697Z" stroke="white" stroke-width="0.500179" stroke-miterlimit="10"/>
<path d="M1126.08 28.7619C1125.82 30.1146 1124.52 31.0053 1123.16 30.7508C1121.81 30.4963 1120.92 29.1908 1121.17 27.8382C1121.43 26.4856 1122.73 25.5948 1124.09 25.8493C1125.45 26.1038 1126.34 27.4093 1126.08 28.7619Z" fill="#FF7F4D"/>
<path d="M1109.96 153.425C1109.68 154.868 1108.29 155.82 1106.85 155.546C1105.41 155.273 1104.45 153.883 1104.73 152.44C1105 150.998 1106.39 150.046 1107.83 150.32C1109.28 150.593 1110.23 151.983 1109.96 153.425Z" stroke="white" stroke-width="0.500179" stroke-miterlimit="10"/>
<path d="M1042.65 92.1759C1042.33 93.8914 1040.68 95.0178 1038.96 94.6926C1037.24 94.3674 1036.12 92.7179 1036.44 91.0023C1036.77 89.2868 1038.42 88.1604 1040.13 88.4856C1041.85 88.8108 1042.98 90.4604 1042.65 92.1759Z" fill="#00A63D"/>
<path d="M984.394 132.217C985.543 132.217 986.474 131.287 986.474 130.139C986.474 128.991 985.543 128.061 984.394 128.061C983.246 128.061 982.315 128.991 982.315 130.139C982.315 131.287 983.246 132.217 984.394 132.217Z" fill="#FF7F4D"/>
<path d="M937.711 113.87C939.063 113.87 940.159 112.775 940.159 111.424C940.159 110.073 939.063 108.978 937.711 108.978C936.359 108.978 935.264 110.073 935.264 111.424C935.264 112.775 936.359 113.87 937.711 113.87Z" stroke="#659FEB" stroke-width="0.447072" stroke-miterlimit="10"/>
<path d="M1240.62 116.924L1230.99 170.143L1270.42 177.274L1280.06 124.056L1240.62 116.924Z" fill="white"/>
<path d="M1270.42 177.279C1270.42 177.279 1270.43 177.19 1270.46 177.022C1270.49 176.853 1270.53 176.601 1270.59 176.275C1270.71 175.617 1270.88 174.643 1271.11 173.377C1271.56 170.846 1272.23 167.146 1273.07 162.459C1274.75 153.095 1277.15 139.799 1279.99 124.047L1280.04 124.124C1268.19 121.981 1254.77 119.559 1240.62 116.998H1240.61L1240.7 116.937C1237.09 136.787 1233.76 155.177 1231.04 170.152L1230.99 170.083C1242.93 172.257 1252.77 174.049 1259.64 175.299C1263.08 175.927 1265.77 176.419 1267.6 176.753C1268.52 176.922 1269.22 177.052 1269.69 177.138C1270.17 177.229 1270.42 177.279 1270.42 177.279C1270.42 177.279 1270.18 177.24 1269.71 177.157C1269.24 177.074 1268.54 176.95 1267.63 176.787C1265.8 176.46 1263.11 175.979 1259.68 175.365C1252.8 174.129 1242.93 172.354 1230.98 170.205L1230.92 170.194L1230.93 170.133C1233.64 155.158 1236.96 136.765 1240.56 116.912L1240.57 116.84L1240.64 116.854H1240.65C1254.81 119.417 1268.22 121.848 1280.07 123.994L1280.14 124.005L1280.13 124.072C1277.26 139.835 1274.83 153.145 1273.13 162.514C1272.27 167.19 1271.6 170.885 1271.14 173.41C1270.9 174.668 1270.73 175.636 1270.61 176.292C1270.55 176.615 1270.5 176.861 1270.47 177.03C1270.43 177.196 1270.42 177.279 1270.42 177.279Z" fill="#E0E0E0"/>
<path d="M1260.7 125.576L1243.96 122.548L1241.32 137.122L1258.06 140.15L1260.7 125.576Z" fill="#B7E8C4"/>
<path d="M1274.05 127.992L1263.34 126.053L1262.99 127.956L1273.71 129.894L1274.05 127.992Z" fill="#B7E8C4"/>
<path d="M1271.58 145.662L1240.99 140.129L1240.65 142.032L1271.24 147.565L1271.58 145.662Z" fill="#B7E8C4"/>
<path d="M1270.98 149.01L1240.38 143.477L1240.04 145.379L1270.63 150.912L1270.98 149.01Z" fill="#B7E8C4"/>
<path d="M1270.37 152.358L1239.78 146.825L1239.43 148.728L1270.03 154.261L1270.37 152.358Z" fill="#B7E8C4"/>
<path d="M1269.77 155.705L1239.17 150.172L1238.83 152.074L1269.42 157.607L1269.77 155.705Z" fill="#B7E8C4"/>
<path d="M1269.16 159.053L1238.56 153.52L1238.22 155.422L1268.81 160.955L1269.16 159.053Z" fill="#B7E8C4"/>
<path d="M1267.08 170.527L1236.49 164.994L1236.14 166.897L1266.73 172.43L1267.08 170.527Z" fill="#B7E8C4"/>
<path d="M1254.75 159.905L1237.96 156.867L1237.62 158.769L1254.41 161.807L1254.75 159.905Z" fill="#B7E8C4"/>
<path d="M1273.5 131.07L1262.78 129.132L1262.43 131.034L1273.15 132.972L1273.5 131.07Z" fill="#B7E8C4"/>
<path d="M1272.94 134.148L1262.22 132.21L1261.88 134.112L1272.6 136.05L1272.94 134.148Z" fill="#B7E8C4"/>
<path d="M1268.27 136.48L1261.66 135.285L1261.32 137.187L1267.93 138.382L1268.27 136.48Z" fill="#B7E8C4"/>
<path d="M936.723 163.922H917.48C915.28 163.922 913.497 162.14 913.497 159.941V157.81C913.497 155.611 915.28 153.829 917.48 153.829H936.723V163.922Z" fill="#FF725E"/>
<path d="M972.278 155.506H931.692V153.831H972.278C972.644 153.831 972.939 154.126 972.939 154.492V154.846C972.937 155.211 972.641 155.506 972.278 155.506Z" fill="#FF725E"/>
<path d="M972.278 163.921H931.692V162.245H972.278C972.644 162.245 972.939 162.541 972.939 162.906V163.26C972.937 163.626 972.641 163.921 972.278 163.921Z" fill="#FF725E"/>
<path d="M971.707 162.246H936.294C934.432 162.246 932.922 160.737 932.922 158.877C932.922 157.016 934.432 155.507 936.294 155.507H971.707C970.759 157.754 970.759 160 971.707 162.246Z" fill="#F5F5F5"/>
<path opacity="0.3" d="M932.922 163.922H917.559C915.316 163.922 913.497 162.104 913.497 159.862V157.857C913.497 155.634 915.302 153.829 917.528 153.829H933.306C929.65 156.044 929.923 161.344 932.922 163.922Z" fill="black"/>
<path d="M967.405 159.19C967.405 159.223 960.136 159.251 951.171 159.251C942.205 159.251 934.937 159.223 934.937 159.19C934.937 159.156 942.205 159.129 951.171 159.129C960.136 159.129 967.405 159.156 967.405 159.19Z" fill="#263238"/>
<path d="M970.746 160.687C970.746 160.721 963.476 160.748 954.512 160.748C945.545 160.748 938.278 160.721 938.278 160.687C938.278 160.653 945.545 160.626 954.512 160.626C963.478 160.626 970.746 160.653 970.746 160.687Z" fill="#263238"/>
<path d="M969.762 157.066C969.762 157.1 962.492 157.127 953.528 157.127C944.561 157.127 937.294 157.1 937.294 157.066C937.294 157.032 944.561 157.005 953.528 157.005C962.492 157.005 969.762 157.032 969.762 157.066Z" fill="#263238"/>
<path d="M931.144 163.216C931.144 163.25 927.741 163.277 923.545 163.277C919.347 163.277 915.946 163.25 915.946 163.216C915.946 163.182 919.347 163.155 923.545 163.155C927.741 163.155 931.144 163.182 931.144 163.216Z" fill="#263238"/>
<path d="M931.144 154.669C931.144 154.703 927.741 154.73 923.545 154.73C919.347 154.73 915.946 154.703 915.946 154.669C915.946 154.635 919.347 154.608 923.545 154.608C927.741 154.61 931.144 154.637 931.144 154.669Z" fill="#263238"/>
<path d="M934.913 184H908.983C906.783 184 905 182.219 905 180.02V174.984C905 172.785 906.783 171.003 908.983 171.003H934.911V184H934.913Z" fill="#FF725E"/>
<path d="M980.893 173.162H928.434V171.003H980.891C981.257 171.003 981.552 171.299 981.552 171.664V172.501C981.552 172.866 981.256 173.162 980.893 173.162Z" fill="#FF725E"/>
<path d="M980.893 184H928.434V181.842H980.891C981.257 181.842 981.552 182.137 981.552 182.502V183.339C981.552 183.704 981.256 184 980.893 184Z" fill="#FF725E"/>
<path d="M979.968 181.842H934.36C931.961 181.842 930.018 179.898 930.018 177.503C930.018 175.106 931.963 173.164 934.36 173.164H979.968C978.747 176.055 978.747 178.949 979.968 181.842Z" fill="#F5F5F5"/>
<path opacity="0.3" d="M930.018 184H908.932C906.76 184 905 182.241 905 180.072V175.072C905 172.826 906.821 171.003 909.071 171.003H930.512C925.804 173.856 926.156 180.681 930.018 184Z" fill="black"/>
<path d="M974.427 177.904C974.427 177.938 965.065 177.965 953.521 177.965C941.972 177.965 932.613 177.938 932.613 177.904C932.613 177.87 941.972 177.843 953.521 177.843C965.065 177.846 974.427 177.873 974.427 177.904Z" fill="#263238"/>
<path d="M978.731 179.835C978.731 179.868 969.369 179.896 957.825 179.896C946.277 179.896 936.917 179.868 936.917 179.835C936.917 179.801 946.277 179.774 957.825 179.774C969.369 179.774 978.731 179.801 978.731 179.835Z" fill="#263238"/>
<path d="M977.462 176.116C977.462 176.15 968.101 176.177 956.557 176.177C945.008 176.177 935.649 176.15 935.649 176.116C935.649 176.082 945.008 176.055 956.557 176.055C968.101 176.055 977.462 176.082 977.462 176.116Z" fill="#263238"/>
<path d="M927.73 183.089C927.73 183.123 923.347 183.15 917.944 183.15C912.539 183.15 908.158 183.123 908.158 183.089C908.158 183.055 912.539 183.028 917.944 183.028C923.347 183.028 927.73 183.055 927.73 183.089Z" fill="#263238"/>
<path d="M927.73 172.084C927.73 172.118 923.347 172.145 917.944 172.145C912.539 172.145 908.158 172.118 908.158 172.084C908.158 172.05 912.539 172.023 917.944 172.023C923.347 172.023 927.73 172.05 927.73 172.084Z" fill="#263238"/>
<path d="M942.679 171.054H921.315C919.692 171.054 918.379 169.739 918.379 168.12V166.548C918.379 164.926 919.695 163.614 921.315 163.614H942.679V171.054Z" fill="#455A64"/>
<path d="M979.882 165.366H937.416V163.614H979.882C980.263 163.614 980.575 163.923 980.575 164.306V164.676C980.575 165.057 980.263 165.366 979.882 165.366Z" fill="#455A64"/>
<path d="M979.882 171.054H937.416V169.302H979.882C980.263 169.302 980.575 169.61 980.575 169.994V170.364C980.575 170.745 980.263 171.054 979.882 171.054Z" fill="#455A64"/>
<path d="M979.286 169.301H940.67C939.582 169.301 938.702 168.419 938.702 167.335C938.702 166.247 939.585 165.368 940.67 165.368H979.286C978.293 166.676 978.293 167.989 979.286 169.301Z" fill="#F5F5F5"/>
<path opacity="0.3" d="M938.702 171.054H921.333C919.702 171.054 918.377 169.732 918.377 168.099V166.627C918.377 164.962 919.726 163.614 921.392 163.614H939.104C935.281 165.244 935.565 169.153 938.702 171.054Z" fill="black"/>
<path d="M974.786 167.023C974.786 167.057 967.18 167.084 957.8 167.084C948.416 167.084 940.813 167.057 940.813 167.023C940.813 166.989 948.416 166.962 957.8 166.962C967.18 166.962 974.786 166.989 974.786 167.023Z" fill="#263238"/>
<path d="M978.279 168.082C978.279 168.116 970.674 168.143 961.294 168.143C951.91 168.143 944.306 168.116 944.306 168.082C944.306 168.048 951.91 168.021 961.294 168.021C970.676 168.023 978.279 168.05 978.279 168.082Z" fill="#263238"/>
<path d="M936.843 170.313C936.843 170.347 933.283 170.374 928.891 170.374C924.5 170.374 920.94 170.347 920.94 170.313C920.94 170.28 924.5 170.252 928.891 170.252C933.283 170.252 936.843 170.28 936.843 170.313Z" fill="#263238"/>
<path d="M936.843 164.488C936.843 164.522 933.283 164.549 928.891 164.549C924.5 164.549 920.94 164.522 920.94 164.488C920.94 164.454 924.5 164.427 928.891 164.427C933.283 164.429 936.843 164.454 936.843 164.488Z" fill="#263238"/>
<path d="M980.067 163.614C980.067 163.648 967.006 163.675 950.901 163.675C934.789 163.675 921.733 163.648 921.733 163.614C921.733 163.58 934.789 163.553 950.901 163.553C967.008 163.553 980.067 163.58 980.067 163.614Z" fill="#263238"/>
<path d="M956.647 156.955V160.996L958.048 160.096L959.612 160.996V156.955H956.647Z" fill="#FF725E"/>
<path d="M970.889 116.84L963.832 122.713L953.098 143.905L959.79 146.927L970.23 126.143L970.889 116.84Z" fill="#FF725E"/>
<g opacity="0.7">
<path opacity="0.7" d="M970.231 126.143C969.869 126.19 969.538 125.963 969.565 125.597C969.122 126.111 968.341 126.303 967.714 126.048C967.084 125.796 966.653 125.117 966.694 124.44C966.103 124.758 965.342 124.731 964.773 124.373C964.207 124.014 963.855 123.34 963.889 122.67L970.892 116.84L970.231 126.143Z" fill="white"/>
</g>
<path d="M968.05 119.201C968.05 119.201 968.156 120.956 970.619 120.651L970.89 116.84L968.05 119.201Z" fill="#FF725E"/>
<path opacity="0.3" d="M966.692 124.441L956.344 145.257L953.096 143.906L963.83 122.713L963.884 122.67C963.884 122.67 963.844 123.063 964.031 123.496C964.155 123.784 964.381 124.111 964.726 124.344C965.169 124.644 965.64 124.702 966.01 124.657C966.41 124.607 966.692 124.441 966.692 124.441Z" fill="black"/>
<path opacity="0.3" d="M969.565 125.598L958.933 146.54L959.79 146.928L970.228 126.144C970.228 126.144 969.705 126.234 969.567 125.733C969.558 125.695 969.565 125.648 969.565 125.598Z" fill="black"/>
<path d="M966.639 122.42C966.644 122.422 966.606 122.445 966.603 122.515C966.601 122.578 966.651 122.695 966.784 122.709C966.91 122.725 967.073 122.675 967.229 122.582C967.305 122.535 967.38 122.465 967.418 122.37C967.459 122.278 967.463 122.158 967.398 122.068C967.335 121.976 967.215 121.928 967.093 121.915C966.969 121.899 966.836 121.915 966.7 121.937C966.432 121.985 966.147 122.082 965.895 122.251C965.773 122.339 965.662 122.463 965.646 122.616C965.631 122.77 965.716 122.925 965.845 123.025C966.114 123.218 966.495 123.216 966.834 123.149C967.526 122.997 968.079 122.449 968.213 121.854C968.24 121.705 968.204 121.554 968.106 121.448C968.014 121.34 967.885 121.272 967.761 121.223C967.506 121.128 967.249 121.085 967.016 121.074C966.549 121.049 966.175 121.148 965.929 121.236C965.807 121.283 965.714 121.324 965.651 121.356C965.59 121.387 965.556 121.401 965.556 121.401C965.556 121.401 965.676 121.317 965.922 121.218C966.166 121.126 966.542 121.017 967.019 121.038C967.256 121.049 967.513 121.087 967.777 121.184C967.906 121.236 968.041 121.304 968.143 121.421C968.246 121.534 968.292 121.705 968.26 121.863C968.122 122.483 967.558 123.043 966.845 123.198C966.667 123.239 966.486 123.248 966.31 123.234C966.134 123.218 965.956 123.173 965.816 123.065C965.678 122.959 965.583 122.788 965.601 122.614C965.619 122.438 965.743 122.305 965.87 122.215C966.134 122.039 966.423 121.944 966.696 121.897C966.834 121.874 966.969 121.859 967.1 121.877C967.229 121.892 967.359 121.944 967.429 122.05C967.502 122.154 967.493 122.289 967.45 122.386C967.407 122.488 967.326 122.56 967.244 122.61C967.08 122.702 966.917 122.749 966.782 122.729C966.639 122.709 966.585 122.58 966.594 122.515C966.599 122.44 966.642 122.42 966.639 122.42Z" fill="white"/>
<path d="M970.425 122.294C970.425 122.3 970.321 122.278 970.134 122.285C969.949 122.291 969.678 122.345 969.378 122.488C969.073 122.627 968.75 122.86 968.403 123.137C968.055 123.408 967.667 123.726 967.175 123.897C966.685 124.068 966.171 124.066 965.739 123.953C965.304 123.841 964.956 123.613 964.708 123.385C964.46 123.155 964.311 122.921 964.221 122.756C964.133 122.589 964.103 122.49 964.103 122.49C964.105 122.49 964.117 122.512 964.137 122.557C964.157 122.603 964.191 122.668 964.236 122.747C964.329 122.907 964.482 123.135 964.731 123.36C964.977 123.581 965.32 123.802 965.748 123.911C966.173 124.019 966.676 124.019 967.157 123.852C967.638 123.685 968.021 123.369 968.373 123.103C968.721 122.828 969.053 122.596 969.362 122.458C969.669 122.318 969.944 122.269 970.134 122.269C970.323 122.262 970.425 122.294 970.425 122.294Z" fill="white"/>
<path d="M970.384 124.419C970.38 124.432 970.249 124.222 969.901 124.186C969.563 124.153 969.089 124.25 968.586 124.378C968.08 124.514 967.64 124.696 967.331 124.845C967.175 124.92 967.053 124.985 966.967 125.028C966.884 125.073 966.834 125.098 966.834 125.096C966.832 125.094 966.877 125.062 966.958 125.012C967.04 124.963 967.161 124.893 967.315 124.814C967.622 124.656 968.062 124.466 968.572 124.331C968.827 124.261 969.073 124.211 969.299 124.177C969.524 124.143 969.732 124.128 969.906 124.153C970.08 124.175 970.211 124.245 970.285 124.308C970.357 124.369 970.384 124.419 970.384 124.419Z" fill="white"/>
<path d="M967.455 125.909C967.451 125.905 967.539 125.828 967.692 125.72C967.846 125.613 968.071 125.469 968.36 125.419C968.649 125.365 968.924 125.462 969.064 125.593C969.136 125.656 969.182 125.722 969.204 125.769C969.229 125.817 969.234 125.846 969.231 125.846C969.222 125.85 969.184 125.735 969.039 125.62C968.899 125.503 968.644 125.417 968.367 125.469C968.089 125.516 967.866 125.652 967.71 125.749C967.554 125.85 967.46 125.916 967.455 125.909Z" fill="white"/>
<path d="M970.61 121.031C970.61 121.034 970.599 121.043 970.576 121.058C970.553 121.074 970.52 121.101 970.472 121.131C970.427 121.16 970.366 121.196 970.289 121.212C970.21 121.23 970.118 121.219 970.023 121.196C969.831 121.153 969.617 121.056 969.378 120.973C969.136 120.889 968.863 120.819 968.572 120.772C967.99 120.677 967.45 120.673 967.062 120.67C966.893 120.67 966.742 120.67 966.602 120.67C966.493 120.67 966.432 120.668 966.432 120.663C966.432 120.659 966.493 120.654 966.602 120.65C966.71 120.645 966.868 120.639 967.062 120.634C967.45 120.627 967.992 120.625 968.579 120.722C968.872 120.77 969.147 120.842 969.391 120.93C969.635 121.018 969.842 121.115 970.03 121.162C970.217 121.225 970.371 121.174 970.461 121.115C970.556 121.058 970.608 121.027 970.61 121.031Z" fill="white"/>
<path d="M978.09 140.184C978.09 144.976 978.09 149.766 978.09 154.559C978.09 155.925 978.09 157.292 978.09 158.656C978.09 158.844 978.378 158.844 978.378 158.656C978.378 153.864 978.378 149.074 978.378 144.281C978.378 142.915 978.378 141.548 978.378 140.184C978.381 139.996 978.09 139.996 978.09 140.184Z" fill="#FF725E"/>
<path d="M979.281 154.586C979.281 155.161 978.814 155.628 978.239 155.628C977.663 155.628 977.196 155.161 977.196 154.586C977.196 154.011 977.663 153.544 978.239 153.544C978.817 153.544 979.281 154.011 979.281 154.586Z" fill="#FF725E"/>
<path d="M977.945 155.125C977.945 155.125 977.187 155.883 976.959 158.108C976.731 160.334 976.681 161.446 976.681 161.446L978.731 161.573C978.731 161.573 978.731 159.904 978.731 159.978C978.731 160.055 979.135 161.167 979.135 161.167L980.755 160.634C980.755 160.639 980.173 154.721 977.945 155.125Z" fill="#FF725E"/>
<path d="M967.286 141.695H932.484V154.232H967.286V141.695Z" fill="#263238"/>
<path d="M979.509 139.537H919.983V141.695H979.509V139.537Z" fill="#263238"/>
<path opacity="0.3" d="M932.484 150.676C932.484 150.676 943.058 146.884 949.885 145.486C956.712 144.086 967.286 144.552 967.286 144.552V141.695H932.484V150.676Z" fill="black"/>
<path opacity="0.3" d="M941.514 139.537H919.983V141.695H941.514V139.537Z" fill="black"/>
<path d="M979.078 141.694C979.078 141.728 965.841 141.755 949.519 141.755C933.191 141.755 919.956 141.728 919.956 141.694C919.956 141.66 933.188 141.633 949.519 141.633C965.844 141.633 979.078 141.66 979.078 141.694Z" fill="#455A64"/>
<path d="M941.481 141.713C941.447 141.713 941.42 141.222 941.42 140.617C941.42 140.011 941.447 139.521 941.481 139.521C941.515 139.521 941.542 140.013 941.542 140.617C941.542 141.222 941.515 141.713 941.481 141.713Z" fill="#455A64"/>
<path d="M946.445 154.232C946.411 154.232 946.384 151.785 946.384 148.769C946.384 145.752 946.411 143.305 946.445 143.305C946.479 143.305 946.506 145.75 946.506 148.769C946.504 151.787 946.477 154.232 946.445 154.232Z" fill="#455A64"/>
</g>
<path d="M257.556 184.181C282.408 184.181 302.556 182.423 302.556 180.255C302.556 178.087 282.408 176.329 257.556 176.329C232.703 176.329 212.556 178.087 212.556 180.255C212.556 182.423 232.703 184.181 257.556 184.181Z" fill="#92CC9D"/>
<path d="M285.8 162.258V161.539H236.652C235.697 161.539 234.925 162.311 234.925 163.265V168.667C234.925 169.622 235.697 170.394 236.652 170.394H285.8V169.674H285.329V162.255H285.8V162.258Z" fill="#FFD054"/>
<path d="M288.982 171.116V170.396H231.198C230.243 170.396 229.471 171.169 229.471 172.123V177.525C229.471 178.48 230.243 179.252 231.198 179.252H288.982V178.532H288.511V171.113H288.982V171.116Z" fill="#6AE0F6"/>
<path d="M231.571 177.528V172.126C231.571 171.171 232.343 170.399 233.298 170.399H232.443C231.488 170.399 230.716 171.171 230.716 172.126V177.528C230.716 178.482 231.488 179.254 232.443 179.254H233.298C232.346 179.254 231.571 178.482 231.571 177.528Z" fill="white"/>
<path d="M233.785 177.528V172.126C233.785 171.171 234.557 170.399 235.512 170.399H234.657C233.702 170.399 232.93 171.171 232.93 172.126V177.528C232.93 178.482 233.702 179.254 234.657 179.254H235.512C234.56 179.254 233.785 178.482 233.785 177.528Z" fill="white"/>
<path d="M285.329 169.677H244.63C243.831 169.677 243.183 169.029 243.183 168.23V163.702C243.183 162.903 243.831 162.255 244.63 162.255H285.329V169.677Z" fill="white"/>
<path d="M288.511 178.535H250.386C249.587 178.535 248.939 177.887 248.939 177.088V172.56C248.939 171.761 249.587 171.113 250.386 171.113H288.511V178.535Z" fill="white"/>
<path d="M229.468 157.719V157H287.252C288.207 157 288.979 157.772 288.979 158.727V159.812C288.979 160.766 288.207 161.538 287.252 161.538H229.468V160.819H229.939V157.717H229.468V157.719Z" fill="#FF867E"/>
<path d="M229.941 160.819H268.066C268.866 160.819 269.514 160.171 269.514 159.372V159.164C269.514 158.364 268.866 157.717 268.066 157.717H229.941V160.819Z" fill="white"/>
<path d="M238.362 163.096H236.351V168.838H238.362V163.096Z" fill="white"/>
<path d="M239.749 163.096H239.196V168.838H239.749V163.096Z" fill="white"/>
</g>
<defs>
<linearGradient id="paint0_linear_240_70746" x1="566.973" y1="-79.1406" x2="566.973" y2="131.422" gradientUnits="userSpaceOnUse">
<stop stop-color="#ABE4B5"/>
<stop offset="1" stop-color="#ABE4B5" stop-opacity="0.24"/>
</linearGradient>
<linearGradient id="paint1_linear_240_70746" x1="767.259" y1="151.773" x2="767.259" y2="238.745" gradientUnits="userSpaceOnUse">
<stop stop-color="#ABE4B5"/>
<stop offset="1" stop-color="#ABE4B5" stop-opacity="0"/>
</linearGradient>
<linearGradient id="paint2_linear_240_70746" x1="32.5" y1="88" x2="32.5" y2="321" gradientUnits="userSpaceOnUse">
<stop stop-color="#ABE4B5"/>
<stop offset="1" stop-color="#ABE4B5" stop-opacity="0"/>
</linearGradient>
<clipPath id="clip0_240_70746">
<path d="M0 8C0 3.58172 3.58172 0 8 0H1280C1284.42 0 1288 3.58172 1288 8V176C1288 180.418 1284.42 184 1280 184H7.99998C3.5817 184 0 180.418 0 176V8Z" fill="white"/>
</clipPath>
<clipPath id="clip1_240_70746">
<rect width="383" height="184" fill="white" transform="translate(905)"/>
</clipPath>
</defs>
</svg>
