<svg width="297" height="176" viewBox="0 0 297 176" fill="none" xmlns="http://www.w3.org/2000/svg">
<g opacity="0.081">
<rect x="29.6627" y="38.1152" width="37.2372" height="8.79296" rx="3.25894" fill="#424D6C"/>
<rect x="60.5885" y="56.3301" width="53.6467" height="8.79296" rx="3.25894" fill="#424D6C"/>
<rect x="40.3922" y="74.5449" width="108.555" height="8.79296" rx="3.25894" fill="#424D6C"/>
<rect x="167.15" y="118.51" width="108.555" height="8.16519" rx="3.02627" fill="#424D6C"/>
<rect y="92.7588" width="78.8926" height="8.79296" rx="3.25894" fill="#424D6C"/>
<rect x="217.54" y="100.295" width="78.8926" height="8.79296" rx="3.25894" fill="#424D6C"/>
<rect x="14.5161" y="110.346" width="64.3764" height="8.79296" rx="3.25894" fill="#424D6C"/>
<rect x="131.137" y="38.1152" width="11.3598" height="8.79296" rx="3.25894" fill="#EDAFAF"/>
<rect x="81.9086" y="74.5449" width="11.3598" height="8.79296" rx="3.25894" fill="#424D6C"/>
<rect x="249.349" y="132.956" width="11.3598" height="8.79296" rx="3.25894" fill="#424D6C"/>
<rect x="59.2249" y="128.164" width="11.3598" height="8.79296" rx="3.25894" fill="#424D6C"/>
</g>
<g opacity="0.7">
<ellipse cx="211.608" cy="15.1893" rx="2.83995" ry="2.82704" fill="black"/>
<ellipse cx="211.608" cy="15.1893" rx="2.83995" ry="2.82704" fill="white" stroke="#424D6C" stroke-width="1.16286"/>
</g>
<g opacity="0.7">
<ellipse cx="49.7335" cy="129.443" rx="2.20839" ry="2.1979" fill="black"/>
<ellipse cx="49.7335" cy="129.443" rx="2.20839" ry="2.1979" fill="white" stroke="#424D6C" stroke-width="1.16286"/>
</g>
<g opacity="0.7">
<ellipse cx="90.745" cy="2.8847" rx="1.8933" ry="1.8847" fill="black"/>
<ellipse cx="90.745" cy="2.8847" rx="1.8933" ry="1.8847" fill="white" stroke="#424D6C" stroke-width="1.16286"/>
</g>
<g opacity="0.7">
<ellipse cx="67.9858" cy="12.8172" rx="2.52486" ry="2.51247" fill="black"/>
<ellipse cx="67.9858" cy="12.8172" rx="2.52486" ry="2.51247" fill="white" stroke="#424D6C" stroke-width="1.16286"/>
</g>
<g opacity="0.7">
<ellipse cx="267.414" cy="89.3053" rx="2.20839" ry="2.1979" fill="black"/>
<ellipse cx="267.414" cy="89.3053" rx="2.20839" ry="2.1979" fill="white" stroke="#424D6C" stroke-width="1.16286"/>
</g>
<g opacity="0.6">
<path fill-rule="evenodd" clip-rule="evenodd" d="M145.074 5.45265L165.172 5.45265L145.074 5.45265Z" fill="white"/>
<path d="M145.074 5.45265L165.172 5.45265" stroke="#424D6C" stroke-width="1.16286"/>
<path fill-rule="evenodd" clip-rule="evenodd" d="M136.818 5.45265H141.843H136.818Z" fill="white"/>
<path d="M136.818 5.45265H141.843" stroke="#424D6C" stroke-width="1.16286"/>
</g>
<g opacity="0.7">
<ellipse cx="228.964" cy="6.08294" rx="1.8933" ry="1.8847" fill="black"/>
<ellipse cx="228.964" cy="6.08294" rx="1.8933" ry="1.8847" fill="white" stroke="#424D6C" stroke-width="1.16286"/>
</g>
<ellipse cx="253.189" cy="60.1767" rx="4.93414" ry="4.91006" fill="#EAEEF1"/>
<g opacity="0.5">
<path fill-rule="evenodd" clip-rule="evenodd" d="M59.0944 175.101H96.699C99.3132 175.101 99.1743 169.135 104.223 169.135C109.272 169.135 108.957 175.101 111.174 175.101H185.734C188.435 175.101 188.165 169.135 193.213 169.135C198.263 169.135 198.42 175.101 200.716 175.101H244.65" fill="black"/>
<path fill-rule="evenodd" clip-rule="evenodd" d="M59.0944 175.101H96.699C99.3132 175.101 99.1743 169.135 104.223 169.135C109.272 169.135 108.957 175.101 111.174 175.101H185.734C188.435 175.101 188.165 169.135 193.213 169.135C198.263 169.135 198.42 175.101 200.716 175.101H244.65" fill="white"/>
<path d="M59.0944 175.101H96.699C99.3132 175.101 99.1743 169.135 104.223 169.135C109.272 169.135 108.957 175.101 111.174 175.101H185.734C188.435 175.101 188.165 169.135 193.213 169.135C198.263 169.135 198.42 175.101 200.716 175.101H244.65" stroke="#424D6C" stroke-width="1.16286"/>
<path fill-rule="evenodd" clip-rule="evenodd" d="M45.2111 175.101H54.994H45.2111Z" fill="white"/>
<path d="M45.2111 175.101H54.994" stroke="#424D6C" stroke-width="1.16286"/>
<path fill-rule="evenodd" clip-rule="evenodd" d="M248.437 175.101H258.22H248.437Z" fill="white"/>
<path d="M248.437 175.101H258.22" stroke="#424D6C" stroke-width="1.16286"/>
</g>
<path d="M81.9995 67.4801L84.7139 61.3727L90.1426 57.9798V50.5153C90.1426 46.7152 95.1189 43.9556 97.6071 43.0508L194.646 44.408C202.246 44.9508 204.598 50.9677 204.825 53.9082V70.873L209.575 72.2302L213.646 77.6589L207.539 142.125L202.11 146.875H90.1426L81.9995 67.4801Z" fill="white"/>
<path d="M209.269 140.461L215.233 79.6754C215.462 77.1522 214.545 74.6291 212.939 72.7941C211.334 70.959 208.81 69.8121 206.287 69.8121V53.9851C206.287 48.0212 201.7 43.2043 195.736 42.9749L99.1677 41.5986C92.9745 41.5986 88.3869 46.4156 88.1576 52.15V56.2788C85.405 56.967 83.3406 58.802 82.1937 61.5545C80.8175 63.1602 79.8999 65.2246 79.4412 66.8302C78.2943 70.959 78.5237 75.3172 78.9824 79.6754C80.8175 99.8607 82.6525 119.817 84.2581 140.002C84.9463 148.718 87.24 152.388 99.8558 153.076C135.868 154.911 171.881 154.682 207.893 153.994C209.269 153.994 210.875 153.994 212.022 153.306C213.398 152.618 214.316 151.241 214.086 149.865C213.398 146.883 208.352 147.342 205.37 147.113C207.434 145.736 208.81 143.443 209.269 140.461ZM99.1677 45.2687L195.736 46.645C199.635 46.645 203.076 50.0856 202.847 53.9851V70.0415H169.128C166.605 70.0415 164.082 68.8946 162.247 67.0596L156.971 61.0958C154.218 58.1139 150.319 56.2788 146.19 56.2788H91.5982V52.6088C91.5982 48.2506 95.0389 45.0393 99.1677 45.2687ZM200.323 145.278H96.8739C94.1214 145.278 91.5982 143.213 91.3689 140.231L84.7169 65.454C84.4875 62.2427 87.0107 59.4901 90.222 59.4901H146.19C149.402 59.4901 152.383 60.8664 154.448 63.1602L159.724 69.124C162.017 71.8765 165.458 73.4822 169.128 73.4822H206.287C207.893 73.4822 209.269 74.1703 210.416 75.3172C211.563 76.4641 212.022 78.0698 211.792 79.446L205.829 140.231C205.599 142.984 203.076 145.278 200.323 145.278Z" fill="#DADBDE"/>
<path d="M207.435 32.8815C205.37 35.634 203.765 38.3866 202.618 41.5979C202.389 42.5154 202.847 43.4329 203.765 43.6623C204.682 43.8916 205.6 43.4329 205.829 42.5154C206.747 39.7628 208.123 37.0103 209.958 34.7165C210.646 34.0284 210.417 32.8815 209.729 32.1934C209.04 32.1934 208.123 32.1934 207.435 32.8815Z" fill="#DADBDE"/>
<path d="M222.115 39.5335C221.656 38.8454 220.509 38.3866 219.821 39.0748L209.04 45.9561C208.352 46.4149 208.123 47.5618 208.581 48.2499C209.04 48.938 210.187 49.3968 210.875 48.7087L221.656 41.8273C222.344 41.3686 222.574 40.2217 222.115 39.5335Z" fill="#DADBDE"/>
<path d="M225.326 51.9199L213.169 52.8374C212.251 52.8374 211.563 53.7549 211.563 54.6725C211.563 55.59 212.481 56.2781 213.398 56.2781L225.555 55.3606C226.473 55.3606 227.161 54.4431 227.161 53.5256C226.931 52.6081 226.243 51.9199 225.326 51.9199Z" fill="#DADBDE"/>
<g filter="url(#filter0_d_334_39492)">
<path d="M165.708 89.1963C165.708 89.1963 168.22 89.3926 170.354 90.5533C172.487 91.7141 173.57 93.4739 173.57 93.4739" stroke="#C3C8D7" stroke-width="1.12193"/>
</g>
<g filter="url(#filter1_d_334_39492)">
<path d="M128.541 89.1963C128.541 89.1963 125.586 89.2737 123.62 90.3431C121.654 91.4125 120.679 93.4739 120.679 93.4739" stroke="#C3C8D7" stroke-width="1.12193"/>
</g>
<g filter="url(#filter2_d_334_39492)">
<path d="M135.331 125.913C135.331 125.913 141.049 122.759 146.767 122.759C152.485 122.759 158.203 125.913 158.203 125.913" stroke="#C3C8D7" stroke-width="1.12193"/>
</g>
<ellipse cx="127.827" cy="100.603" rx="4.64583" ry="4.63404" fill="#C3C8D7"/>
<ellipse cx="167.137" cy="100.603" rx="4.64583" ry="4.63404" fill="#C3C8D7"/>
<defs>
<filter id="filter0_d_334_39492" x="153.664" y="75.6367" width="34.3838" height="31.1318" filterUnits="userSpaceOnUse" color-interpolation-filters="sRGB">
<feFlood flood-opacity="0" result="BackgroundImageFix"/>
<feColorMatrix in="SourceAlpha" type="matrix" values="0 0 0 0 0 0 0 0 0 0 0 0 0 0 0 0 0 0 127 0" result="hardAlpha"/>
<feOffset dx="1"/>
<feGaussianBlur stdDeviation="6.5"/>
<feColorMatrix type="matrix" values="0 0 0 0 0.54902 0 0 0 0 0.717647 0 0 0 0 0.905882 0 0 0 0.116423 0"/>
<feBlend mode="normal" in2="BackgroundImageFix" result="effect1_dropShadow_334_39492"/>
<feBlend mode="normal" in="SourceGraphic" in2="effect1_dropShadow_334_39492" result="shape"/>
</filter>
<filter id="filter1_d_334_39492" x="108.172" y="75.6357" width="34.384" height="31.0791" filterUnits="userSpaceOnUse" color-interpolation-filters="sRGB">
<feFlood flood-opacity="0" result="BackgroundImageFix"/>
<feColorMatrix in="SourceAlpha" type="matrix" values="0 0 0 0 0 0 0 0 0 0 0 0 0 0 0 0 0 0 127 0" result="hardAlpha"/>
<feOffset dx="1"/>
<feGaussianBlur stdDeviation="6.5"/>
<feColorMatrix type="matrix" values="0 0 0 0 0.54902 0 0 0 0 0.717647 0 0 0 0 0.905882 0 0 0 0.116423 0"/>
<feBlend mode="normal" in2="BackgroundImageFix" result="effect1_dropShadow_334_39492"/>
<feBlend mode="normal" in="SourceGraphic" in2="effect1_dropShadow_334_39492" result="shape"/>
</filter>
<filter id="filter2_d_334_39492" x="123.061" y="109.198" width="49.4131" height="30.2061" filterUnits="userSpaceOnUse" color-interpolation-filters="sRGB">
<feFlood flood-opacity="0" result="BackgroundImageFix"/>
<feColorMatrix in="SourceAlpha" type="matrix" values="0 0 0 0 0 0 0 0 0 0 0 0 0 0 0 0 0 0 127 0" result="hardAlpha"/>
<feOffset dx="1"/>
<feGaussianBlur stdDeviation="6.5"/>
<feColorMatrix type="matrix" values="0 0 0 0 0.54902 0 0 0 0 0.717647 0 0 0 0 0.905882 0 0 0 0.116423 0"/>
<feBlend mode="normal" in2="BackgroundImageFix" result="effect1_dropShadow_334_39492"/>
<feBlend mode="normal" in="SourceGraphic" in2="effect1_dropShadow_334_39492" result="shape"/>
</filter>
</defs>
</svg>
