<svg width="32" height="32" viewBox="0 0 32 32" fill="none" xmlns="http://www.w3.org/2000/svg">
<path d="M16 0C7.17694 0 0 7.17694 0 16C0 24.8218 7.17694 32 16 32C24.8218 32 32 24.8218 32 16C32 7.17694 24.8218 0 16 0ZM23.5674 26.3219C24.2419 26.5613 24.9254 26.825 25.5808 27.1501C23.0042 29.3683 19.6583 30.72 16 30.72C12.3405 30.72 8.99581 29.3683 6.41919 27.1501C7.07456 26.8249 7.75681 26.5612 8.43262 26.3219C10.4102 25.623 11.9961 25.0636 12.1702 22.8108C9.01762 22.4422 6.93119 21.7586 6.83906 21.7279C6.64325 21.6627 6.49219 21.5077 6.42944 21.3132C6.368 21.1174 6.40513 20.9036 6.52669 20.7385C6.54463 20.7142 8.32 18.2681 8.32 14.0813C8.32 7.66844 11.1911 3.84125 16 3.84125C20.8089 3.84125 23.68 7.66844 23.68 14.0813C23.68 18.2681 25.4554 20.7142 25.4733 20.7385C25.5949 20.9036 25.6308 21.1174 25.5693 21.3132C25.5079 21.5078 25.3556 21.6627 25.161 21.7279C25.0688 21.7587 22.9824 22.4422 19.8298 22.8108C20.0038 25.0637 21.5898 25.6231 23.5674 26.3219Z" fill="#ED4D59"/>
</svg>
