<svg width="232" height="174" viewBox="0 0 232 174" fill="none" xmlns="http://www.w3.org/2000/svg">
<g clip-path="url(#clip0_625_14046)">
<path d="M39.0934 75.8675C39.0892 75.8675 39.0849 75.8675 39.0807 75.8675C39.0807 75.8675 38.7082 75.8292 38.042 75.7399C37.9781 75.7314 37.9334 75.674 37.942 75.6102C37.9505 75.5465 38.0101 75.5018 38.0718 75.5103C38.7337 75.5975 39.1041 75.6358 39.1041 75.6358C39.1679 75.6421 39.2148 75.6995 39.2084 75.7633C39.202 75.8229 39.1509 75.8675 39.0934 75.8675Z" fill="#195494"/>
<path d="M31.7778 75.7569C31.0861 75.7527 30.3752 75.7229 29.6643 75.6676C29.6004 75.6634 29.5515 75.6059 29.5578 75.5422C29.5621 75.4784 29.6238 75.4316 29.6834 75.4359C30.3879 75.4911 31.0924 75.5209 31.7799 75.5252C31.8438 75.5252 31.8949 75.5783 31.8949 75.6421C31.8949 75.7059 31.8417 75.7569 31.7778 75.7569ZM33.8828 75.6867C33.8232 75.6867 33.7722 75.64 33.7679 75.5804C33.7636 75.5167 33.8105 75.4614 33.8743 75.4571C34.5831 75.404 35.2833 75.321 35.9538 75.2084C36.0155 75.1977 36.0773 75.2402 36.0879 75.304C36.0985 75.3678 36.056 75.4273 35.9921 75.438C35.3131 75.5507 34.6065 75.6357 33.8913 75.6889C33.8892 75.6867 33.885 75.6867 33.8828 75.6867ZM27.5805 75.4316C27.5741 75.4316 27.5699 75.4316 27.5635 75.4295C26.8739 75.3274 26.1736 75.202 25.4819 75.0553C25.4202 75.0425 25.3797 74.9809 25.3925 74.9171C25.4053 74.8533 25.4691 74.815 25.5308 74.8278C26.2183 74.9724 26.9122 75.0978 27.5976 75.1977C27.6614 75.2062 27.704 75.2658 27.6955 75.3295C27.6869 75.3891 27.638 75.4316 27.5805 75.4316ZM23.462 74.5599C23.4513 74.5599 23.4407 74.5578 23.4301 74.5556C22.7553 74.3685 22.0742 74.1602 21.4102 73.9327C21.3506 73.9114 21.3165 73.8455 21.3378 73.786C21.3591 73.7264 21.4251 73.6924 21.4847 73.7137C22.1445 73.939 22.8192 74.1474 23.4897 74.3324C23.5514 74.3494 23.5876 74.4132 23.5705 74.4748C23.5599 74.5259 23.5131 74.5599 23.462 74.5599ZM19.4775 73.1991C19.4626 73.1991 19.4478 73.197 19.4329 73.1906C18.7794 72.9227 18.1302 72.6336 17.5024 72.3317C17.4449 72.304 17.4215 72.2339 17.4491 72.1765C17.4768 72.1191 17.5471 72.0957 17.6045 72.1233C18.2303 72.4252 18.8752 72.7123 19.5222 72.978C19.5818 73.0014 19.6095 73.0695 19.5861 73.129C19.5669 73.1715 19.5222 73.1991 19.4775 73.1991ZM15.6847 71.3685C15.6655 71.3685 15.6464 71.3643 15.6272 71.3536C15.01 71.0071 14.4012 70.6371 13.8202 70.2587C13.7669 70.2247 13.752 70.1524 13.7861 70.0992C13.8223 70.0461 13.8925 70.0312 13.9479 70.0652C14.5247 70.4415 15.1291 70.8072 15.7421 71.1517C15.7975 71.1835 15.8188 71.2537 15.7868 71.309C15.7634 71.3473 15.7251 71.3685 15.6847 71.3685ZM12.1621 69.0659C12.1366 69.0659 12.1131 69.0574 12.0919 69.0425C11.5236 68.6109 10.9744 68.1602 10.4572 67.7009C10.4083 67.6584 10.404 67.5861 10.4466 67.5372C10.4891 67.4883 10.5636 67.484 10.6105 67.5287C11.1234 67.9837 11.6683 68.4323 12.2302 68.8597C12.2813 68.8979 12.2919 68.9702 12.2515 69.0213C12.2323 69.0489 12.1962 69.0659 12.1621 69.0659ZM9.02265 66.2658C8.99285 66.2658 8.96093 66.253 8.93751 66.2296C8.44584 65.7108 7.97971 65.1729 7.55403 64.6307C7.51359 64.5797 7.52423 64.5074 7.57318 64.467C7.62426 64.4266 7.69663 64.4351 7.73707 64.4862C8.15637 65.022 8.61825 65.5556 9.10566 66.0702C9.15036 66.1169 9.14823 66.1892 9.1014 66.2339C9.08012 66.2551 9.05032 66.2658 9.02265 66.2658ZM6.43659 62.9553C6.39828 62.9553 6.35997 62.9362 6.33869 62.9001C5.95982 62.2941 5.61714 61.669 5.32129 61.0461C5.29362 60.9886 5.31916 60.9185 5.37663 60.8909C5.4341 60.8632 5.50434 60.8887 5.53201 60.9461C5.8236 61.5627 6.16203 62.1793 6.53663 62.7767C6.57069 62.832 6.55366 62.9022 6.50045 62.9362C6.47916 62.949 6.45788 62.9553 6.43659 62.9553ZM4.64445 59.1602C4.59549 59.1602 4.5508 59.1283 4.53377 59.0794C4.35285 58.5287 4.20386 57.9653 4.0868 57.4061C4.06126 57.2806 4.03571 57.1552 4.0123 57.0298C3.99953 56.966 4.0421 56.9064 4.10382 56.8937C4.16768 56.883 4.22727 56.9234 4.24004 56.9851C4.26346 57.1084 4.289 57.2317 4.31454 57.3572C4.42948 57.9079 4.57634 58.4628 4.75513 59.0071C4.77428 59.0687 4.74236 59.1325 4.68063 59.1538C4.66999 59.158 4.65722 59.1602 4.64445 59.1602ZM3.82713 55.0418C3.76753 55.0418 3.71645 54.9972 3.71219 54.9355C3.66324 54.3912 3.6377 53.8554 3.6377 53.343C3.6377 53.1665 3.63982 52.9901 3.64621 52.82C3.64834 52.7562 3.71006 52.7052 3.7654 52.7073C3.82926 52.7094 3.88034 52.7626 3.87821 52.8264C3.87182 52.9964 3.8697 53.1665 3.8697 53.343C3.8697 53.8469 3.89524 54.3763 3.94419 54.9142C3.95058 54.978 3.90375 55.0354 3.8399 55.0397C3.83564 55.0418 3.83138 55.0418 3.82713 55.0418ZM15.1547 53.2516C15.1504 53.2516 15.1483 53.2516 15.144 53.2516C14.4906 53.1921 13.8244 52.8689 13.2178 52.3161C13.171 52.2736 13.1667 52.1991 13.2093 52.1524C13.2519 52.1056 13.3264 52.1013 13.3732 52.1439C13.9415 52.6626 14.5609 52.9646 15.1632 53.0198C15.2271 53.0262 15.2739 53.0815 15.2675 53.1453C15.2654 53.2069 15.2143 53.2516 15.1547 53.2516ZM17.0043 52.45C16.9788 52.45 16.9532 52.4415 16.9319 52.4245C16.883 52.3841 16.8745 52.3118 16.9128 52.2608C17.281 51.7994 17.5194 51.1467 17.6024 50.3728C17.6088 50.309 17.6684 50.2622 17.7301 50.2707C17.794 50.2771 17.8408 50.3345 17.8323 50.3983C17.745 51.2169 17.4896 51.9121 17.0937 52.4075C17.0703 52.4351 17.0384 52.45 17.0043 52.45ZM3.99527 50.8554C3.98676 50.8554 3.98037 50.8554 3.97186 50.8533C3.90801 50.8405 3.86757 50.7789 3.88034 50.7172C4.02294 49.9964 4.23153 49.3118 4.49759 48.6867C4.52313 48.6272 4.59124 48.5996 4.65083 48.6251C4.71043 48.6506 4.7381 48.7186 4.71256 48.7782C4.45289 49.3905 4.24856 50.0581 4.10808 50.764C4.09957 50.8171 4.05061 50.8554 3.99527 50.8554ZM12.0344 50.6747C11.994 50.6747 11.9535 50.6534 11.9322 50.613C11.6193 50.0283 11.3554 49.3629 11.1511 48.6378C11.1341 48.5762 11.1702 48.5124 11.232 48.4954C11.2937 48.4784 11.3575 48.5145 11.3746 48.5762C11.5746 49.2863 11.8322 49.9348 12.1387 50.5046C12.1685 50.562 12.1472 50.6322 12.0919 50.6619C12.0727 50.6704 12.0535 50.6747 12.0344 50.6747ZM17.5811 48.4146C17.53 48.4146 17.4811 48.3806 17.4683 48.3274C17.298 47.6534 17 47.0347 16.5829 46.4862C16.5446 46.4351 16.5531 46.3629 16.6042 46.3246C16.6552 46.2863 16.7276 46.2948 16.7659 46.3458C17.2022 46.9178 17.513 47.5663 17.6918 48.27C17.7067 48.3317 17.6705 48.3955 17.6067 48.4103C17.6003 48.4125 17.5896 48.4146 17.5811 48.4146ZM5.65971 47.0326C5.63417 47.0326 5.61076 47.0241 5.58948 47.0092C5.53839 46.9709 5.52988 46.8965 5.56819 46.8476C6.00878 46.2757 6.52173 45.776 7.09215 45.3593C7.14324 45.321 7.21773 45.3338 7.25392 45.3848C7.29223 45.4359 7.27946 45.5081 7.22837 45.5464C6.67498 45.9483 6.17905 46.433 5.75124 46.9879C5.72995 47.0177 5.69377 47.0326 5.65971 47.0326ZM10.8531 46.6626C10.7956 46.6626 10.7446 46.6201 10.7382 46.5606C10.6552 45.8908 10.6105 45.1807 10.6041 44.4493C10.6041 44.3855 10.6552 44.3324 10.719 44.3324C10.7829 44.3324 10.834 44.3834 10.8361 44.4472C10.8425 45.1701 10.885 45.8717 10.968 46.5308C10.9766 46.5946 10.9319 46.652 10.868 46.6605C10.8616 46.6626 10.8574 46.6626 10.8531 46.6626ZM15.1142 45.1403C15.093 45.1403 15.0738 45.1339 15.0547 45.1233C14.4778 44.7725 13.8351 44.5152 13.1433 44.3536C13.0816 44.3388 13.0411 44.2771 13.056 44.2154C13.0709 44.1538 13.1327 44.1155 13.1944 44.1283C13.9095 44.2941 14.5758 44.562 15.1738 44.9256C15.2292 44.9596 15.2462 45.0298 15.2122 45.085C15.1909 45.1212 15.1526 45.1403 15.1142 45.1403ZM9.01839 44.5939C8.97157 44.5939 8.92687 44.5641 8.90984 44.5174C8.88856 44.4578 8.92048 44.3898 8.98008 44.3685C9.65054 44.1325 10.3551 43.9901 11.0702 43.9497C11.1362 43.9454 11.1894 43.9943 11.1937 44.0581C11.1979 44.1219 11.149 44.1772 11.0851 44.1814C10.3912 44.2218 9.71014 44.3579 9.05883 44.5875C9.04393 44.5918 9.03116 44.5939 9.01839 44.5939ZM10.8042 42.4635C10.7999 42.4635 10.7978 42.4635 10.7935 42.4635C10.7297 42.4571 10.6828 42.4018 10.6871 42.338C10.7446 41.6598 10.8318 40.9539 10.9468 40.2417C10.9574 40.1779 11.017 40.1354 11.0809 40.146C11.1447 40.1566 11.1873 40.2161 11.1766 40.2799C11.0617 40.9879 10.9766 41.6853 10.9191 42.3593C10.9148 42.4167 10.8637 42.4635 10.8042 42.4635ZM11.464 38.3111C11.4555 38.3111 11.4469 38.3111 11.4384 38.309C11.3767 38.2941 11.3363 38.2324 11.3512 38.1708C11.4853 37.5755 11.6406 36.961 11.813 36.3423C11.8322 36.27 11.8535 36.1977 11.8748 36.1254C11.8918 36.0638 11.9556 36.0276 12.0195 36.0468C12.0812 36.0638 12.1153 36.1297 12.0982 36.1913C12.077 36.2636 12.0578 36.3338 12.0386 36.404C11.8684 37.0184 11.7151 37.6307 11.581 38.2218C11.564 38.275 11.5172 38.3111 11.464 38.3111ZM12.6729 34.2842C12.658 34.2842 12.6431 34.2821 12.6304 34.2757C12.5708 34.2523 12.541 34.1843 12.5665 34.1247C12.824 33.4826 13.1199 32.8363 13.4455 32.2027C13.4753 32.1453 13.5456 32.124 13.6009 32.1517C13.6584 32.1814 13.6797 32.2516 13.652 32.3069C13.3306 32.9362 13.0369 33.5762 12.7815 34.2119C12.7623 34.2565 12.7176 34.2842 12.6729 34.2842ZM14.5843 30.54C14.563 30.54 14.5417 30.5337 14.5225 30.523C14.4672 30.489 14.4523 30.4167 14.4842 30.3636C14.8524 29.7746 15.2505 29.1857 15.6719 28.6159C15.7102 28.5648 15.7826 28.5542 15.8337 28.5904C15.8847 28.6286 15.8954 28.7009 15.8592 28.7519C15.442 29.3175 15.0461 29.9001 14.6822 30.4848C14.6609 30.5209 14.6226 30.54 14.5843 30.54ZM17.0809 27.1573C17.0533 27.1573 17.0277 27.1488 17.0043 27.1297C16.9553 27.0872 16.9511 27.0149 16.9915 26.966C17.4491 26.4366 17.9323 25.9178 18.4304 25.4203C18.4751 25.3756 18.5496 25.3756 18.5942 25.4203C18.6389 25.4649 18.6389 25.5393 18.5942 25.584C18.1004 26.0772 17.6194 26.5939 17.1661 27.1169C17.1469 27.1424 17.115 27.1573 17.0809 27.1573ZM20.0586 24.185C20.0267 24.185 19.9948 24.1722 19.9713 24.1446C19.9288 24.0957 19.9352 24.0234 19.9841 23.9809C20.512 23.5237 21.0675 23.0794 21.6315 22.6584C21.6826 22.6201 21.755 22.6307 21.7933 22.6818C21.8316 22.7328 21.821 22.8051 21.7699 22.8434C21.2101 23.2622 20.661 23.7045 20.1352 24.1573C20.1118 24.1765 20.0863 24.185 20.0586 24.185ZM93.4749 22.112C93.4111 22.112 93.36 22.0609 93.3578 21.9972C93.3578 21.9334 93.4089 21.8802 93.4728 21.8802C94.1752 21.876 94.8839 21.8653 95.5757 21.8483C95.5778 21.8483 95.5778 21.8483 95.5778 21.8483C95.6417 21.8483 95.6927 21.8994 95.6949 21.961C95.697 22.0248 95.6459 22.0779 95.5821 22.0801C94.8903 22.0971 94.1794 22.1077 93.4749 22.112ZM91.3699 22.1035C91.3699 22.1035 91.3678 22.1035 91.3699 22.1035C90.6718 22.095 89.963 22.0779 89.2606 22.0567C89.1967 22.0546 89.1457 22.0014 89.1478 21.9376C89.1499 21.8738 89.1967 21.8207 89.267 21.8249C89.9672 21.8462 90.676 21.8611 91.3699 21.8717C91.4337 21.8717 91.4848 21.9249 91.4848 21.9886C91.4848 22.0524 91.4337 22.1035 91.3699 22.1035ZM97.6871 22.0078C97.6254 22.0078 97.5743 21.9589 97.5722 21.8972C97.57 21.8334 97.619 21.7782 97.6828 21.776C98.3874 21.7441 99.0961 21.7059 99.7836 21.6591C99.8475 21.657 99.9028 21.7037 99.9071 21.7675C99.9113 21.8313 99.8624 21.8866 99.7985 21.8908C99.1089 21.9376 98.4001 21.9759 97.6935 22.0078C97.6913 22.0078 97.6892 22.0078 97.6871 22.0078ZM87.1598 21.9759C87.1577 21.9759 87.1556 21.9759 87.1534 21.9759C86.4574 21.9419 85.7487 21.9036 85.0484 21.859C84.9846 21.8547 84.9356 21.7994 84.9399 21.7356C84.9441 21.6719 85.0037 21.6272 85.0633 21.6272C85.7614 21.6719 86.4702 21.7101 87.1641 21.7441C87.2279 21.7463 87.2769 21.8015 87.2748 21.8653C87.2726 21.927 87.2215 21.9759 87.1598 21.9759ZM101.891 21.725C101.831 21.725 101.78 21.6804 101.776 21.6187C101.769 21.5549 101.816 21.4975 101.88 21.4933C102.587 21.4295 103.291 21.3572 103.972 21.2785C104.036 21.27 104.094 21.3168 104.1 21.3806C104.106 21.4444 104.062 21.5018 103.998 21.5081C103.315 21.5868 102.608 21.6591 101.899 21.7229C101.897 21.725 101.893 21.725 101.891 21.725ZM82.9562 21.708C82.954 21.708 82.9498 21.708 82.9476 21.708C82.2516 21.6527 81.545 21.5911 80.8469 21.5251C80.783 21.5188 80.7362 21.4635 80.7426 21.3997C80.749 21.3359 80.8107 21.287 80.8682 21.2955C81.5642 21.3614 82.2708 21.4231 82.9647 21.4784C83.0285 21.4826 83.0754 21.54 83.0711 21.6038C83.0668 21.6633 83.0158 21.708 82.9562 21.708ZM23.4279 21.6655C23.3896 21.6655 23.3534 21.6463 23.33 21.6123C23.296 21.5592 23.3109 21.4869 23.3641 21.4529C23.9494 21.0744 24.5581 20.7087 25.1754 20.3664C25.2307 20.3345 25.3031 20.3558 25.3329 20.411C25.3648 20.4663 25.3435 20.5386 25.2882 20.5684C24.6752 20.9086 24.0707 21.2721 23.4897 21.6463C23.4705 21.6591 23.4492 21.6655 23.4279 21.6655ZM78.761 21.3125C78.7567 21.3125 78.7525 21.3125 78.7482 21.3125C78.0544 21.236 77.3562 21.1552 76.6538 21.068C76.59 21.0595 76.5453 21.0021 76.5538 20.9383C76.5623 20.8745 76.6198 20.8278 76.6836 20.8384C77.3839 20.9256 78.0799 21.0064 78.7738 21.0829C78.8376 21.0893 78.8844 21.1467 78.8759 21.2105C78.8696 21.2679 78.8206 21.3125 78.761 21.3125ZM106.073 21.2402C106.016 21.2402 105.967 21.1977 105.958 21.1403C105.95 21.0765 105.992 21.0191 106.056 21.0085C106.759 20.9064 107.459 20.7959 108.133 20.6789C108.193 20.6683 108.257 20.7108 108.268 20.7725C108.278 20.8363 108.236 20.8958 108.174 20.9064C107.497 21.0255 106.797 21.1361 106.09 21.2381C106.086 21.2381 106.08 21.2402 106.073 21.2402ZM74.5807 20.7916C74.5744 20.7916 74.5701 20.7916 74.5637 20.7895C73.8699 20.6938 73.176 20.5918 72.4778 20.4855C72.414 20.4748 72.3714 20.4174 72.3799 20.3536C72.3906 20.2899 72.448 20.2473 72.5119 20.2558C73.2079 20.3621 73.9018 20.4642 74.5935 20.5599C74.6574 20.5684 74.7021 20.6279 74.6914 20.6896C74.6872 20.7512 74.6382 20.7916 74.5807 20.7916ZM110.221 20.511C110.168 20.511 110.119 20.4727 110.109 20.4195C110.096 20.3579 110.136 20.2962 110.198 20.2813C110.896 20.1346 111.586 19.9752 112.246 19.8093C112.307 19.7923 112.371 19.8306 112.386 19.8944C112.401 19.956 112.365 20.0198 112.301 20.0347C111.637 20.2006 110.945 20.36 110.245 20.5088C110.239 20.5088 110.23 20.511 110.221 20.511ZM70.4175 20.1538C70.4111 20.1538 70.4047 20.1538 70.3984 20.1517C69.7066 20.0368 69.0149 19.9157 68.321 19.7881C68.2571 19.7775 68.2167 19.7158 68.2273 19.6541C68.238 19.5904 68.2997 19.5478 68.3614 19.5606C69.0532 19.686 69.7449 19.8072 70.4345 19.922C70.4984 19.9327 70.541 19.9922 70.5303 20.056C70.5218 20.1134 70.4729 20.1538 70.4175 20.1538ZM27.1038 19.6222C27.0612 19.6222 27.0186 19.5967 26.9995 19.5563C26.9718 19.4989 26.9973 19.4288 27.0548 19.4011C27.6827 19.1035 28.334 18.8186 28.9895 18.557C29.0491 18.5337 29.1173 18.5613 29.1407 18.6208C29.1641 18.6804 29.1364 18.7484 29.0768 18.7718C28.4255 19.0333 27.7785 19.3161 27.1548 19.6116C27.1378 19.618 27.1208 19.6222 27.1038 19.6222ZM114.306 19.4819C114.255 19.4819 114.21 19.45 114.195 19.399C114.176 19.3373 114.212 19.2736 114.274 19.2544C114.962 19.0503 115.632 18.8313 116.271 18.6038C116.33 18.5826 116.398 18.6144 116.419 18.674C116.441 18.7335 116.409 18.8015 116.349 18.8228C115.706 19.0503 115.032 19.2714 114.342 19.4755C114.329 19.4798 114.317 19.4819 114.306 19.4819ZM66.2734 19.4011C66.2649 19.4011 66.2585 19.4011 66.25 19.399C65.5625 19.265 64.8729 19.1247 64.1854 18.9801C64.1237 18.9674 64.0833 18.9057 64.0961 18.8419C64.1088 18.7803 64.1684 18.7399 64.2344 18.7526C64.9219 18.8972 65.6094 19.0375 66.2969 19.1715C66.3607 19.1843 66.4011 19.2438 66.3884 19.3076C66.3756 19.3629 66.3267 19.4011 66.2734 19.4011ZM62.1507 18.5337C62.1421 18.5337 62.1336 18.5337 62.1251 18.5315C61.4398 18.3784 60.7565 18.219 60.0712 18.0553C60.0094 18.0404 59.9711 17.9787 59.986 17.9149C60.0009 17.8533 60.0626 17.8129 60.1265 17.8299C60.8097 17.9936 61.493 18.1509 62.1762 18.3062C62.2379 18.321 62.2784 18.3827 62.2635 18.4444C62.2507 18.4975 62.2039 18.5337 62.1507 18.5337ZM118.271 18.068C118.227 18.068 118.184 18.0425 118.165 17.9979C118.139 17.9383 118.167 17.8703 118.227 17.8469C118.888 17.5663 119.527 17.2686 120.127 16.9603C120.185 16.9305 120.255 16.9539 120.283 17.0113C120.312 17.0687 120.289 17.1389 120.232 17.1665C119.627 17.477 118.982 17.7767 118.316 18.0595C118.303 18.0659 118.286 18.068 118.271 18.068ZM31.0073 18.0574C30.9584 18.0574 30.9137 18.0276 30.8966 17.9787C30.8775 17.9171 30.9094 17.8533 30.9711 17.832C31.6309 17.613 32.3099 17.4068 32.9931 17.2218C33.0549 17.2048 33.1187 17.241 33.1357 17.3026C33.1528 17.3643 33.1166 17.4281 33.0549 17.4451C32.378 17.6279 31.7012 17.832 31.0456 18.051C31.0329 18.0553 31.0201 18.0574 31.0073 18.0574ZM58.047 17.5769C58.0385 17.5769 58.03 17.5769 58.0215 17.5748C57.334 17.4217 56.6401 17.2792 55.9633 17.1495C55.9016 17.1368 55.859 17.0772 55.8718 17.0135C55.8845 16.9497 55.9441 16.9093 56.008 16.922C56.6869 17.0517 57.3829 17.1963 58.0726 17.3494C58.1343 17.3643 58.1747 17.4259 58.1598 17.4876C58.1471 17.5407 58.1002 17.5769 58.047 17.5769ZM35.0684 16.9539C35.0152 16.9539 34.9662 16.9157 34.9556 16.8625C34.9428 16.8008 34.9811 16.7392 35.045 16.7243C35.7239 16.5797 36.4221 16.4479 37.1202 16.3373C37.1819 16.3267 37.2436 16.3692 37.2522 16.433C37.2628 16.4968 37.2202 16.5563 37.1564 16.567C36.4625 16.6775 35.7686 16.8072 35.0939 16.9518C35.0854 16.9539 35.0769 16.9539 35.0684 16.9539ZM53.9115 16.786C53.9051 16.786 53.8987 16.786 53.8923 16.7838C53.1963 16.6711 52.496 16.5712 51.8107 16.4819C51.7468 16.4734 51.7021 16.416 51.7107 16.3522C51.7192 16.2884 51.7788 16.2459 51.8405 16.2523C52.528 16.3395 53.2304 16.4415 53.9285 16.5542C53.9923 16.5648 54.0349 16.6244 54.0243 16.6882C54.0158 16.7456 53.9668 16.786 53.9115 16.786ZM39.2231 16.2863C39.1656 16.2863 39.1145 16.2417 39.1082 16.1821C39.1018 16.1183 39.1465 16.0609 39.2103 16.0546C39.8999 15.978 40.6066 15.9164 41.3132 15.8696C41.3728 15.8653 41.4324 15.9142 41.4367 15.978C41.4409 16.0418 41.392 16.0971 41.3281 16.1013C40.6257 16.146 39.9233 16.2076 39.2359 16.2842C39.2316 16.2863 39.2273 16.2863 39.2231 16.2863ZM49.7333 16.2502C49.7291 16.2502 49.7248 16.2502 49.7227 16.2502C49.0224 16.1843 48.3179 16.1311 47.6262 16.0907C47.5623 16.0865 47.5134 16.0333 47.5176 15.9674C47.5219 15.9036 47.5772 15.8547 47.6411 15.859C48.3328 15.8993 49.0416 15.9525 49.7461 16.0184C49.81 16.0248 49.8568 16.0801 49.8504 16.1439C49.844 16.2055 49.7929 16.2502 49.7333 16.2502ZM122.009 16.1375C121.97 16.1375 121.932 16.1183 121.911 16.0843C121.877 16.0312 121.892 15.9589 121.947 15.9249C122.556 15.54 123.13 15.1318 123.65 14.713C123.699 14.6726 123.773 14.6811 123.814 14.73C123.854 14.7789 123.846 14.8533 123.797 14.8937C123.269 15.3168 122.69 15.7314 122.073 16.1205C122.051 16.1311 122.028 16.1375 122.009 16.1375ZM43.4225 16.012C43.3587 16.012 43.3076 15.961 43.3054 15.8993C43.3033 15.8356 43.3544 15.7824 43.4182 15.7803C43.7801 15.7718 44.1419 15.7675 44.5123 15.7697C44.8486 15.7697 45.187 15.7739 45.5275 15.7803C45.5914 15.7824 45.6425 15.8334 45.6403 15.8993C45.6382 15.9631 45.5871 16.012 45.5233 16.012H45.5211C45.1763 16.0057 44.84 16.0035 44.4931 16.0014C44.1334 16.0014 43.7737 16.0057 43.4204 16.012C43.4246 16.012 43.4246 16.012 43.4225 16.012ZM125.265 13.4904C125.238 13.4904 125.208 13.4798 125.187 13.4585C125.14 13.4139 125.138 13.3416 125.18 13.2948C125.231 13.2395 125.282 13.1843 125.333 13.129C125.376 13.0822 125.45 13.0779 125.497 13.1205C125.544 13.163 125.548 13.2374 125.506 13.2842C125.455 13.3416 125.404 13.3969 125.35 13.4521C125.329 13.4777 125.297 13.4904 125.265 13.4904Z" fill="#195494"/>
<path d="M126.091 12.5124C126.068 12.5124 126.042 12.5039 126.021 12.489C125.97 12.4507 125.959 12.3784 125.998 12.3274C126.206 12.051 126.404 11.764 126.583 11.477C126.617 11.4217 126.689 11.4068 126.743 11.4387C126.798 11.4727 126.815 11.5429 126.781 11.5982C126.598 11.8916 126.398 12.185 126.185 12.4677C126.162 12.4975 126.125 12.5124 126.091 12.5124Z" fill="#195494"/>
<path d="M36.9199 27.6697C36.1963 27.5145 35.364 28.5244 35.0618 29.9256C34.8106 31.095 35.0086 32.1644 35.5024 32.5769C35.4811 32.6194 35.4598 32.6619 35.4364 32.7045C34.8681 33.7824 34.1998 34.8753 33.2867 35.6938L33.2846 35.6959C33.1973 35.5684 33.11 35.4429 33.0206 35.3175C32.3842 34.4373 31.6797 33.6166 30.9454 32.8235C31.3988 32.4195 31.601 31.8157 31.801 31.2587C32.0309 30.6208 32.2225 29.9681 32.3736 29.3069C32.4907 28.7966 32.5822 28.2821 32.6524 27.7633C32.6737 27.7633 32.6929 27.7611 32.7141 27.759C33.4506 27.6825 33.9295 26.4663 33.7826 25.0418C33.6358 23.6173 32.9185 22.5223 32.182 22.5989C31.4456 22.6754 30.9667 23.8916 31.1135 25.3161C31.2285 26.4344 31.6946 27.3465 32.2438 27.6527C32.1799 28.1332 32.0969 28.6137 31.9905 29.0879C31.8564 29.6874 31.6904 30.2785 31.4924 30.8611C31.2987 31.4309 31.1136 32.1028 30.6538 32.5174C29.7343 31.5436 28.7723 30.6081 27.8358 29.6492C27.8464 29.6364 27.8549 29.6215 27.8634 29.6045C28.3572 28.5287 28.5658 27.3763 28.5041 26.1963C28.4934 25.9986 28.4764 25.8008 28.4551 25.6052C28.9723 25.2289 29.2703 24.202 29.1511 23.0368C29.0043 21.6123 28.287 20.5174 27.5505 20.5939C26.8141 20.6704 26.3352 21.8866 26.4821 23.3111C26.6247 24.7037 27.3143 25.7817 28.0337 25.7583C28.1444 26.966 28.0529 28.1694 27.5314 29.3345C27.0291 28.8136 26.5331 28.2842 26.0606 27.7378C25.3072 26.8703 24.6048 25.9539 24.0067 24.978C24.4324 24.4784 24.3515 23.3388 23.7662 22.231C23.0957 20.9638 22.023 20.2176 21.3674 20.562C20.7119 20.9086 20.7246 22.2161 21.393 23.4833C22.0209 24.6718 23.0042 25.4011 23.664 25.2034C24.6112 26.747 25.8073 28.1311 27.0674 29.4514C26.4948 29.5003 25.9202 29.4068 25.3519 29.3366C24.6984 29.2537 24.0429 29.1687 23.3958 29.0517C22.9701 28.9752 22.5444 28.8816 22.1273 28.7732C21.9229 28.18 21.1248 27.557 20.0648 27.2296C18.6941 26.8065 17.4064 27.0383 17.1872 27.7441C16.9679 28.4521 17.9023 29.3685 19.273 29.7916C20.6438 30.2147 21.9315 29.983 22.1507 29.2771C22.1571 29.2558 22.1592 29.2346 22.1635 29.2154C22.5636 29.3154 22.9659 29.4025 23.3745 29.4748C24.0258 29.5896 24.6814 29.6789 25.337 29.7619C26.0159 29.8469 26.6949 29.9468 27.376 29.8427C27.3952 29.8405 27.4122 29.8341 27.4271 29.8278C27.7187 30.1276 28.0124 30.4252 28.3061 30.7208C28.9723 31.3905 29.6428 32.0581 30.292 32.7427C28.6488 33.2275 26.9397 33.438 25.2369 33.3657C25.0113 32.764 24.0812 32.2133 22.9042 32.0432C21.4845 31.837 20.2479 32.2665 20.1414 32.9979C20.035 33.7314 21.0992 34.4904 22.5189 34.6967C23.9088 34.8986 25.1199 34.4904 25.271 33.7867C27.0206 33.8568 28.7765 33.6378 30.4644 33.1297C30.5176 33.1148 30.5538 33.085 30.5793 33.0468C30.9986 33.4954 31.4073 33.9546 31.801 34.4288C32.2331 34.9475 32.6354 35.4876 33.0121 36.0425C32.9951 36.0468 32.9781 36.051 32.9589 36.0595C31.8479 36.6017 30.6708 36.9823 29.4512 37.1864C29.132 37.2395 28.8021 37.2863 28.4658 37.3203C28.0997 36.8079 27.1461 36.4422 26.0287 36.4422C24.5941 36.4422 23.432 37.0418 23.4299 37.7817C23.4299 38.5216 24.592 39.1233 26.0266 39.1233C27.4611 39.1233 28.6233 38.5237 28.6254 37.7838C28.6254 37.7626 28.6233 37.7434 28.6233 37.7243C28.8915 37.6945 29.1575 37.6605 29.4193 37.618C30.7177 37.4139 31.9756 37.0078 33.1569 36.4316C33.1888 36.4167 33.2122 36.3954 33.2313 36.3742C33.7656 37.1949 34.2466 38.0496 34.6744 38.9362C34.7553 39.1042 34.8341 39.2743 34.9107 39.4444C34.8937 39.4486 34.8766 39.4529 34.8596 39.4614C34.2232 39.7654 33.5613 40.012 32.8823 40.1991C32.463 39.7505 31.5733 39.4401 30.541 39.4401C29.1064 39.4401 27.9443 40.0397 27.9422 40.7796C27.9422 41.5195 29.1043 42.1212 30.5389 42.1212C31.9734 42.1212 33.1356 41.5216 33.1377 40.7817C33.1377 40.7094 33.1271 40.6392 33.1058 40.5691C33.772 40.3799 34.4254 40.1332 35.0554 39.8334C35.0639 39.8292 35.0703 39.8249 35.0788 39.8186C35.7706 41.3813 36.3304 42.9972 36.8518 44.6237C36.9327 44.8788 37.3456 44.7916 37.2626 44.5322C36.7199 42.8334 36.1282 41.1346 35.396 39.5039C35.8621 39.1233 36.3197 38.7108 36.7241 38.2558C36.7518 38.2707 36.7795 38.2856 36.8071 38.2941C37.5053 38.5429 38.4609 37.6478 38.942 36.2976C39.423 34.9475 39.2463 33.6527 38.5461 33.404C37.8479 33.1552 36.8923 34.0503 36.4112 35.4004C36.0409 36.4422 36.0622 37.45 36.4134 37.9709C36.0473 38.3813 35.6386 38.7576 35.2151 39.1063C34.7213 38.0453 34.1636 37.0184 33.5208 36.0383C33.5421 36.0298 33.5613 36.017 33.5825 36C34.5616 35.1219 35.2896 33.9376 35.8813 32.7725C35.8855 32.7661 35.8876 32.7597 35.8898 32.7534C36.6007 32.849 37.3988 31.8561 37.6926 30.489C37.9884 29.0879 37.6457 27.8249 36.9199 27.6697Z" fill="#FF8E5F"/>
<path d="M32.15 53.0113L31.2773 54.2445C30.9197 52.9071 30.5579 51.5549 29.913 50.3281C27.9931 46.686 23.9044 44.7342 19.9178 43.6967C15.9334 42.657 11.7404 42.2679 7.98367 40.5755C6.91732 40.0971 5.77009 39.321 5.70837 38.1559C5.69773 37.9156 5.73391 37.6796 5.80841 37.4543C7.65589 37.3756 9.50764 37.3969 11.3509 37.5585C14.2179 37.8093 17.0721 38.3962 19.7518 39.4592C21.959 40.3352 24.0406 41.5429 25.869 43.0588C27.6739 44.5535 29.234 46.3565 30.36 48.4167C30.9432 49.484 31.3752 50.6066 31.7456 51.7611C31.8797 52.1779 32.0095 52.5946 32.15 53.0113Z" fill="#325899"/>
<path d="M33.4377 51.1892L32.2564 52.8625L32.1521 53.0113C32.0116 52.5968 31.8818 52.18 31.7477 51.7633C31.3774 50.6088 30.9453 49.4841 30.3621 48.4189C29.2383 46.3607 27.676 44.5556 25.8711 43.061C24.0428 41.545 21.9612 40.3374 19.754 39.4614C17.0721 38.3983 14.22 37.8115 11.353 37.5606C9.50978 37.399 7.65803 37.3778 5.81055 37.4564C5.82757 37.4054 5.8446 37.3544 5.86801 37.3055C6.04468 36.8717 6.3533 36.4763 6.70024 36.1531C8.40724 34.5436 10.9443 34.1779 13.2899 34.2651C20.6245 34.533 27.7037 38.679 31.5242 44.9383C32.6736 46.8264 33.5612 48.978 33.4377 51.1892Z" fill="#3A67B3"/>
<path d="M32.2564 52.8604L32.1521 53.0092C32.0116 52.5946 31.8818 52.1779 31.7477 51.7612C31.3774 50.6067 30.9453 49.4819 30.3621 48.4167C29.2383 46.3586 27.676 44.5535 25.8711 43.0588C24.0428 41.5429 21.9612 40.3352 19.754 39.4593C17.0721 38.3962 14.22 37.8094 11.353 37.5585C9.50978 37.3969 7.65803 37.3756 5.81055 37.4543C5.82757 37.4033 5.8446 37.3522 5.86801 37.3033C8.05392 37.214 10.2441 37.2651 12.4151 37.5202C15.2161 37.8455 18.0001 38.5131 20.5883 39.6485C22.7593 40.601 24.7941 41.8767 26.5607 43.4585C28.306 45.0191 29.7896 46.8838 30.824 48.9887C31.3731 50.1091 31.7477 51.2892 32.1287 52.4713C32.1692 52.601 32.2117 52.7307 32.2564 52.8604Z" fill="white"/>
<path d="M206.923 78.7505C204.505 81.6973 205.65 86.7278 203.33 89.883C201.923 91.6435 199.812 91.6265 197.943 92.0156C194.646 93.0127 191.004 94.3267 188.195 97.08C186.967 98.4429 186.07 100.286 184.693 101.383C184.14 99.9078 183.714 98.0347 183.555 96.0914C183.576 96.0446 183.602 95.9957 183.625 95.9489C184.555 94.1056 185.99 92.4727 187.982 91.771C189.795 91.1311 191.932 91.1906 193.488 89.9362C194.339 89.2494 194.84 88.2523 195.336 87.3019C195.849 86.3217 196.4 85.4096 197.264 84.6995C198.707 83.5131 200.691 82.8093 201.661 81.1233C202.253 80.0942 202.262 78.8887 202.415 77.7448C202.5 77.1049 202.64 76.4691 202.949 75.8972C203.213 75.4082 203.571 74.9808 203.964 74.5939C204.745 73.8306 205.654 73.2161 206.446 72.4656C207.251 71.7044 207.864 70.7881 208.308 69.776C209.279 67.5669 209.451 65.1325 209.86 62.7852C210.23 60.6591 210.822 58.4032 212.282 56.7448C212.331 56.6895 212.382 56.6321 212.435 56.579C212.753 56.681 213.057 56.8745 213.342 57.1743C215.407 59.9957 211.999 64.231 211.908 67.5584C212.169 71.3685 213.674 73.973 209.807 76.4776C208.806 77.1559 207.734 77.7342 206.923 78.7505Z" fill="#F5885B"/>
<path d="M209.858 62.7831C209.449 65.1325 209.277 67.5648 208.306 69.7739C207.861 70.7859 207.248 71.7023 206.444 72.4635C205.652 73.214 204.741 73.8284 203.962 74.5917C203.566 74.9787 203.209 75.406 202.947 75.8951C202.638 76.467 202.498 77.1027 202.413 77.7427C202.259 78.8866 202.249 80.0921 201.659 81.1211C200.689 82.8072 198.705 83.5109 197.262 84.6973C196.398 85.4075 195.846 86.3196 195.333 87.2997C194.837 88.2501 194.337 89.2473 193.486 89.934C191.93 91.1885 189.795 91.1289 187.98 91.7689C185.987 92.4705 184.553 94.1034 183.623 95.9468C183.599 95.9936 183.576 96.0425 183.552 96.0893C183.544 95.9915 183.535 95.8915 183.531 95.7937C183.22 91.2884 184.353 86.4876 188.567 85.3586C190.727 85.2948 192.515 85.4521 193.06 82.163C194.561 76.8412 194.297 70.8306 199.922 69.6357C202.385 68.9319 206.38 69.0021 207.646 65.5875C207.961 64.1672 207.602 62.7491 207.876 61.3267C208.185 58.771 210.375 56.1048 212.263 56.5301C212.318 56.5407 212.374 56.5556 212.431 56.5769C212.38 56.63 212.329 56.6874 212.278 56.7427C210.82 58.4011 210.228 60.6569 209.858 62.7831Z" fill="#FFA078"/>
<path d="M209.858 62.783C209.449 65.1324 209.277 67.5648 208.306 69.7738C207.861 70.7859 207.248 71.7022 206.444 72.4634C205.652 73.2139 204.741 73.8284 203.962 74.5917C203.566 74.9786 203.209 75.406 202.947 75.895C202.638 76.4669 202.498 77.1027 202.413 77.7426C202.259 78.8865 202.249 80.092 201.659 81.1211C200.689 82.8071 198.705 83.5109 197.262 84.6973C196.398 85.4074 195.846 86.3195 195.333 87.2997C194.838 88.2501 194.337 89.2472 193.486 89.934C191.93 91.1884 189.795 91.1289 187.98 91.7689C185.987 92.4705 184.553 94.1034 183.623 95.9468C183.599 95.9935 183.576 96.0424 183.553 96.0892C183.544 95.9914 183.536 95.8915 183.531 95.7937C183.757 95.3578 184.012 94.9283 184.302 94.5116C184.838 93.7441 185.485 93.0509 186.247 92.5066C187.058 91.9283 187.969 91.5711 188.935 91.3351C189.921 91.097 190.934 90.9567 191.892 90.6207C192.988 90.238 193.831 89.5598 194.454 88.5796C195.065 87.6186 195.474 86.5407 196.157 85.6243C196.734 84.8546 197.509 84.2848 198.307 83.7639C199.141 83.2217 200.02 82.7221 200.744 82.029C201.623 81.1891 201.983 80.1452 202.127 78.9567C202.266 77.8064 202.319 76.6285 202.938 75.6122C203.488 74.7129 204.324 74.041 205.133 73.3862C206.025 72.6633 206.88 71.9297 207.508 70.9581C208.174 69.9227 208.589 68.7469 208.881 67.5584C209.758 63.9801 209.603 59.3536 212.265 56.53C212.321 56.5407 212.376 56.5555 212.433 56.5768C212.382 56.63 212.331 56.6874 212.28 56.7426C210.82 58.401 210.228 60.6569 209.858 62.783Z" fill="white"/>
<path d="M190.282 105.699L190.502 115.55C191.381 114.825 192.343 114.183 193.269 113.53C194.18 112.888 195.082 112.22 195.872 111.425C196.674 110.617 197.27 109.692 197.774 108.678C198.262 107.698 198.705 106.682 199.392 105.814C199.931 105.132 200.614 104.579 201.348 104.12C202.87 103.163 204.59 102.58 206.135 101.668C206.914 101.211 207.642 100.667 208.232 99.978C208.942 99.1488 209.434 98.1602 209.892 97.1736C210.347 96.1913 210.773 95.1878 211.354 94.2693C211.848 93.4869 212.459 92.7789 213.155 92.1687C214.549 90.9419 216.249 90.0978 218.027 89.5875C222.377 88.3352 226.945 89.2069 231.238 90.27C231.491 90.3338 231.744 90.3976 232 90.4635C232.183 87.8887 228.354 86.1027 225.993 85.8093C224.38 85.6095 222.779 86.2537 221.155 86.3026C212.925 86.5492 207.408 84.0744 204.128 93.7399C203.762 94.8221 203.46 95.9723 202.708 96.8334C199.275 100.233 190.018 98.6109 190.282 105.699Z" fill="#3A67B3"/>
<path d="M197.864 125.341C204.675 127.356 211.09 121.167 206.318 113.97C203.081 110.309 206.814 107.677 210.234 106.597C211.931 106.059 214.033 105.842 214.855 104.264C216.236 100.703 211.435 96.5336 218.771 94.3096C222.911 93.0531 230.952 96.2721 231.959 90.742C231.963 90.7165 231.968 90.6888 231.972 90.6612C227.896 89.6236 223.631 88.6498 219.435 89.4535C217.594 89.8065 215.796 90.4868 214.251 91.5605C213.495 92.0836 212.805 92.7044 212.218 93.4124C211.564 94.2012 211.077 95.0963 210.641 96.0191C210.181 96.9971 209.768 98.0006 209.213 98.9319C208.725 99.7526 208.121 100.48 207.369 101.073C206.011 102.142 204.375 102.763 202.838 103.522C202.057 103.911 201.284 104.339 200.601 104.885C199.82 105.514 199.228 106.293 198.751 107.171C198.23 108.132 197.823 109.152 197.229 110.071C196.657 110.96 195.91 111.719 195.097 112.395C193.634 113.615 191.966 114.57 190.51 115.799C190.508 115.805 190.201 123.074 197.864 125.341Z" fill="#325899"/>
<path d="M190.501 115.55L190.508 115.805C191.964 114.576 193.632 113.622 195.095 112.401C195.906 111.727 196.653 110.968 197.227 110.077C197.823 109.159 198.23 108.138 198.749 107.177C199.226 106.299 199.818 105.519 200.599 104.892C201.282 104.345 202.055 103.916 202.836 103.529C204.372 102.768 206.009 102.149 207.367 101.079C208.119 100.486 208.723 99.759 209.21 98.9383C209.764 98.0071 210.179 97.0035 210.639 96.0255C211.075 95.1006 211.562 94.2076 212.216 93.4188C212.803 92.7108 213.493 92.09 214.248 91.567C215.794 90.4933 217.592 89.8129 219.433 89.4599C223.628 88.6563 227.892 89.63 231.97 90.6676C231.98 90.5996 231.989 90.5336 231.993 90.4656C231.738 90.3997 231.485 90.3359 231.231 90.2721C226.938 89.2069 222.371 88.3373 218.02 89.5896C216.243 90.0999 214.542 90.944 213.148 92.1708C212.452 92.781 211.841 93.4869 211.347 94.2714C210.766 95.1899 210.343 96.1935 209.885 97.1757C209.43 98.1602 208.938 99.1488 208.225 99.9801C207.635 100.669 206.91 101.213 206.128 101.67C204.583 102.583 202.863 103.165 201.342 104.122C200.607 104.581 199.924 105.134 199.386 105.816C198.7 106.684 198.257 107.7 197.768 108.68C197.264 109.695 196.67 110.619 195.865 111.427C195.075 112.223 194.173 112.89 193.262 113.532C192.343 114.183 191.383 114.825 190.501 115.55Z" fill="#035875"/>
<path d="M190.501 115.55L190.508 115.805C191.964 114.576 193.632 113.622 195.095 112.401C195.906 111.727 196.653 110.968 197.227 110.077C197.823 109.159 198.23 108.138 198.749 107.177C199.226 106.299 199.818 105.519 200.599 104.892C201.282 104.345 202.055 103.916 202.836 103.529C204.372 102.768 206.009 102.149 207.367 101.079C208.119 100.486 208.723 99.759 209.21 98.9383C209.764 98.0071 210.179 97.0035 210.639 96.0255C211.075 95.1006 211.562 94.2076 212.216 93.4188C212.803 92.7108 213.493 92.09 214.248 91.567C215.794 90.4933 217.592 89.8129 219.433 89.4599C223.628 88.6563 227.892 89.63 231.97 90.6676C231.98 90.5996 231.989 90.5336 231.993 90.4656C231.738 90.3997 231.485 90.3359 231.231 90.2721C226.938 89.2069 222.371 88.3373 218.02 89.5896C216.243 90.0999 214.542 90.944 213.148 92.1708C212.452 92.781 211.841 93.4869 211.347 94.2714C210.766 95.1899 210.343 96.1935 209.885 97.1757C209.43 98.1602 208.938 99.1488 208.225 99.9801C207.635 100.669 206.91 101.213 206.128 101.67C204.583 102.583 202.863 103.165 201.342 104.122C200.607 104.581 199.924 105.134 199.386 105.816C198.7 106.684 198.257 107.7 197.768 108.68C197.264 109.695 196.67 110.619 195.865 111.427C195.075 112.223 194.173 112.89 193.262 113.532C192.343 114.183 191.383 114.825 190.501 115.55Z" fill="white"/>
<path d="M124.437 14.4344L128.115 11.2218L125.335 10.4926L124.437 14.4344Z" fill="#2A66A8"/>
<path d="M128.394 12.0446L131.601 6.25726L125.746 11.528L128.394 12.0446Z" fill="#5C96D6"/>
<path d="M131.599 6.24664L121.447 9.88449L124.029 10.516L131.599 6.24664Z" fill="#5C96D6"/>
<path d="M131.601 6.25726L125.748 11.5556L124.437 14.4344L124.003 10.4904L131.601 6.25726Z" fill="#3E7ABD"/>
<path d="M198.92 32.4217H33.519V128.145H198.92V32.4217Z" fill="white"/>
<path d="M130.582 132.708H101.897V157.916H130.582V132.708Z" fill="#5B5E80"/>
<path d="M130.582 132.708V157.916H126.708C126.983 155.396 127.292 147.81 122.047 141.995C117.19 136.616 106.754 135.997 101.895 136.044V132.71H130.582V132.708Z" fill="#4A4D6B"/>
<path d="M145.03 157.914H87.447C82.6964 157.914 78.8481 161.76 78.8481 166.503H153.631C153.631 161.76 149.781 157.914 145.03 157.914Z" fill="#5B5E80"/>
<path d="M199.327 29.343H33.1507C31.7842 29.343 30.6753 30.3614 30.6753 31.6159V131.826C30.6753 133.08 31.7842 134.099 33.1507 134.099H199.327C200.695 134.099 201.802 133.08 201.802 131.826V31.6159C201.802 30.3614 200.695 29.343 199.327 29.343ZM197.675 123.113C197.675 124.45 196.498 125.536 195.044 125.536H36.4327C34.979 125.536 33.7998 124.452 33.7998 123.113V34.9178C33.7998 33.5783 34.979 32.494 36.4327 32.494H195.044C196.498 32.494 197.675 33.5783 197.675 34.9178V123.113Z" fill="#A1A9C7"/>
<path d="M145.03 157.914H87.4472C84.7739 157.914 82.3858 159.132 80.8086 161.041C81.8494 160.595 82.9945 160.346 84.1992 160.346H141.782C145.686 160.346 148.976 162.946 150.028 166.503H153.629C153.631 161.76 149.781 157.914 145.03 157.914Z" fill="#4A4D6B"/>
<path d="M122.397 83.25C120.647 86.853 116.941 89.4265 112.618 89.4265C106.75 89.4265 101.809 84.5883 101.809 78.6177C101.809 72.75 106.544 67.8089 112.618 67.8089C115.5 67.8089 118.279 68.9412 120.338 71C121.574 72.2353 122.397 73.6765 122.912 75.2206L125.279 72.853C124.559 71.3089 123.632 69.9706 122.397 68.7353C119.721 66.1618 116.221 64.6177 112.515 64.6177C104.897 64.7206 98.6177 71 98.6177 78.6177C98.6177 86.3383 104.897 92.5147 112.515 92.5147C119.721 92.5147 125.485 87.0589 126.309 80.3677C124.765 81.8089 124.147 83.25 122.397 83.25Z" fill="#A1A9C7"/>
<path d="M131.147 97.1471C129.603 98.6912 127.029 98.6912 125.382 97.1471L120.647 92.4118C121.779 91.6912 122.912 90.8677 123.838 89.9412C124.868 88.9118 125.691 87.8824 126.412 86.6471L131.147 91.3824C132.691 92.9265 132.794 95.5 131.147 97.1471Z" fill="#A1A9C7"/>
<path d="M130.221 73.6765L128.265 75.6324L122.912 80.8824C122.5 81.2942 121.882 81.2942 121.471 80.8824L118.074 77.4853L112.721 82.8383C112.309 83.25 111.691 83.25 111.279 82.8383L108.912 80.4706L105.515 83.8677C105.103 83.353 104.691 82.6324 104.382 82.0147L108.191 78.4118C108.603 78 109.221 78 109.632 78.4118L112 80.7795L117.353 75.4265C117.765 75.0147 118.382 75.0147 118.794 75.4265L121.265 77.8971L122.191 78.8236L127.647 73.3677L128.779 72.2353C129.191 71.8236 129.809 71.8236 130.221 72.2353C130.632 72.6471 130.632 73.2647 130.221 73.6765Z" fill="#A1A9C7"/>
<path d="M30.5238 130.512C29.8385 140.298 28.8381 149.305 28.9211 157.624C28.9382 159.257 28.6466 160.89 28.5997 162.423C28.5997 162.423 26.7991 162.3 26.5969 162.319C26.3947 160.769 26.0924 159.145 25.92 157.563C25.1197 150.162 24.6728 142.395 24.4961 134.362L30.5238 130.512Z" fill="#F9CBCB"/>
<path d="M30.5091 128.851C34.0253 133.561 28.1167 144.113 29.2533 157.746L25.6435 157.688C24.8432 150.287 24.675 142.393 24.5005 134.358L30.5091 128.851Z" fill="#23263D"/>
<path d="M28.6421 162.091L29.2551 163.773L29.0656 166.446L28.5399 166.499L27.9397 164.198L27.1692 165.787C26.9627 166.214 26.6371 166.571 26.1688 166.658C24.9343 166.884 22.51 167.052 22.3674 166.244C22.2206 165.412 24.5704 165.255 25.211 164.298C25.8304 163.374 26.569 162.166 26.569 162.166L28.6421 162.091Z" fill="#23263D"/>
<path d="M25.4261 124.25C38.4756 134.424 21.1033 140.462 21.7588 143.56C22.4144 146.66 26.5712 150.893 27.0054 151.588C27.2502 152.402 27.5673 154.014 26.5989 153.787C25.9965 153.234 25.5155 152.991 24.6045 152.736C24.6024 152.736 25.458 152.86 24.3151 152.67C23.1721 152.483 17.6914 147.357 17.4168 145.51C16.6591 140.4 21.4353 136.422 23.0231 132.706C24.6131 128.989 24.1363 127.308 25.4261 124.25Z" fill="#F9CBCB"/>
<path d="M25.3813 124.24C29.6829 125.985 30.5768 129.999 30.4427 132.381C30.1298 137.985 22.0524 141.804 22.5717 144.202C22.6824 144.712 25.1663 149.064 26.3731 150.2C25.9304 151.067 24.6406 152.947 24.5235 152.974C22.6122 151.882 17.2655 147.874 16.8654 145.769C15.8778 140.581 23.6785 129.261 25.3813 124.24Z" fill="#393D5C"/>
<path d="M26.9903 151.52C27.5501 151.507 27.714 151.388 28.3674 151.416C29.0208 151.446 30.1659 151.635 30.913 151.703C30.9407 151.884 30.9343 152.056 30.9492 152.232C30.1766 152.396 29.3976 152.549 28.6292 152.717C29.1038 152.953 29.7104 153.34 30.1574 153.551C30.6044 153.761 30.9109 154.24 30.9769 154.582C31.1493 155.485 31.4302 158.069 30.3979 158.26C29.3678 158.449 29.2848 155.968 28.5888 155.451C27.8928 154.935 27.2138 154.388 26.5391 153.857C26.6881 153.074 26.8413 152.301 26.9903 151.52Z" fill="#393D5C"/>
<path d="M25.5858 111.017L25.4454 111.887C25.5773 111.574 28.4443 110.43 25.4539 117.665C24.8962 119.018 23.0487 122.098 21.9909 122.05C19.4112 121.935 14.8032 116.245 14.8032 116.245C13.9433 115.826 12.8535 113.926 13.0834 112.671C13.5793 110.001 14.2221 113.63 15.4907 113.847C15.7716 113.898 15.9674 112.686 16.3867 113.137C16.7017 113.475 16.3037 115.061 16.3037 115.061C16.3037 115.061 21.2396 118.588 21.3503 118.575C21.5376 118.399 23.5617 112.237 24.9792 111.298C25.1687 111.168 25.3773 111.072 25.5858 111.017Z" fill="#F9CBCB"/>
<path d="M25.4452 111.887L26.4924 117.293C26.4924 117.293 25.0004 120.351 24.8088 120.965C23.3232 120.028 22.0184 119.037 21.3501 117.867C22.2738 116.237 24.2639 111.06 25.6836 110.12L25.4452 111.887Z" fill="url(#paint0_linear_625_14046)"/>
<path d="M22.808 106.986C22.808 106.986 21.3585 105.784 22.0311 103.867C22.6334 102.151 25.4813 101.519 26.5796 102.198C28.642 103.471 28.6399 106.314 26.7775 107.8L22.808 106.986Z" fill="#393D5C"/>
<path d="M31.3687 112.529C32.2541 115.643 31.9902 117.493 32.0264 120.213C32.1349 122.313 30.6514 125.664 29.6234 128.145C27.7376 127.799 25.2771 127.714 23.3892 127.369C23.3892 127.369 28.1952 121.845 26.999 119.152C24.8152 114.062 25.6857 110.122 25.6857 110.122C25.5304 109.82 24.9578 108.702 24.7939 108.381L26.4477 107.407C26.8372 107.868 27.695 108.88 28.0909 109.348C28.4229 109.831 31.0813 112.414 31.3687 112.529Z" fill="#F9CBCB"/>
<path d="M31.1367 126.536C30.6557 128.356 31.3836 129.066 30.9963 129.202C28.7061 130.01 24.8727 128.972 23.2381 128.424C21.844 127.956 25.1196 123.782 24.3236 119.33C23.0742 112.348 25.6837 110.122 25.6837 110.122C25.8561 111.863 26.7756 111.23 28.0888 109.348C33.6015 110.696 33.7739 118.333 31.1367 126.536Z" fill="url(#paint1_linear_625_14046)"/>
<path d="M27.1264 108.213C26.6156 108.94 25.9047 109.416 25.4492 109.665L24.7915 108.378L26.4453 107.405L27.1264 108.213Z" fill="#E6E6E6"/>
<path d="M26.903 105.77C26.903 105.77 27.5543 104.917 27.0776 104.441C26.5327 103.896 25.8069 105.23 25.8069 105.23C24.7959 105.563 23.9743 105.334 22.8483 104.709C22.5887 104.564 22.2758 104.789 22.3311 105.081C22.5653 106.295 23.125 108.602 24.0807 109.038C24.6107 109.28 25.1492 109.182 25.6302 108.942C26.6859 108.421 26.9094 105.88 26.903 105.77Z" fill="#F9CBCB"/>
<path d="M26.0474 101.996C26.0474 101.996 26.4582 100.152 27.9268 100.886C29.4188 101.63 28.6441 103.235 27.6331 103.344C26.622 103.452 26.0474 101.996 26.0474 101.996Z" fill="#393D5C"/>
<path d="M22.8079 106.986C22.8079 106.986 22.7611 105.344 22.6482 104.638C22.6482 104.638 22.9654 105.787 24.7171 106.065C26.0559 106.278 26.1474 107.641 26.1474 107.641C26.3602 106.514 26.1261 106.044 25.8047 105.234L25.1939 104.226C25.1939 104.226 24.2616 103.988 24.251 103.93C24.2403 103.873 22.446 103.862 22.446 103.862L22.0459 104.843L22.8079 106.986Z" fill="#393D5C"/>
<path d="M29.0168 125.887C28.1399 127.08 23.9363 130.954 22.8273 132.113C22.7103 132.234 22.6507 132.408 22.6783 132.578C22.7358 132.938 22.5741 133.171 21.8078 134.084C20.999 135.038 22.0654 137.638 20.4605 136.099C19.2579 134.945 19.9582 133.225 20.8649 131.553L26.0094 123.455C26.0094 123.455 26.5202 120.787 26.65 116.643C26.6756 115.794 28.9466 113.132 30.843 116.058C31.8455 117.606 29.7916 124.833 29.0168 125.887Z" fill="#F9CBCB"/>
<path d="M31.0857 120.829C29.6363 121.035 27.9144 120.727 26.0711 120.193C26.0711 120.193 25.3028 110.337 29.2255 111.459C31.935 112.231 31.8733 117.434 31.0857 120.829Z" fill="url(#paint2_linear_625_14046)"/>
<path d="M13.1959 109.351L12.4795 109.786L15.5176 114.774L16.234 114.338L13.1959 109.351Z" fill="#393D5C"/>
<path d="M172.751 158.358C172.751 158.358 166.874 159.225 166.974 159.168C167.074 159.111 177.732 164.568 177.732 164.568L188.231 159.87L183.025 158.358H172.751Z" fill="#3E4261"/>
<path d="M174.901 165.955C174.871 165.955 174.841 165.953 174.813 165.953C174.794 165.953 174.777 165.95 174.76 165.95C173.266 165.914 172.291 165.842 172.291 165.842C172.291 165.842 172.219 165.855 172.087 165.878C170.799 166.097 163.865 167.164 164.544 164.592C165.14 162.334 169.262 162.763 170.912 163.031C170.918 163.031 170.923 163.033 170.929 163.033C171.34 163.101 171.593 163.157 171.593 163.157C171.593 163.157 172.427 162.834 173.743 162.376C173.796 162.357 173.854 162.336 173.909 162.319C178.242 160.814 187.346 157.99 189.606 159.961C189.606 159.963 189.606 159.963 189.606 159.963C189.632 159.984 189.655 160.006 189.678 160.029C189.681 160.029 189.683 160.029 189.683 160.033C189.706 160.057 189.73 160.082 189.751 160.108C189.77 160.129 189.789 160.15 189.806 160.176C189.813 160.182 189.821 160.193 189.827 160.201C189.851 160.235 189.876 160.269 189.898 160.303C189.898 160.306 189.898 160.306 189.898 160.306C189.921 160.344 189.942 160.382 189.962 160.422C189.981 160.461 189.998 160.499 190.013 160.539C190.047 160.627 190.072 160.718 190.091 160.816C190.108 160.914 190.123 161.009 190.132 161.105C190.147 161.273 190.151 161.437 190.136 161.596C189.8 165.774 179.775 166.063 174.901 165.955Z" fill="#FFD8D9"/>
<path d="M174.96 166.446L174.811 165.953L174.747 165.738C174.747 165.736 174.747 165.736 174.747 165.736L173.74 162.379L173.596 161.896C177.933 160.388 187.305 157.903 189.602 159.957V159.959C189.627 159.98 189.653 160.004 189.674 160.029C189.676 160.029 189.678 160.029 189.678 160.033C189.702 160.057 189.725 160.082 189.746 160.108C189.765 160.129 189.785 160.15 189.802 160.176C189.808 160.182 189.817 160.193 189.823 160.201C189.846 160.235 189.872 160.269 189.893 160.303C189.893 160.306 189.893 160.306 189.893 160.306C189.917 160.344 189.938 160.382 189.957 160.422C189.976 160.461 189.993 160.499 190.008 160.539C190.042 160.627 190.068 160.718 190.087 160.816C190.104 160.914 190.119 161.009 190.127 161.105C190.142 161.273 190.146 161.437 190.132 161.596C189.812 165.827 179.836 166.554 174.96 166.446Z" fill="#282D47"/>
<path d="M171.587 163.169C171.587 163.169 163.848 161.373 163.392 164.651C162.903 168.174 172.285 165.855 172.285 165.855C172.285 165.855 168.675 166.512 168.915 164.511C169.149 162.574 171.587 163.169 171.587 163.169Z" fill="#303552"/>
<path d="M183.185 150.336C181.654 152.483 183.023 158.358 183.023 158.358H172.749C173.032 157.956 173.832 152.892 172.032 150.1C169.124 145.597 172.257 142.095 172.257 142.095L176.529 141.319L176.801 139.96L176.989 139.025L177.033 138.808H178.955L179.026 139.216L179.177 140.105L179.4 141.417L183.327 142.269C183.325 142.267 186.69 145.418 183.185 150.336Z" fill="#FFD8D9"/>
<path d="M183.185 150.336C181.654 152.483 183.025 158.358 183.025 158.358H172.751C172.994 158.016 173.607 154.291 172.672 151.469C172.508 150.976 172.298 150.512 172.032 150.098C169.124 145.595 172.257 142.093 172.257 142.093L176.531 141.315C176.695 142.269 179.026 142.214 179.398 141.412L183.325 142.265C183.325 142.267 186.69 145.416 183.185 150.336Z" fill="url(#paint3_linear_625_14046)"/>
<path d="M172.751 158.358C172.993 158.016 173.606 154.291 172.672 151.469C174.698 150.88 174.355 156.498 177.731 158.358H172.751Z" fill="#C4626E"/>
<path d="M188.772 154.801C188.665 155.466 188.197 156.187 187.503 156.899C185.728 158.719 182.114 158.639 179.632 159.302L179.373 157.982C179.373 157.982 183.8 156.734 184.751 155.184C184.851 155.018 184.921 154.865 184.951 154.726C185.275 153.181 183.483 151.248 183.483 151.248L183.291 142.274C183.293 142.271 189.31 151.42 188.772 154.801Z" fill="#FFD8D9"/>
<path d="M188.831 154.801C188.716 155.426 188.342 156.213 187.716 156.897C187.65 156.97 187.541 156.982 187.458 156.929L186.699 156.436L184.704 155.145C184.806 154.979 184.857 154.814 184.885 154.675C185.209 153.13 182.337 150.738 182.337 150.738L183.027 142.216C183.951 142.174 185.47 144.283 186.733 146.866C186.733 146.866 186.735 146.87 186.737 146.877C188.099 149.67 189.159 153.021 188.831 154.801Z" fill="url(#paint4_linear_625_14046)"/>
<path d="M176.361 158.003L176.405 158.881C176.484 158.853 176.478 158.739 176.397 158.721C174.187 158.264 170.554 158.896 168.785 157.397C167.696 156.472 167.1 155.33 166.959 154.452C166.421 151.072 172.291 142.099 172.291 142.099L172.074 151.063C172.074 151.063 170.282 152.996 170.605 154.541C170.661 154.816 170.88 155.156 171.197 155.526C172.523 157.082 176.361 158.003 176.361 158.003Z" fill="#FFD8D9"/>
<path d="M170.605 154.544C170.66 154.818 171.037 155.06 171.354 155.43L169.5 156.97L168.756 157.588C167.666 156.661 167.025 155.477 166.787 154.62C166.416 153.302 166.944 151.048 167.832 148.812C167.836 148.799 167.838 148.792 167.838 148.792C169.179 145.416 171.339 142.084 172.468 142.057L173.119 151.152C173.117 151.15 170.282 152.998 170.605 154.544Z" fill="url(#paint5_linear_625_14046)"/>
<path d="M190.359 164.889C191.026 167.515 183.974 166.367 182.665 166.131C182.531 166.108 182.459 166.093 182.459 166.093C182.459 166.093 181.441 166.159 179.887 166.182C179.858 166.182 179.828 166.184 179.796 166.184C177.54 166.214 174.202 166.152 171.201 165.674C167.521 165.089 164.35 163.882 164.312 161.454C164.312 161.447 164.312 161.445 164.312 161.441C164.312 161.341 164.314 161.241 164.324 161.139C164.324 161.137 164.324 161.135 164.324 161.135C164.335 161.028 164.35 160.922 164.371 160.814C164.39 160.716 164.418 160.622 164.454 160.533C164.469 160.493 164.486 160.452 164.507 160.414C164.529 160.373 164.55 160.333 164.575 160.295C164.575 160.295 164.578 160.295 164.575 160.293C164.597 160.257 164.622 160.223 164.648 160.188C164.654 160.178 164.663 160.169 164.669 160.163C164.686 160.137 164.707 160.114 164.727 160.093C164.75 160.067 164.773 160.042 164.797 160.018C164.797 160.016 164.799 160.014 164.801 160.014C165.08 159.744 165.474 159.559 165.959 159.442C169.298 158.636 176.957 161.103 180.841 162.489C180.896 162.508 180.954 162.529 181.009 162.551C182.346 163.027 183.193 163.365 183.193 163.365C183.193 163.365 183.45 163.31 183.872 163.246C183.876 163.244 183.883 163.244 183.889 163.244C185.57 162.984 189.772 162.585 190.359 164.889Z" fill="#FFD8D9"/>
<path d="M181.16 162.06L181.009 162.549L179.886 166.18L179.73 166.68C177.683 166.707 174.756 166.584 172.002 166.125C172.002 166.125 172.002 166.125 172 166.125C167.99 165.459 164.346 164.088 164.31 161.451C164.31 161.445 164.31 161.443 164.31 161.439C164.31 161.339 164.314 161.239 164.322 161.137C164.322 161.135 164.322 161.133 164.322 161.133C164.333 161.026 164.348 160.92 164.369 160.811C164.388 160.714 164.416 160.62 164.452 160.531C164.467 160.49 164.484 160.45 164.505 160.412C164.527 160.371 164.548 160.331 164.574 160.293C164.574 160.293 164.576 160.293 164.574 160.291C164.595 160.254 164.62 160.22 164.646 160.186C164.652 160.176 164.661 160.167 164.667 160.161C164.684 160.135 164.705 160.112 164.725 160.091C164.748 160.065 164.771 160.04 164.795 160.016C164.795 160.014 164.797 160.012 164.799 160.012C165.086 159.725 165.501 159.521 166.014 159.387C169.448 158.485 177.282 160.675 181.16 162.06Z" fill="#3E4261"/>
<path d="M183.195 163.376C183.195 163.376 191.094 161.615 191.528 164.958C191.996 168.549 182.461 166.106 182.461 166.106C182.461 166.106 187.584 166.997 187.556 164.77C187.531 162.782 183.195 163.376 183.195 163.376Z" fill="#3E4261"/>
<path d="M185.07 150.438V158.862C185.07 159.315 184.702 159.683 184.249 159.683H171.329C170.876 159.683 170.507 159.315 170.507 158.862V150.438C170.507 149.985 170.876 149.617 171.329 149.617H184.249C184.702 149.617 185.07 149.985 185.07 150.438Z" fill="white"/>
<path d="M176.501 154.65C176.501 153.94 177.078 153.366 177.789 153.366C178.5 153.366 179.074 153.942 179.074 154.65C179.074 155.36 178.497 155.934 177.789 155.934C177.08 155.934 176.501 155.36 176.501 154.65Z" fill="#D7E0FA"/>
<path d="M185.07 150.438V158.862C185.07 159.315 184.702 159.683 184.249 159.683H171.329C170.876 159.683 170.507 159.315 170.507 158.862C183.574 159.461 185.072 157.546 184.249 149.617C184.702 149.617 185.07 149.985 185.07 150.438Z" fill="#D7E0FA"/>
<path d="M188.831 154.801C188.716 155.426 188.341 156.213 187.716 156.897C187.65 156.97 187.541 156.982 187.458 156.929L186.698 156.436C187.098 155.743 187.688 155.194 187.965 154.121C188.705 151.25 186.837 147.123 186.734 146.877C188.099 149.67 189.159 153.021 188.831 154.801Z" fill="url(#paint6_linear_625_14046)"/>
<path d="M175.348 136.473C175.348 136.473 173.809 134.826 175.056 132.636C175.056 132.636 175.433 133.318 175.88 133.129C175.88 133.129 175.903 131.528 179.155 131.198C179.155 131.198 178.919 131.834 179.038 131.998C180.111 131.528 181.152 132.695 182.197 132.257C182.197 132.257 182.486 134.111 181.284 135.196C181.284 135.196 181.467 135.836 181.043 136.471C180.618 137.109 175.348 136.473 175.348 136.473Z" fill="#222438"/>
<path d="M175.831 135.976C175.831 135.976 175.128 135.289 175.062 135.955C174.984 136.743 175.922 137.328 175.922 137.328C175.922 137.328 176.152 139.765 178.208 139.765C180.249 139.765 180.592 137.32 180.592 137.32C180.592 137.32 181.665 137.026 181.437 136.101C181.328 135.661 180.769 136.112 180.769 136.112V134.955C180.769 134.955 180.196 135.247 179.091 134.773C178.291 134.43 178.006 133.954 177.323 133.979C176.548 134.009 175.801 134.864 175.831 135.976Z" fill="#FFD8D9"/>
<path d="M223.616 166.997H14.0989C13.9797 166.997 13.8818 166.899 13.8818 166.78V166.722C13.8818 166.603 13.9797 166.505 14.0989 166.505H223.614C223.733 166.505 223.831 166.603 223.831 166.722V166.78C223.833 166.899 223.735 166.997 223.616 166.997Z" fill="#282D47"/>
<path d="M10.0356 166.997H0.217101C0.0979083 166.997 0 166.899 0 166.78V166.722C0 166.603 0.0979083 166.505 0.217101 166.505H10.0335C10.1527 166.505 10.2506 166.603 10.2506 166.722V166.78C10.2527 166.899 10.1548 166.997 10.0356 166.997Z" fill="#30334D"/>
<path d="M191.098 174H181.282C181.162 174 181.064 173.902 181.064 173.783V173.726C181.064 173.607 181.162 173.509 181.282 173.509H191.098C191.217 173.509 191.315 173.607 191.315 173.726V173.783C191.317 173.902 191.219 174 191.098 174Z" fill="#30334D"/>
<path d="M174 174H133.745C133.626 174 133.528 173.902 133.528 173.783V173.726C133.528 173.607 133.626 173.509 133.745 173.509H174C174.119 173.509 174.217 173.607 174.217 173.726V173.783C174.217 173.902 174.119 174 174 174Z" fill="#30334D"/>
<path d="M191.245 3.99502C191.245 3.99502 192.834 2.8384 191.789 1.13747C190.744 -0.563447 188.431 -0.0871894 187.994 0.805794C187.137 0.661216 186.466 1.2374 186.092 1.77319C185.796 2.1963 185.445 3.04251 185.877 4.69878C186.309 6.35292 183.94 7.29906 183.618 8.41742C183.412 9.13606 183.731 9.91423 185.195 10.0843C186.66 10.2544 190.576 8.6683 190.576 8.6683C191.038 8.66618 192.771 6.94187 191.245 3.99502Z" fill="#30334D"/>
<path d="M202.51 42.4677C201.827 39.0149 201.455 36.1892 201.55 33.7016C201.618 31.8774 201.797 30.202 201.944 28.5181L191.351 22.4607L187.986 20.5344H194.435C194.435 20.5344 203.636 23.5152 205.196 26.1113C206.246 27.859 206.029 31.7987 205.537 35.3728C205.018 39.1191 204.19 42.4656 204.19 42.4656H202.51V42.4677Z" fill="#E3C0C1"/>
<path d="M202.483 42.3912L201.94 44.1644L202.28 46.922L202.827 46.9475L203.326 44.5343L204.209 46.1375C204.447 46.5691 204.803 46.922 205.292 46.9858C206.582 47.1538 209.102 47.1963 209.206 46.3501C209.313 45.4805 206.872 45.4443 206.159 44.4897C205.467 43.5648 204.637 42.355 204.637 42.355L202.483 42.3912Z" fill="#232538"/>
<path d="M205.537 35.3728L203.343 35.7342L201.55 33.7016L193.63 24.7314L191.351 22.4607L189.42 20.5344H194.435C194.435 20.5344 203.636 23.5152 205.196 26.1113C206.246 27.8611 206.029 31.8008 205.537 35.3728Z" fill="#232538"/>
<path d="M204.413 42.5698C202.485 40.9199 201.206 38.8278 200.203 36.4465C199.554 34.9029 199.05 33.2466 198.628 31.5266C198.628 31.5266 188.812 30.6974 186.23 26.9447C184.47 24.3869 185.881 20.5365 185.881 20.5365C187.558 20.5875 189.757 20.2218 191.147 20.6704C196.383 22.3607 202.004 24.5889 203.309 28.2076C204.079 30.3444 204.611 32.7066 205.145 35.326C205.586 37.4904 205.984 40.0035 206.565 42.5358L204.413 42.5698Z" fill="#FFD8D9"/>
<path d="M205.145 35.3239L201.872 36.0659L200.205 36.4444C199.556 34.9008 199.051 33.2445 198.63 31.5245C198.63 31.5245 192.849 31.0354 188.995 29.1155C187.826 28.5308 186.832 27.8164 186.232 26.9426C184.623 24.6017 185.666 21.1743 185.855 20.613C185.874 20.562 185.883 20.5344 185.883 20.5344H185.896C187.573 20.5833 189.959 20.0602 191.344 20.5089C196.58 22.1992 202.257 24.5124 203.562 28.1311C204.334 30.27 204.613 32.7045 205.145 35.3239Z" fill="#30334D"/>
<path d="M192.241 13.7519C193.343 15.0829 195.312 16.6244 196.44 17.932C196.996 17.4514 197.645 17.2112 198.109 16.5989C196.215 13.7286 194.105 10.8306 191.683 8.36853C192.136 10.2395 191.713 11.9064 192.241 13.7519Z" fill="url(#paint7_linear_625_14046)"/>
<path d="M194.901 20.6896C192.306 20.3452 190.176 21.421 187.532 21.2148C187.215 21.1914 186.887 21.1467 186.553 21.0829C185.938 20.9617 185.51 20.3983 185.574 19.7753L186.447 11.2792L187.215 8.66621L187.392 8.06663L188.767 7.32886L190.28 7.38201C192.536 8.36004 194.09 11.0071 192.724 13.9327C191.393 16.7753 194.901 20.6896 194.901 20.6896Z" fill="url(#paint8_linear_625_14046)"/>
<path d="M190.346 7.40539C190.346 8.2601 189.553 8.2601 188.754 7.40539L188.942 6.37208L189.057 5.72998L190.255 6.32956L190.344 7.38413L190.346 7.40539Z" fill="#FFD8D9"/>
<path d="M195.589 17.781C194.901 18.8271 194.48 18.6378 193.556 18.6952C192.353 18.6272 191.066 18.81 189.85 18.7165C188.384 18.6017 186.228 19.0758 185.036 18.102C183.844 17.1283 185.355 12.3295 185.706 11.2494C186.175 9.81642 186.698 9.19133 187.388 8.05597C187.079 9.15519 186.768 10.2055 186.46 11.2856C186.653 12.9567 186.817 14.6385 186.99 16.3097C188.175 16.4692 189.065 16.5755 190.317 16.7881C191.421 16.9752 192.928 17.2324 194.077 17.5471C195.095 16.9922 196.278 16.7349 195.589 17.781Z" fill="#FFD8D9"/>
<path d="M190.359 16.6371C190.236 17.3048 190.01 18.1956 189.838 18.8909C188.288 18.9632 186.422 19.2693 184.976 18.0532C183.531 16.837 184.504 11.9128 185.087 10.567C185.715 9.1212 186.236 8.65983 187.394 8.04962C189.608 10.2736 187.282 13.3629 186.998 16.3097C188.095 16.4479 189.267 16.4586 190.359 16.6371Z" fill="url(#paint9_linear_625_14046)"/>
<path d="M190.314 7.04821C190.231 7.05884 189.967 7.15239 189.872 7.1375C189.376 7.05033 189.154 6.82283 188.939 6.37421L189.054 5.73212L190.253 6.33169L190.314 7.04821Z" fill="#CCCCCC"/>
<path d="M191.27 1.84125C191.27 1.84125 190.661 3.12757 188.622 3.60383C188.622 3.60383 187.986 2.9107 187.711 3.34444C187.437 3.77817 188.103 4.54359 188.103 4.54359C188.18 5.80439 189.086 6.80369 190.027 6.56768C192.164 6.02977 191.27 1.84125 191.27 1.84125Z" fill="#FFD8D9"/>
<path d="M204.413 42.5698L203.871 44.343L204.211 47.1006L204.758 47.1283L205.256 44.7151L206.14 46.3182C206.378 46.7498 206.733 47.1027 207.223 47.1665C208.513 47.3345 211.033 47.377 211.137 46.5308C211.244 45.6612 208.802 45.6251 208.087 44.6704C207.395 43.7455 206.565 42.5358 206.565 42.5358L204.413 42.5698Z" fill="#30334D"/>
<path d="M191.996 21.7144L193.786 16.3459C193.969 16.0163 194.318 15.8122 194.695 15.8122H202.693C203.445 15.8122 203.949 16.5861 203.643 17.2729L201.563 21.9483C201.384 22.3522 200.982 22.6116 200.541 22.6116H192.643C192.179 22.6116 191.849 22.1566 191.996 21.7144Z" fill="#C8CBE3"/>
<path d="M198.16 20.3281C198.579 20.3281 198.92 19.9883 198.92 19.5691C198.92 19.1499 198.579 18.8101 198.16 18.8101C197.74 18.8101 197.4 19.1499 197.4 19.5691C197.4 19.9883 197.74 20.3281 198.16 20.3281Z" fill="white"/>
<path d="M164.492 39.3763H42.4771V44.898H164.492V39.3763Z" fill="#D1D6EB"/>
<path d="M188.633 39.3763H170.505V44.7194H188.633V39.3763Z" fill="#D1D6EB"/>
<path d="M156.862 17.0603H156.4C156.268 16.4607 156.049 15.893 155.753 15.3742L156.136 14.9915C156.709 14.4196 156.709 13.4905 156.136 12.9164C155.563 12.3445 154.633 12.3445 154.059 12.9164L153.731 13.2438C153.226 12.9206 152.673 12.6719 152.081 12.5082V11.966C152.081 11.1559 151.424 10.499 150.613 10.499C149.802 10.499 149.144 11.1559 149.144 11.966V12.4295C148.544 12.5613 147.976 12.7803 147.456 13.0759L147.073 12.6932C146.501 12.1212 145.57 12.1212 144.996 12.6932C144.423 13.2651 144.423 14.1942 144.996 14.7683L145.324 15.0957C145 15.5996 144.751 16.1524 144.587 16.7435H144.044C143.233 16.7435 142.576 17.4005 142.576 18.2105C142.576 19.0206 143.233 19.6776 144.044 19.6776H144.506C144.638 20.2771 144.857 20.8448 145.153 21.3636L144.77 21.7463C144.198 22.3182 144.198 23.2474 144.77 23.8214C145.343 24.3934 146.273 24.3934 146.847 23.8214L147.173 23.4961C147.678 23.8193 148.233 24.0681 148.823 24.2318V24.7718C148.823 25.5819 149.48 26.2389 150.291 26.2389C151.102 26.2389 151.76 25.5819 151.76 24.7718V24.3104C152.36 24.1786 152.928 23.9596 153.448 23.6641L153.831 24.0468C154.403 24.6187 155.334 24.6187 155.908 24.0468C156.481 23.4749 156.481 22.5457 155.908 21.9717L155.58 21.6442C155.904 21.1404 156.153 20.5854 156.317 19.9965H156.858C157.668 19.9965 158.326 19.3395 158.326 18.5294C158.33 17.7172 157.673 17.0603 156.862 17.0603ZM154.827 18.3678C154.827 20.7789 152.869 22.735 150.455 22.735C148.042 22.735 146.083 20.7789 146.083 18.3678C146.083 15.9547 148.042 14.0007 150.455 14.0007C152.869 14.0007 154.827 15.9547 154.827 18.3678Z" fill="#D5D8ED"/>
<path d="M147.692 18.3678C147.692 19.8923 148.929 21.1276 150.455 21.1276C151.981 21.1276 153.22 19.8923 153.22 18.3678C153.22 16.8434 151.981 15.606 150.455 15.606C148.929 15.606 147.692 16.8434 147.692 18.3678Z" fill="#D5D8ED"/>
<path d="M169.615 10.3501H169.335C169.254 9.98654 169.122 9.64423 168.943 9.32956L169.175 9.09781C169.522 8.75124 169.522 8.18781 169.175 7.84125C168.828 7.49469 168.264 7.49469 167.917 7.84125L167.719 8.03898C167.413 7.84338 167.078 7.69242 166.721 7.59249V7.26294C166.721 6.7718 166.323 6.37421 165.831 6.37421C165.339 6.37421 164.941 6.7718 164.941 7.26294V7.54359C164.577 7.62438 164.235 7.75621 163.92 7.9348L163.688 7.70305C163.341 7.35649 162.777 7.35649 162.43 7.70305C162.083 8.04961 162.083 8.61304 162.43 8.95961L162.628 9.15734C162.432 9.4635 162.281 9.79731 162.181 10.1545H161.853C161.361 10.1545 160.963 10.5521 160.963 11.0432C160.963 11.5344 161.361 11.932 161.853 11.932H162.134C162.215 12.2955 162.347 12.64 162.526 12.9525L162.294 13.1843C161.947 13.5308 161.947 14.0943 162.294 14.4408C162.641 14.7874 163.205 14.7874 163.552 14.4408L163.75 14.2431C164.056 14.4387 164.392 14.5897 164.75 14.6896V15.017C164.75 15.5082 165.148 15.9057 165.64 15.9057C166.131 15.9057 166.529 15.5082 166.529 15.017V14.7364C166.893 14.6556 167.238 14.5237 167.551 14.3451L167.783 14.5769C168.13 14.9235 168.694 14.9235 169.041 14.5769C169.388 14.2303 169.388 13.6669 169.041 13.3203L168.843 13.1226C169.039 12.8164 169.19 12.4805 169.29 12.1233H169.618C170.109 12.1233 170.507 11.7257 170.507 11.2346C170.505 10.7477 170.107 10.3501 169.615 10.3501ZM168.383 11.1432C168.383 12.6038 167.198 13.7902 165.733 13.7902C164.271 13.7902 163.083 12.606 163.083 11.1432C163.083 9.68037 164.269 8.49611 165.733 8.49611C167.195 8.49611 168.383 9.68037 168.383 11.1432Z" fill="#D5D8ED"/>
<path d="M164.06 11.1432C164.06 12.0659 164.809 12.8165 165.735 12.8165C166.661 12.8165 167.41 12.0681 167.41 11.1432C167.41 10.2204 166.659 9.46991 165.735 9.46991C164.811 9.46991 164.06 10.2183 164.06 11.1432Z" fill="#D5D8ED"/>
<path d="M27.3525 86.6258C27.3525 86.5684 27.3504 86.511 27.3483 86.4536C27.344 86.3516 27.3398 86.2474 27.3312 86.1474C27.3291 86.1219 27.3291 86.0964 27.327 86.0709C27.31 85.8753 27.2865 85.6797 27.2525 85.4883C27.1822 85.061 27.0758 84.6464 26.9354 84.2488C26.8949 84.1319 26.8502 84.017 26.8055 83.9022C26.7864 83.8576 26.7672 83.8129 26.7502 83.7683C26.6842 83.6152 26.614 83.4664 26.5395 83.3197L26.4692 83.1857C26.2159 82.7158 25.9137 82.2736 25.5689 81.8696C25.5306 81.825 25.4901 81.7782 25.4497 81.7336C25.3454 81.6166 25.2347 81.5018 25.1219 81.3912C25.0389 81.3083 24.9559 81.2297 24.8686 81.151C23.5341 79.9497 21.7632 79.2162 19.8221 79.2162C17.8831 79.2162 16.1144 79.9476 14.7777 81.151C14.6904 81.2275 14.6074 81.3083 14.5223 81.3912C14.4095 81.5018 14.3009 81.6166 14.1945 81.7336C14.1541 81.7782 14.1136 81.825 14.0753 81.8696C13.7305 82.2736 13.4283 82.7137 13.175 83.1857L13.1047 83.3197C13.0302 83.4664 12.9579 83.6152 12.894 83.7683C12.8749 83.8129 12.8557 83.8576 12.8387 83.9022C12.7919 84.017 12.7493 84.1319 12.7067 84.2488C12.5662 84.6464 12.4598 85.061 12.3896 85.4883C12.3577 85.6797 12.3342 85.8753 12.3172 86.0709C12.3151 86.0964 12.313 86.1219 12.313 86.1474C12.3044 86.2495 12.2981 86.3516 12.2959 86.4536C12.2938 86.5089 12.2917 86.5684 12.2917 86.6258C12.2896 86.6535 12.2896 86.6811 12.2896 86.7109C12.2896 86.8193 12.2917 86.9299 12.2959 87.0362C12.3044 87.2467 12.3236 87.4529 12.3491 87.657C12.3747 87.8526 12.4066 88.0482 12.4471 88.2396C12.4662 88.3353 12.4896 88.4288 12.513 88.5245C12.5535 88.6861 12.6003 88.8455 12.6514 89.005C12.7323 89.2495 12.8238 89.4876 12.926 89.7215C12.9409 89.7555 12.9579 89.7917 12.9749 89.8257C13.0494 89.9894 13.1303 90.1467 13.2176 90.3019C13.2367 90.336 13.2559 90.3721 13.2771 90.4061C13.3729 90.5762 13.4772 90.7421 13.5879 90.9015C13.6986 91.0652 13.8178 91.2268 13.9412 91.382C14.1115 91.5946 14.2945 91.7988 14.4904 91.9944C14.6968 92.2006 14.916 92.3962 15.1459 92.5769C16.4294 93.5932 18.0512 94.1992 19.8136 94.2013C19.8178 94.2013 19.8221 94.2013 19.8264 94.2013C19.8306 94.2013 19.8349 94.2013 19.8413 94.2013C21.6036 94.1971 23.2233 93.5911 24.5068 92.5769C24.7367 92.3962 24.9559 92.2006 25.1624 91.9944C25.3582 91.8009 25.5412 91.5968 25.7115 91.382C25.8371 91.2268 25.9541 91.0674 26.0648 90.9015C26.1755 90.7421 26.2777 90.5762 26.3756 90.4061C26.3969 90.3721 26.416 90.3381 26.4352 90.3019C26.5203 90.1467 26.6012 89.9873 26.6778 89.8257C26.6927 89.7917 26.7097 89.7555 26.7246 89.7215C26.8289 89.4876 26.9205 89.2495 26.9992 89.005C27.0503 88.8477 27.0971 88.6882 27.1354 88.5245C27.1588 88.4309 27.1823 88.3353 27.2014 88.2396C27.2418 88.0482 27.2738 87.8526 27.2993 87.657C27.3249 87.4529 27.344 87.2467 27.3525 87.0362C27.3589 86.9299 27.361 86.8193 27.361 86.7109C27.3525 86.6811 27.3525 86.6535 27.3525 86.6258ZM26.5288 85.4883C26.565 85.6797 26.5905 85.8732 26.6097 86.0709C26.6118 86.0964 26.614 86.1219 26.6161 86.1474H24.5707C24.5387 85.4947 24.4536 84.8569 24.3174 84.2509H26.1776C26.3309 84.6464 26.4522 85.061 26.5288 85.4883ZM23.9044 86.7449C23.9044 87.3615 23.8534 87.9568 23.7597 88.5224H22.3443C22.3933 87.9419 22.4188 87.3402 22.4188 86.7279C22.4188 86.6939 22.4188 86.6598 22.4188 86.6258H23.9023C23.9045 86.6641 23.9044 86.7045 23.9044 86.7449ZM15.7398 86.7449C15.7398 86.7045 15.7419 86.6662 15.7419 86.6258H17.2254C17.2254 86.6598 17.2254 86.6939 17.2254 86.7279C17.2254 87.3402 17.2509 87.9419 17.2999 88.5224H15.8845C15.7908 87.9568 15.7398 87.3593 15.7398 86.7449ZM21.8313 86.7279C21.8313 87.3487 21.8016 87.9504 21.7483 88.5224H20.1137V86.6258H21.8292C21.8313 86.6598 21.8313 86.6939 21.8313 86.7279ZM17.8129 86.7279C17.8129 86.6939 17.8129 86.6598 17.8129 86.6258H19.5284V88.5224H17.8937C17.8427 87.9504 17.8129 87.3466 17.8129 86.7279ZM20.1137 80.3303C20.4138 80.4791 20.6969 80.8512 20.9417 81.3934H20.1137V80.3303ZM19.5305 80.3303V81.3934H18.7025C18.9473 80.8512 19.2283 80.4791 19.5305 80.3303ZM19.5305 81.8718V83.7704H18.0449C18.164 83.0518 18.3216 82.4075 18.5131 81.8739H19.5305V81.8718ZM19.5305 84.2488V86.1453H17.8235C17.8427 85.482 17.8937 84.8441 17.9746 84.2488H19.5305ZM19.5305 89.0029V90.8994H18.3024C18.1534 90.3381 18.0321 89.6981 17.9469 89.0029H19.5305ZM19.5305 91.3799V93.1255C19.1155 92.9214 18.7387 92.2899 18.4429 91.3799H19.5305ZM20.1137 93.1255V91.3799H21.2013C20.9076 92.2878 20.5287 92.9192 20.1137 93.1255ZM20.1137 90.8994V89.0029H21.6973C21.6142 89.6981 21.4929 90.3381 21.3418 90.8994H20.1137ZM20.1137 86.1474V84.2509H21.6717C21.7505 84.8462 21.8037 85.4841 21.8228 86.1474H20.1137ZM20.1137 83.7704V81.8739H21.1332C21.3227 82.4075 21.4823 83.0518 21.6015 83.7704H20.1137ZM21.7973 81.8718H22.6423C22.9871 82.416 23.2744 83.056 23.4873 83.7683H22.2123C22.108 83.0837 21.9697 82.4437 21.7973 81.8718ZM21.6377 81.3934C21.4972 81.0043 21.3418 80.6662 21.1779 80.3834C21.5866 80.6216 21.9654 80.9639 22.3039 81.3934H21.6377ZM18.4663 80.3834C18.3003 80.6662 18.147 81.0043 18.0065 81.3934H17.3403C17.6788 80.9639 18.0576 80.6216 18.4663 80.3834ZM17.8469 81.8718C17.6745 82.4437 17.5362 83.0837 17.434 83.7683H16.1591C16.3719 83.056 16.6592 82.4139 17.004 81.8718H17.8469ZM17.3701 84.2488C17.2956 84.8547 17.2509 85.4926 17.2339 86.1453H15.7568C15.793 85.4798 15.8866 84.8441 16.0313 84.2488H17.3701ZM17.3467 89.0029C17.4212 89.6769 17.5276 90.3147 17.666 90.8994H16.6103C16.34 90.3317 16.125 89.6939 15.976 89.0029H17.3467ZM17.7894 91.3799C17.8341 91.5415 17.8831 91.701 17.932 91.8519C18.1002 92.3558 18.2896 92.781 18.4982 93.1233C17.8682 92.7662 17.3084 92.1623 16.8593 91.3799H17.7894ZM21.146 93.1233C21.3524 92.781 21.544 92.3558 21.71 91.8519C21.7611 91.701 21.8079 91.5415 21.8526 91.3799H22.7828C22.3358 92.1602 21.776 92.7662 21.146 93.1233ZM21.9782 90.8994C22.1166 90.3147 22.223 89.6747 22.2975 89.0029H23.6682C23.5192 89.6939 23.3021 90.3338 23.0339 90.8994H21.9782ZM22.4124 86.1474C22.3954 85.4926 22.3486 84.8569 22.2762 84.2509H23.615C23.7597 84.8462 23.8534 85.4841 23.8896 86.1474H22.4124ZM25.6455 83.1878C25.6732 83.2325 25.6987 83.2771 25.7243 83.3218C25.8094 83.4685 25.8903 83.6173 25.9648 83.7704H24.1939C24.0045 83.0858 23.7491 82.4479 23.4341 81.8739H24.5941C24.9963 82.2651 25.3497 82.7073 25.6455 83.1878ZM24.0471 81.3934H23.1446C22.8998 81.0192 22.6338 80.6917 22.3486 80.4153C22.836 80.6109 23.2978 80.8576 23.7235 81.1552C23.8342 81.2297 23.9428 81.3083 24.0471 81.3934ZM15.9185 81.1531C16.3442 80.8555 16.8061 80.6088 17.2956 80.4132C17.0126 80.6917 16.7444 81.0192 16.4996 81.3912H15.5971C15.7014 81.3083 15.81 81.2297 15.9185 81.1531ZM13.9178 83.3197C13.9433 83.275 13.971 83.2304 13.9966 83.1857C14.2924 82.7031 14.6457 82.263 15.048 81.8696H16.208C15.8909 82.4437 15.6376 83.0837 15.4482 83.7662H13.6752C13.7518 83.6173 13.8327 83.4664 13.9178 83.3197ZM13.0345 86.0709C13.0537 85.8732 13.0813 85.6797 13.1175 85.4883C13.1941 85.061 13.3155 84.6464 13.4708 84.2488H15.3311C15.1949 84.8547 15.1097 85.4926 15.0778 86.1453H13.0302C13.0281 86.1219 13.0302 86.0964 13.0345 86.0709ZM13.1792 88.2375C13.1324 88.0482 13.0984 87.8526 13.0707 87.6549C13.0409 87.4508 13.0217 87.2445 13.0111 87.034C13.0068 86.9256 13.0026 86.8172 13.0026 86.7087C13.0026 86.6811 13.0026 86.6535 13.0047 86.6237H15.0587C15.0587 86.6641 15.0565 86.7024 15.0565 86.7428C15.0565 87.3487 15.1033 87.9462 15.1906 88.5202H13.2495C13.2261 88.4288 13.2027 88.3331 13.1792 88.2375ZM14.1115 90.4061C14.0881 90.3721 14.0647 90.3381 14.0434 90.3019C13.9455 90.1467 13.854 89.9873 13.7688 89.8257C13.7497 89.7917 13.7326 89.7555 13.7156 89.7215C13.5985 89.4898 13.4964 89.2495 13.407 89.005H15.2821C15.4162 89.6769 15.612 90.3147 15.8632 90.9015H14.4712C14.3414 90.7399 14.2222 90.5762 14.1115 90.4061ZM15.5524 91.9901C15.3162 91.8009 15.0927 91.5968 14.8862 91.3778H16.0846C16.1867 91.5776 16.2931 91.7711 16.4081 91.9561C16.6443 92.3345 16.9019 92.6684 17.1764 92.9533C16.9104 92.8406 16.6529 92.7151 16.4038 92.5706C16.1058 92.4005 15.8206 92.2049 15.5524 91.9901ZM24.0918 91.9901C23.8236 92.2049 23.5384 92.4005 23.2404 92.5727C22.9935 92.7173 22.7338 92.8448 22.4678 92.9554C22.7423 92.6684 22.9999 92.3345 23.2361 91.9561C23.3511 91.7711 23.4596 91.5776 23.5596 91.3778H24.758C24.5494 91.5968 24.328 91.8009 24.0918 91.9901ZM25.9307 89.7194C25.9137 89.7534 25.8945 89.7895 25.8775 89.8236C25.7924 89.9873 25.7009 90.1446 25.6029 90.2998C25.5817 90.3338 25.5582 90.37 25.5348 90.404C25.4242 90.5741 25.305 90.7399 25.1773 90.8994H23.7853C24.0364 90.3126 24.2322 89.6747 24.3663 89.0029H26.2393C26.15 89.2474 26.0457 89.4876 25.9307 89.7194ZM24.4515 88.5224C24.5409 87.9462 24.5856 87.3508 24.5856 86.7449C24.5856 86.7045 24.5834 86.6662 24.5834 86.6258H26.6374C26.6395 86.6535 26.6395 86.6811 26.6395 86.7109C26.6395 86.8193 26.6374 86.9277 26.6331 87.0362C26.6246 87.2467 26.6033 87.4529 26.5735 87.657C26.5458 87.8547 26.5097 88.0482 26.465 88.2396C26.4437 88.3353 26.4181 88.4288 26.3905 88.5245H24.4515V88.5224Z" fill="#D5D8ED"/>
<path d="M220.464 114.485C220.543 114.61 220.566 114.763 220.53 114.912C220.481 115.11 220.336 115.263 220.141 115.318L218.253 115.869C218.057 115.926 217.852 115.875 217.706 115.735C217.559 115.595 217.499 115.393 217.548 115.195L218.016 113.286C218.065 113.088 218.21 112.935 218.406 112.879C218.602 112.822 218.806 112.873 218.953 113.013L220.375 114.372C220.407 114.408 220.438 114.444 220.464 114.485ZM217.991 115.393C217.997 115.403 218.006 115.412 218.01 115.416C218.025 115.431 218.065 115.461 218.125 115.444L220.013 114.893C220.072 114.876 220.089 114.827 220.096 114.808C220.1 114.789 220.106 114.738 220.062 114.693L218.64 113.334C218.595 113.292 218.544 113.3 218.525 113.307C218.506 113.313 218.457 113.332 218.442 113.392L217.976 115.301C217.969 115.342 217.978 115.371 217.991 115.393Z" fill="#D94559"/>
<path d="M129.111 20.9894C129.19 21.1148 129.213 21.2679 129.177 21.4167C129.128 21.6145 128.983 21.7675 128.787 21.8228L126.9 22.3735C126.704 22.4309 126.499 22.3799 126.353 22.2395C126.206 22.0992 126.146 21.8972 126.195 21.6995L126.661 19.7902C126.71 19.5925 126.855 19.4394 127.051 19.3841C127.246 19.3267 127.451 19.3777 127.598 19.5181L129.019 20.8767C129.056 20.9128 129.085 20.949 129.111 20.9894ZM126.64 21.8972C126.646 21.9079 126.655 21.9164 126.659 21.9206C126.674 21.9355 126.714 21.9653 126.774 21.9483L128.662 21.3976C128.721 21.3806 128.739 21.3317 128.745 21.3125C128.749 21.2934 128.756 21.2424 128.711 21.1977L127.289 19.8391C127.244 19.7966 127.193 19.8051 127.174 19.8115C127.155 19.8179 127.106 19.837 127.091 19.8965L126.625 21.8058C126.616 21.8462 126.627 21.876 126.64 21.8972Z" fill="#D94559"/>
<path d="M218.101 44.898L218.795 44.2048C218.953 44.0475 218.953 43.7924 218.795 43.635C218.638 43.4777 218.382 43.4777 218.225 43.635L217.531 44.3282L216.837 43.635C216.679 43.4777 216.424 43.4777 216.267 43.635C216.109 43.7924 216.109 44.0475 216.267 44.2048L216.96 44.898L216.267 45.5911C216.109 45.7484 216.109 46.0036 216.267 46.1609C216.345 46.2396 216.45 46.28 216.552 46.28C216.656 46.28 216.758 46.2396 216.837 46.1609L217.531 45.4678L218.225 46.1609C218.303 46.2396 218.408 46.28 218.51 46.28C218.614 46.28 218.716 46.2396 218.795 46.1609C218.953 46.0036 218.953 45.7484 218.795 45.5911L218.101 44.898Z" fill="#FFB86B"/>
<path d="M90.8864 11.1431L91.5803 10.45C91.7378 10.2927 91.7378 10.0375 91.5803 9.88021C91.4228 9.72287 91.1674 9.72287 91.0099 9.88021L90.316 10.5733L89.6221 9.88021C89.4646 9.72287 89.2092 9.72287 89.0517 9.88021C88.8942 10.0375 88.8942 10.2927 89.0517 10.45L89.7456 11.1431L89.0517 11.8363C88.8942 11.9936 88.8942 12.2487 89.0517 12.4061C89.1305 12.4847 89.2348 12.5251 89.3369 12.5251C89.4412 12.5251 89.5434 12.4847 89.6221 12.4061L90.316 11.713L91.0099 12.4061C91.0886 12.4847 91.1929 12.5251 91.2951 12.5251C91.3994 12.5251 91.5016 12.4847 91.5803 12.4061C91.7378 12.2487 91.7378 11.9936 91.5803 11.8363L90.8864 11.1431Z" fill="#FFB86B"/>
<path d="M10.0251 75.5167L10.719 74.8236C10.8765 74.6662 10.8765 74.4111 10.719 74.2537C10.5615 74.0964 10.3061 74.0964 10.1486 74.2537L9.45469 74.9469L8.76082 74.2537C8.60331 74.0964 8.3479 74.0964 8.19039 74.2537C8.03289 74.4111 8.03289 74.6662 8.19039 74.8236L8.88427 75.5167L8.19039 76.2098C8.03289 76.3671 8.03289 76.6223 8.19039 76.7796C8.26915 76.8583 8.37344 76.8987 8.47561 76.8987C8.5799 76.8987 8.68206 76.8583 8.76082 76.7796L9.45469 76.0865L10.1486 76.7796C10.2273 76.8583 10.3316 76.8987 10.4338 76.8987C10.5381 76.8987 10.6402 76.8583 10.719 76.7796C10.8765 76.6223 10.8765 76.3671 10.719 76.2098L10.0251 75.5167Z" fill="#FFB86B"/>
<path d="M228.797 74.6832C227.922 74.6832 227.211 73.9731 227.211 73.0992C227.211 72.2254 227.922 71.5153 228.797 71.5153C229.671 71.5153 230.382 72.2254 230.382 73.0992C230.384 73.971 229.671 74.6832 228.797 74.6832ZM228.797 72.0085C228.196 72.0085 227.707 72.4975 227.707 73.0971C227.707 73.6967 228.196 74.1857 228.797 74.1857C229.397 74.1857 229.886 73.6967 229.886 73.0971C229.886 72.4975 229.399 72.0085 228.797 72.0085Z" fill="#035875"/>
<path d="M54.635 23.5535C53.7602 23.5535 53.0493 22.8434 53.0493 21.9695C53.0493 21.0957 53.7602 20.3856 54.635 20.3856C55.5098 20.3856 56.2207 21.0957 56.2207 21.9695C56.2207 22.8434 55.5098 23.5535 54.635 23.5535ZM54.635 20.881C54.0348 20.881 53.5452 21.37 53.5452 21.9695C53.5452 22.5691 54.0348 23.0581 54.635 23.0581C55.2352 23.0581 55.7248 22.5691 55.7248 21.9695C55.7248 21.3678 55.2352 20.881 54.635 20.881Z" fill="#035875"/>
<path d="M68.2313 165.028C67.8631 165.685 67.2096 166.129 66.5817 166.548H45.0717C44.1884 166.388 43.4328 165.625 42.6538 165.176C41.8791 164.73 41.2426 163.937 41.232 163.042C41.2214 161.909 42.3856 160.914 43.5073 161.105C43.9096 161.175 44.3119 161.369 44.7056 161.271C45.3633 161.105 45.5719 160.242 45.4037 159.583C45.2356 158.928 44.8312 158.341 44.7354 157.671C44.5524 156.387 45.789 155.105 47.081 155.243C48.2154 155.364 49.0498 156.34 49.6904 157.284C50.0331 157.792 50.4737 158.377 51.0824 158.347C51.5613 158.32 51.9423 157.896 52.0871 157.439C52.2339 156.982 52.2041 156.491 52.2062 156.008C52.2254 154.648 52.5596 153.287 53.1832 152.069C53.6706 151.12 54.4305 150.193 55.484 150.015C56.6313 149.826 57.7742 150.64 58.2468 151.701C58.7235 152.762 58.6448 153.987 58.3617 155.111C58.1531 155.94 57.87 156.908 58.4064 157.569C58.5277 157.722 58.6852 157.841 58.8555 157.935C59.5217 158.294 60.4071 158.194 60.9818 157.697C61.2457 157.467 61.4437 157.165 61.7097 156.942C62.3802 156.385 63.4508 156.436 64.1191 156.991C64.7896 157.546 65.0514 158.511 64.8343 159.355C64.713 159.836 64.4512 160.271 64.2979 160.743C64.1404 161.215 64.1085 161.775 64.4022 162.172C65.1557 163.191 66.9797 162.191 67.9844 162.965C68.5825 163.424 68.6016 164.371 68.2313 165.028Z" fill="#FF8E5F"/>
<path d="M57.8212 158.126C57.7424 158.687 57.4189 159.2 56.9485 159.517C56.4441 159.855 55.7375 159.982 55.4224 160.55C55.4139 160.567 55.4012 160.576 55.3884 160.582C55.2394 161.19 55.0904 161.798 54.9627 162.406C54.6796 163.75 54.4944 165.174 54.6498 166.55H54.4966C54.4519 166.165 54.4348 165.774 54.4391 165.387C54.4455 164.728 54.5136 164.077 54.6158 163.433C54.586 163.433 54.5583 163.418 54.5498 163.376C54.4881 163.033 54.2518 162.772 54.0177 162.532C53.7431 162.249 53.4685 161.968 53.1918 161.685C52.7066 161.184 52.2106 160.601 52.2085 159.863C52.2085 159.763 52.3639 159.763 52.3639 159.863C52.366 160.624 52.9322 161.196 53.4302 161.704C53.6941 161.977 53.9687 162.245 54.2284 162.523C54.4072 162.717 54.5753 162.927 54.6605 163.176C54.9137 161.715 55.3352 160.278 55.6438 158.828C55.8396 157.903 55.9886 156.942 56.0142 155.983C56.0078 155.981 56.0014 155.977 55.995 155.972C55.5523 155.543 55.0563 155.031 55.1053 154.363C55.1138 154.265 55.2692 154.263 55.2607 154.363C55.216 154.945 55.6246 155.394 56.0142 155.775C56.0227 154.665 55.8566 153.563 55.3926 152.537C55.3522 152.447 55.4842 152.366 55.5267 152.458C55.7524 152.958 55.9099 153.481 56.012 154.014C56.2887 153.683 56.4696 153.285 56.5399 152.858C56.5569 152.76 56.7059 152.8 56.691 152.898C56.6101 153.387 56.3845 153.844 56.0482 154.21C56.1397 154.748 56.1759 155.298 56.1695 155.847C56.1525 157.335 55.8268 158.781 55.4778 160.218C55.8077 159.865 56.3057 159.708 56.7229 159.47C57.2401 159.176 57.5892 158.67 57.6722 158.082C57.685 157.986 57.8361 158.028 57.8212 158.126Z" fill="white"/>
<path d="M51.0864 166.55H50.9289C50.9438 166.205 50.9396 165.859 50.9183 165.514C50.914 165.427 50.9055 165.342 50.897 165.255C50.8864 165.276 50.8651 165.289 50.8353 165.287C49.7774 165.176 48.7813 164.655 48.0981 163.839C48.0343 163.765 48.1428 163.652 48.2067 163.728C48.8643 164.511 49.8158 165.023 50.8353 165.13C50.8587 165.132 50.8779 165.144 50.8885 165.159C50.814 164.432 50.6501 163.716 50.3606 163.046C50.101 162.442 49.7498 161.881 49.3624 161.349C49.3496 161.354 49.3369 161.354 49.322 161.351C48.4727 161.105 47.3681 161.475 46.6997 160.737C46.6337 160.663 46.7444 160.552 46.8104 160.626C47.0914 160.937 47.5149 161.043 47.9172 161.075C48.3557 161.107 48.7984 161.075 49.2283 161.169C49.2049 161.139 49.1836 161.107 49.1602 161.077C48.6834 160.454 48.1662 159.863 47.6746 159.253C47.434 158.951 47.1957 158.643 46.9764 158.326C46.7444 157.992 46.538 157.639 46.4145 157.25C46.3847 157.154 46.5358 157.114 46.5656 157.21C46.7061 157.66 46.97 158.056 47.2467 158.436C47.4234 158.683 47.6107 158.919 47.798 159.153C48.1237 158.645 48.1896 157.992 47.9491 157.433C47.9108 157.342 48.0449 157.263 48.0832 157.354C48.3514 157.979 48.2875 158.719 47.9023 159.283C47.9598 159.353 48.0151 159.423 48.0726 159.493C48.8665 160.456 49.7072 161.411 50.284 162.521C50.4075 162.189 50.6671 161.923 50.814 161.598C51.0396 161.094 50.8481 160.537 50.6799 160.048C50.648 159.952 50.797 159.912 50.831 160.006C51.0034 160.503 51.1844 161.058 50.9907 161.577C50.8395 161.985 50.4756 162.293 50.3862 162.727C50.4862 162.933 50.5777 163.146 50.6565 163.365C51.0205 164.39 51.1248 165.47 51.0864 166.55Z" fill="white"/>
<path d="M47.3767 166.55H47.2171C47.1256 166.114 46.9574 165.697 46.6914 165.336C46.6403 165.266 46.5828 165.202 46.5232 165.136C46.5104 165.14 46.4977 165.142 46.4806 165.138C46.1933 165.07 45.9358 165.296 45.6803 165.387C45.4207 165.478 45.1376 165.453 44.8907 165.336C44.7992 165.293 44.8801 165.159 44.9694 165.202C45.2312 165.325 45.5143 165.304 45.7697 165.181C45.9656 165.087 46.1592 164.977 46.3742 164.974C46.1529 164.751 45.9038 164.553 45.642 164.379C45.21 164.09 44.746 163.852 44.2947 163.599C44.067 163.471 43.835 163.346 43.6221 163.195C43.4583 163.08 43.3071 162.938 43.2667 162.734C43.2454 162.636 43.3965 162.593 43.4157 162.693C43.471 162.957 43.7456 163.097 43.9542 163.225C44.2181 163.384 44.4927 163.531 44.763 163.68C44.7843 163.692 44.8034 163.703 44.8247 163.714C44.8737 163.395 44.8354 163.072 44.7225 162.772C44.6885 162.678 44.8396 162.638 44.8737 162.729C44.9971 163.061 45.029 163.416 44.9737 163.767C44.9716 163.775 44.9673 163.784 44.9609 163.792C45.7442 164.23 46.536 164.728 46.9979 165.519C47.1873 165.842 47.3065 166.191 47.3767 166.55Z" fill="white"/>
<path d="M63.8124 159.589C63.755 159.806 63.523 159.908 63.3335 159.982C63.1015 160.072 62.8525 160.118 62.6056 160.127C62.6035 160.127 62.5992 160.125 62.5971 160.125C62.5141 160.229 62.4268 160.329 62.3396 160.431C61.8777 160.95 61.4179 161.456 61.0284 162.032C60.656 162.583 60.3367 163.169 60.0749 163.782C59.8897 164.213 59.7365 164.656 59.6109 165.106C60.1196 164.847 60.6858 164.719 61.203 164.473C61.7095 164.232 62.2119 163.818 62.2651 163.222C62.2736 163.123 62.4289 163.123 62.4226 163.222C62.3672 163.826 61.9181 164.277 61.4052 164.547C60.8135 164.86 60.1387 164.979 59.5577 165.313C59.4534 165.721 59.3725 166.135 59.3172 166.552H59.1597C59.2065 166.186 59.2746 165.821 59.3597 165.461C59.5343 164.732 59.7876 164.02 60.109 163.342C60.1068 163.337 60.1047 163.333 60.1026 163.329C59.8961 162.585 59.3491 161.8 59.7343 161.02C59.779 160.931 59.9131 161.009 59.8684 161.098C59.5364 161.77 59.9855 162.491 60.2047 163.14C60.4282 162.691 60.6836 162.261 60.9688 161.849C61.1434 161.596 61.3328 161.351 61.5307 161.115H61.5286C61.2732 160.531 61.1945 159.891 61.303 159.264C61.32 159.166 61.4712 159.208 61.4541 159.304C61.3562 159.867 61.4222 160.454 61.6436 160.984C61.85 160.743 62.0692 160.512 62.2778 160.271C62.7333 159.75 63.1633 159.142 63.1931 158.426C63.1952 158.326 63.3527 158.326 63.3484 158.426C63.325 159.006 63.0611 159.512 62.7227 159.969C62.8972 159.955 63.0717 159.918 63.2378 159.859C63.3889 159.804 63.6209 159.727 63.6677 159.553C63.689 159.453 63.8401 159.493 63.8124 159.589Z" fill="white"/>
<path d="M66.9118 164.475C66.5393 164.507 66.1711 164.596 65.8199 164.734C65.805 164.755 65.7795 164.764 65.7539 164.762C65.6858 164.789 65.6156 164.817 65.5475 164.849C65.2452 164.994 64.9622 165.174 64.7004 165.387C65.1814 165.425 65.6496 165.555 66.0817 165.767C66.1711 165.812 66.0924 165.946 66.003 165.901C65.5581 165.682 65.0707 165.555 64.5769 165.531C64.562 165.531 64.5514 165.527 64.5407 165.521C64.2172 165.814 63.9362 166.154 63.7234 166.539C63.7213 166.544 63.7191 166.548 63.717 166.552H63.5425C63.6148 166.414 63.6915 166.28 63.7809 166.15C64.0193 165.804 64.3087 165.493 64.6386 165.234C64.9579 164.981 65.3091 164.777 65.6837 164.624C65.6922 164.283 65.7561 163.945 65.8731 163.626C65.9072 163.535 66.0583 163.575 66.0242 163.669C65.9178 163.958 65.8582 164.26 65.8433 164.564C66.186 164.439 66.5457 164.356 66.9118 164.324C67.0118 164.311 67.0118 164.466 66.9118 164.475Z" fill="white"/>
<path d="M186.72 113.281H164.935C164.752 113.281 164.603 113.132 164.603 112.95V112.805C164.603 112.622 164.752 112.473 164.935 112.473H186.72C186.903 112.473 187.052 112.622 187.052 112.805V112.95C187.052 113.132 186.903 113.281 186.72 113.281Z" fill="#D5D8ED"/>
<path d="M187.018 116.277H173.879C173.696 116.277 173.547 116.128 173.547 115.945V115.801C173.547 115.618 173.696 115.469 173.879 115.469H187.018C187.201 115.469 187.35 115.618 187.35 115.801V115.945C187.35 116.128 187.201 116.277 187.018 116.277Z" fill="#D5D8ED"/>
<path d="M170.963 116.277H166.64C166.457 116.277 166.308 116.128 166.308 115.945V115.801C166.308 115.618 166.457 115.469 166.64 115.469H170.963C171.146 115.469 171.295 115.618 171.295 115.801V115.945C171.295 116.128 171.146 116.277 170.963 116.277Z" fill="#D5D8ED"/>
<path d="M67.7587 93.1042H45.9741C45.7911 93.1042 45.6421 92.9554 45.6421 92.7725V92.6279C45.6421 92.4451 45.7911 92.2963 45.9741 92.2963H67.7587C67.9418 92.2963 68.0907 92.4451 68.0907 92.6279V92.7725C68.0907 92.9554 67.9418 93.1042 67.7587 93.1042Z" fill="#D5D8ED"/>
<path d="M68.0568 96.0999H54.918C54.7349 96.0999 54.5859 95.9511 54.5859 95.7682V95.6237C54.5859 95.4408 54.7349 95.292 54.918 95.292H68.0568C68.2399 95.292 68.3889 95.4408 68.3889 95.6237V95.7682C68.3889 95.9511 68.2399 96.0999 68.0568 96.0999Z" fill="#D5D8ED"/>
<path d="M52.0018 96.0999H47.6768C47.4937 96.0999 47.3447 95.9511 47.3447 95.7682V95.6237C47.3447 95.4408 47.4937 95.292 47.6768 95.292H51.9996C52.1827 95.292 52.3317 95.4408 52.3317 95.6237V95.7682C52.3317 95.9511 52.1848 96.0999 52.0018 96.0999Z" fill="#D5D8ED"/>
<path d="M179.545 57.0659H157.758C157.575 57.0659 157.426 56.917 157.426 56.7342V56.5896C157.426 56.4068 157.575 56.2579 157.758 56.2579H179.542C179.725 56.2579 179.874 56.4068 179.874 56.5896V56.7342C179.877 56.9192 179.728 57.0659 179.545 57.0659Z" fill="#D5D8ED"/>
<path d="M179.842 60.0616H166.704C166.521 60.0616 166.372 59.9128 166.372 59.7299V59.5853C166.372 59.4025 166.521 59.2537 166.704 59.2537H179.842C180.026 59.2537 180.175 59.4025 180.175 59.5853V59.7299C180.175 59.9128 180.026 60.0616 179.842 60.0616Z" fill="#D5D8ED"/>
<path d="M163.786 60.0616H159.463C159.28 60.0616 159.131 59.9128 159.131 59.7299V59.5853C159.131 59.4025 159.28 59.2537 159.463 59.2537H163.786C163.969 59.2537 164.118 59.4025 164.118 59.5853V59.7299C164.118 59.9128 163.969 60.0616 163.786 60.0616Z" fill="#D5D8ED"/>
</g>
<defs>
<linearGradient id="paint0_linear_625_14046" x1="26.4924" y1="110.12" x2="19.6969" y2="111.28" gradientUnits="userSpaceOnUse">
<stop stop-color="#0F78DD"/>
<stop offset="1" stop-color="#3B9AF6"/>
</linearGradient>
<linearGradient id="paint1_linear_625_14046" x1="32.7908" y1="109.348" x2="19.732" y2="111.658" gradientUnits="userSpaceOnUse">
<stop stop-color="#0F78DD"/>
<stop offset="1" stop-color="#3B9AF6"/>
</linearGradient>
<linearGradient id="paint2_linear_625_14046" x1="31.5586" y1="111.37" x2="24.3308" y2="112.886" gradientUnits="userSpaceOnUse">
<stop stop-color="#0F78DD"/>
<stop offset="1" stop-color="#3B9AF6"/>
</linearGradient>
<linearGradient id="paint3_linear_625_14046" x1="184.78" y1="141.315" x2="167.287" y2="146.482" gradientUnits="userSpaceOnUse">
<stop stop-color="#0F78DD"/>
<stop offset="1" stop-color="#3B9AF6"/>
</linearGradient>
<linearGradient id="paint4_linear_625_14046" x1="188.891" y1="142.216" x2="180.2" y2="143.606" gradientUnits="userSpaceOnUse">
<stop stop-color="#0F78DD"/>
<stop offset="1" stop-color="#3B9AF6"/>
</linearGradient>
<linearGradient id="paint5_linear_625_14046" x1="173.119" y1="142.057" x2="164.536" y2="143.34" gradientUnits="userSpaceOnUse">
<stop stop-color="#0F78DD"/>
<stop offset="1" stop-color="#3B9AF6"/>
</linearGradient>
<linearGradient id="paint6_linear_625_14046" x1="188.891" y1="146.877" x2="185.927" y2="147.109" gradientUnits="userSpaceOnUse">
<stop stop-color="#0F78DD"/>
<stop offset="1" stop-color="#3B9AF6"/>
</linearGradient>
<linearGradient id="paint7_linear_625_14046" x1="198.109" y1="8.36853" x2="189.853" y2="10.3655" gradientUnits="userSpaceOnUse">
<stop stop-color="#0F78DD"/>
<stop offset="1" stop-color="#3B9AF6"/>
</linearGradient>
<linearGradient id="paint8_linear_625_14046" x1="194.901" y1="7.32886" x2="182.907" y2="10.2254" gradientUnits="userSpaceOnUse">
<stop stop-color="#0F78DD"/>
<stop offset="1" stop-color="#3B9AF6"/>
</linearGradient>
<linearGradient id="paint9_linear_625_14046" x1="190.359" y1="8.04962" x2="182.341" y2="9.67069" gradientUnits="userSpaceOnUse">
<stop stop-color="#0F78DD"/>
<stop offset="1" stop-color="#3B9AF6"/>
</linearGradient>
<clipPath id="clip0_625_14046">
<rect width="232" height="174" fill="white"/>
</clipPath>
</defs>
</svg>
