<svg width="60" height="60" viewBox="0 0 60 60" fill="none" xmlns="http://www.w3.org/2000/svg">
<circle cx="30" cy="30" r="30" fill="#FFFAED"/>
<path fill-rule="evenodd" clip-rule="evenodd" d="M23.0046 16.1194C23.4955 16.1194 23.8935 16.5078 23.8935 16.9869V20.1234H36.107V16.9869C36.107 16.5078 36.5049 16.1194 36.9958 16.1194C37.4867 16.1194 37.8846 16.5078 37.8846 16.9869V20.1234H40.9933C41.7666 20.1234 42.5035 20.4313 43.0431 20.9719C43.582 21.5116 43.8808 22.239 43.8808 22.993V28.996L43.8808 28.999L43.8808 29.0019V41.011C43.8808 41.7649 43.582 42.4924 43.0431 43.0321C42.5035 43.5727 41.7666 43.8806 40.9933 43.8806H19.0072C18.2338 43.8806 17.4969 43.5727 16.9573 43.0321C16.4184 42.4924 16.1196 41.7649 16.1196 41.011V22.993C16.1196 22.239 16.4184 21.5116 16.9573 20.9719C17.4969 20.4313 18.2338 20.1234 19.0072 20.1234H22.1158V16.9869C22.1158 16.5078 22.5137 16.1194 23.0046 16.1194ZM22.1158 21.8585H19.0072C18.7203 21.8585 18.4405 21.9724 18.2304 22.1828C18.0197 22.3939 17.8973 22.6849 17.8973 22.993V28.1314H42.1032V22.993C42.1032 22.6849 41.9808 22.3939 41.77 22.1828C41.56 21.9724 41.2801 21.8585 40.9933 21.8585H37.8846V24.995C37.8846 25.4741 37.4867 25.8625 36.9958 25.8625C36.5049 25.8625 36.107 25.4741 36.107 24.995V21.8585H23.8935V24.995C23.8935 25.4741 23.4955 25.8625 23.0046 25.8625C22.5137 25.8625 22.1158 25.4741 22.1158 24.995V21.8585ZM40.9256 42.1455H40.9933C41.0678 42.1455 41.1418 42.1378 41.2143 42.1227C41.1203 42.1377 41.0239 42.1455 40.9256 42.1455ZM23.9374 34.7714C23.2011 34.7714 22.6042 35.3541 22.6042 36.0727C22.6042 36.7914 23.2011 37.374 23.9374 37.374H36.063C36.7994 37.374 37.3963 36.7914 37.3963 36.0727C37.3963 35.3541 36.7994 34.7714 36.063 34.7714H23.9374Z" fill="#FF854F"/>
</svg>
