<svg width="60" height="60" viewBox="0 0 60 60" fill="none" xmlns="http://www.w3.org/2000/svg">
<circle cx="30" cy="30" r="30" fill="#E2F7F1"/>
<path fill-rule="evenodd" clip-rule="evenodd" d="M26.7487 41.9344C26.7487 41.4431 27.147 41.0448 27.6383 41.0448H32.3623C32.8536 41.0448 33.2519 41.4431 33.2519 41.9344C33.2519 42.4257 32.8536 42.824 32.3623 42.824H27.6383C27.147 42.824 26.7487 42.4257 26.7487 41.9344Z" fill="#01AA81"/>
<path fill-rule="evenodd" clip-rule="evenodd" d="M30.0002 16.4001C27.2648 16.4001 24.6375 17.4629 22.6974 19.3607C20.7566 21.2591 19.6626 23.8381 19.6626 26.5315V34.6181C19.6626 35.2949 19.388 35.948 18.8924 36.4327C18.3963 36.9181 17.7192 37.1941 17.0092 37.1941C16.5179 37.1941 16.1196 37.5924 16.1196 38.0837C16.1196 38.575 16.5179 38.9733 17.0092 38.9733H42.9912C43.4825 38.9733 43.8808 38.575 43.8808 38.0837C43.8808 37.5924 43.4825 37.1941 42.9912 37.1941C42.2812 37.1941 41.6042 36.9181 41.108 36.4327C40.6125 35.948 40.3378 35.2949 40.3378 34.6181V26.5315C40.3378 23.8381 39.2438 21.2591 37.303 19.3607C35.3629 17.4629 32.7357 16.4001 30.0002 16.4001Z" fill="#01AA81"/>
</svg>
