<svg width="32" height="32" viewBox="0 0 32 32" fill="none" xmlns="http://www.w3.org/2000/svg">
<path d="M16 0C7.17694 0 0 7.17694 0 16C0 24.8231 7.17694 32 16 32C24.8231 32 32 24.8231 32 16C32 7.17694 24.8231 0 16 0ZM16 30.72C12.3418 30.72 8.99581 29.3683 6.41919 27.1514C7.07456 26.825 7.75806 26.5613 8.43262 26.3219C10.5293 25.5821 12.1856 24.9971 12.1856 22.3885C12.1856 21.1571 11.5174 20.073 10.871 19.0234C10.3091 18.1108 9.77919 17.2506 9.77919 16.3597C9.77919 15.7043 9.89181 15.264 9.98269 14.9094C10.1184 14.3795 10.1862 14.112 9.74331 13.2288C8.68988 11.136 10.0096 6.97988 13.0534 5.11363C15.9961 3.31138 18.1926 3.4125 19.9423 5.43875C20.5029 5.51937 21.1929 5.83813 21.7651 6.76613C22.8748 8.56706 22.9619 11.8259 22.2553 13.2301C21.8137 14.1121 21.8816 14.3796 22.0173 14.9095C22.1081 15.2641 22.2208 15.7044 22.2208 16.3598C22.2208 17.2506 21.6908 18.1108 21.1289 19.0234C20.4826 20.0731 19.8144 21.1572 19.8144 22.3886C19.8144 24.9972 21.4707 25.5822 23.5673 26.322C24.2419 26.5614 24.9254 26.8251 25.5807 27.1514C23.0042 29.3683 19.6583 30.72 16 30.72Z" fill="#ED4D59"/>
</svg>
