<svg width="86" height="86" viewBox="0 0 86 86" fill="none" xmlns="http://www.w3.org/2000/svg">
<path d="M73.4057 12.5945C65.2839 4.47284 54.4857 0 43 0C31.5143 0 20.7161 4.47284 12.5943 12.5945C4.47284 20.7161 0 31.5143 0 43C0 54.4857 4.47284 65.2839 12.5943 73.4055C20.7161 81.5272 31.5143 86 43 86C54.4857 86 65.2839 81.5272 73.4057 73.4055C81.5272 65.2839 86 54.4857 86 43C86 31.5143 81.5272 20.7161 73.4057 12.5945ZM43 80.9609C31.7681 80.9609 21.6618 76.0559 14.7053 68.2775C19.0179 56.8443 30.0577 48.7109 43 48.7109C34.6509 48.7109 27.8828 41.9428 27.8828 33.5938C27.8828 25.2447 34.6509 18.4766 43 18.4766C51.3491 18.4766 58.1172 25.2447 58.1172 33.5938C58.1172 41.9428 51.3491 48.7109 43 48.7109C55.9423 48.7109 66.9821 56.8443 71.2947 68.2775C64.3382 76.0559 54.2319 80.9609 43 80.9609Z" fill="#D9E1EC"/>
</svg>
