<svg width="58" height="58" viewBox="0 0 58 58" fill="none" xmlns="http://www.w3.org/2000/svg">
<rect width="58" height="58" rx="16" fill="url(#paint0_linear_4203_17746)"/>
<path d="M31.3128 23.686H26.6868V25.1899H31.3128V23.686Z" fill="white"/>
<path d="M41.0882 40.3293H38.8324V18.4224C38.8324 17.1784 37.8205 16.1665 36.5765 16.1665H21.4232C20.1792 16.1665 19.1673 17.1784 19.1673 18.4224V40.3293H16.9114C15.9202 40.3293 15.9162 41.8332 16.9114 41.8332C21.971 41.8332 31.3622 41.8332 41.0882 41.8332C42.0795 41.8332 42.0835 40.3293 41.0882 40.3293ZM25.1829 25.9419V22.9341C25.1829 22.5185 25.5193 22.1821 25.9349 22.1821H32.0648C32.4804 22.1821 32.8168 22.5185 32.8168 22.9341V25.9419C32.8168 26.3575 32.4804 26.6938 32.0648 26.6938H25.9349C25.5193 26.6938 25.1829 26.3575 25.1829 25.9419ZM32.5906 31.0796C32.3198 31.3813 31.8091 31.3813 31.5383 31.0796C31.2391 30.811 31.2366 30.2982 31.5383 30.0274C31.8085 29.7417 32.3204 29.7417 32.5906 30.0274C32.8923 30.2982 32.8923 30.8088 32.5906 31.0796ZM37.3285 40.3293H35.8246V19.9263C35.8246 19.5106 35.4882 19.1743 35.0726 19.1743H22.9271C22.5114 19.1743 22.1751 19.5106 22.1751 19.9263V40.3293H20.6712V18.4224C20.6712 18.0075 21.0083 17.6704 21.4232 17.6704H36.5765C36.9914 17.6704 37.3285 18.0075 37.3285 18.4224V40.3293Z" fill="white"/>
<defs>
<linearGradient id="paint0_linear_4203_17746" x1="58" y1="0" x2="-11.83" y2="25.1388" gradientUnits="userSpaceOnUse">
<stop stop-color="#8060FF"/>
<stop offset="1" stop-color="#5731EC"/>
</linearGradient>
</defs>
</svg>
