<svg width="58" height="58" viewBox="0 0 58 58" fill="none" xmlns="http://www.w3.org/2000/svg">
<rect width="58" height="58" rx="16" fill="url(#paint0_linear_4203_17365)"/>
<path fill-rule="evenodd" clip-rule="evenodd" d="M33.6338 19.8627H29.694C29.1165 19.8627 28.5776 19.5932 28.2182 19.144L27.0889 17.6425C26.3574 16.7057 25.2422 16.1539 24.0474 16.1667H22.0198C17.3613 16.1667 15 18.8617 15 24.1747V33.8124C15 38.7789 18.0671 41.8332 23.0079 41.8332H30.4638C29.5411 40.5104 29 38.9016 29 37.1665C29 32.6562 32.6563 28.9998 37.1667 28.9998C38.4191 28.9998 39.6057 29.2818 40.6664 29.7856V27.5755C40.6793 22.3908 38.3693 19.8627 33.6338 19.8627ZM20.4688 22.3644H24.8438C25.4478 22.3644 25.9375 21.8747 25.9375 21.2707C25.9375 20.6666 25.4478 20.1769 24.8438 20.1769H20.4688C19.8647 20.1769 19.375 20.6666 19.375 21.2707C19.375 21.8747 19.8647 22.3644 20.4688 22.3644Z" fill="white"/>
<path fill-rule="evenodd" clip-rule="evenodd" d="M35.4259 30.9369C35.9086 30.8148 36.4136 30.75 36.9332 30.75C37.4528 30.75 37.9579 30.8148 38.4405 30.9369C38.8344 31.0366 39.0378 31.3768 39.1033 31.6596C39.1808 31.9945 39.391 32.2963 39.7115 32.4813C40.0061 32.6514 40.3393 32.6914 40.6465 32.619C40.9289 32.5524 41.3232 32.5841 41.5871 32.8921C42.0777 33.4646 42.4647 34.1291 42.7186 34.8565C42.8702 35.2907 42.6353 35.6817 42.3873 35.8861C42.1011 36.1219 41.9197 36.4778 41.9197 36.8763C41.9197 37.2749 42.1011 37.6307 42.3873 37.8666C42.6353 38.0709 42.8702 38.462 42.7186 38.8962C42.4647 39.6235 42.0778 40.2879 41.5872 40.8604C41.3234 41.1684 40.929 41.2001 40.6466 41.1335C40.3393 41.061 40.0061 41.101 39.7114 41.2711C39.3909 41.4562 39.1807 41.758 39.1032 42.093C39.0378 42.3758 38.8344 42.7161 38.4405 42.8158C37.9578 42.9379 37.4528 43.0027 36.9332 43.0027C36.4136 43.0027 35.9086 42.9379 35.426 42.8158C35.032 42.7161 34.8286 42.3758 34.7632 42.093C34.6857 41.758 34.4755 41.4562 34.155 41.2711C33.8603 41.101 33.5271 41.061 33.2198 41.1335C32.9374 41.2001 32.543 41.1684 32.2791 40.8604C31.7886 40.2879 31.4017 39.6235 31.1478 38.8962C30.9962 38.462 31.2311 38.0709 31.4791 37.8666C31.7653 37.6307 31.9467 37.2749 31.9467 36.8763C31.9467 36.4778 31.7653 36.1219 31.4791 35.8861C31.2311 35.6817 30.9962 35.2907 31.1478 34.8565C31.4017 34.1291 31.7887 33.4646 32.2793 32.892C32.5432 32.5841 32.9375 32.5524 33.2199 32.619C33.5272 32.6914 33.8603 32.6515 34.155 32.4813C34.4755 32.2963 34.6857 31.9945 34.7632 31.6596C34.8286 31.3768 35.032 31.0366 35.4259 30.9369ZM36.9339 38.5859C35.9896 38.5859 35.2242 37.8205 35.2242 36.8763C35.2242 35.932 35.9896 35.1666 36.9339 35.1666C37.8781 35.1666 38.6435 35.932 38.6435 36.8763C38.6435 37.8205 37.8781 38.5859 36.9339 38.5859Z" fill="white"/>
<defs>
<linearGradient id="paint0_linear_4203_17365" x1="8.64267e-07" y1="58" x2="69.83" y2="32.8612" gradientUnits="userSpaceOnUse">
<stop stop-color="#E3213A"/>
<stop offset="1" stop-color="#F15165"/>
</linearGradient>
</defs>
</svg>
