<svg width="58" height="58" viewBox="0 0 58 58" fill="none" xmlns="http://www.w3.org/2000/svg">
<rect width="58" height="58" rx="16" fill="url(#paint0_linear_4203_17005)"/>
<g clip-path="url(#clip0_4203_17005)">
<path fill-rule="evenodd" clip-rule="evenodd" d="M34 17.3335C32.058 17.3335 30.33 18.2582 29.2329 19.6912H18C17.2044 19.6912 16.4414 20.0073 15.8786 20.5701C15.3161 21.1327 15 21.8956 15 22.6915V36.6914C15 37.487 15.3161 38.2499 15.8786 38.8127C16.4414 39.3753 17.2044 39.6914 18 39.6914H40C40.7956 39.6914 41.5588 39.3753 42.1214 38.8127C42.6839 38.2499 43 37.487 43 36.6914V22.6915C43 21.8956 42.6839 21.1327 42.1214 20.5701C41.5588 20.0073 40.7956 19.6912 40 19.6912H38.7671C37.6701 18.2582 35.9421 17.3335 34 17.3335ZM34 29.3335C34.7011 29.3335 35.3743 29.2127 35.9999 28.9915V32.9685L34.3163 32.4071C34.1109 32.3387 33.8891 32.3387 33.6837 32.4071L32.0001 32.9685V28.9915C32.6258 29.2127 33.299 29.3335 34 29.3335ZM27 32.6913H19.0001C18.4481 32.6913 18 32.2432 18 31.6912C18 31.1395 18.4481 30.6914 19.0001 30.6914H27C27.552 30.6914 28 31.1395 28 31.6912C28 32.2432 27.552 32.6913 27 32.6913ZM26.0001 28.6912H19.0001C18.4481 28.6912 18 28.2431 18 27.6914C18 27.1394 18.4481 26.6913 19.0001 26.6913H26.0001C26.5519 26.6913 27 27.1394 27 27.6914C27 28.2431 26.5519 28.6912 26.0001 28.6912ZM32.5753 27.0718C30.9386 26.563 29.7501 25.0364 29.7501 23.2323C29.7501 21.0121 31.5499 19.2123 33.7701 19.2123C34.5063 19.2123 35.1963 19.4102 35.7898 19.7557C36.986 20.4522 37.7901 21.7483 37.7901 23.2323C37.7901 25.4525 35.9903 27.2523 33.7701 27.2523C33.354 27.2523 32.9528 27.1891 32.5753 27.0718Z" fill="white"/>
</g>
<defs>
<linearGradient id="paint0_linear_4203_17005" x1="55.9286" y1="2.07143" x2="8.7" y2="58" gradientUnits="userSpaceOnUse">
<stop stop-color="#17BA92"/>
<stop offset="1" stop-color="#0C9D7A"/>
</linearGradient>
<clipPath id="clip0_4203_17005">
<rect width="28" height="28" fill="white" transform="translate(15 15)"/>
</clipPath>
</defs>
</svg>
