<svg width="58" height="58" viewBox="0 0 58 58" fill="none" xmlns="http://www.w3.org/2000/svg">
<rect width="58" height="58" rx="16" fill="url(#paint0_linear_4203_17396)"/>
<path d="M40.4225 17.3335H28.1211C26.6975 17.3335 25.5437 18.4875 25.5437 19.9109V25.9703C26.194 26.2935 26.8966 26.643 27.5524 26.969L28.5558 24.9613C29.1633 23.7473 30.6444 23.2541 31.858 23.8605C33.0741 24.4691 33.567 25.9461 32.9581 27.1625L31.1695 30.7407C31.2169 31.2143 31.1748 31.6917 31.0413 32.1538H32.2222L29.1076 40.7184C28.9228 41.2264 29.28 41.8192 29.8788 41.8192C30.2135 41.8192 30.5284 41.6126 30.6493 41.2789L33.9677 32.1538H34.5426L37.8947 41.2817C38.0167 41.6137 38.3307 41.8192 38.6653 41.8192C39.2248 41.8192 39.6349 41.2603 39.4348 40.7162L36.2902 32.1538H40.4225C41.8459 32.1538 42.9999 30.9998 42.9999 29.5764V19.9109C42.9999 18.4875 41.8459 17.3335 40.4225 17.3335V17.3335ZM38.6649 28.6395H34.9843C34.5315 28.6395 34.164 28.2721 34.164 27.8192C34.164 27.3659 34.5315 26.9989 34.9843 26.9989H38.6649C39.1182 26.9989 39.4852 27.3659 39.4852 27.8192C39.4852 28.2721 39.1182 28.6395 38.6649 28.6395ZM38.6649 25.564H34.9843C34.5315 25.564 34.164 25.197 34.164 24.7437C34.164 24.2908 34.5315 23.9233 34.9843 23.9233H38.6649C39.1182 23.9233 39.4852 24.2908 39.4852 24.7437C39.4852 25.197 39.1182 25.564 38.6649 25.564ZM38.6649 22.4889H29.8788C29.4254 22.4889 29.0584 22.1214 29.0584 21.6685C29.0584 21.2157 29.4254 20.8482 29.8788 20.8482H38.6649C39.1182 20.8482 39.4852 21.2157 39.4852 21.6685C39.4852 22.1214 39.1182 22.4889 38.6649 22.4889Z" fill="white"/>
<path d="M29.4332 31.802C29.5815 31.3677 29.5804 30.9139 29.4552 30.4999L31.4911 26.4287C31.6936 26.0235 31.5295 25.5306 31.1243 25.3281C30.7192 25.1254 30.2264 25.2897 30.0237 25.6949L28.2874 29.1671C27.2496 28.6504 25.6728 27.8664 24.4026 27.2347C23.2209 26.647 22.3775 26.12 20.9385 26.12H20.2137C21.3341 26.12 22.3341 25.6043 22.9886 24.7973C23.4881 24.1831 23.7867 23.4004 23.7867 22.5474C23.7867 20.5737 22.1871 18.9741 20.2133 18.9741C18.2402 18.9741 16.6406 20.5737 16.6406 22.5474C16.6406 23.4952 17.0098 24.3566 17.612 24.9957C18.2631 25.6881 19.1879 26.12 20.213 26.1202C18.8386 26.1202 17.4949 26.6772 16.5283 27.6464C15.5428 28.6292 15 29.9388 15 31.3337V33.9696C15 35.1044 15.7368 36.0699 16.7573 36.4135V40.9987C16.7573 41.4518 17.1245 41.819 17.5776 41.819H22.8494C23.3025 41.819 23.6697 41.4518 23.6697 40.9987V31.7819C24.4475 32.1707 25.4692 32.6815 26.296 33.095C26.8755 33.3847 27.5527 33.4108 28.1566 33.1651C28.7588 32.9173 29.223 32.424 29.43 31.8116C29.4311 31.8084 29.4322 31.8052 29.4332 31.802Z" fill="white"/>
<defs>
<linearGradient id="paint0_linear_4203_17396" x1="58" y1="0" x2="6.62857" y2="58" gradientUnits="userSpaceOnUse">
<stop stop-color="#FF8C59"/>
<stop offset="1" stop-color="#EE6315"/>
</linearGradient>
</defs>
</svg>
