<svg width="58" height="58" viewBox="0 0 58 58" fill="none" xmlns="http://www.w3.org/2000/svg">
<rect width="58" height="58" rx="16" fill="url(#paint0_linear_4203_16533)"/>
<path fill-rule="evenodd" clip-rule="evenodd" d="M15 20.8333C15 17.6117 17.6117 15 20.8333 15H37.1667C40.3883 15 43 17.6117 43 20.8333V37.1667C43 40.3883 40.3883 43 37.1667 43H20.8333C17.6117 43 15 40.3883 15 37.1667V20.8333ZM39.1422 29.6696C39.5121 29.223 39.4498 28.5611 39.0031 28.1912C38.5565 27.8214 37.8946 27.8837 37.5247 28.3304L32.3708 34.5549C32.3314 34.6026 32.2617 34.6111 32.2119 34.5745L27.1634 30.8635C26.2146 30.1661 24.8861 30.3322 24.1383 31.2417L18.8558 37.6665C18.4875 38.1144 18.552 38.7761 19 39.1444C19.4479 39.5127 20.1096 39.4481 20.4779 39.0002L25.7604 32.5755C25.7997 32.5276 25.8697 32.5188 25.9196 32.5555L30.9681 36.2666C31.9145 36.9623 33.2392 36.7989 33.9883 35.8942L39.1422 29.6696ZM20.3349 28.0826C20.4773 28.1381 20.6255 28.1644 20.771 28.1644C21.1991 28.1644 21.6065 27.9377 21.7866 27.559L22.0752 26.9514H25.7451L26.0506 27.5715C26.2995 28.0761 26.9525 28.3026 27.5098 28.0771C28.0671 27.8517 28.3168 27.2597 28.0682 26.7551L24.8661 20.2594C24.6872 19.8966 24.287 19.6628 23.8497 19.6667C23.4112 19.6696 23.016 19.907 22.8425 20.2719L19.7569 26.7676C19.5158 27.2754 19.7744 27.8642 20.3349 28.0826ZM23.8762 23.1601L24.7583 24.9497H23.026L23.8762 23.1601ZM30.0561 23.8448H29.3075C28.6761 23.8448 28.1644 23.3328 28.1644 22.7014C28.1644 22.0704 28.6761 21.5584 29.3075 21.5584H30.0561V20.8097C30.0561 20.1784 30.5681 19.6667 31.1992 19.6667C31.8306 19.6667 32.3422 20.1784 32.3422 20.8097V21.5587H33.0912C33.7226 21.5587 34.2342 22.0704 34.2342 22.7017C34.2342 23.3328 33.7226 23.8448 33.0912 23.8448H32.3422V24.5934C32.3422 25.2248 31.8306 25.7365 31.1992 25.7365C30.5681 25.7365 30.0561 25.2248 30.0561 24.5934V23.8448Z" fill="white"/>
<defs>
<linearGradient id="paint0_linear_4203_16533" x1="58" y1="0" x2="6.62857" y2="58" gradientUnits="userSpaceOnUse">
<stop stop-color="#FF8C59"/>
<stop offset="1" stop-color="#EE6315"/>
</linearGradient>
</defs>
</svg>
