<svg width="58" height="58" viewBox="0 0 58 58" fill="none" xmlns="http://www.w3.org/2000/svg">
<rect width="58" height="58" rx="16" fill="url(#paint0_linear_4203_18438)"/>
<g clip-path="url(#clip0_4203_18438)">
<path fill-rule="evenodd" clip-rule="evenodd" d="M22 16.1665C22.6443 16.1665 23.1667 16.6888 23.1667 17.3332V18.4998H34.8333V17.3332C34.8333 16.6888 35.3556 16.1665 36 16.1665C36.6443 16.1665 37.1667 16.6888 37.1667 17.3332V18.4998H39.5C41.433 18.4998 43 20.0668 43 21.9998V38.3332C43 40.2662 41.433 41.8332 39.5 41.8332H18.5C16.567 41.8332 15 40.2662 15 38.3332V21.9998C15 20.0668 16.567 18.4998 18.5 18.4998H20.8333V17.3332C20.8333 16.6888 21.3557 16.1665 22 16.1665ZM36 26.6665C36.6443 26.6665 37.1667 26.1442 37.1667 25.4998C37.1667 24.8555 36.6443 24.3332 36 24.3332H22C21.3557 24.3332 20.8333 24.8555 20.8333 25.4998C20.8333 26.1442 21.3557 26.6665 22 26.6665H36ZM37.1667 30.1665C37.1667 30.8109 36.6443 31.3332 36 31.3332H22C21.3557 31.3332 20.8333 30.8109 20.8333 30.1665C20.8333 29.5222 21.3557 28.9998 22 28.9998H36C36.6443 28.9998 37.1667 29.5222 37.1667 30.1665ZM26.6667 35.9998C27.311 35.9998 27.8333 35.4775 27.8333 34.8332C27.8333 34.1888 27.311 33.6665 26.6667 33.6665H22C21.3557 33.6665 20.8333 34.1888 20.8333 34.8332C20.8333 35.4775 21.3557 35.9998 22 35.9998H26.6667Z" fill="white"/>
</g>
<defs>
<linearGradient id="paint0_linear_4203_18438" x1="8.64267e-07" y1="58" x2="69.83" y2="32.8612" gradientUnits="userSpaceOnUse">
<stop stop-color="#E3213A"/>
<stop offset="1" stop-color="#F15165"/>
</linearGradient>
<clipPath id="clip0_4203_18438">
<rect width="28" height="28" fill="white" transform="translate(15 15)"/>
</clipPath>
</defs>
</svg>
