<svg width="58" height="58" viewBox="0 0 58 58" fill="none" xmlns="http://www.w3.org/2000/svg">
<rect width="58" height="58" rx="16" fill="url(#paint0_linear_4203_17108)"/>
<path d="M38.2179 18.0333H37.3744V17.113C37.3744 15.9477 36.4549 15.0005 35.3233 15.0005C34.191 15.0005 33.2723 15.9477 33.2723 17.113V18.0326H31.1674V17.113C31.1674 15.9477 30.2479 15.0005 29.1163 15.0005C27.9848 15.0005 27.0652 15.9477 27.0652 17.113V18.0326H24.9604V17.113C24.9604 15.9477 24.0408 15.0005 22.9093 15.0005C21.7777 15.0005 20.8582 15.9477 20.8582 17.113V18.0326H19.7812C17.9813 18.0326 16.5164 19.4975 16.5164 21.2974V22.8338H18.4368H39.5623H41.4827V21.2974C41.4827 19.4983 40.0186 18.0333 38.2179 18.0333ZM23.8081 20.8741C23.8081 21.4034 23.4048 21.8344 22.9093 21.8344C22.4138 21.8344 22.0105 21.4034 22.0105 20.8741V17.113C22.0105 16.5837 22.4138 16.1528 22.9093 16.1528C23.4048 16.1528 23.8081 16.5837 23.8081 17.113V20.8741ZM30.0151 20.8741C30.0151 21.4034 29.6118 21.8344 29.1163 21.8344C28.6208 21.8344 28.2175 21.4034 28.2175 20.8741V17.113C28.2175 16.5837 28.6208 16.1528 29.1163 16.1528C29.6118 16.1528 30.0151 16.5837 30.0151 17.113V20.8741ZM36.2221 20.8741C36.2221 21.4034 35.8188 21.8344 35.3233 21.8344C34.8271 21.8344 34.4246 21.4034 34.4246 20.8741V17.113C34.4246 16.5837 34.8271 16.1528 35.3233 16.1528C35.8188 16.1528 36.2221 16.5837 36.2221 17.113V20.8741Z" fill="white"/>
<path d="M16.5164 39.7349C16.5164 41.5348 17.9813 42.9997 19.7812 42.9997H38.2179C40.0186 42.9997 41.4827 41.5348 41.4827 39.7349V24.2949H16.5164V39.7349ZM34.3032 26.7647H37.8338V29.9051H34.3032V26.7647ZM34.3032 30.9567H37.8338V34.0956H34.3032V30.9567ZM34.3032 35.1495H37.8338V38.2884H34.3032V35.1495ZM29.5926 26.7647H33.1225V29.9051H29.5926V26.7647ZM29.5926 30.9567H33.1225V34.0956H29.5926V30.9567ZM29.5926 35.1495H33.1225V38.2884H29.5926V35.1495ZM24.8782 26.7647H28.4088V29.9051H24.8782V26.7647ZM24.8782 30.9567H28.4088V34.0956H24.8782V30.9567ZM24.8782 35.1495H28.4088V38.2884H24.8782V35.1495ZM20.1653 30.9567H23.6959V34.0956H20.1653V30.9567ZM20.1653 35.1495H23.6959V38.2884H20.1653V35.1495Z" fill="white"/>
<defs>
<linearGradient id="paint0_linear_4203_17108" x1="58" y1="0" x2="6.62857" y2="58" gradientUnits="userSpaceOnUse">
<stop stop-color="#FF8C59"/>
<stop offset="1" stop-color="#EE6315"/>
</linearGradient>
</defs>
</svg>
