<svg width="58" height="58" viewBox="0 0 58 58" fill="none" xmlns="http://www.w3.org/2000/svg">
<rect width="58" height="58" rx="16" fill="url(#paint0_linear_4203_17035)"/>
<path fill-rule="evenodd" clip-rule="evenodd" d="M15 22C15 18.134 18.134 15 22 15H36C39.866 15 43 18.134 43 22V36C43 39.866 39.866 43 36 43H22C18.134 43 15 39.866 15 36V22ZM28.8301 25.0806C30.9695 25.0806 32.7037 23.3463 32.7037 21.207C32.7037 19.0676 30.9695 17.3333 28.8301 17.3333C26.6907 17.3333 24.9565 19.0676 24.9565 21.207C24.9565 23.3463 26.6907 25.0806 28.8301 25.0806ZM28.8303 26.4477C29.8789 26.4477 30.8565 26.1379 31.6767 25.6053C32.5833 25.9517 33.4239 26.463 34.1549 27.119L28.8303 29.1158L23.5056 27.119C24.2366 26.463 25.0772 25.9518 25.9839 25.6053C26.804 26.1379 27.7816 26.4477 28.8303 26.4477ZM36.5774 31.4607C36.1999 31.4607 35.8938 31.7668 35.8938 32.1443V33.9672C35.8938 34.3447 36.1999 34.6508 36.5774 34.6508H37.0331C37.914 34.6508 38.6281 33.9367 38.6281 33.0558C38.6281 32.1748 37.914 31.4607 37.0331 31.4607H36.5774ZM20.855 28.5721C20.855 28.3478 20.9649 28.1379 21.1492 28.0102C21.3334 27.8824 21.5686 27.8532 21.7786 27.932L28.1465 30.32V40.6667L21.2985 38.0987C21.0317 37.9987 20.855 37.7436 20.855 37.4586V36.0183H21.0828C22.2136 36.0183 23.1336 35.0984 23.1336 33.9676V32.1447C23.1336 31.0139 22.2136 30.0939 21.0828 30.0939H20.855V28.5721ZM34.5266 33.9676V32.1447C34.5266 31.0139 35.4466 30.0939 36.5774 30.0939H36.8052V28.5721C36.8052 28.3478 36.6953 28.1379 36.511 28.0102C36.3267 27.8824 36.0915 27.8532 35.8816 27.932L29.5137 30.32V40.6667L36.3617 38.0987C36.6285 37.9987 36.8052 37.7436 36.8052 37.4586V36.0183H36.5774C35.4466 36.0183 34.5266 35.0984 34.5266 33.9676ZM21.7664 32.1443V33.9672C21.7664 34.3447 21.4603 34.6508 21.0828 34.6508H20.6271C19.7462 34.6508 19.0321 33.9367 19.0321 33.0558C19.0321 32.1748 19.7462 31.4607 20.6271 31.4607H21.0828C21.4603 31.4607 21.7664 31.7668 21.7664 32.1443Z" fill="white"/>
<defs>
<linearGradient id="paint0_linear_4203_17035" x1="58" y1="0" x2="6.62857" y2="58" gradientUnits="userSpaceOnUse">
<stop stop-color="#FF8C59"/>
<stop offset="1" stop-color="#EE6315"/>
</linearGradient>
</defs>
</svg>
