<svg width="58" height="58" viewBox="0 0 58 58" fill="none" xmlns="http://www.w3.org/2000/svg">
<rect width="58" height="58" rx="16" fill="url(#paint0_linear_4203_17063)"/>
<path fill-rule="evenodd" clip-rule="evenodd" d="M33.6773 29.3334C33.6773 30.4379 32.7819 31.3333 31.6773 31.3333H26.3221C25.2175 31.3333 24.3221 30.4379 24.3221 29.3333V26.2232C24.3221 25.454 24.9667 24.8285 25.7594 24.8285H26.4074C27.1981 25.2533 28.0907 25.4776 28.9997 25.4776C29.9086 25.4776 30.8009 25.2533 31.592 24.8285H32.2399C33.0327 24.8285 33.6773 25.454 33.6773 26.2232L33.6773 29.3334ZM28.9997 24.397C27.5621 24.397 26.3919 23.2617 26.3919 21.8667C26.3919 20.4716 27.5621 19.3362 28.9997 19.3362C30.4373 19.3362 31.6074 20.4716 31.6074 21.8667C31.6074 23.2617 30.4373 24.397 28.9997 24.397ZM32.2399 23.7479C33.6468 23.7479 34.7909 24.8583 34.7909 26.2233V26.4705H37.5C38.6046 26.4705 39.5 25.575 39.5 24.4705V17C39.5 15.8954 38.6046 15 37.5 15H20.5C19.3954 15 18.5 15.8954 18.5 17V24.4705C18.5 25.575 19.3954 26.4705 20.5 26.4705H23.2085V26.2233C23.2085 24.8583 24.3526 23.7479 25.7594 23.7479H25.8242C25.478 23.1998 25.2782 22.5555 25.2782 21.8667C25.2782 19.8753 26.9473 18.2557 28.9997 18.2557C31.0521 18.2557 32.7211 19.8753 32.7211 21.8667C32.7211 22.5555 32.5213 23.1998 32.1752 23.7479H32.2399Z" fill="white"/>
<path d="M17.8555 42.762H25.6526C26.1766 42.762 26.6586 42.5314 26.9728 42.1227C27.2977 41.7245 27.4236 41.2005 27.3082 40.7079C27.0045 39.3875 26.2707 38.2767 25.2752 37.4907C24.5417 38.654 23.2317 39.4189 21.7646 39.4189C20.2868 39.4189 18.9874 38.654 18.2329 37.4907C17.2373 38.2662 16.5141 39.3875 16.2104 40.6975C16.095 41.2005 16.2104 41.7245 16.535 42.1227C16.86 42.5314 17.342 42.762 17.8555 42.762V42.762Z" fill="white"/>
<path d="M21.7542 37.8473C23.2011 37.8473 24.3741 36.6743 24.3741 35.2273C24.3741 33.7804 23.2011 32.6074 21.7542 32.6074C20.3073 32.6074 19.1343 33.7804 19.1343 35.2273C19.1343 36.6743 20.3073 37.8473 21.7542 37.8473Z" fill="white"/>
<path d="M31.8733 42.762H39.7528C40.2823 42.762 40.7695 42.5291 41.087 42.116C41.4153 41.7136 41.5425 41.184 41.4259 40.6863C41.119 39.3519 40.3775 38.2293 39.3714 37.4351C38.6302 38.6106 37.3064 39.3837 35.8238 39.3837C34.3304 39.3837 33.0172 38.6106 32.2547 37.4351C31.2487 38.2187 30.5177 39.3519 30.2108 40.6757C30.0942 41.184 30.2108 41.7136 30.5389 42.116C30.8673 42.5291 31.3544 42.762 31.8733 42.762V42.762Z" fill="white"/>
<path d="M35.8131 37.7952C37.2754 37.7952 38.4607 36.6098 38.4607 35.1476C38.4607 33.6854 37.2754 32.5 35.8131 32.5C34.3509 32.5 33.1655 33.6854 33.1655 35.1476C33.1655 36.6098 34.3509 37.7952 35.8131 37.7952Z" fill="white"/>
<defs>
<linearGradient id="paint0_linear_4203_17063" x1="58" y1="0" x2="6.62857" y2="58" gradientUnits="userSpaceOnUse">
<stop stop-color="#FF8C59"/>
<stop offset="1" stop-color="#EE6315"/>
</linearGradient>
</defs>
</svg>
