<svg width="58" height="58" viewBox="0 0 58 58" fill="none" xmlns="http://www.w3.org/2000/svg">
<rect width="58" height="58" rx="16" fill="url(#paint0_linear_4203_18388)"/>
<path d="M33.2872 20.2818C33.1818 20.1128 32.8536 19.9658 32.6544 19.9658H27.0388C26.8395 19.9658 26.8327 20.1157 26.9313 20.2886L36.8587 37.528C36.9574 37.7009 37.1917 37.7121 37.3817 37.6535L42.7966 35.9419C42.987 35.8834 43.0559 35.6577 42.9504 35.4888L33.2872 20.2818Z" fill="white"/>
<path d="M19.8274 37.5316L24.6178 27.3063V37.199C24.6178 38.0843 25.5563 38.0336 25.7556 38.0336H35.0911C35.2903 38.0336 35.3714 37.7128 35.2728 37.5399L25.6276 20.4436C25.529 20.2708 25.3693 20.2708 25.2707 20.4436L22.8555 24.6846C22.7569 24.8574 22.5362 25.0762 22.3619 25.1729C19.9188 26.5284 16.6242 28.3386 15.1642 28.9793C14.9454 29.0755 14.9576 29.3513 15.128 29.5184C15.4527 29.8358 16.1427 30.562 16.78 31.4365C17.1506 31.9453 17.4748 32.5127 17.7405 33.0758C17.8255 33.256 17.8093 33.5441 17.7107 33.7174L15.6364 37.5399C15.5387 37.7128 15.6203 38.0336 15.8195 38.0336H19.3036C19.5027 38.0336 19.7371 37.7094 19.8274 37.5316ZM17.0416 29.6537C16.9523 29.5746 16.9625 29.4691 17.0685 29.4134C18.0964 28.8753 22.9595 26.3229 24.3116 25.4962C24.4137 25.4337 24.4508 25.4669 24.3966 25.5734L19.7869 34.6316C19.7327 34.738 19.6707 34.7292 19.6444 34.6125C19.471 33.8468 18.7673 31.1801 17.0416 29.6537Z" fill="white"/>
<defs>
<linearGradient id="paint0_linear_4203_18388" x1="55.9286" y1="2.07143" x2="8.7" y2="58" gradientUnits="userSpaceOnUse">
<stop stop-color="#17BA92"/>
<stop offset="1" stop-color="#0C9D7A"/>
</linearGradient>
</defs>
</svg>
