<svg width="58" height="58" viewBox="0 0 58 58" fill="none" xmlns="http://www.w3.org/2000/svg">
<rect width="58" height="58" rx="16" fill="url(#paint0_linear_4203_17344)"/>
<path d="M23.749 15.8755C23.0295 15.8755 22.4383 16.4675 22.4383 17.1871V17.6229H32.5016C33.7034 17.6229 34.6883 18.6137 34.6883 19.8129V24.628H36.4383V17.1871C36.4383 16.4675 35.8436 15.8755 35.124 15.8755H23.749ZM21.1232 18.4979C20.4036 18.4979 19.8124 19.0934 19.8124 19.8129V24.628H21.5615V23.2899C21.5615 23.0819 21.7424 22.8729 22.0127 22.8729C23.2028 22.8556 24.1464 21.9272 24.184 20.7581C24.1743 20.4297 24.3792 20.2505 24.6232 20.2505H28.999C29.2482 20.2508 29.4468 20.4587 29.4357 20.7076C29.4467 21.8733 30.3569 22.8103 31.5104 22.8678C31.8031 22.8678 32.0747 23.0159 32.0607 23.3121V24.628H33.8124V19.8129C33.8124 19.0934 33.2212 18.4979 32.5016 18.4979H21.1232ZM18.5016 21.1238C17.0575 21.1238 15.88 22.2988 15.8758 23.7419C15.8757 23.7447 15.8757 23.7474 15.8758 23.7502V39.5011C15.8758 40.9477 17.0549 42.126 18.5016 42.126H39.4999C40.2195 42.126 40.8107 41.5314 40.8107 40.8118V37.7502H34.6883C32.5252 37.7502 30.7516 35.9766 30.7516 33.8135C30.7516 31.6504 32.5252 29.8769 34.6883 29.8769H40.8107V26.8118C40.8107 26.0922 40.2195 25.5002 39.4999 25.5002H18.5016C17.5245 25.5002 16.7508 24.7273 16.7508 23.7502C16.7508 22.7731 17.5245 21.9993 18.5016 21.9993H18.9374V21.1243L18.5016 21.1238ZM37.3124 21.1238V21.9988H37.749C37.999 21.9988 38.1875 22.1882 38.1891 22.4414V24.6246H39.0641V22.438C39.0641 22.4369 39.0641 22.4358 39.0641 22.4347C39.0596 21.7184 38.4686 21.1239 37.749 21.1239L37.3124 21.1238ZM25.0291 21.1271C24.8352 22.4621 23.7716 23.5269 22.4365 23.7204V24.6288H31.1857V23.7196C29.8494 23.527 28.7846 22.4629 28.5906 21.1271H25.0291ZM34.6883 30.7521C32.9992 30.7521 31.6266 32.1247 31.6266 33.8137C31.6266 35.5028 32.9992 36.8754 34.6883 36.8754H40.8107C41.5302 36.8754 42.1257 36.2832 42.1257 35.5637V32.0628C42.1257 31.3432 41.5302 30.752 40.8107 30.752L34.6883 30.7521ZM34.6883 32.4986C35.4078 32.4986 35.999 33.0941 35.999 33.8137C35.999 34.5333 35.4078 35.1245 34.6883 35.1245C33.9687 35.1245 33.3732 34.5333 33.3732 33.8137C33.3732 33.0941 33.9687 32.4986 34.6883 32.4986Z" fill="white"/>
<defs>
<linearGradient id="paint0_linear_4203_17344" x1="29" y1="0" x2="29" y2="58" gradientUnits="userSpaceOnUse">
<stop stop-color="#FFD03D"/>
<stop offset="1" stop-color="#FFAC2E"/>
</linearGradient>
</defs>
</svg>
