<svg width="58" height="58" viewBox="0 0 58 58" fill="none" xmlns="http://www.w3.org/2000/svg">
<rect width="58" height="58" rx="16" fill="url(#paint0_linear_4203_16514)"/>
<path d="M40.663 19.043H17.3365C16.0977 19.043 15.0935 20.0472 15.0935 21.2859V36.7145C15.0935 37.9533 16.0977 38.9575 17.3365 38.9575H40.663C41.9017 38.9575 42.9059 37.9533 42.9059 36.7145V21.2859C42.9059 20.0471 41.9017 19.043 40.663 19.043ZM18.6822 29.6145V23.9773C18.6822 23.2341 19.2847 22.6315 20.028 22.6315H25.7621C26.5054 22.6315 27.1079 23.2341 27.1079 23.9773V29.6145C27.1079 30.3577 26.5054 30.9603 25.7621 30.9603H25.1744C25.1744 29.6999 24.1603 28.6808 22.895 28.6808C21.6396 28.6808 20.6156 29.6999 20.6156 30.9603H20.028C19.2848 30.9603 18.6822 30.3577 18.6822 29.6145ZM20.7886 33.8296C20.5406 33.8296 20.34 33.6289 20.34 33.381C20.34 33.133 20.5406 32.9324 20.7886 32.9324H25.0015C25.2495 32.9324 25.4501 33.133 25.4501 33.381C25.4501 33.6289 25.2495 33.8296 25.0015 33.8296H20.7886ZM39.3173 35.8175H25.5973C25.3493 35.8175 25.1487 35.6169 25.1487 35.3689C25.1487 35.121 25.3493 34.9203 25.5973 34.9203H39.3173C39.5652 34.9203 39.7659 35.121 39.7659 35.3689C39.7659 35.6169 39.5652 35.8175 39.3173 35.8175ZM39.3173 32.6332H30.0086C29.7607 32.6332 29.56 32.4325 29.56 32.1846C29.56 31.9366 29.7607 31.736 30.0086 31.736H39.3173C39.5652 31.736 39.7659 31.9366 39.7659 32.1846C39.7659 32.4325 39.5652 32.6332 39.3173 32.6332ZM39.3173 29.4489H30.0086C29.7607 29.4489 29.56 29.2482 29.56 29.0003C29.56 28.7523 29.7607 28.5516 30.0086 28.5516H39.3173C39.5652 28.5516 39.7659 28.7523 39.7659 29.0003C39.7659 29.2482 39.5652 29.4489 39.3173 29.4489ZM39.3173 26.2645H30.0086C29.7607 26.2645 29.56 26.0639 29.56 25.8159C29.56 25.568 29.7607 25.3673 30.0086 25.3673H39.3173C39.5652 25.3673 39.7659 25.568 39.7659 25.8159C39.7658 26.0639 39.5652 26.2645 39.3173 26.2645ZM39.3173 23.0802H30.0086C29.7607 23.0802 29.56 22.8795 29.56 22.6316C29.56 22.3836 29.7607 22.183 30.0086 22.183H39.3173C39.5652 22.183 39.7659 22.3836 39.7659 22.6316C39.7658 22.8795 39.5652 23.0802 39.3173 23.0802Z" fill="white"/>
<path d="M22.8949 27.2273C23.6334 27.2273 24.2291 26.6316 24.2291 25.8932C24.2291 25.1547 23.6334 24.5591 22.8949 24.5591C22.1614 24.5591 21.5608 25.1547 21.5608 25.8932C21.5608 26.6317 22.1614 27.2273 22.8949 27.2273Z" fill="white"/>
<defs>
<linearGradient id="paint0_linear_4203_16514" x1="29" y1="0" x2="29" y2="58" gradientUnits="userSpaceOnUse">
<stop stop-color="#FFD03D"/>
<stop offset="1" stop-color="#FFAC2E"/>
</linearGradient>
</defs>
</svg>
