<svg width="58" height="58" viewBox="0 0 58 58" fill="none" xmlns="http://www.w3.org/2000/svg">
<rect width="58" height="58" rx="16" fill="url(#paint0_linear_4203_18444)"/>
<path d="M17.3333 27.9337V38.0918C17.3333 40.155 19.0115 41.8332 21.0747 41.8332H37.7876C39.8508 41.8332 41.529 40.155 41.529 38.0918V27.9337H17.3333ZM34.293 32.0206L28.7253 36.6406C28.5575 36.7887 28.3502 36.8479 28.1429 36.8479C27.8961 36.8479 27.6493 36.7492 27.4716 36.5518L25.1616 34.0443C24.8259 33.6692 24.8457 33.0868 25.2208 32.7511C25.5959 32.4056 26.1784 32.4254 26.514 32.8104L28.2416 34.6662L33.1281 30.6089C33.523 30.293 34.0956 30.3424 34.4213 30.7274C34.7274 31.1223 34.678 31.7047 34.293 32.0206ZM41.5191 22.3364V26.1074H17.3333V22.3364C17.3333 20.2732 19.0115 18.6048 21.0747 18.6048H22.2988V17.0846C22.2889 16.5811 22.7035 16.1665 23.207 16.1665C23.7104 16.1665 24.125 16.5811 24.125 17.0846V18.6048H34.7076V17.0846C34.7076 16.5811 35.1124 16.1665 35.6257 16.1665C36.1292 16.1665 36.5438 16.5811 36.5438 17.0846V18.6048H37.7777C39.8409 18.6048 41.5191 20.2732 41.5191 22.3364Z" fill="white"/>
<defs>
<linearGradient id="paint0_linear_4203_18444" x1="29" y1="0" x2="29" y2="58" gradientUnits="userSpaceOnUse">
<stop stop-color="#FFD03D"/>
<stop offset="1" stop-color="#FFAC2E"/>
</linearGradient>
</defs>
</svg>
