<svg width="58" height="58" viewBox="0 0 58 58" fill="none" xmlns="http://www.w3.org/2000/svg">
<rect width="58" height="58" rx="16" fill="url(#paint0_linear_4203_16835)"/>
<g clip-path="url(#clip0_4203_16835)">
<path d="M40.5391 34.6328H17.4609C16.1047 34.6328 15 35.7375 15 37.0938C15 38.45 16.1047 39.5547 17.4609 39.5547H26.2656V42.7266C26.2656 42.8305 26.3094 42.9234 26.4023 42.9727C26.4953 43.0219 26.5992 43.0109 26.6813 42.9508L27.9117 42.0539L29.1422 42.9508C29.1914 42.9836 29.2461 43.0055 29.3008 43.0055C29.3445 43.0055 29.3719 42.9945 29.4102 42.9781C29.5031 42.9289 29.5469 42.8359 29.5469 42.732V39.5602H40.5391C41.8953 39.5602 43 38.4555 43 37.0992C43 35.743 41.8953 34.6328 40.5391 34.6328ZM27.7531 35.1797C27.1953 35.6172 26.8344 36.3227 26.8344 37.0938C26.8344 37.75 27.0914 38.368 27.5563 38.8328C27.6164 38.893 27.682 38.9531 27.7477 39.0078H26.5062C25.4508 39.0078 24.5922 38.1492 24.5922 37.0938C24.5922 36.0383 25.4508 35.1797 26.5062 35.1797H27.7531ZM29 42.1906L28.0539 41.4961C28.0047 41.4633 27.9555 41.4414 27.9008 41.4414C27.8461 41.4414 27.8023 41.4578 27.7586 41.4961L26.8125 42.1906V39.5547H29V42.1906ZM40.5391 39.0078C39.4836 39.0078 38.625 38.1492 38.625 37.0938C38.625 36.0383 39.4836 35.1797 40.5391 35.1797C41.5945 35.1797 42.4531 36.0383 42.4531 37.0938C42.4531 38.1492 41.5945 39.0078 40.5391 39.0078Z" fill="white"/>
<path d="M38.6249 28.1358C38.0507 28.2616 37.6241 28.7702 37.6241 29.3827C37.6241 29.7601 37.7882 30.0937 38.0452 30.3288C37.4819 30.6296 37.0991 31.2202 37.0991 31.8983V33.6483C37.0991 33.8015 37.2413 33.9218 37.389 33.9218H40.4132C40.5663 33.9218 40.703 33.8015 40.703 33.6483V31.8983C40.703 31.2202 40.3147 30.6296 39.7569 30.3288C40.014 30.0937 40.178 29.7601 40.178 29.3827C40.178 28.7702 39.746 28.2616 39.1772 28.1358V23.8374L38.6304 24.0999V28.1358H38.6249Z" fill="white"/>
<path d="M15.1531 22.0821L21.7266 25.2267V31.0235C21.7266 31.8493 22.5195 32.5985 23.9523 33.1345C25.3031 33.6431 27.0969 33.922 29 33.922C30.9031 33.922 32.6914 33.6431 34.0477 33.1345C35.4859 32.5931 36.2734 31.8438 36.2734 31.0235V25.2267L38.625 24.1001V23.8923L28.9508 22.104L29.0492 21.5681L38.8602 23.3837L38.9477 23.4001C39.0789 23.422 39.1719 23.5368 39.1719 23.6681V23.8431L42.8469 22.0876C42.9398 22.0438 43 21.9454 43 21.8415C43 21.7376 42.9398 21.6392 42.8469 21.5954L29.1203 15.0329C29.0438 15.0001 28.9617 15.0001 28.8852 15.0329L15.1586 21.5954C15.0602 21.6337 15 21.7321 15 21.836C15 21.9399 15.0602 22.0384 15.1531 22.0821V22.0821ZM35.7266 28.3985C35.7266 28.9673 35.043 29.5524 33.8508 30.0009C32.5602 30.4876 30.832 30.7556 28.9945 30.7556C27.157 30.7556 25.4344 30.4876 24.1383 30.0009C22.9461 29.5524 22.2625 28.9728 22.2625 28.3985V25.4837L28.8688 28.6446C28.907 28.661 28.9453 28.672 28.9891 28.672C29.0328 28.672 29.0711 28.661 29.1094 28.6446L35.7266 25.4837V28.3985Z" fill="white"/>
</g>
<defs>
<linearGradient id="paint0_linear_4203_16835" x1="58" y1="0" x2="6.62857" y2="58" gradientUnits="userSpaceOnUse">
<stop stop-color="#FF8C59"/>
<stop offset="1" stop-color="#EE6315"/>
</linearGradient>
<clipPath id="clip0_4203_16835">
<rect width="28" height="28" fill="white" transform="translate(15 15)"/>
</clipPath>
</defs>
</svg>
