<svg width="58" height="58" viewBox="0 0 58 58" fill="none" xmlns="http://www.w3.org/2000/svg">
<rect width="58" height="58" rx="16" fill="url(#paint0_linear_4203_18428)"/>
<path d="M27.25 32.5C32.075 32.5 36 28.575 36 23.75C36 18.925 32.075 15 27.25 15C22.425 15 18.5 18.925 18.5 23.75C18.5 28.575 22.425 32.5 27.25 32.5ZM27.5416 24.3334H26.9583C25.8327 24.3334 24.9166 23.4173 24.9166 22.2917C24.9166 21.2659 25.6798 20.4225 26.6666 20.2795V19.6666C26.6666 19.3442 26.9276 19.0833 27.25 19.0833C27.5724 19.0833 27.8334 19.3442 27.8334 19.6666V20.25H29C29.3224 20.25 29.5834 20.5109 29.5834 20.8334C29.5834 21.1558 29.3224 21.4167 29 21.4167H26.9584C26.4758 21.4167 26.0834 21.8092 26.0834 22.2917C26.0834 22.7742 26.4758 23.1667 26.9584 23.1667H27.5417C28.6673 23.1667 29.5834 24.0827 29.5834 25.2084C29.5834 26.2342 28.8202 27.0776 27.8334 27.2205V27.8334C27.8334 28.1558 27.5724 28.4167 27.25 28.4167C26.9276 28.4167 26.6666 28.1558 26.6666 27.8334V27.25H25.5C25.1776 27.25 24.9166 26.9891 24.9166 26.6666C24.9166 26.3442 25.1776 26.0833 25.5 26.0833H27.5416C28.0242 26.0833 28.4166 25.6908 28.4166 25.2083C28.4166 24.7258 28.0242 24.3334 27.5416 24.3334Z" fill="white"/>
<path d="M38.3333 37.1669C37.6884 37.1669 37.1666 37.6893 37.1666 38.3335V39.1578L30.9607 33.3952C30.5437 33.0107 29.9148 32.9782 29.467 33.3171L25.5671 36.2412L20.447 31.6333C19.9673 31.2021 19.2313 31.2419 18.7995 31.7198C18.3689 32.1989 18.4076 32.9366 18.8861 33.3673L24.7194 38.6173C25.1341 38.991 25.7562 39.0166 26.1994 38.6834L30.0868 35.7684L35.362 40.6669H34.8332C34.1884 40.6669 33.6666 41.1893 33.6666 41.8336C33.6666 42.4779 34.1884 43.0002 34.8333 43.0002H38.3333C38.9782 43.0002 39.4999 42.4779 39.4999 41.8336V38.3336C39.4999 37.6893 38.9781 37.1669 38.3333 37.1669Z" fill="white"/>
<defs>
<linearGradient id="paint0_linear_4203_18428" x1="8.64267e-07" y1="58" x2="69.83" y2="32.8612" gradientUnits="userSpaceOnUse">
<stop stop-color="#E3213A"/>
<stop offset="1" stop-color="#F15165"/>
</linearGradient>
</defs>
</svg>
