<svg width="58" height="58" viewBox="0 0 58 58" fill="none" xmlns="http://www.w3.org/2000/svg">
<rect width="58" height="58" rx="16" fill="url(#paint0_linear_4203_16629)"/>
<path d="M35.5337 15.0005V22.4668H43L35.5337 15.0005Z" fill="white"/>
<path d="M24.308 41.8399L22.8782 36.1039C23.7705 35.2546 24.3342 34.06 24.3342 32.7329C24.3342 30.1607 22.2399 28.0664 19.6677 28.0664C17.0956 28.0664 15.0013 30.1607 15.0013 32.7329C15.0013 34.06 15.565 35.2546 16.4572 36.1039L15.0274 41.8399C14.9397 42.1927 15.0666 42.566 15.3503 42.7956C15.634 43.0233 16.026 43.0625 16.3508 42.902L19.6677 41.2426L22.9828 42.902C23.1153 42.9655 23.259 42.9991 23.4009 42.9991C23.6081 42.9991 23.8153 42.93 23.9851 42.7956C24.2688 42.566 24.3958 42.1946 24.308 41.8399ZM19.6677 35.5327C18.1241 35.5327 16.8679 34.2765 16.8679 32.7329C16.8679 31.1892 18.1241 29.933 19.6677 29.933C21.2114 29.933 22.4676 31.1892 22.4676 32.7329C22.4676 34.2765 21.2114 35.5327 19.6677 35.5327Z" fill="white"/>
<path d="M35.5337 24.3334C34.5052 24.3334 33.6671 23.4953 33.6671 22.4668V15.0005H22.4677C21.4392 15.0005 20.6011 15.8386 20.6011 16.8671V26.2952C23.7593 26.7525 26.2008 29.4497 26.2008 32.733C26.2008 34.1441 25.7528 35.4843 24.9241 36.5987L26.0552 41.1326H41.1335C42.1638 41.1326 43 40.2964 43 39.266V24.3334H35.5337ZM25.2675 22.4668C24.7524 22.4668 24.3342 22.0487 24.3342 21.5335C24.3342 21.0183 24.7524 20.6002 25.2675 20.6002H30.8673C31.3824 20.6002 31.8006 21.0183 31.8006 21.5335C31.8006 22.0487 31.3824 22.4668 30.8673 22.4668H25.2675ZM38.3336 33.6663H29.0007C28.4855 33.6663 28.0674 33.2482 28.0674 32.733C28.0674 32.2178 28.4855 31.7997 29.0007 31.7997H38.3336C38.8488 31.7997 39.2669 32.2178 39.2669 32.733C39.2669 33.2482 38.8488 33.6663 38.3336 33.6663ZM38.3336 28.0666H27.1341C26.6189 28.0666 26.2008 27.6484 26.2008 27.1333C26.2008 26.6181 26.6189 26.2 27.1341 26.2H38.3336C38.8488 26.2 39.2669 26.6181 39.2669 27.1333C39.2669 27.6484 38.8488 28.0666 38.3336 28.0666Z" fill="white"/>
<defs>
<linearGradient id="paint0_linear_4203_16629" x1="58" y1="0" x2="6.62857" y2="58" gradientUnits="userSpaceOnUse">
<stop stop-color="#FF8C59"/>
<stop offset="1" stop-color="#EE6315"/>
</linearGradient>
</defs>
</svg>
