<svg width="58" height="58" viewBox="0 0 58 58" fill="none" xmlns="http://www.w3.org/2000/svg">
<rect width="58" height="58" rx="16" fill="url(#paint0_linear_4203_17256)"/>
<path fill-rule="evenodd" clip-rule="evenodd" d="M21.3437 41.8332C21.283 41.8332 21.2226 41.8318 21.1625 41.8291H20.9832C20.9227 41.8291 20.8636 41.8182 20.8084 41.7976C18.8492 41.5352 17.3333 39.8526 17.3333 37.8228V20.1769C17.3333 17.9656 19.1323 16.1665 21.3437 16.1665H33.6701C35.8815 16.1665 37.6805 17.9656 37.6805 20.1769V26.3429C37.6805 26.4213 37.6716 26.4975 37.6546 26.5707V30.2728L30.2727 36.6364L29.6902 41.39C29.6595 41.6407 29.4465 41.8291 29.1939 41.8291H24.7874C24.7576 41.8318 24.7274 41.8332 24.6968 41.8332H21.3437ZM32.6676 26.193C33.2213 26.193 33.6702 26.6418 33.6702 27.1956C33.6702 27.7493 33.2213 28.1982 32.6676 28.1982H22.3408C21.787 28.1982 21.3382 27.7493 21.3382 27.1956C21.3382 26.6418 21.787 26.193 22.3408 26.193H32.6676ZM22.3408 30.2032C21.787 30.2032 21.3382 30.652 21.3382 31.2058C21.3382 31.7595 21.787 32.2084 22.3408 32.2084H28.6126C29.1664 32.2084 29.6152 31.7595 29.6152 31.2058C29.6152 30.652 29.1664 30.2032 28.6126 30.2032H22.3408ZM22.3408 22.1821H32.6676C33.2213 22.1821 33.6702 22.631 33.6702 23.1847C33.6702 23.7385 33.2213 24.1873 32.6676 24.1873H22.3408C21.787 24.1873 21.3382 23.7385 21.3382 23.1847C21.3382 22.631 21.787 22.1821 22.3408 22.1821Z" fill="white"/>
<path d="M39.4564 30.6829C38.2836 29.5102 36.3755 29.5101 35.2035 30.6821L29.699 36.1744C29.5821 36.291 29.4959 36.4347 29.4479 36.5927L28.2491 40.5392C28.1428 40.8891 28.2354 41.269 28.4908 41.5308C28.6821 41.7268 28.942 41.8332 29.2085 41.8332C29.2977 41.8332 29.3877 41.8213 29.4761 41.7968L33.5229 40.6758C33.6894 40.6297 33.8412 40.5413 33.9635 40.4192L39.4564 34.9366C40.6292 33.7639 40.6292 31.8557 39.4564 30.6829ZM32.7335 38.8138L30.6976 39.3778L31.2934 37.4162L35.0075 33.7104L36.4257 35.1285L32.7335 38.8138ZM38.0393 33.5182L37.845 33.712L36.4271 32.2941L36.6207 32.1009C37.0116 31.71 37.6476 31.71 38.0385 32.1009C38.4295 32.4918 38.4295 33.1278 38.0393 33.5182Z" fill="white"/>
<defs>
<linearGradient id="paint0_linear_4203_17256" x1="8.64267e-07" y1="58" x2="69.83" y2="32.8612" gradientUnits="userSpaceOnUse">
<stop stop-color="#E3213A"/>
<stop offset="1" stop-color="#F15165"/>
</linearGradient>
</defs>
</svg>
