<svg width="58" height="58" viewBox="0 0 58 58" fill="none" xmlns="http://www.w3.org/2000/svg">
<rect width="58" height="58" rx="16" fill="url(#paint0_linear_4203_17319)"/>
<path d="M42.508 39.2484H40.9176V25.1958C40.9176 23.7535 39.7455 22.5814 38.3031 22.5814H36.107V17.4353C36.107 16.1237 35.0394 15.0562 33.7235 15.0562H24.2767C22.9651 15.0562 21.8975 16.1237 21.8975 17.4353V22.5814H19.7014C18.2591 22.5814 17.0869 23.7535 17.0869 25.1958V39.2484H15.4921C15.2525 39.2484 15.0564 39.4402 15.0564 39.6842C15.0564 41.4794 16.5205 42.9435 18.3158 42.9435H39.6888C41.484 42.9435 42.9437 41.4794 42.9437 39.6842C42.9437 39.4402 42.752 39.2484 42.508 39.2484ZM22.769 17.4353C22.769 16.603 23.4444 15.9276 24.2767 15.9276H33.7235C34.5601 15.9276 35.2355 16.603 35.2355 17.4353V32.538C35.2355 33.3703 34.5601 34.0501 33.7235 34.0501H24.2767C23.4444 34.0501 22.769 33.3703 22.769 32.538V17.4353ZM17.9584 25.1958C17.9584 24.2328 18.7384 23.4529 19.7014 23.4529H21.8975V24.7601H19.7014C19.4617 24.7601 19.2656 24.9562 19.2656 25.1958V37.5055C19.2656 37.7451 19.4617 37.9412 19.7014 37.9412H38.3031C38.5428 37.9412 38.7389 37.7451 38.7389 37.5055V25.1958C38.7389 24.9562 38.5428 24.7601 38.3031 24.7601H36.107V23.4529H38.3031C39.2661 23.4529 40.0461 24.2328 40.0461 25.1958V39.2484H17.9584V25.1958ZM39.6888 42.072H18.3157C17.1479 42.072 16.1762 41.2266 15.9714 40.1199H42.033C41.8283 41.2267 40.8565 42.072 39.6888 42.072Z" fill="white"/>
<path d="M27.3224 19.0519C27.3224 19.8624 26.66 20.5204 25.8496 20.5204C25.0391 20.5204 24.3811 19.8624 24.3811 19.0519C24.3811 18.237 25.039 17.5791 25.8496 17.5791C26.6601 17.5791 27.3224 18.237 27.3224 19.0519Z" fill="white"/>
<path d="M28.4926 19.4853H33.1879C33.4287 19.4853 33.6236 19.2904 33.6236 19.0495C33.6236 18.8087 33.4287 18.6138 33.1879 18.6138H28.4926C28.2518 18.6138 28.0569 18.8087 28.0569 19.0495C28.0569 19.2904 28.2518 19.4853 28.4926 19.4853Z" fill="white"/>
<path d="M27.3224 23.0128C27.3224 23.8189 26.66 24.4813 25.8496 24.4813C25.0391 24.4813 24.3811 23.819 24.3811 23.0128C24.3811 22.198 25.039 21.5356 25.8496 21.5356C26.6601 21.5356 27.3224 22.198 27.3224 23.0128Z" fill="white"/>
<path d="M28.4926 23.4438H33.1879C33.4287 23.4438 33.6236 23.2489 33.6236 23.008C33.6236 22.7672 33.4287 22.5723 33.1879 22.5723H28.4926C28.2518 22.5723 28.0569 22.7672 28.0569 23.008C28.0569 23.2489 28.2518 23.4438 28.4926 23.4438Z" fill="white"/>
<path d="M27.3224 26.9694C27.3224 27.7798 26.66 28.4378 25.8496 28.4378C25.0391 28.4378 24.3811 27.7799 24.3811 26.9694C24.3811 26.1588 25.039 25.4966 25.8496 25.4966C26.6601 25.4966 27.3224 26.1589 27.3224 26.9694Z" fill="white"/>
<path d="M28.4926 27.4032H33.1879C33.4287 27.4032 33.6236 27.2083 33.6236 26.9675C33.6236 26.7266 33.4287 26.5317 33.1879 26.5317H28.4926C28.2518 26.5317 28.0569 26.7266 28.0569 26.9675C28.0569 27.2083 28.2518 27.4032 28.4926 27.4032Z" fill="white"/>
<path d="M27.3224 30.9303C27.3224 31.7364 26.66 32.3988 25.8496 32.3988C25.0391 32.3988 24.3811 31.7364 24.3811 30.9303C24.3811 30.1154 25.039 29.4531 25.8496 29.4531C26.6601 29.4531 27.3224 30.1155 27.3224 30.9303Z" fill="white"/>
<path d="M28.4926 31.3617H33.1879C33.4287 31.3617 33.6236 31.1668 33.6236 30.926C33.6236 30.6851 33.4287 30.4902 33.1879 30.4902H28.4926C28.2518 30.4902 28.0569 30.6851 28.0569 30.926C28.0569 31.1668 28.2518 31.3617 28.4926 31.3617Z" fill="white"/>
<defs>
<linearGradient id="paint0_linear_4203_17319" x1="29" y1="0" x2="29" y2="58" gradientUnits="userSpaceOnUse">
<stop stop-color="#FFD03D"/>
<stop offset="1" stop-color="#FFAC2E"/>
</linearGradient>
</defs>
</svg>
