<svg width="58" height="58" viewBox="0 0 58 58" fill="none" xmlns="http://www.w3.org/2000/svg">
<rect width="58" height="58" rx="16" fill="url(#paint0_linear_4203_18407)"/>
<path d="M32.9748 16.1321L32.96 16.1165H32.9385H23.6006C20.1172 16.1165 17.2833 18.9504 17.2833 22.4339V35.5658C17.2833 39.0492 20.1172 41.8832 23.6006 41.8832H34.3448C37.8282 41.8832 40.6622 39.0492 40.6622 35.5658V24.246V24.2261L40.6484 24.2116L32.9748 16.1321ZM19.1739 22.4339C19.1739 19.9931 21.1598 18.0072 23.6006 18.0072H32.1482L38.7715 24.9808V35.5658C38.7715 38.0066 36.7856 39.9925 34.3448 39.9925H23.6006C21.1598 39.9925 19.1739 38.0066 19.1739 35.5658V22.4339Z" fill="white" stroke="white" stroke-width="0.1"/>
<path d="M23.6006 41.8832H34.3448C37.8282 41.8832 40.6622 39.0492 40.6622 35.5658V24.562C40.6622 24.04 40.2389 23.6167 39.7168 23.6167H38.0106C35.5232 23.6167 33.4994 21.5931 33.4994 19.106V17.0618C33.4994 16.5398 33.0762 16.1165 32.5541 16.1165H23.6006C20.1172 16.1165 17.2833 18.9504 17.2833 22.4339V35.5658C17.2833 39.0492 20.1172 41.8832 23.6006 41.8832ZM19.1739 22.4339C19.1739 19.9931 21.1598 18.0072 23.6006 18.0072H31.6087V19.106C31.6087 22.6358 34.4805 25.5074 38.0106 25.5074H38.7715V35.5658C38.7715 38.0066 36.7856 39.9925 34.3448 39.9925H23.6006C21.1598 39.9925 19.1739 38.0066 19.1739 35.5658V22.4339Z" fill="white" stroke="white" stroke-width="0.1"/>
<path fill-rule="evenodd" clip-rule="evenodd" d="M22 17.333H31.9167L33.6667 21.9997L36.5833 24.333H39.5V37.1663L36 40.6663H22.5833L18.5 37.7497V20.2497L22 17.333ZM22.6422 34.7544C22.779 34.8077 22.9214 34.833 23.0613 34.833C23.4728 34.833 23.8643 34.6151 24.0374 34.2511L24.3147 33.6672H27.8416L28.1352 34.2631C28.3744 34.7481 29.002 34.9658 29.5376 34.7491C30.0731 34.5324 30.3131 33.9636 30.0742 33.4786L26.9969 27.236C26.8249 26.8873 26.4403 26.6626 26.0201 26.6664C25.5987 26.6691 25.2188 26.8973 25.0521 27.248L22.0867 33.4906C21.855 33.9786 22.1036 34.5444 22.6422 34.7544ZM26.0455 30.0237L26.8932 31.7435H25.2285L26.0455 30.0237ZM31.9847 30.6817H31.2652C30.6584 30.6817 30.1667 30.1896 30.1667 29.5829C30.1667 28.9764 30.6584 28.4843 31.2652 28.4843H31.9847V27.7649C31.9847 27.1581 32.4767 26.6663 33.0832 26.6663C33.69 26.6663 34.1817 27.1581 34.1817 27.7649V28.4846H34.9015C35.5082 28.4846 36 28.9764 36 29.5832C36 30.1896 35.5082 30.6817 34.9015 30.6817H34.1817V31.4012C34.1817 32.0079 33.69 32.4997 33.0832 32.4997C32.4767 32.4997 31.9847 32.0079 31.9847 31.4012V30.6817Z" fill="white"/>
<defs>
<linearGradient id="paint0_linear_4203_18407" x1="29" y1="0" x2="29" y2="58" gradientUnits="userSpaceOnUse">
<stop stop-color="#FFD03D"/>
<stop offset="1" stop-color="#FFAC2E"/>
</linearGradient>
</defs>
</svg>
