<svg width="58" height="58" viewBox="0 0 58 58" fill="none" xmlns="http://www.w3.org/2000/svg">
<rect width="58" height="58" rx="16" fill="url(#paint0_linear_4203_18353)"/>
<path fill-rule="evenodd" clip-rule="evenodd" d="M34.8006 19.8627H30.8608C30.2833 19.8627 29.7443 19.5932 29.385 19.144L28.2556 17.6425C27.5242 16.7057 26.4089 16.1539 25.2142 16.1667H23.1865C18.5281 16.1667 16.1667 18.8617 16.1667 24.1747V33.8124C16.1667 38.7789 19.2339 41.8332 24.1747 41.8332H33.8124C38.7789 41.8332 41.8332 38.7789 41.8332 33.8252V27.5755C41.846 22.3908 39.5361 19.8627 34.8006 19.8627ZM34.9419 33.2222H23.0583C22.5193 33.2222 22.0958 32.7859 22.0958 32.2597C22.0958 31.7207 22.5193 31.2972 23.0583 31.2972H34.9419C35.4681 31.2972 35.8916 31.7207 35.8916 32.2597C35.8916 32.7859 35.4681 33.2222 34.9419 33.2222ZM21.6355 22.3644H26.0105C26.6146 22.3644 27.1042 21.8747 27.1042 21.2707C27.1042 20.6666 26.6146 20.1769 26.0105 20.1769H21.6355C21.0314 20.1769 20.5417 20.6666 20.5417 21.2707C20.5417 21.8747 21.0314 22.3644 21.6355 22.3644Z" fill="white"/>
<defs>
<linearGradient id="paint0_linear_4203_18353" x1="58" y1="0" x2="-11.83" y2="25.1388" gradientUnits="userSpaceOnUse">
<stop stop-color="#8060FF"/>
<stop offset="1" stop-color="#5731EC"/>
</linearGradient>
</defs>
</svg>
