<svg width="58" height="58" viewBox="0 0 58 58" fill="none" xmlns="http://www.w3.org/2000/svg">
<rect width="58" height="58" rx="16" fill="url(#paint0_linear_4203_17153)"/>
<path d="M21.25 25.3332C21.25 21.2852 21.25 23.0663 21.25 19.0184C21.25 18.2827 21.5045 17.58 21.9428 17.0595C22.4323 16.4782 23.1037 16.1665 23.7963 16.1665H35.2037C35.896 16.1665 36.5674 16.4782 37.0572 17.0595C37.4952 17.58 37.7499 18.2827 37.7499 19.0184V28.0832C38.4792 28.0832 39.1786 28.3729 39.6943 28.8886C40.2102 29.4043 40.4999 30.1039 40.4999 30.8332V39.0832C40.4999 39.8125 40.2102 40.5121 39.6943 41.0278C39.1786 41.5434 38.4792 41.8332 37.7499 41.8332C33.9149 41.8332 25.0848 41.8332 21.25 41.8332C20.5207 41.8332 19.8211 41.5434 19.3054 41.0278C18.7897 40.5121 18.5 39.8125 18.5 39.0832C18.5 36.2654 18.5 30.901 18.5 28.0832C18.5 26.5643 19.7311 25.3332 21.25 25.3332ZM35.9165 28.0832V19.0184C35.9165 18.7277 35.8278 18.4461 35.6547 18.2404C35.533 18.0959 35.3757 18 35.2037 18C32.3817 18 26.618 18 23.7963 18C23.6242 18 23.4667 18.0959 23.345 18.2404C23.1719 18.4461 23.0832 18.7277 23.0832 19.0184V25.3332H24C24.7293 25.3332 25.4287 25.623 25.9446 26.1386C26.4602 26.6543 26.75 27.3539 26.75 28.0832H35.9165ZM25.8332 25.3332H33.1665C33.6725 25.3332 34.0832 24.9225 34.0832 24.4165C34.0832 23.9107 33.6725 23.5 33.1665 23.5H25.8332C25.3272 23.5 24.9165 23.9107 24.9165 24.4165C24.9165 24.9225 25.3272 25.3332 25.8332 25.3332ZM25.8332 21.6665H31.3332C31.8392 21.6665 32.25 21.2557 32.25 20.75C32.25 20.244 31.8392 19.8332 31.3332 19.8332H25.8332C25.3272 19.8332 24.9165 20.244 24.9165 20.75C24.9165 21.2557 25.3272 21.6665 25.8332 21.6665Z" fill="white"/>
<defs>
<linearGradient id="paint0_linear_4203_17153" x1="58" y1="0" x2="-11.83" y2="25.1388" gradientUnits="userSpaceOnUse">
<stop stop-color="#8060FF"/>
<stop offset="1" stop-color="#5731EC"/>
</linearGradient>
</defs>
</svg>
