<svg width="58" height="58" viewBox="0 0 58 58" fill="none" xmlns="http://www.w3.org/2000/svg">
<rect width="58" height="58" rx="16" fill="url(#paint0_linear_4203_16681)"/>
<g clip-path="url(#clip0_4203_16681)">
<path d="M40.4913 32.3103V18.65C40.4913 18.5615 40.4739 18.4739 40.4401 18.3921C40.4062 18.3104 40.3566 18.2361 40.294 18.1735C40.2314 18.1109 40.1572 18.0613 40.0754 18.0274C39.9937 17.9935 39.906 17.9761 39.8175 17.9761H23.6862V20.582C23.6294 20.5744 23.4086 20.5718 23.38 20.5718C23.2318 20.5752 23.0841 20.5546 22.9425 20.5109L22.8718 20.4816C22.7162 20.3978 22.5769 20.2866 22.4606 20.1535C22.3346 20.0189 22.1822 19.9115 22.013 19.8382C21.8439 19.7648 21.6614 19.7269 21.477 19.7269C21.2926 19.7269 21.1101 19.7648 20.9409 19.8382C20.7717 19.9115 20.6194 20.0189 20.4934 20.1535C20.3771 20.2866 20.2379 20.3978 20.0823 20.4816L20.0115 20.5109C19.8699 20.5547 19.7221 20.5752 19.574 20.5718C19.5453 20.5718 19.4558 20.5694 19.4394 20.5694C19.382 20.5697 19.3247 20.574 19.2679 20.582V17.9761H16.247C16.1585 17.9761 16.0709 17.9935 15.9891 18.0274C15.9074 18.0613 15.8331 18.1109 15.7705 18.1735C15.7079 18.2361 15.6583 18.3104 15.6245 18.3921C15.5906 18.4739 15.5732 18.5615 15.5732 18.65V36.4911C15.5732 36.6698 15.6442 36.8411 15.7706 36.9675C15.8969 37.0938 16.0683 37.1648 16.247 37.1648H34.4164C34.5637 37.901 34.8979 38.5869 35.3869 39.1566C35.8759 39.7262 36.5033 40.1605 37.2086 40.4177C37.914 40.6748 38.6737 40.7461 39.4146 40.6248C40.1555 40.5035 40.8527 40.1936 41.4392 39.7249C42.0257 39.2562 42.4818 38.6446 42.7636 37.9487C43.0454 37.2528 43.1434 36.4961 43.0482 35.7514C42.953 35.0067 42.6678 34.299 42.2201 33.6963C41.7723 33.0937 41.177 32.6164 40.4915 32.3103H40.4913ZM29.0194 22.1223C29.0194 21.9308 29.0954 21.7472 29.2308 21.6118C29.3662 21.4764 29.5498 21.4004 29.7412 21.4004H30.3861C30.4169 21.4003 30.4465 21.388 30.4683 21.3662C30.49 21.3444 30.5023 21.3148 30.5023 21.284V20.6409C30.5023 20.4494 30.5783 20.2658 30.7137 20.1304C30.8491 19.9951 31.0327 19.919 31.2241 19.919H32.6714C32.8629 19.919 33.0465 19.9951 33.1818 20.1304C33.3172 20.2658 33.3933 20.4494 33.3933 20.6409V21.284C33.3933 21.3148 33.4055 21.3444 33.4273 21.3662C33.4491 21.388 33.4786 21.4003 33.5094 21.4004H34.1528C34.3442 21.4004 34.5278 21.4764 34.6632 21.6118C34.7986 21.7472 34.8746 21.9308 34.8746 22.1223V23.5713C34.8746 23.7627 34.7986 23.9463 34.6632 24.0817C34.5278 24.2171 34.3442 24.2931 34.1528 24.2931H33.5077C33.4924 24.2932 33.4773 24.2962 33.4632 24.3021C33.4491 24.308 33.4362 24.3166 33.4255 24.3274C33.4147 24.3382 33.4061 24.351 33.4003 24.3652C33.3945 24.3793 33.3915 24.3944 33.3915 24.4097V25.0529C33.3915 25.2443 33.3155 25.4279 33.1801 25.5633C33.0447 25.6987 32.8611 25.7747 32.6696 25.7747H31.2228C31.0314 25.7747 30.8478 25.6987 30.7124 25.5633C30.577 25.4279 30.501 25.2443 30.501 25.0529V24.4097C30.501 24.3944 30.498 24.3793 30.4922 24.3652C30.4864 24.351 30.4778 24.3382 30.467 24.3274C30.4562 24.3166 30.4434 24.308 30.4293 24.3021C30.4152 24.2962 30.4001 24.2932 30.3848 24.2931H29.7406C29.5491 24.2931 29.3655 24.2171 29.2301 24.0817C29.0948 23.9463 29.0187 23.7627 29.0187 23.5713L29.0194 22.1223ZM26.7969 27.1774H37.0939C37.1809 27.1774 37.2644 27.2119 37.3259 27.2735C37.3874 27.335 37.422 27.4185 37.422 27.5055C37.422 27.5925 37.3874 27.676 37.3259 27.7375C37.2644 27.799 37.1809 27.8336 37.0939 27.8336H26.7969C26.7098 27.8336 26.6264 27.799 26.5648 27.7375C26.5033 27.676 26.4687 27.5925 26.4687 27.5055C26.4687 27.4185 26.5033 27.335 26.5648 27.2735C26.6264 27.2119 26.7098 27.1774 26.7969 27.1774ZM26.7969 29.4602H37.0939C37.1809 29.4602 37.2644 29.4948 37.3259 29.5563C37.3874 29.6179 37.422 29.7013 37.422 29.7884C37.422 29.8754 37.3874 29.9588 37.3259 30.0204C37.2644 30.0819 37.1809 30.1165 37.0939 30.1165H26.7969C26.7098 30.1165 26.6264 30.0819 26.5648 30.0204C26.5033 29.9588 26.4687 29.8754 26.4687 29.7884C26.4687 29.7013 26.5033 29.6179 26.5648 29.5563C26.6264 29.4948 26.7098 29.4602 26.7969 29.4602ZM23.6862 32.1325C23.6862 32.2122 23.6649 32.2906 23.6246 32.3594C23.5843 32.4282 23.5264 32.4851 23.4569 32.5241C23.3873 32.5631 23.3086 32.583 23.2289 32.5815C23.1491 32.5801 23.0712 32.5575 23.0031 32.5159L21.9454 31.8706C21.8046 31.7845 21.6426 31.7389 21.4775 31.7389C21.3124 31.7389 21.1505 31.7845 21.0096 31.8706L19.9517 32.5159C19.8837 32.5575 19.8057 32.5801 19.726 32.5816C19.6463 32.583 19.5676 32.5632 19.498 32.5241C19.4285 32.4851 19.3706 32.4282 19.3303 32.3594C19.29 32.2906 19.2688 32.2122 19.2688 32.1325V27.3154C19.3255 27.323 19.5462 27.3257 19.5751 27.3257C19.7232 27.3222 19.8709 27.3428 20.0126 27.3865L20.0834 27.4158C20.239 27.4997 20.3782 27.6108 20.4945 27.7439C20.6205 27.8786 20.7728 27.9859 20.942 28.0593C21.1112 28.1326 21.2937 28.1705 21.4781 28.1705C21.6625 28.1705 21.8449 28.1326 22.0141 28.0593C22.1833 27.9859 22.3357 27.8786 22.4617 27.7439C22.578 27.6108 22.7173 27.4996 22.8729 27.4158L22.9436 27.3865C23.0852 27.3428 23.2329 27.3223 23.3811 27.3257C23.4097 27.3257 23.6305 27.323 23.6873 27.3154L23.6862 32.1325ZM24.8255 24.4513C24.6268 24.6276 24.4635 24.84 24.3442 25.0774L24.3025 25.1782C24.2188 25.4302 24.184 25.6958 24.1999 25.9609C24.2025 26.0528 24.1868 26.1444 24.1536 26.2302C24.1204 26.316 24.0704 26.3943 24.0066 26.4606C23.9427 26.5268 23.8663 26.5796 23.7818 26.6159C23.6972 26.6522 23.6063 26.6713 23.5143 26.672C23.506 26.672 23.4165 26.6696 23.3796 26.6696C23.1508 26.6655 22.9231 26.7009 22.7065 26.7742L22.6056 26.816C22.3683 26.9353 22.1558 27.0986 21.9796 27.2972C21.9149 27.3659 21.837 27.4205 21.7505 27.4579C21.6639 27.4953 21.5707 27.5146 21.4764 27.5146C21.3822 27.5146 21.2889 27.4953 21.2024 27.4579C21.1159 27.4205 21.0379 27.3659 20.9733 27.2972C20.7971 27.0985 20.5847 26.9352 20.3475 26.816L20.2464 26.7742C20.0297 26.7008 19.802 26.6655 19.5733 26.6696C19.5366 26.6696 19.4471 26.672 19.4386 26.672C19.3466 26.6713 19.2557 26.6522 19.1711 26.6159C19.0866 26.5796 19.0102 26.5268 18.9464 26.4606C18.8825 26.3943 18.8326 26.316 18.7994 26.2302C18.7662 26.1444 18.7505 26.0528 18.7532 25.9609C18.7689 25.6958 18.734 25.4302 18.6504 25.1782L18.6086 25.0774C18.4895 24.84 18.3261 24.6275 18.1274 24.4513C18.0589 24.3867 18.0044 24.3088 17.9671 24.2224C17.9299 24.136 17.9106 24.0429 17.9106 23.9488C17.9106 23.8547 17.9299 23.7616 17.9671 23.6752C18.0044 23.5888 18.0589 23.5109 18.1274 23.4464C18.3261 23.2702 18.4895 23.0577 18.6086 22.8203L18.6504 22.7194C18.734 22.4674 18.7689 22.2018 18.7532 21.9368C18.7505 21.8446 18.7663 21.7529 18.7996 21.6669C18.8329 21.581 18.8831 21.5026 18.9471 21.4363C19.0112 21.3701 19.0879 21.3173 19.1726 21.2811C19.2574 21.2449 19.3486 21.226 19.4407 21.2256C19.4493 21.2256 19.5387 21.228 19.5755 21.228C19.8042 21.2322 20.0319 21.1968 20.2486 21.1234L20.3496 21.0817C20.5869 20.9624 20.7993 20.7991 20.9755 20.6004C21.0401 20.5318 21.1181 20.4771 21.2046 20.4397C21.2911 20.4024 21.3844 20.3831 21.4786 20.3831C21.5729 20.3831 21.6661 20.4024 21.7526 20.4397C21.8392 20.4771 21.9171 20.5318 21.9817 20.6004C22.158 20.7991 22.3705 20.9624 22.6078 21.0817L22.7086 21.1234C22.9253 21.1968 23.153 21.2322 23.3817 21.228C23.4187 21.228 23.5535 21.2263 23.5716 21.228C23.7472 21.2437 23.9102 21.3258 24.0274 21.4575C24.1445 21.5893 24.207 21.7608 24.2021 21.937C24.1862 22.202 24.221 22.4677 24.3046 22.7197L24.3464 22.8205C24.4657 23.0578 24.629 23.2703 24.8277 23.4466C24.8959 23.5113 24.9503 23.5893 24.9873 23.6757C25.0244 23.7622 25.0434 23.8553 25.0432 23.9494C25.043 24.0435 25.0236 24.1365 24.9861 24.2228C24.9487 24.3091 24.894 24.3869 24.8255 24.4513ZM26.4687 32.0714C26.4687 31.9844 26.5033 31.901 26.5648 31.8394C26.6264 31.7779 26.7098 31.7433 26.7969 31.7433H37.0939C37.1809 31.7433 37.2644 31.7779 37.3259 31.8394C37.3874 31.901 37.422 31.9844 37.422 32.0714C37.4216 32.0878 37.4199 32.1041 37.417 32.1202C37.1827 32.194 36.955 32.2874 36.7364 32.3996H26.7969C26.7098 32.3996 26.6264 32.365 26.5648 32.3035C26.5033 32.2419 26.4687 32.1585 26.4687 32.0714ZM34.6618 34.6356C34.659 34.6356 34.6563 34.6356 34.6535 34.6356H28.646C28.5589 34.6356 28.4755 34.6011 28.4139 34.5395C28.3524 34.478 28.3178 34.3945 28.3178 34.3075C28.3178 34.2205 28.3524 34.137 28.4139 34.0755C28.4755 34.014 28.5589 33.9794 28.646 33.9794H34.6535C34.7057 33.9795 34.757 33.9921 34.8034 34.0161C34.8497 34.04 34.8897 34.0747 34.9199 34.1172C34.8225 34.2841 34.7363 34.4573 34.6618 34.6356ZM38.7067 40.0234C37.9709 40.0234 37.2515 39.8052 36.6397 39.3964C36.0279 38.9876 35.551 38.4066 35.2694 37.7267C34.9878 37.0469 34.9141 36.2988 35.0577 35.5771C35.2013 34.8554 35.5556 34.1925 36.0759 33.6722C36.5962 33.1518 37.2592 32.7975 37.9809 32.6539C38.7026 32.5104 39.4507 32.5841 40.1305 32.8657C40.8103 33.1473 41.3914 33.6241 41.8002 34.2359C42.209 34.8478 42.4272 35.5671 42.4272 36.3029C42.4272 37.2897 42.0352 38.236 41.3375 38.9337C40.6398 39.6315 39.6935 40.0234 38.7067 40.0234Z" fill="white"/>
<path d="M41.2742 34.7859C41.2453 34.7539 41.2103 34.7279 41.1714 34.7094C41.1325 34.691 41.0903 34.6803 41.0472 34.6782C41.0042 34.676 40.9611 34.6823 40.9205 34.6968C40.8799 34.7112 40.8426 34.7336 40.8106 34.7625L38.5376 36.8165C38.463 36.8908 38.3621 36.9325 38.2568 36.9325C38.1516 36.9325 38.0506 36.8908 37.9761 36.8165L37.6188 36.4591C37.5573 36.3975 37.4739 36.363 37.3868 36.3629C37.2998 36.3629 37.2163 36.3975 37.1548 36.459C37.0932 36.5205 37.0586 36.604 37.0586 36.691C37.0586 36.778 37.0931 36.8615 37.1547 36.9231L37.5127 37.2812C37.6111 37.3794 37.7279 37.4574 37.8564 37.5104C37.985 37.5635 38.1227 37.5907 38.2617 37.5905C38.3968 37.5912 38.5307 37.5652 38.6557 37.5141C38.7807 37.463 38.8943 37.3877 38.9902 37.2925L41.2501 35.2494C41.2821 35.2206 41.3081 35.1857 41.3267 35.1468C41.3452 35.1079 41.3559 35.0657 41.3582 35.0226C41.3604 34.9796 41.3541 34.9365 41.3397 34.8959C41.3253 34.8553 41.303 34.8179 41.2742 34.7859Z" fill="white"/>
</g>
<defs>
<linearGradient id="paint0_linear_4203_16681" x1="58" y1="0" x2="-11.83" y2="25.1388" gradientUnits="userSpaceOnUse">
<stop stop-color="#8060FF"/>
<stop offset="1" stop-color="#5731EC"/>
</linearGradient>
<clipPath id="clip0_4203_16681">
<rect width="28" height="28" fill="white" transform="translate(15 15)"/>
</clipPath>
</defs>
</svg>
