<svg width="58" height="58" viewBox="0 0 58 58" fill="none" xmlns="http://www.w3.org/2000/svg">
<rect width="58" height="58" rx="16" fill="url(#paint0_linear_4203_16613)"/>
<path d="M20.25 34.25H21.125C21.125 31.8378 23.0878 29.875 25.5 29.875C24.0525 29.875 22.875 28.6975 22.875 27.25C22.875 25.8025 24.0525 24.625 25.5 24.625C26.9475 24.625 28.125 25.8025 28.125 27.25C28.125 28.6975 26.9475 29.875 25.5 29.875C27.9122 29.875 29.875 31.8378 29.875 34.25H30.75V23.75H20.25V34.25ZM42.125 21.125V36.875C42.125 38.3225 40.9475 39.5 39.5 39.5H18.5C17.0525 39.5 15.875 38.3225 15.875 36.875V21.125C15.875 19.6775 17.0525 18.5 18.5 18.5H39.5C40.9475 18.5 42.125 19.6775 42.125 21.125ZM32.5 22.875C32.5 22.3914 32.1082 22 31.625 22H19.375C18.8918 22 18.5 22.3914 18.5 22.875V35.125C18.5 35.6086 18.8918 36 19.375 36H31.625C32.1082 36 32.5 35.6086 32.5 35.125V22.875ZM39.5 32.5C39.5 32.0164 39.1082 31.625 38.625 31.625H36C35.5168 31.625 35.125 32.0164 35.125 32.5C35.125 32.9836 35.5168 33.375 36 33.375H38.625C39.1082 33.375 39.5 32.9836 39.5 32.5ZM39.5 29C39.5 28.5164 39.1082 28.125 38.625 28.125H36C35.5168 28.125 35.125 28.5164 35.125 29C35.125 29.4836 35.5168 29.875 36 29.875H38.625C39.1082 29.875 39.5 29.4836 39.5 29ZM39.5 25.5C39.5 25.0164 39.1082 24.625 38.625 24.625H36C35.5168 24.625 35.125 25.0164 35.125 25.5C35.125 25.9836 35.5168 26.375 36 26.375H38.625C39.1082 26.375 39.5 25.9836 39.5 25.5Z" fill="white"/>
<defs>
<linearGradient id="paint0_linear_4203_16613" x1="55.9286" y1="2.07143" x2="8.7" y2="58" gradientUnits="userSpaceOnUse">
<stop stop-color="#17BA92"/>
<stop offset="1" stop-color="#0C9D7A"/>
</linearGradient>
</defs>
</svg>
