<svg width="58" height="58" viewBox="0 0 58 58" fill="none" xmlns="http://www.w3.org/2000/svg">
<rect width="58" height="58" rx="16" fill="url(#paint0_linear_4203_17216)"/>
<g clip-path="url(#clip0_4203_17216)">
<path d="M19.2832 18.3042C19.2824 18.3042 19.2816 18.3042 19.2808 18.3042C19.016 18.3042 18.7669 18.4074 18.5788 18.595C18.3887 18.7847 18.2839 19.0373 18.2839 19.3062V34.3305C18.2839 34.8815 18.7339 35.3308 19.2871 35.3322C21.6193 35.3378 25.5267 35.8239 28.2223 38.6447V22.9213C28.2223 22.7345 28.1746 22.5591 28.0845 22.4139C25.8721 18.851 21.6207 18.3097 19.2832 18.3042Z" fill="white"/>
<path d="M39.7161 34.3306V19.3062C39.7161 19.0373 39.6113 18.7847 39.4212 18.595C39.2331 18.4074 38.9838 18.3042 38.7193 18.3042C38.7184 18.3042 38.7176 18.3042 38.7168 18.3042C36.3794 18.3098 32.128 18.8511 29.9155 22.414C29.8254 22.5592 29.7778 22.7346 29.7778 22.9214V38.6447C32.4734 35.8239 36.3808 35.3378 38.713 35.3322C39.2661 35.3308 39.7161 34.8815 39.7161 34.3306Z" fill="white"/>
<path d="M41.9985 21.769H41.272V34.3305C41.272 35.7372 40.1259 36.8843 38.717 36.8878C36.7388 36.8925 33.477 37.2793 31.167 39.4657C35.1622 38.4875 39.3739 39.1234 41.7742 39.6703C42.0739 39.7386 42.3836 39.6681 42.6237 39.4767C42.863 39.2858 43.0003 39.0004 43.0003 38.6941V22.7708C43.0004 22.2185 42.5509 21.769 41.9985 21.769Z" fill="white"/>
<path d="M16.7283 34.3305V21.769H16.0018C15.4495 21.769 15 22.2185 15 22.7708V38.6938C15 39.0002 15.1373 39.2855 15.3765 39.4764C15.6165 39.6677 15.9259 39.7385 16.2261 39.6701C18.6263 39.123 22.8381 38.4872 26.8332 39.4654C24.5232 37.2791 21.2615 36.8924 19.2833 36.8877C17.8745 36.8843 16.7283 35.7372 16.7283 34.3305Z" fill="white"/>
</g>
<defs>
<linearGradient id="paint0_linear_4203_17216" x1="58" y1="0" x2="-11.83" y2="25.1388" gradientUnits="userSpaceOnUse">
<stop stop-color="#8060FF"/>
<stop offset="1" stop-color="#5731EC"/>
</linearGradient>
<clipPath id="clip0_4203_17216">
<rect width="28" height="28" fill="white" transform="translate(15 15)"/>
</clipPath>
</defs>
</svg>
