<svg width="58" height="58" viewBox="0 0 58 58" fill="none" xmlns="http://www.w3.org/2000/svg">
<rect width="58" height="58" rx="16" fill="url(#paint0_linear_4203_18365)"/>
<path d="M41.8085 26.901L38.2651 24.9445C37.7293 24.6494 37.0984 24.5788 36.5107 24.7484C35.923 24.918 35.4266 25.3138 35.1304 25.849L31.7065 32.0495L27.637 39.4199C27.5553 39.5678 27.5136 39.7344 27.516 39.9034C27.5184 40.0723 27.5649 40.2377 27.6508 40.3832C27.7366 40.5287 27.859 40.6493 28.0057 40.7331C28.1524 40.8168 28.3184 40.8609 28.4874 40.8609H28.4889L36.1707 40.8485C36.3441 40.8482 36.5143 40.8015 36.6635 40.7133C36.8128 40.625 36.9357 40.4984 37.0195 40.3466L42.713 30.0358C43.008 29.5 43.0785 28.8691 42.9089 28.2814C42.7393 27.6937 42.3436 27.1973 41.8085 26.901ZM35.5953 38.9066L30.1349 38.9153L32.9382 33.8391L37.1191 36.1477L35.5953 38.9066ZM23.176 23.8746L23.8397 25.202H22.5123L23.176 23.8746ZM27.6039 17.1387H18.748C17.7544 17.1399 16.8017 17.5351 16.0991 18.2377C15.3965 18.9404 15.0012 19.893 15 20.8867V29.7425C15.0012 30.7362 15.3965 31.6889 16.0991 32.3915C16.8017 33.0941 17.7544 33.4894 18.748 33.4906H27.6039C28.5976 33.4894 29.5502 33.0941 30.2528 32.3915C30.9554 31.6889 31.3507 30.7363 31.3519 29.7426V20.8867C31.3507 19.893 30.9554 18.9404 30.2528 18.2378C29.5502 17.5351 28.5976 17.1399 27.6039 17.1387ZM27.2227 29.7957C27.1086 29.8528 26.9843 29.8868 26.8571 29.8958C26.7298 29.9049 26.6021 29.8888 26.481 29.8484C26.36 29.8081 26.2481 29.7443 26.1517 29.6607C26.0554 29.5771 25.9764 29.4754 25.9193 29.3613L24.8111 27.1449H21.5409L20.4326 29.3613C20.3174 29.5917 20.1154 29.767 19.8709 29.8484C19.6265 29.9299 19.3597 29.9109 19.1293 29.7957C18.8989 29.6805 18.7236 29.4784 18.6421 29.234C18.5607 28.9896 18.5796 28.7228 18.6949 28.4924L22.3071 21.2679C22.3878 21.1066 22.5118 20.971 22.6652 20.8762C22.8187 20.7814 22.9955 20.7312 23.1758 20.7312C23.3562 20.7312 23.533 20.7814 23.6864 20.8762C23.8398 20.971 23.9639 21.1066 24.0446 21.2679L27.6569 28.4924C27.7722 28.7228 27.7912 28.9896 27.7097 29.234C27.6283 29.4784 27.4531 29.6805 27.2227 29.7957ZM25.9908 39.8894C25.9908 40.1471 25.8885 40.3942 25.7063 40.5764C25.5241 40.7585 25.277 40.8609 25.0194 40.8609H15.9714C15.7138 40.8609 15.4667 40.7585 15.2845 40.5764C15.1023 40.3942 15 40.1471 15 39.8894C15 39.6318 15.1023 39.3847 15.2845 39.2025C15.4667 39.0204 15.7138 38.918 15.9714 38.918H25.0194C25.277 38.918 25.5241 39.0204 25.7063 39.2025C25.8885 39.3847 25.9908 39.6318 25.9908 39.8894Z" fill="white"/>
<defs>
<linearGradient id="paint0_linear_4203_18365" x1="29" y1="0" x2="29" y2="58" gradientUnits="userSpaceOnUse">
<stop stop-color="#FFD03D"/>
<stop offset="1" stop-color="#FFAC2E"/>
</linearGradient>
</defs>
</svg>
