<svg width="58" height="58" viewBox="0 0 58 58" fill="none" xmlns="http://www.w3.org/2000/svg">
<rect width="58" height="58" rx="16" fill="url(#paint0_linear_4203_17510)"/>
<path d="M38.6158 17.3335H19.384C18.2532 17.3335 17.3333 18.2534 17.3333 19.3843V33.1473C17.3333 34.2781 18.2532 35.1981 19.384 35.1981H25.5364V36.5653H32.4179V35.1981H38.6158C39.7466 35.1981 40.6666 34.2781 40.6666 33.1473V19.3843C40.6666 18.2534 39.7466 17.3335 38.6158 17.3335ZM25.3361 29.4835L22.6018 32.2178C22.3347 32.4848 21.9021 32.4848 21.6351 32.2178L20.2679 30.8507C20.0009 30.5836 20.0009 30.1511 20.2679 29.884C20.5349 29.617 20.9676 29.617 21.2346 29.884L22.1184 30.7679L24.3695 28.5168C24.6365 28.2498 25.0691 28.2498 25.3361 28.5168C25.6031 28.7838 25.6031 29.2165 25.3361 29.4835ZM25.3361 25.3819L22.6018 28.1163C22.3347 28.3833 21.9021 28.3833 21.6351 28.1163L20.2679 26.7491C20.0009 26.4821 20.0009 26.0495 20.2679 25.7825C20.5349 25.5155 20.9676 25.5155 21.2346 25.7825L22.1184 26.6663L24.3695 24.4153C24.6365 24.1482 25.0691 24.1482 25.3361 24.4153C25.6031 24.6823 25.6031 25.1149 25.3361 25.3819ZM25.3361 21.2803L22.6018 24.0147C22.3347 24.2817 21.9021 24.2817 21.6351 24.0147L20.2679 22.6475C20.0009 22.3805 20.0009 21.9479 20.2679 21.6809C20.5349 21.4139 20.9676 21.4139 21.2346 21.6809L22.1184 22.5648L24.3695 20.3137C24.6365 20.0467 25.0691 20.0467 25.3361 20.3137C25.6031 20.5807 25.6031 21.0133 25.3361 21.2803ZM37.2486 31.0509H27.5872C27.2093 31.0509 26.9036 30.7452 26.9036 30.3673C26.9036 29.9895 27.2093 29.6838 27.5872 29.6838H37.2486C37.6265 29.6838 37.9322 29.9895 37.9322 30.3673C37.9322 30.7452 37.6265 31.0509 37.2486 31.0509ZM37.2486 26.9494H27.5872C27.2093 26.9494 26.9036 26.6436 26.9036 26.2658C26.9036 25.8879 27.2093 25.5822 27.5872 25.5822H37.2486C37.6265 25.5822 37.9322 25.8879 37.9322 26.2658C37.9322 26.6436 37.6265 26.9494 37.2486 26.9494ZM37.2486 22.8478H27.5872C27.2093 22.8478 26.9036 22.5421 26.9036 22.1642C26.9036 21.7864 27.2093 21.4806 27.5872 21.4806H37.2486C37.6265 21.4806 37.9322 21.7864 37.9322 22.1642C37.9322 22.5421 37.6265 22.8478 37.2486 22.8478Z" fill="white"/>
<path d="M33.7852 37.9326H24.2148C22.7068 37.9326 21.4805 39.1589 21.4805 40.667H36.5195C36.5195 39.1589 35.2932 37.9326 33.7852 37.9326Z" fill="white"/>
<defs>
<linearGradient id="paint0_linear_4203_17510" x1="29" y1="0" x2="29" y2="58" gradientUnits="userSpaceOnUse">
<stop stop-color="#FFD03D"/>
<stop offset="1" stop-color="#FFAC2E"/>
</linearGradient>
</defs>
</svg>
