<svg width="58" height="58" viewBox="0 0 58 58" fill="none" xmlns="http://www.w3.org/2000/svg">
<rect width="58" height="58" rx="16" fill="url(#paint0_linear_4203_17452)"/>
<g clip-path="url(#clip0_4203_17452)">
<path d="M42.7551 40.4652C42.4617 39.2565 41.8163 38.2121 40.9598 37.4258C40.0679 38.7166 38.5658 39.5616 36.8759 39.5616C35.186 39.5616 33.6958 38.7166 32.8038 37.4258C31.9355 38.2121 31.3018 39.2565 31.0084 40.4769C30.8557 41.0754 30.9967 41.6974 31.3838 42.1903C31.7828 42.6949 32.4048 43 33.0385 43H40.7251C41.3705 43 41.9806 42.6949 42.3797 42.1903C42.7669 41.6974 42.9078 41.0754 42.7551 40.4652Z" fill="white"/>
<path d="M25.0116 37.4258C24.1198 38.7166 22.6296 39.5616 20.9397 39.5616C19.2498 39.5616 17.7476 38.7166 16.8558 37.4258C15.9992 38.2121 15.3537 39.2565 15.0603 40.4652C14.9078 41.0754 15.0485 41.6974 15.4359 42.1903C15.8349 42.6949 16.4451 43 17.0905 43H24.7769C25.4107 43 26.0327 42.6949 26.4318 42.1903C26.8189 41.6974 26.9599 41.0754 26.8072 40.4652C26.5138 39.2565 25.8801 38.2121 25.0116 37.4258Z" fill="white"/>
<path d="M35.708 29.4141V31.5749C34.5095 32.0453 33.6493 33.2077 33.6493 34.5742C33.6493 36.3554 35.1056 37.8013 36.8764 37.8013C38.6577 37.8013 40.1141 36.3554 40.1141 34.5742C40.1141 33.2094 39.2562 32.0479 38.055 31.5764V29.4141C38.055 28.1637 37.0386 27.1467 35.7884 27.1467H30.0433V25.4317C32.4108 24.9102 34.1885 22.8036 34.1885 20.2808C34.1885 17.3673 31.8212 15 28.9077 15C25.9942 15 23.6269 17.3673 23.6269 20.2808C23.6269 22.7758 25.368 24.8579 27.6963 25.4082V27.1467H22.027C20.7766 27.1467 19.7602 28.1637 19.7602 29.4141V31.5739C18.5561 32.0453 17.696 33.2083 17.696 34.5766C17.696 36.35 19.1544 37.7966 20.9393 37.7966C22.7126 37.7966 24.171 36.35 24.171 34.5766C24.171 33.2001 23.3002 32.0329 22.09 31.567L22.027 29.4937C24.9276 29.4768 31.5678 29.4382 35.708 29.4141Z" fill="white"/>
</g>
<defs>
<linearGradient id="paint0_linear_4203_17452" x1="58" y1="0" x2="-11.83" y2="25.1388" gradientUnits="userSpaceOnUse">
<stop stop-color="#8060FF"/>
<stop offset="1" stop-color="#5731EC"/>
</linearGradient>
<clipPath id="clip0_4203_17452">
<rect width="28" height="28" fill="white" transform="translate(15 15)"/>
</clipPath>
</defs>
</svg>
