<svg width="58" height="58" viewBox="0 0 58 58" fill="none" xmlns="http://www.w3.org/2000/svg">
<rect width="58" height="58" rx="16" fill="url(#paint0_linear_4203_16560)"/>
<path fill-rule="evenodd" clip-rule="evenodd" d="M27.3374 18.1159C26.4771 18.1159 25.7453 18.7137 25.5398 19.5195H32.4476C32.2422 18.7137 31.5103 18.1159 30.6501 18.1159H27.3374ZM34.3992 19.5194H36.9415C39.6378 19.5194 41.8334 21.7417 41.8334 24.4708C41.8334 24.4708 41.7564 25.6261 41.7307 27.235C41.7281 27.3623 41.6665 27.4871 41.5651 27.5624C40.9475 28.0186 40.3825 28.3955 40.3312 28.4215C38.1998 29.851 35.723 30.8569 33.0844 31.3572C32.9124 31.391 32.7429 31.3013 32.6556 31.148C31.916 29.8666 30.5344 29.0323 28.9937 29.0323C27.4632 29.0323 26.0688 29.8575 25.3074 31.1402C25.2188 31.2909 25.0519 31.378 24.8811 31.3455C22.2643 30.8439 19.7876 29.8393 17.669 28.4345L16.4364 27.5767C16.3337 27.5118 16.2695 27.3948 16.2695 27.2648C16.2309 26.6021 16.1667 24.4708 16.1667 24.4708C16.1667 21.7417 18.3623 19.5194 21.0587 19.5194H23.5881C23.8321 17.635 25.4114 16.1665 27.3373 16.1665H30.65C32.576 16.1665 34.1552 17.635 34.3992 19.5194ZM41.3972 30.0462L41.3458 30.0722C38.7522 31.8136 35.6322 32.9702 32.358 33.4511C31.8958 33.5161 31.4336 33.2172 31.3052 32.7493C31.0227 31.6837 30.1111 30.9819 29.0197 30.9819H29.0068H28.9812C27.8898 30.9819 26.9782 31.6837 26.6957 32.7493C26.5673 33.2172 26.1051 33.5161 25.6428 33.4511C22.3687 32.9702 19.2486 31.8136 16.655 30.0722C16.6422 30.0592 16.5138 29.9812 16.411 30.0462C16.2955 30.1112 16.2955 30.2671 16.2955 30.2671L16.3854 36.8949C16.3854 39.6241 18.5681 41.8333 21.2645 41.8333H36.7235C39.4199 41.8333 41.6026 39.6241 41.6026 36.8949L41.7054 30.2671C41.7054 30.2671 41.7054 30.1112 41.5898 30.0462C41.5256 30.0072 41.4486 30.0202 41.3972 30.0462ZM29.9569 35.4912C29.9569 36.0371 29.5332 36.4659 28.994 36.4659C28.4675 36.4659 28.031 36.0371 28.031 35.4912V33.8148C28.031 33.282 28.4675 32.8401 28.994 32.8401C29.5332 32.8401 29.9569 33.282 29.9569 33.8148V35.4912Z" fill="white"/>
<defs>
<linearGradient id="paint0_linear_4203_16560" x1="55.9286" y1="2.07143" x2="8.7" y2="58" gradientUnits="userSpaceOnUse">
<stop stop-color="#17BA92"/>
<stop offset="1" stop-color="#0C9D7A"/>
</linearGradient>
</defs>
</svg>
