<svg width="58" height="58" viewBox="0 0 58 58" fill="none" xmlns="http://www.w3.org/2000/svg">
<rect width="58" height="58" rx="16" fill="url(#paint0_linear_4203_18506)"/>
<path d="M36.4401 22.7825C37.4063 22.7923 38.7494 22.7965 39.8888 22.7923C40.4724 22.7909 40.769 22.0867 40.3643 21.6625C38.9005 20.1253 36.2821 17.3743 34.7837 15.8007C34.3692 15.3653 33.6443 15.6649 33.6443 16.2683V19.9587C33.6443 21.5071 34.9071 22.7825 36.4401 22.7825Z" fill="white"/>
<path fill-rule="evenodd" clip-rule="evenodd" d="M24.9291 26.0599H29.6143C30.1826 26.0599 30.6539 26.5359 30.6539 27.1099C30.6539 27.6839 30.1826 28.1459 29.6143 28.1459H24.9291C24.3608 28.1459 23.8895 27.6839 23.8895 27.1099C23.8895 26.5359 24.3608 26.0599 24.9291 26.0599ZM40.5095 24.828C40.1871 24.828 39.8324 24.8321 39.5065 24.8359C39.2299 24.839 38.9741 24.842 38.7768 24.842C38.4978 24.842 38.1817 24.8393 37.826 24.8363H37.826C37.3689 24.8324 36.8465 24.828 36.254 24.828C33.7174 24.814 31.6243 22.714 31.6243 20.152V15.644C31.6243 15.294 31.3471 15 30.9867 15H23.5847C20.1333 15 17.3333 17.842 17.3333 21.314V36.406C17.3333 40.046 20.2719 43 23.8758 43H32.9577C30.5861 41.571 28.9999 38.9707 28.9999 36C28.9999 31.4897 32.6563 27.8333 37.1666 27.8333C38.6062 27.8333 39.9588 28.2058 41.1333 28.8597V25.458C41.1333 25.108 40.856 24.828 40.5095 24.828Z" fill="white"/>
<path fill-rule="evenodd" clip-rule="evenodd" d="M35.4259 29.7704C35.9086 29.6483 36.4136 29.5835 36.9332 29.5835C37.4528 29.5835 37.9579 29.6483 38.4405 29.7704C38.8344 29.8701 39.0378 30.2103 39.1033 30.4931C39.1808 30.828 39.391 31.1298 39.7115 31.3148C40.0061 31.4849 40.3393 31.5249 40.6465 31.4525C40.9289 31.3859 41.3232 31.4176 41.5871 31.7256C42.0777 32.2981 42.4647 32.9626 42.7186 33.69C42.8702 34.1242 42.6353 34.5152 42.3873 34.7196C42.1011 34.9554 41.9197 35.3113 41.9197 35.7098C41.9197 36.1084 42.1011 36.4642 42.3873 36.7001C42.6353 36.9044 42.8702 37.2955 42.7186 37.7297C42.4647 38.457 42.0778 39.1214 41.5872 39.6939C41.3234 40.0019 40.929 40.0336 40.6466 39.967C40.3393 39.8945 40.0061 39.9345 39.7114 40.1046C39.3909 40.2897 39.1807 40.5915 39.1032 40.9265C39.0378 41.2093 38.8344 41.5496 38.4405 41.6493C37.9578 41.7714 37.4528 41.8362 36.9332 41.8362C36.4136 41.8362 35.9086 41.7714 35.426 41.6493C35.032 41.5496 34.8286 41.2093 34.7632 40.9265C34.6857 40.5915 34.4755 40.2897 34.155 40.1046C33.8603 39.9345 33.5271 39.8945 33.2198 39.967C32.9374 40.0336 32.543 40.0019 32.2791 39.6939C31.7886 39.1214 31.4017 38.457 31.1478 37.7297C30.9962 37.2955 31.2311 36.9044 31.4791 36.7001C31.7653 36.4642 31.9467 36.1084 31.9467 35.7098C31.9467 35.3113 31.7653 34.9554 31.4791 34.7196C31.2311 34.5152 30.9962 34.1242 31.1478 33.6899C31.4017 32.9626 31.7887 32.2981 32.2793 31.7255C32.5432 31.4176 32.9375 31.3859 33.2199 31.4525C33.5272 31.5249 33.8603 31.4849 34.155 31.3148C34.4755 31.1298 34.6857 30.828 34.7632 30.493C34.8286 30.2103 35.032 29.8701 35.4259 29.7704ZM36.9339 37.4194C35.9896 37.4194 35.2242 36.654 35.2242 35.7098C35.2242 34.7655 35.9896 34.0001 36.9339 34.0001C37.8781 34.0001 38.6435 34.7655 38.6435 35.7098C38.6435 36.654 37.8781 37.4194 36.9339 37.4194Z" fill="white"/>
<defs>
<linearGradient id="paint0_linear_4203_18506" x1="29" y1="0" x2="29" y2="58" gradientUnits="userSpaceOnUse">
<stop stop-color="#FFD03D"/>
<stop offset="1" stop-color="#FFAC2E"/>
</linearGradient>
</defs>
</svg>
