<svg width="58" height="58" viewBox="0 0 58 58" fill="none" xmlns="http://www.w3.org/2000/svg">
<rect width="58" height="58" rx="16" fill="url(#paint0_linear_4203_16546)"/>
<path d="M35.4165 35.4165C36.383 35.4165 37.1665 34.633 37.1665 33.6665C37.1665 32.7 36.383 31.9165 35.4165 31.9165C34.45 31.9165 33.6665 32.7 33.6665 33.6665C33.6665 34.633 34.45 35.4165 35.4165 35.4165Z" fill="white"/>
<path d="M28.9999 41.8333C28.9999 39.3833 30.2833 37.4 32.2666 36.2333C31.6833 35.5333 31.3333 34.6 31.3333 33.6667C31.3333 31.45 33.1999 29.5833 35.4166 29.5833C36.5833 29.5833 37.6333 30.05 38.3333 30.8667V19.6667C38.3333 17.1 36.2333 15 33.6666 15H21.9999C19.4333 15 17.3333 17.1 17.3333 19.6667V38.3333C17.3333 40.9 19.4333 43 21.9999 43H28.9999V41.8333ZM21.9999 30.1667C21.9999 29.4667 22.4666 29 23.1666 29H27.8333C28.5333 29 28.9999 29.4667 28.9999 30.1667C28.9999 30.8667 28.5333 31.3333 27.8333 31.3333H23.1666C22.4666 31.3333 21.9999 30.8667 21.9999 30.1667ZM32.4999 26.6667H23.1666C22.4666 26.6667 21.9999 26.2 21.9999 25.5C21.9999 24.8 22.4666 24.3333 23.1666 24.3333H32.4999C33.1999 24.3333 33.6666 24.8 33.6666 25.5C33.6666 26.2 33.1999 26.6667 32.4999 26.6667ZM32.4999 22H23.1666C22.4666 22 21.9999 21.5333 21.9999 20.8333C21.9999 20.1333 22.4666 19.6667 23.1666 19.6667H32.4999C33.1999 19.6667 33.6666 20.1333 33.6666 20.8333C33.6666 21.5333 33.1999 22 32.4999 22Z" fill="white"/>
<path d="M35.4166 37.75C33.1999 37.75 31.3333 39.6167 31.3333 41.8333V43H39.4999V41.8333C39.4999 39.6167 37.6333 37.75 35.4166 37.75Z" fill="white"/>
<defs>
<linearGradient id="paint0_linear_4203_16546" x1="58" y1="0" x2="-11.83" y2="25.1388" gradientUnits="userSpaceOnUse">
<stop stop-color="#8060FF"/>
<stop offset="1" stop-color="#5731EC"/>
</linearGradient>
</defs>
</svg>
