<svg width="58" height="58" viewBox="0 0 58 58" fill="none" xmlns="http://www.w3.org/2000/svg">
<rect width="58" height="58" rx="16" fill="url(#paint0_linear_4203_18418)"/>
<path d="M27.25 32.5C32.075 32.5 36 28.575 36 23.75C36 18.925 32.075 15 27.25 15C22.425 15 18.5 18.925 18.5 23.75C18.5 28.575 22.425 32.5 27.25 32.5ZM27.5416 24.3334H26.9583C25.8327 24.3334 24.9166 23.4173 24.9166 22.2917C24.9166 21.2659 25.6798 20.4225 26.6666 20.2795V19.6666C26.6666 19.3442 26.9276 19.0833 27.25 19.0833C27.5724 19.0833 27.8334 19.3442 27.8334 19.6666V20.25H29C29.3224 20.25 29.5834 20.5109 29.5834 20.8334C29.5834 21.1558 29.3224 21.4167 29 21.4167H26.9584C26.4758 21.4167 26.0834 21.8092 26.0834 22.2917C26.0834 22.7742 26.4758 23.1667 26.9584 23.1667H27.5417C28.6673 23.1667 29.5834 24.0827 29.5834 25.2084C29.5834 26.2342 28.8202 27.0776 27.8334 27.2205V27.8334C27.8334 28.1558 27.5724 28.4167 27.25 28.4167C26.9276 28.4167 26.6666 28.1558 26.6666 27.8334V27.25H25.5C25.1776 27.25 24.9166 26.9891 24.9166 26.6666C24.9166 26.3442 25.1776 26.0833 25.5 26.0833H27.5416C28.0242 26.0833 28.4166 25.6908 28.4166 25.2083C28.4166 24.7258 28.0242 24.3334 27.5416 24.3334Z" fill="white"/>
<path d="M38.3332 31.3335H34.8332C34.1884 31.3335 33.6666 31.8559 33.6666 32.5001C33.6666 33.1444 34.1884 33.6668 34.8332 33.6668H35.362L30.0868 38.5653L26.1994 35.6504C25.7563 35.3171 25.1342 35.3427 24.7194 35.7164L18.8861 40.9664C18.4076 41.3971 18.3689 42.1348 18.7995 42.6139C19.2313 43.0919 19.9673 43.1317 20.447 42.7005L25.5671 38.0925L29.467 41.0166C29.9148 41.3555 30.5437 41.323 30.9607 40.9385L37.1666 35.1759V36.0001C37.1666 36.6444 37.6884 37.1668 38.3332 37.1668C38.9781 37.1668 39.4999 36.6445 39.4999 36.0002V32.5002C39.4999 31.8559 38.9781 31.3335 38.3332 31.3335Z" fill="white"/>
<defs>
<linearGradient id="paint0_linear_4203_18418" x1="58" y1="0" x2="6.62857" y2="58" gradientUnits="userSpaceOnUse">
<stop stop-color="#FF8C59"/>
<stop offset="1" stop-color="#EE6315"/>
</linearGradient>
</defs>
</svg>
