<svg width="58" height="58" viewBox="0 0 58 58" fill="none" xmlns="http://www.w3.org/2000/svg">
<rect width="58" height="58" rx="16" fill="url(#paint0_linear_4203_17654)"/>
<path d="M35.1251 29.875C32.2276 29.875 29.8751 32.2276 29.8751 35.125C29.8751 38.0224 32.2276 40.375 35.1251 40.375C38.0225 40.375 40.3751 38.0224 40.3751 35.125C40.3751 32.2276 38.0225 29.875 35.1251 29.875ZM28.1189 30.75C28.1189 30.2667 27.7272 29.875 27.2439 29.875H20.2439C19.5478 29.875 18.88 30.1516 18.3878 30.6439C17.8955 31.1361 17.6189 31.8039 17.6189 32.5V37.75C17.6189 38.4461 17.8955 39.1139 18.3878 39.6061C18.88 40.0984 19.5478 40.375 20.2439 40.375H25.4939C26.19 40.375 26.8578 40.0984 27.35 39.6061C27.8423 39.1139 28.1189 38.4461 28.1189 37.75C28.1189 35.1964 28.1189 30.75 28.1189 30.75ZM40.3751 20.25C40.3751 19.5539 40.0984 18.8861 39.6062 18.3939C39.1139 17.9016 38.4461 17.625 37.7501 17.625C36.2252 17.625 34.0249 17.625 32.5001 17.625C31.804 17.625 31.1362 17.9016 30.6439 18.3939C30.1517 18.8861 29.8751 19.5539 29.8751 20.25V27.25C29.8751 27.7333 30.2668 28.125 30.7501 28.125H37.7501C38.4461 28.125 39.1139 27.8484 39.6062 27.3561C40.0984 26.8639 40.3751 26.1961 40.3751 25.5V20.25ZM28.1189 20.25C28.1189 19.5539 27.8423 18.8861 27.35 18.3939C26.8578 17.9016 26.19 17.625 25.4939 17.625C23.969 17.625 21.7688 17.625 20.2439 17.625C19.5478 17.625 18.88 17.9016 18.3878 18.3939C17.8955 18.8861 17.6189 19.5539 17.6189 20.25V25.5C17.6189 26.1961 17.8955 26.8639 18.3878 27.3561C18.88 27.8484 19.5478 28.125 20.2439 28.125H27.2439C27.7272 28.125 28.1189 27.7333 28.1189 27.25V20.25Z" fill="white"/>
<defs>
<linearGradient id="paint0_linear_4203_17654" x1="58" y1="0" x2="-11.83" y2="25.1388" gradientUnits="userSpaceOnUse">
<stop stop-color="#8060FF"/>
<stop offset="1" stop-color="#5731EC"/>
</linearGradient>
</defs>
</svg>
