<svg width="58" height="58" viewBox="0 0 58 58" fill="none" xmlns="http://www.w3.org/2000/svg">
<rect width="58" height="58" rx="16" fill="url(#paint0_linear_4203_17535)"/>
<g clip-path="url(#clip0_4203_17535)">
<path d="M38.0956 27.4C34.5777 26.4859 31.4348 27.1092 28.8619 29.5629C26.2911 32.0145 25.6642 35.0076 26.6113 38.3348C23.4527 38.3348 20.2863 38.3348 17.1007 38.3348C17.1256 38.8196 17.3236 39.1935 17.7461 39.4551C18.0201 39.6248 18.3233 39.6688 18.6413 39.6688C21.4307 39.6681 24.2195 39.6695 27.0089 39.6647C27.1615 39.6647 27.2496 39.6985 27.3241 39.8351C27.6635 40.4571 28.1001 41.0163 28.5992 41.5308C28.6347 41.5673 28.6681 41.6065 28.7192 41.6633C28.6503 41.6681 28.602 41.6748 28.553 41.6748C25.2262 41.6755 21.8993 41.6782 18.5725 41.6741C16.8196 41.6721 15.4408 40.614 15.0653 38.9859C15.0113 38.7526 15.0035 38.5059 15.0035 38.2652C15 31.6473 14.9978 25.0295 15.0035 18.4117C15.0042 16.9601 15.7149 15.9141 17.0865 15.2867C17.5551 15.0723 18.0634 15 18.5838 15C22.4311 15.0014 26.2776 15.0007 30.1249 15.0007C31.5966 15.0007 33.0677 14.9993 34.5394 15.0007C36.1063 15.002 37.4225 15.885 37.9145 17.2995C38.031 17.6348 38.0871 18.004 38.0885 18.3576C38.102 21.3345 38.0963 24.3115 38.0963 27.2884C38.0956 27.3215 38.0956 27.3547 38.0956 27.4ZM26.2116 19.004C24.3799 19.004 22.5475 19.0114 20.7158 19.0006C19.915 18.9958 19.3165 19.459 19.2412 20.0756C19.1731 20.6307 19.2143 21.198 19.2114 21.7591C19.2107 21.8369 19.2256 21.9167 19.2476 21.991C19.4343 22.6334 19.964 23.0032 20.6952 23.0039C24.3586 23.0045 28.0227 23.0039 31.6861 23.0039C31.7216 23.0039 31.7571 23.0045 31.7926 23.0032C32.5139 22.9836 33.1046 22.5184 33.1692 21.8362C33.2217 21.2845 33.2011 20.7233 33.1727 20.1682C33.1528 19.7869 32.9392 19.4799 32.6083 19.2548C32.3222 19.0601 31.9999 19.0013 31.6548 19.0019C29.8395 19.0053 28.0255 19.004 26.2116 19.004Z" fill="white"/>
<path d="M43.0001 35.6703C42.9895 39.7304 39.5355 43.0109 35.2822 42.9994C31.0153 42.9879 27.5827 39.6952 27.5948 35.6264C27.6068 31.5933 31.0764 28.3277 35.3368 28.3399C39.5604 28.3514 43.0108 31.6522 43.0001 35.6703ZM33.197 35.6575C33.197 36.479 33.197 37.3004 33.197 38.1219C33.197 38.4634 33.3355 38.7345 33.655 38.9042C33.978 39.0759 34.279 39.0049 34.5672 38.817C35.8296 37.9941 37.0926 37.1733 38.3534 36.3485C38.4493 36.2856 38.5458 36.2126 38.6133 36.124C38.942 35.6893 38.8284 35.1883 38.3314 34.8759C37.5285 34.3708 36.7213 33.8712 35.9162 33.3688C35.4469 33.0761 34.9769 32.7847 34.5083 32.4906C34.2854 32.3506 34.0525 32.287 33.7884 32.3756C33.437 32.4933 33.1992 32.8049 33.1977 33.1768C33.1956 34.003 33.197 34.8306 33.197 35.6575Z" fill="white"/>
</g>
<defs>
<linearGradient id="paint0_linear_4203_17535" x1="58" y1="0" x2="-11.83" y2="25.1388" gradientUnits="userSpaceOnUse">
<stop stop-color="#8060FF"/>
<stop offset="1" stop-color="#5731EC"/>
</linearGradient>
<clipPath id="clip0_4203_17535">
<rect width="28" height="28" fill="white" transform="translate(15 15)"/>
</clipPath>
</defs>
</svg>
