<svg width="58" height="58" viewBox="0 0 58 58" fill="none" xmlns="http://www.w3.org/2000/svg">
<rect width="58" height="58" rx="16" fill="url(#paint0_linear_4203_22210)"/>
<path fill-rule="evenodd" clip-rule="evenodd" d="M34.9417 16.0761L34.9431 17.1255C38.7996 17.4278 41.3471 20.0557 41.3513 24.0857L41.3665 35.8817C41.372 40.2755 38.6116 42.979 34.187 42.986L23.3791 43C18.9822 43.0056 16.1872 40.2378 16.1817 35.8314L16.1665 24.1738C16.161 20.1172 18.6186 17.4964 22.4751 17.1423L22.4738 16.0929C22.4724 15.4772 22.9285 15.014 23.5367 15.014C24.1449 15.0126 24.6011 15.4744 24.6024 16.0901L24.6038 17.0696L32.8144 17.0584L32.8131 16.0789C32.8117 15.4632 33.2678 15.0014 33.876 15C34.4704 14.9986 34.9404 15.4604 34.9417 16.0761ZM18.2966 24.6062L39.224 24.5782V24.0885C39.1646 21.08 37.6551 19.5016 34.9459 19.2665L34.9473 20.344C34.9473 20.9457 34.4787 21.4228 33.8843 21.4228C33.2761 21.4242 32.8186 20.9485 32.8186 20.3468L32.8172 19.2133L24.6066 19.2245L24.608 20.3566C24.608 20.9597 24.1532 21.4354 23.545 21.4354C22.9368 21.4368 22.4793 20.9625 22.4793 20.3594L22.4779 19.2819C19.7825 19.552 18.2911 21.136 18.2952 24.171L18.2966 24.6062ZM33.3024 30.9661V30.9815C33.3162 31.6252 33.8415 32.1135 34.4787 32.0995C35.1007 32.0841 35.5969 31.551 35.5831 30.9073C35.5541 30.2916 35.0551 29.7893 34.4344 29.7907C33.7986 29.8047 33.301 30.3224 33.3024 30.9661ZM34.4441 37.249C33.8083 37.235 33.2955 36.7046 33.2941 36.061C33.2803 35.4173 33.7903 34.8842 34.4262 34.8688H34.44C35.0897 34.8688 35.6163 35.3991 35.6163 36.0568C35.6177 36.7144 35.0924 37.2476 34.4441 37.249ZM27.6074 30.9887C27.635 31.6323 28.1616 32.1347 28.7975 32.1067C29.4195 32.0773 29.9157 31.5456 29.8881 30.9019C29.8729 30.2722 29.3614 29.7825 28.7394 29.7839C28.1036 29.8118 27.606 30.345 27.6074 30.9887ZM28.8029 37.1861C28.1671 37.2141 27.6418 36.7118 27.6128 36.0681C27.6128 35.4244 28.1091 34.8927 28.7449 34.8633C29.3669 34.8619 29.8797 35.3517 29.8935 35.9799C29.9226 36.625 29.425 37.1567 28.8029 37.1861ZM21.9123 31.0375C21.94 31.6812 22.4666 32.185 23.1025 32.1556C23.7245 32.1276 24.2207 31.5944 24.1917 30.9508C24.1779 30.3211 23.6664 29.8313 23.043 29.8327C22.4072 29.8607 21.911 30.3939 21.9123 31.0375ZM23.1084 37.1929C22.4725 37.2222 21.9473 36.7185 21.9183 36.0748C21.9169 35.4311 22.4145 34.898 23.0503 34.87C23.6723 34.8686 24.1852 35.3584 24.199 35.9881C24.228 36.6317 23.7318 37.1649 23.1084 37.1929Z" fill="white"/>
<defs>
<linearGradient id="paint0_linear_4203_22210" x1="56.3429" y1="1.65714" x2="9.52857" y2="56.3429" gradientUnits="userSpaceOnUse">
<stop offset="0.28125" stop-color="#0099F9"/>
<stop offset="0.927083" stop-color="#0065E4"/>
</linearGradient>
</defs>
</svg>
