<svg width="58" height="58" viewBox="0 0 58 58" fill="none" xmlns="http://www.w3.org/2000/svg">
<rect width="58" height="58" rx="16" fill="url(#paint0_linear_4203_18378)"/>
<path d="M34.9185 39.5788C34.9185 38.7997 34.9154 40.1866 34.9154 19.3402C34.9154 17.5902 33.4917 16.1665 31.7417 16.1665H19.3405C17.5904 16.1665 16.1667 17.5902 16.1667 19.3402V36.6191C16.1667 39.4941 18.5058 41.8332 21.3808 41.8332H35.6714C35.1987 41.2045 34.9185 40.424 34.9185 39.5788ZM23.7364 30.9549H19.9265C19.5114 30.9549 19.1746 30.618 19.1746 30.203C19.1746 29.7879 19.5114 29.451 19.9265 29.451H23.7364C24.1515 29.451 24.4884 29.7879 24.4884 30.203C24.4884 30.618 24.1515 30.9549 23.7364 30.9549ZM23.7364 27.7466H19.9265C19.5114 27.7466 19.1746 27.4097 19.1746 26.9946C19.1746 26.5796 19.5114 26.2427 19.9265 26.2427H23.7364C24.1515 26.2427 24.4884 26.5796 24.4884 26.9946C24.4884 27.4097 24.1515 27.7466 23.7364 27.7466ZM29.5254 36.8071V37.327C29.5254 37.7425 29.1891 38.0789 28.7735 38.0789C28.3584 38.0789 28.0215 37.7425 28.0215 37.327V36.8768C27.4029 36.8197 26.9097 36.6492 26.2324 36.2061C25.885 35.9785 25.7872 35.5128 26.0148 35.1649C26.2419 34.8174 26.7081 34.7202 27.0555 34.9473C27.4475 35.204 27.6957 35.3172 28.0215 35.3654V32.2623C27.5513 32.0463 27.1994 31.8382 26.9107 31.6116C25.5571 30.5499 25.9837 27.9556 28.0215 27.4202V26.9681C28.0215 26.5525 28.3584 26.2161 28.7735 26.2161C29.1891 26.2161 29.5254 26.5525 29.5254 26.9681V27.3676C30.3596 27.536 30.9511 28.0258 30.9361 28.0424C31.4118 28.5121 31.077 29.3277 30.4082 29.3277C30.0092 29.3277 29.9781 29.1031 29.5254 28.9271V31.2537C29.6543 31.3013 29.7826 31.3474 29.9089 31.3921C32.6716 32.3686 32.1553 36.1394 29.5254 36.8071ZM31.1557 24.5382H19.9265C19.5114 24.5382 19.1746 24.2014 19.1746 23.7863C19.1746 23.3712 19.5114 23.0343 19.9265 23.0343H31.1557C31.5708 23.0343 31.9076 23.3712 31.9076 23.7863C31.9076 24.2014 31.5708 24.5382 31.1557 24.5382ZM31.1557 21.731H19.9265C19.5114 21.731 19.1746 21.3941 19.1746 20.979C19.1746 20.5639 19.5114 20.2271 19.9265 20.2271H31.1557C31.5708 20.2271 31.9076 20.5639 31.9076 20.979C31.9076 21.3941 31.5708 21.731 31.1557 21.731Z" fill="white"/>
<path d="M27.8383 30.4282C27.8944 30.4723 27.9561 30.5154 28.0213 30.558V29.0576C27.5656 29.4271 27.518 30.177 27.8383 30.4282Z" fill="white"/>
<path d="M29.5247 32.8569V35.196C30.3598 34.7017 30.622 33.3332 29.5247 32.8569Z" fill="white"/>
<path d="M39.2836 28.248H36.4197C36.4197 41.4343 36.4228 38.8924 36.4228 39.5791C36.4228 40.8221 37.4341 41.8333 38.6771 41.8333C39.9201 41.8333 40.9314 40.8221 40.9314 39.5791C40.9314 39.2586 40.9314 30.276 40.9314 29.8958C40.9314 28.9875 40.192 28.248 39.2836 28.248Z" fill="white"/>
<defs>
<linearGradient id="paint0_linear_4203_18378" x1="55.9286" y1="2.07143" x2="8.7" y2="58" gradientUnits="userSpaceOnUse">
<stop stop-color="#17BA92"/>
<stop offset="1" stop-color="#0C9D7A"/>
</linearGradient>
</defs>
</svg>
