<svg width="58" height="58" viewBox="0 0 58 58" fill="none" xmlns="http://www.w3.org/2000/svg">
<rect width="58" height="58" rx="16" fill="url(#paint0_linear_4203_18371)"/>
<path d="M37.4448 17.3335H20.6526C18.7977 17.3335 17.3333 18.7979 17.3333 20.6529V37.3474C17.3333 39.2024 18.7977 40.6668 20.6526 40.6668H37.3472C39.2022 40.6668 40.6666 39.2024 40.6666 37.3474V20.6529C40.7642 18.7979 39.2998 17.3335 37.4448 17.3335ZM25.4365 20.2624C26.9985 20.2624 28.1701 21.5315 28.1701 22.996C28.1701 24.558 26.9009 25.7296 25.4365 25.7296C23.972 25.7296 22.7028 24.558 22.7028 22.996C22.7028 21.5315 23.972 20.2624 25.4365 20.2624ZM22.7028 36.9569H22.0194C21.5313 36.9569 21.0432 36.4688 21.0432 35.9806C21.0432 35.4925 21.5313 35.0043 22.0194 35.0043H22.7028C23.191 35.0043 23.6791 35.4925 23.6791 35.9806C23.6791 36.4688 23.191 36.9569 22.7028 36.9569ZM27.1938 36.9569H26.5104C26.0222 36.9569 25.5341 36.4688 25.5341 35.9806C25.5341 35.4925 26.0222 35.0043 26.5104 35.0043H27.1938C27.7796 35.0043 28.1701 35.4925 28.1701 35.9806C28.1701 36.4688 27.6819 36.9569 27.1938 36.9569ZM21.5313 32.1731C20.8479 32.1731 20.3598 31.4897 20.555 30.8063C20.9455 29.2442 22.2147 27.8774 23.7768 27.3893C24.2649 27.5845 24.8507 27.6822 25.4365 27.6822C26.0222 27.6822 26.608 27.5845 27.0962 27.3893C27.8772 27.5845 28.463 28.0727 29.0487 28.5608C29.6345 29.1466 30.1227 29.9276 30.3179 30.8063C30.5132 31.4897 30.025 32.1731 29.3416 32.1731H21.5313ZM31.5871 36.9569H30.9037C30.4155 36.9569 29.9274 36.4688 29.9274 35.9806C29.9274 35.4925 30.4155 35.0043 30.9037 35.0043H31.5871C32.0752 35.0043 32.5634 35.4925 32.5634 35.9806C32.5634 36.4688 32.1729 36.9569 31.5871 36.9569ZM36.078 36.9569H35.3946C34.9065 36.9569 34.4183 36.4688 34.4183 35.9806C34.4183 35.4925 34.9065 35.0043 35.3946 35.0043H36.078C36.5662 35.0043 37.0543 35.4925 37.0543 35.9806C37.0543 36.4688 36.6638 36.9569 36.078 36.9569ZM37.0543 28.6585H33.1492C32.661 28.6585 32.1729 28.1703 32.1729 27.6822C32.1729 27.0964 32.661 26.7059 33.1492 26.7059H37.0543C37.6401 26.7059 38.0306 27.0964 38.0306 27.6822C38.0306 28.1703 37.5425 28.6585 37.0543 28.6585ZM37.0543 24.7533H33.1492C32.661 24.7533 32.1729 24.3628 32.1729 23.777C32.1729 23.2889 32.661 22.8007 33.1492 22.8007H37.0543C37.6401 22.8007 38.0306 23.2889 38.0306 23.777C38.0306 24.3628 37.5425 24.7533 37.0543 24.7533Z" fill="white"/>
<defs>
<linearGradient id="paint0_linear_4203_18371" x1="8.64267e-07" y1="58" x2="69.83" y2="32.8612" gradientUnits="userSpaceOnUse">
<stop stop-color="#E3213A"/>
<stop offset="1" stop-color="#F15165"/>
</linearGradient>
</defs>
</svg>
