<svg width="58" height="58" viewBox="0 0 58 58" fill="none" xmlns="http://www.w3.org/2000/svg">
<rect width="58" height="58" rx="16" fill="url(#paint0_linear_4203_18498)"/>
<path d="M42.125 33.375H40.375V29C40.375 28.517 39.983 28.125 39.5 28.125H29.875V24.625H31.625C32.108 24.625 32.5 24.233 32.5 23.75V18.5C32.5 18.017 32.108 17.625 31.625 17.625H26.375C25.892 17.625 25.5 18.017 25.5 18.5V23.75C25.5 24.233 25.892 24.625 26.375 24.625H28.125V28.125H18.5C18.017 28.125 17.625 28.517 17.625 29V33.375H15.875C15.392 33.375 15 33.767 15 34.25V39.5C15 39.983 15.392 40.375 15.875 40.375H21.125C21.608 40.375 22 39.983 22 39.5V34.25C22 33.767 21.608 33.375 21.125 33.375H19.375V29.875H28.125V33.375H26.375C25.892 33.375 25.5 33.767 25.5 34.25V39.5C25.5 39.983 25.892 40.375 26.375 40.375H31.625C32.108 40.375 32.5 39.983 32.5 39.5V34.25C32.5 33.767 32.108 33.375 31.625 33.375H29.875V29.875H38.625V33.375H36.875C36.392 33.375 36 33.767 36 34.25V39.5C36 39.983 36.392 40.375 36.875 40.375H42.125C42.608 40.375 43 39.983 43 39.5V34.25C43 33.767 42.608 33.375 42.125 33.375Z" fill="white"/>
<defs>
<linearGradient id="paint0_linear_4203_18498" x1="58" y1="0" x2="6.62857" y2="58" gradientUnits="userSpaceOnUse">
<stop stop-color="#FF8C59"/>
<stop offset="1" stop-color="#EE6315"/>
</linearGradient>
</defs>
</svg>
