<svg width="58" height="58" viewBox="0 0 58 58" fill="none" xmlns="http://www.w3.org/2000/svg">
<rect width="58" height="58" rx="16" fill="url(#paint0_linear_4203_18473)"/>
<path d="M36.4401 22.7825C37.4063 22.7923 38.7494 22.7965 39.8888 22.7923C40.4724 22.7909 40.769 22.0867 40.3643 21.6625C38.9005 20.1253 36.2821 17.3743 34.7837 15.8007C34.3692 15.3653 33.6443 15.6649 33.6443 16.2683V19.9587C33.6443 21.5071 34.9071 22.7825 36.4401 22.7825Z" fill="white"/>
<path fill-rule="evenodd" clip-rule="evenodd" d="M24.9291 26.0599H29.6143C30.1826 26.0599 30.6539 26.5359 30.6539 27.1099C30.6539 27.6839 30.1826 28.1459 29.6143 28.1459H24.9291C24.3608 28.1459 23.8895 27.6839 23.8895 27.1099C23.8895 26.5359 24.3608 26.0599 24.9291 26.0599ZM40.5095 24.828C40.1871 24.828 39.8324 24.8321 39.5065 24.8359C39.2299 24.839 38.9741 24.842 38.7768 24.842C38.4978 24.842 38.1817 24.8393 37.826 24.8363H37.826C37.3689 24.8324 36.8465 24.828 36.254 24.828C33.7174 24.814 31.6243 22.714 31.6243 20.152V15.644C31.6243 15.294 31.3471 15 30.9867 15H23.5847C20.1333 15 17.3333 17.842 17.3333 21.314V36.406C17.3333 40.046 20.2719 43 23.8758 43H32.9577C30.5861 41.571 28.9999 38.9707 28.9999 36C28.9999 31.4897 32.6563 27.8333 37.1666 27.8333C38.6062 27.8333 39.9588 28.2058 41.1333 28.8597V25.458C41.1333 25.108 40.856 24.828 40.5095 24.828Z" fill="white"/>
<path fill-rule="evenodd" clip-rule="evenodd" d="M42.9999 35.9998C42.9999 39.2215 40.3882 41.8332 37.1666 41.8332C33.9449 41.8332 31.3333 39.2215 31.3333 35.9998C31.3333 32.7782 33.9449 30.1665 37.1666 30.1665C40.3882 30.1665 42.9999 32.7782 42.9999 35.9998ZM37.1666 33.8123C36.8976 33.8123 36.6617 33.9576 36.5345 34.1774C36.3329 34.526 35.8868 34.6452 35.5382 34.4435C35.1897 34.2419 35.0705 33.7958 35.2722 33.4472C35.6493 32.7953 36.356 32.354 37.1666 32.354C38.3747 32.354 39.3541 33.3334 39.3541 34.5415C39.3541 35.494 38.7454 36.3042 37.8958 36.6045V36.729C37.8958 37.1317 37.5693 37.4582 37.1666 37.4582C36.7639 37.4582 36.4374 37.1317 36.4374 36.729V35.9998C36.4374 35.5971 36.7639 35.2707 37.1666 35.2707C37.5693 35.2707 37.8958 34.9442 37.8958 34.5415C37.8958 34.1388 37.5693 33.8123 37.1666 33.8123ZM37.1666 39.6457C37.5693 39.6457 37.8958 39.3192 37.8958 38.9165C37.8958 38.5138 37.5693 38.1873 37.1666 38.1873C36.7639 38.1873 36.4374 38.5138 36.4374 38.9165C36.4374 39.3192 36.7639 39.6457 37.1666 39.6457Z" fill="white"/>
<defs>
<linearGradient id="paint0_linear_4203_18473" x1="58" y1="0" x2="6.62857" y2="58" gradientUnits="userSpaceOnUse">
<stop stop-color="#FF8C59"/>
<stop offset="1" stop-color="#EE6315"/>
</linearGradient>
</defs>
</svg>
