<svg width="58" height="58" viewBox="0 0 58 58" fill="none" xmlns="http://www.w3.org/2000/svg">
<rect width="58" height="58" rx="16" fill="url(#paint0_linear_4203_18489)"/>
<path d="M32.7956 36.7915C32.715 36.9311 32.599 37.047 32.4593 37.1275C32.3196 37.208 32.1611 37.2502 31.9999 37.2498C31.8407 37.2501 31.6841 37.2084 31.5462 37.1288C31.3352 37.0082 31.1808 36.8087 31.1168 36.5743C31.0529 36.3398 31.0847 36.0895 31.2052 35.8785L37.4999 24.8611V23.4998H33.8333C32.8608 23.4998 31.9282 23.1135 31.2405 22.4259C30.5529 21.7383 30.1666 20.8056 30.1666 19.8332V16.1665H21.9166C20.701 16.1665 19.5352 16.6494 18.6757 17.5089C17.8161 18.3685 17.3333 19.5343 17.3333 20.7498V37.2498C17.3333 38.4654 17.8161 39.6312 18.6757 40.4907C19.5352 41.3503 20.701 41.8332 21.9166 41.8332H32.9166C34.1322 41.8332 35.2979 41.3503 36.1575 40.4907C37.017 39.6312 37.4999 38.4654 37.4999 37.2498V28.5553L32.7956 36.7915ZM21.9166 21.6665H27.4166C27.6597 21.6665 27.8929 21.7631 28.0648 21.935C28.2367 22.1069 28.3333 22.3401 28.3333 22.5832C28.3333 22.8263 28.2367 23.0594 28.0648 23.2314C27.8929 23.4033 27.6597 23.4998 27.4166 23.4998H21.9166C21.6735 23.4998 21.4403 23.4033 21.2684 23.2314C21.0965 23.0594 20.9999 22.8263 20.9999 22.5832C20.9999 22.3401 21.0965 22.1069 21.2684 21.935C21.4403 21.7631 21.6735 21.6665 21.9166 21.6665ZM21.9166 25.3332H31.0833C31.3264 25.3332 31.5595 25.4297 31.7314 25.6017C31.9033 25.7736 31.9999 26.0067 31.9999 26.2498C31.9999 26.493 31.9033 26.7261 31.7314 26.898C31.5595 27.0699 31.3264 27.1665 31.0833 27.1665H21.9166C21.6735 27.1665 21.4403 27.0699 21.2684 26.898C21.0965 26.7261 20.9999 26.493 20.9999 26.2498C20.9999 26.0067 21.0965 25.7736 21.2684 25.6017C21.4403 25.4297 21.6735 25.3332 21.9166 25.3332ZM28.9813 36.0646C28.3189 36.7387 27.4405 37.1582 26.4999 37.2498C25.9283 37.1944 25.4001 36.9201 25.0259 36.4844C24.8573 36.3313 24.5043 36.0087 24.3898 36.0261C24.3898 36.0261 24.1148 36.0692 23.5959 36.8401C23.5291 36.9402 23.4432 37.0263 23.3432 37.0932C23.2431 37.1602 23.1309 37.2068 23.0128 37.2304C22.8947 37.2539 22.7732 37.254 22.6551 37.2306C22.537 37.2072 22.4247 37.1608 22.3245 37.094C22.2243 37.0272 22.1383 36.9413 22.0714 36.8413C22.0044 36.7412 21.9578 36.6289 21.9342 36.5109C21.9106 36.3928 21.9106 36.2713 21.9339 36.1532C21.9573 36.0351 22.0038 35.9227 22.0706 35.8226C22.281 35.417 22.5775 35.0622 22.9393 34.7831C23.3011 34.5039 23.7194 34.3072 24.1652 34.2065C24.5602 34.1941 24.953 34.27 25.315 34.4285C25.6771 34.5871 25.9992 34.8244 26.2579 35.1232C26.3578 35.2148 26.4999 35.3423 26.5879 35.4046C27.0037 35.2891 27.3827 35.068 27.6879 34.7629C27.8611 34.5963 28.0929 34.5043 28.3333 34.5069C28.5736 34.5095 28.8034 34.6064 28.973 34.7767C29.1426 34.9471 29.2385 35.1772 29.2401 35.4176C29.2416 35.6579 29.1487 35.8893 28.9813 36.0618V36.0646ZM21.9166 30.8332C21.6735 30.8332 21.4403 30.7366 21.2684 30.5647C21.0965 30.3928 20.9999 30.1596 20.9999 29.9165C20.9999 29.6734 21.0965 29.4402 21.2684 29.2683C21.4403 29.0964 21.6735 28.9998 21.9166 28.9998H31.0833C31.3264 28.9998 31.5595 29.0964 31.7314 29.2683C31.9033 29.4402 31.9999 29.6734 31.9999 29.9165C31.9999 30.1596 31.9033 30.3928 31.7314 30.5647C31.5595 30.7366 31.3264 30.8332 31.0833 30.8332H21.9166Z" fill="white"/>
<path d="M37.3799 21.6665C37.2553 21.2198 37.0194 20.812 36.6942 20.4813L33.1852 16.9723C32.8545 16.6471 32.4467 16.4112 32 16.2866V19.8332C32 20.3194 32.1932 20.7858 32.537 21.1296C32.8808 21.4734 33.3471 21.6665 33.8333 21.6665H37.3799Z" fill="white"/>
<path d="M39.7917 22.7046C39.5806 22.5841 39.3304 22.5523 39.0959 22.6163C38.8614 22.6802 38.662 22.8347 38.5413 23.0456L37.5 24.8616V28.5557L40.129 23.9586C40.1894 23.8542 40.2286 23.7389 40.2443 23.6193C40.26 23.4996 40.252 23.3781 40.2207 23.2616C40.1893 23.1451 40.1353 23.0359 40.0617 22.9404C39.9881 22.8448 39.8963 22.7647 39.7917 22.7046Z" fill="white"/>
<defs>
<linearGradient id="paint0_linear_4203_18489" x1="8.64267e-07" y1="58" x2="69.83" y2="32.8612" gradientUnits="userSpaceOnUse">
<stop stop-color="#E3213A"/>
<stop offset="1" stop-color="#F15165"/>
</linearGradient>
</defs>
</svg>
