<svg width="58" height="58" viewBox="0 0 58 58" fill="none" xmlns="http://www.w3.org/2000/svg">
<rect width="58" height="58" rx="16" fill="url(#paint0_linear_4203_16783)"/>
<path d="M35.5625 26.521C33.301 26.521 31.4609 28.3611 31.4609 30.6226C31.4609 32.884 33.301 34.7241 35.5625 34.7241C37.824 34.7241 39.6641 32.884 39.6641 30.6226C39.6641 28.3611 37.824 26.521 35.5625 26.521Z" fill="white"/>
<path d="M19.1562 42.1616V40.4663C19.1562 40.1852 19.186 39.9122 19.2176 39.6398C19.1967 39.64 19.1772 39.646 19.1562 39.646C17.8217 39.646 16.5907 38.9954 15.8413 38.0054C15.3207 38.693 15 39.5395 15 40.4663V42.1616C15 42.615 15.3669 42.9819 15.8203 42.9819H19.3074C19.2154 42.7241 19.1562 42.4506 19.1562 42.1616Z" fill="white"/>
<path d="M19.1562 33.0835C17.7992 33.0835 16.6953 34.1874 16.6953 35.5444C16.6953 36.9014 17.7992 38.0054 19.1562 38.0054C19.3166 38.0054 19.4726 37.9874 19.6245 37.958C20.0343 36.8328 20.7004 35.8406 21.5661 35.0458C21.335 33.9272 20.3425 33.0835 19.1562 33.0835Z" fill="white"/>
<path d="M26.5391 40.4663C26.5391 39.5972 26.6692 38.7592 26.8997 37.9633C26.7779 37.9726 26.6634 38.0054 26.5391 38.0054C25.0069 38.0054 23.653 37.2871 22.7497 36.186C21.5618 37.2388 20.7969 38.7582 20.7969 40.4663V42.1616C20.7969 42.615 21.1638 42.9819 21.6172 42.9819H26.6902C26.5982 42.7241 26.5391 42.4507 26.5391 42.1616V40.4663Z" fill="white"/>
<path d="M26.5391 29.8022C24.7294 29.8022 23.2578 31.2738 23.2578 33.0835C23.2578 34.8932 24.7294 36.3647 26.5391 36.3647C26.9246 36.3647 27.2893 36.2857 27.6331 36.1632C28.1776 35.164 28.907 34.2807 29.7726 33.5544C29.7952 33.3993 29.8203 33.2447 29.8203 33.0835C29.8203 31.2738 28.3487 29.8022 26.5391 29.8022Z" fill="white"/>
<path d="M39.8123 34.4487C38.7605 35.6159 37.2534 36.3645 35.5625 36.3645C33.8716 36.3645 32.3645 35.6159 31.3127 34.4487C29.4237 35.7873 28.1797 37.9797 28.1797 40.4661V42.1614C28.1797 42.6148 28.5466 42.9817 29 42.9817H42.1797C42.6331 42.9817 43 42.6148 43 42.1614V40.4661C43 37.9797 41.7013 35.7873 39.8123 34.4487Z" fill="white"/>
<path d="M40.4299 18.5732C40.333 18.276 40.0766 18.0597 39.7674 18.0149L37.3705 17.6664L36.2978 15.4391C36.0223 14.8784 35.1026 14.8784 34.827 15.4391L33.7544 17.6664L31.3575 18.0149C31.0483 18.0597 30.792 18.276 30.6951 18.5732C30.5989 18.8696 30.679 19.1957 30.9025 19.4135L32.6377 21.1046L32.2284 23.4919C32.1755 23.7995 32.3021 24.1103 32.5544 24.2937C32.8076 24.4788 33.144 24.5021 33.418 24.3563L35.5625 23.2299C35.8557 23.3839 37.7748 24.4508 38.0883 24.4508C38.2581 24.4508 38.428 24.3979 38.5705 24.2937C38.8229 24.1103 38.9495 23.7995 38.8966 23.4919L38.4873 21.1046L40.2224 19.4135C40.4459 19.1957 40.526 18.8696 40.4299 18.5732Z" fill="white"/>
<path d="M31.5859 25.618C31.1759 25.32 30.8898 24.9102 30.7278 24.4534L29.1274 26.0538L26.4013 21.9642C26.2651 21.76 26.044 21.627 25.7996 21.603C25.5537 21.5854 25.3126 21.6655 25.1387 21.8393L18.5762 28.4018C18.2558 28.7222 18.2558 29.2413 18.5762 29.5618C18.7365 29.722 18.9464 29.8021 19.1562 29.8021C19.366 29.8021 19.576 29.722 19.7362 29.5618L25.5913 23.7066L28.3174 27.7962C28.4536 28.0004 28.6747 28.1334 28.919 28.1574C29.1722 28.1831 29.4069 28.0949 29.5799 27.9211L31.7822 25.7189C31.7187 25.6806 31.6464 25.6623 31.5859 25.618Z" fill="white"/>
<defs>
<linearGradient id="paint0_linear_4203_16783" x1="8.64267e-07" y1="58" x2="69.83" y2="32.8612" gradientUnits="userSpaceOnUse">
<stop stop-color="#E3213A"/>
<stop offset="1" stop-color="#F15165"/>
</linearGradient>
</defs>
</svg>
