<svg width="58" height="58" viewBox="0 0 58 58" fill="none" xmlns="http://www.w3.org/2000/svg">
<rect width="58" height="58" rx="16" fill="url(#paint0_linear_4203_16956)"/>
<path d="M22.2431 41.8332H35.2903C37.3222 41.8332 39.0333 40.1221 39.0333 38.0901V19.9096C39.0333 17.8776 37.3222 16.1665 35.2903 16.1665H22.2431C20.2111 16.1665 18.5 17.8776 18.5 19.9096V38.0901C18.5 40.1221 20.2111 41.8332 22.2431 41.8332ZM28.7667 19.4818C30.3708 19.4818 31.7611 20.8721 31.7611 22.4762C31.7611 24.0804 30.3708 25.4707 28.7667 25.4707C27.0556 25.4707 25.7722 24.0804 25.7722 22.4762C25.7722 20.8721 27.0556 19.4818 28.7667 19.4818ZM23.4194 31.0318C23.8472 29.3207 25.0236 27.8234 26.6278 27.1818C27.2694 27.5026 28.0181 27.6096 28.7667 27.6096C29.5153 27.6096 30.2639 27.3957 30.9056 27.1818C32.5097 27.8234 33.6861 29.3207 34.1139 31.0318C34.2208 31.5665 34.1139 32.1012 33.7931 32.4221C33.4722 32.7429 32.9375 33.0637 32.4028 33.0637H25.1306C24.5958 33.0637 24.0611 32.8498 23.7403 32.4221C23.4194 32.1012 23.3125 31.5665 23.4194 31.0318ZM22.7778 36.379H34.8625C35.5042 36.379 35.9319 36.8068 35.9319 37.4485C35.9319 37.9832 35.5042 38.5179 34.8625 38.5179H22.7778C22.2431 38.5179 21.7083 37.9832 21.7083 37.4485C21.7083 36.8068 22.1361 36.379 22.7778 36.379Z" fill="white"/>
<defs>
<linearGradient id="paint0_linear_4203_16956" x1="58" y1="0" x2="6.62857" y2="58" gradientUnits="userSpaceOnUse">
<stop stop-color="#FF8C59"/>
<stop offset="1" stop-color="#EE6315"/>
</linearGradient>
</defs>
</svg>
