<svg width="58" height="58" viewBox="0 0 58 58" fill="none" xmlns="http://www.w3.org/2000/svg">
<rect width="58" height="58" rx="16" fill="url(#paint0_linear_4197_130758)"/>
<g clip-path="url(#clip0_4197_130758)">
<path fill-rule="evenodd" clip-rule="evenodd" d="M22.9468 15.0752C23.4837 14.8604 24.0932 15.1216 24.308 15.6585C24.5227 16.1955 24.2616 16.8049 23.7246 17.0197L23.4911 17.1131C21.6678 17.8424 20.2134 19.2728 19.4538 21.0837L19.3466 21.3393C19.1229 21.8726 18.5092 22.1236 17.9759 21.8999C17.4426 21.6762 17.1916 21.0625 17.4153 20.5292L17.5225 20.2736C18.4991 17.9453 20.3691 16.1063 22.7133 15.1686L22.9468 15.0752ZM35.6197 15.1371C35.0828 14.9223 34.4733 15.1835 34.2586 15.7204C34.0438 16.2574 34.3049 16.8668 34.8419 17.0816L35.0754 17.175C36.8987 17.9043 38.3531 19.3347 39.1127 21.1456L39.2199 21.4012C39.4436 21.9345 40.0573 22.1855 40.5906 21.9618C41.1239 21.7381 41.3749 21.1244 41.1512 20.5911L41.044 20.3355C40.0674 18.0072 38.1974 16.1682 35.8532 15.2305L35.6197 15.1371ZM37.3495 37.415C39.9023 37.415 41.3595 34.8471 39.8278 33.0477C39.1498 32.2511 38.7319 31.3063 38.6194 30.3155L37.995 24.8142C37.6584 21.8479 35.4438 19.4136 32.4526 18.3894V18.2446C32.4526 16.4942 31.0336 15.0753 29.2832 15.0753C27.5328 15.0753 26.1138 16.4942 26.1138 18.2446V18.3894C23.1225 19.4136 20.908 21.8479 20.5713 24.8142L19.947 30.3155C19.8345 31.3063 19.4166 32.2511 18.7385 33.0477C17.2068 34.8471 18.664 37.415 21.2169 37.415H37.3495ZM33.433 40.3075C32.7944 41.882 31.1773 43.0001 29.2833 43.0001C27.3893 43.0001 25.7721 41.882 25.1335 40.3075C25.1069 40.2419 25.0946 40.1714 25.0946 40.1005C25.0946 39.7739 25.3593 39.5092 25.6859 39.5092H32.8807C33.2072 39.5092 33.472 39.7739 33.472 40.1005C33.472 40.1714 33.4597 40.2419 33.433 40.3075Z" fill="white"/>
</g>
<defs>
<linearGradient id="paint0_linear_4197_130758" x1="58" y1="0" x2="6.62857" y2="58" gradientUnits="userSpaceOnUse">
<stop stop-color="#FF8C59"/>
<stop offset="1" stop-color="#EE6315"/>
</linearGradient>
<clipPath id="clip0_4197_130758">
<rect width="28" height="28" fill="white" transform="translate(15 15)"/>
</clipPath>
</defs>
</svg>
