<svg width="58" height="58" viewBox="0 0 58 58" fill="none" xmlns="http://www.w3.org/2000/svg">
<rect width="58" height="58" rx="16" fill="url(#paint0_linear_4203_16446)"/>
<path fill-rule="evenodd" clip-rule="evenodd" d="M35.9146 16.1665C37.792 16.1665 39.598 16.9085 40.9266 18.2399C42.2566 19.5685 43 21.3605 43 23.2365V34.2965C43 38.2025 39.822 41.3665 35.9146 41.3665H22.084C18.1766 41.3665 15 38.2025 15 34.2965V23.2365C15 19.3305 18.1626 16.1665 22.084 16.1665H35.9146ZM38.1419 25.3226L38.2539 25.2106C38.5885 24.8046 38.5885 24.2166 38.2385 23.8106C38.0439 23.602 37.7765 23.4746 37.4979 23.4466C37.2039 23.4312 36.9239 23.5306 36.7125 23.7266L30.3999 28.7666C29.5879 29.44 28.4245 29.44 27.5999 28.7666L21.2999 23.7266C20.8645 23.4046 20.2625 23.4466 19.8999 23.8246C19.5219 24.2026 19.4799 24.8046 19.8005 25.2246L19.9839 25.4066L26.3539 30.3766C27.1379 30.9926 28.0885 31.3286 29.0839 31.3286C30.0765 31.3286 31.0439 30.9926 31.8265 30.3766L38.1419 25.3226Z" fill="white"/>
<defs>
<linearGradient id="paint0_linear_4203_16446" x1="8.64267e-07" y1="58" x2="69.83" y2="32.8612" gradientUnits="userSpaceOnUse">
<stop stop-color="#E3213A"/>
<stop offset="1" stop-color="#F15165"/>
</linearGradient>
</defs>
</svg>
