<svg width="58" height="58" viewBox="0 0 58 58" fill="none" xmlns="http://www.w3.org/2000/svg">
<rect width="58" height="58" rx="16" fill="url(#paint0_linear_4203_17199)"/>
<path fill-rule="evenodd" clip-rule="evenodd" d="M17.3333 21.1665C17.3333 18.4051 19.5718 16.1665 22.3333 16.1665H35.861C38.6225 16.1665 40.861 18.4051 40.861 21.1665V36.8332C40.861 39.5946 38.6225 41.8332 35.861 41.8332H22.3333C19.5718 41.8332 17.3333 39.5946 17.3333 36.8332V21.1665ZM24.8169 26.4333L24.3625 24.8024C24.4329 24.7315 24.4858 24.6452 24.5169 24.5503C24.5479 24.4553 24.5564 24.3545 24.5416 24.2557C24.5269 24.1569 24.4892 24.063 24.4317 23.9813C24.3741 23.8997 24.2983 23.8327 24.2103 23.7855V22.2504L26.3373 23.0388C25.9122 23.5628 25.6454 24.1972 25.5684 24.8676C25.4914 25.5379 25.6074 26.2163 25.9027 26.823C26.1979 27.4297 26.6603 27.9395 27.2353 28.2925C27.8103 28.6455 28.4742 28.8271 29.1489 28.8158C29.8235 28.8045 30.4809 28.6008 31.0438 28.2288C31.6067 27.8567 32.0517 27.3317 32.3265 26.7155C32.6013 26.0992 32.6945 25.4173 32.5951 24.7499C32.4957 24.0825 32.2079 23.4574 31.7654 22.948L34.9339 21.7199L29.0907 19.6665L23.0829 21.8328L23.6011 22.0244V23.7855C23.5125 23.832 23.4361 23.8985 23.3778 23.9798C23.3195 24.0611 23.2811 24.155 23.2656 24.2538C23.2501 24.3526 23.2579 24.4537 23.2884 24.5489C23.319 24.6442 23.3714 24.731 23.4415 24.8024L22.9895 26.4333H24.8169ZM28.5456 30.2106H29.6362C31.3718 30.2106 33.0363 30.8999 34.2638 32.1269C35.4913 33.354 36.1812 35.0182 36.1819 36.7539C36.1819 36.9613 36.141 37.1666 36.0616 37.3582C35.9823 37.5498 35.8659 37.7239 35.7193 37.8706C35.5726 38.0173 35.3985 38.1336 35.2069 38.213C35.0153 38.2923 34.8099 38.3332 34.6025 38.3332H23.5792C23.1604 38.3332 22.7587 38.1668 22.4625 37.8706C22.1663 37.5744 21.9999 37.1727 21.9999 36.7539C22.0006 35.0182 22.6905 33.354 23.918 32.1269C25.1455 30.8999 26.81 30.2106 28.5456 30.2106Z" fill="white"/>
<defs>
<linearGradient id="paint0_linear_4203_17199" x1="58" y1="0" x2="-11.83" y2="25.1388" gradientUnits="userSpaceOnUse">
<stop stop-color="#8060FF"/>
<stop offset="1" stop-color="#5731EC"/>
</linearGradient>
</defs>
</svg>
