<svg width="58" height="58" viewBox="0 0 58 58" fill="none" xmlns="http://www.w3.org/2000/svg">
<rect width="58" height="58" rx="16" fill="url(#paint0_linear_4203_16699)"/>
<path d="M38.5748 21.6579L33.4251 16.5082C33.3261 16.4106 33.2103 16.3316 33.0833 16.2749V20.2497C33.0833 20.7139 33.2676 21.159 33.5958 21.4872C33.924 21.8154 34.3691 21.9997 34.8333 21.9997H38.8081C38.7514 21.8727 38.6724 21.7569 38.5748 21.6579Z" fill="white"/>
<path d="M24.3332 20.9707L24.0129 21.6106H24.6534L24.3332 20.9707Z" fill="white"/>
<path d="M34.8333 23.1665C34.06 23.1656 33.3187 22.858 32.7719 22.3112C32.2251 21.7644 31.9175 21.0231 31.9166 20.2498V16.1665H21.9999C21.2264 16.1665 20.4845 16.4738 19.9375 17.0208C19.3905 17.5678 19.0833 18.3096 19.0833 19.0832V38.9165C19.0833 39.6901 19.3905 40.4319 19.9375 40.9789C20.4845 41.5259 21.2264 41.8332 21.9999 41.8332H35.9999C36.3829 41.8332 36.7622 41.7577 37.1161 41.6112C37.4699 41.4646 37.7915 41.2497 38.0623 40.9789C38.3332 40.7081 38.548 40.3865 38.6946 40.0327C38.8411 39.6788 38.9166 39.2995 38.9166 38.9165V23.1665H34.8333ZM26.9583 20.5415H27.2499V20.2498C27.2499 20.0951 27.3114 19.9468 27.4208 19.8374C27.5302 19.728 27.6785 19.6665 27.8333 19.6665C27.988 19.6665 28.1363 19.728 28.2457 19.8374C28.3551 19.9468 28.4166 20.0951 28.4166 20.2498V20.5415H28.7083C28.863 20.5415 29.0113 20.603 29.1207 20.7124C29.2301 20.8218 29.2916 20.9701 29.2916 21.1248C29.2916 21.2795 29.2301 21.4279 29.1207 21.5373C29.0113 21.6467 28.863 21.7082 28.7083 21.7082H28.4166V21.9998C28.4166 22.1545 28.3551 22.3029 28.2457 22.4123C28.1363 22.5217 27.988 22.5832 27.8333 22.5832C27.6785 22.5832 27.5302 22.5217 27.4208 22.4123C27.3114 22.3029 27.2499 22.1545 27.2499 21.9998V21.7082H26.9583C26.8035 21.7082 26.6552 21.6467 26.5458 21.5373C26.4364 21.4279 26.3749 21.2795 26.3749 21.1248C26.3749 20.9701 26.4364 20.8218 26.5458 20.7124C26.6552 20.603 26.8035 20.5415 26.9583 20.5415ZM22.3225 23.6915C22.2539 23.6573 22.1928 23.6099 22.1425 23.552C22.0922 23.4942 22.0539 23.4269 22.0296 23.3542C22.0053 23.2815 21.9956 23.2048 22.001 23.1283C22.0065 23.0519 22.0269 22.9772 22.0612 22.9087L23.8112 19.4087C23.8651 19.3183 23.9415 19.2434 24.033 19.1914C24.1246 19.1394 24.228 19.1121 24.3333 19.1121C24.4385 19.1121 24.542 19.1394 24.6335 19.1914C24.725 19.2434 24.8014 19.3183 24.8553 19.4087L26.6053 22.9087C26.6745 23.0471 26.6858 23.2074 26.6368 23.3542C26.5878 23.501 26.4825 23.6223 26.344 23.6915C26.2055 23.7607 26.0453 23.772 25.8985 23.723C25.7517 23.674 25.6303 23.5686 25.5612 23.4302L25.2368 22.7803H23.4285L23.1083 23.4273C23.0743 23.4965 23.027 23.5583 22.969 23.6091C22.911 23.6599 22.8435 23.6987 22.7705 23.7232C22.6974 23.7478 22.6202 23.7577 22.5433 23.7522C22.4664 23.7468 22.3914 23.7261 22.3225 23.6915ZM31.9166 38.3332H23.1666C23.0119 38.3332 22.8635 38.2717 22.7541 38.1623C22.6447 38.0529 22.5833 37.9045 22.5833 37.7498C22.5833 37.5951 22.6447 37.4468 22.7541 37.3374C22.8635 37.228 23.0119 37.1665 23.1666 37.1665H31.9166C32.0713 37.1665 32.2197 37.228 32.3291 37.3374C32.4385 37.4468 32.4999 37.5951 32.4999 37.7498C32.4999 37.9045 32.4385 38.0529 32.3291 38.1623C32.2197 38.2717 32.0713 38.3332 31.9166 38.3332ZM34.8333 35.4165H23.1666C23.0119 35.4165 22.8635 35.355 22.7541 35.2456C22.6447 35.1363 22.5833 34.9879 22.5833 34.8332C22.5833 34.6785 22.6447 34.5301 22.7541 34.4207C22.8635 34.3113 23.0119 34.2498 23.1666 34.2498H34.8333C34.988 34.2498 35.1363 34.3113 35.2457 34.4207C35.3551 34.5301 35.4166 34.6785 35.4166 34.8332C35.4166 34.9879 35.3551 35.1363 35.2457 35.2456C35.1363 35.355 34.988 35.4165 34.8333 35.4165ZM34.8333 32.4998H23.1666C23.0119 32.4998 22.8635 32.4384 22.7541 32.329C22.6447 32.2196 22.5833 32.0712 22.5833 31.9165C22.5833 31.7618 22.6447 31.6134 22.7541 31.504C22.8635 31.3946 23.0119 31.3332 23.1666 31.3332H34.8333C34.988 31.3332 35.1363 31.3946 35.2457 31.504C35.3551 31.6134 35.4166 31.7618 35.4166 31.9165C35.4166 32.0712 35.3551 32.2196 35.2457 32.329C35.1363 32.4384 34.988 32.4998 34.8333 32.4998ZM34.8333 29.5832H23.1666C23.0119 29.5832 22.8635 29.5217 22.7541 29.4123C22.6447 29.3029 22.5833 29.1545 22.5833 28.9998C22.5833 28.8451 22.6447 28.6968 22.7541 28.5874C22.8635 28.478 23.0119 28.4165 23.1666 28.4165H34.8333C34.988 28.4165 35.1363 28.478 35.2457 28.5874C35.3551 28.6968 35.4166 28.8451 35.4166 28.9998C35.4166 29.1545 35.3551 29.3029 35.2457 29.4123C35.1363 29.5217 34.988 29.5832 34.8333 29.5832ZM34.8333 26.6665H24.9166C24.7619 26.6665 24.6135 26.605 24.5041 26.4956C24.3947 26.3863 24.3333 26.2379 24.3333 26.0832C24.3333 25.9285 24.3947 25.7801 24.5041 25.6707C24.6135 25.5613 24.7619 25.4998 24.9166 25.4998H34.8333C34.988 25.4998 35.1363 25.5613 35.2457 25.6707C35.3551 25.7801 35.4166 25.9285 35.4166 26.0832C35.4166 26.2379 35.3551 26.3863 35.2457 26.4956C35.1363 26.605 34.988 26.6665 34.8333 26.6665Z" fill="white"/>
<defs>
<linearGradient id="paint0_linear_4203_16699" x1="58" y1="0" x2="6.62857" y2="58" gradientUnits="userSpaceOnUse">
<stop stop-color="#FF8C59"/>
<stop offset="1" stop-color="#EE6315"/>
</linearGradient>
</defs>
</svg>
