<svg width="58" height="58" viewBox="0 0 58 58" fill="none" xmlns="http://www.w3.org/2000/svg">
<rect width="58" height="58" rx="16" fill="url(#paint0_linear_4197_137625)"/>
<path fill-rule="evenodd" clip-rule="evenodd" d="M32.8185 41.7656H34.9422C36.8274 41.7656 38.5998 41.0314 39.9329 39.6984C41.2657 38.3649 41.9997 36.5925 41.9997 34.7075V27.8076C41.9997 25.4886 40.8685 23.3057 38.9736 21.9685L32.1722 17.1675C31.2442 16.5126 30.1534 16.1665 29.0175 16.1665C27.8682 16.1665 26.7669 16.5201 25.8322 17.1889L19.1539 21.9697C17.2836 23.3083 16.167 25.4809 16.167 27.7814V34.7075C16.167 36.5925 16.901 38.3649 18.2339 39.6985C19.5667 41.0314 21.3391 41.7656 23.2244 41.7656H25.1822V32.8182C25.1822 30.7095 26.8916 29.0001 29.0003 29.0001C31.1091 29.0001 32.8185 30.7095 32.8185 32.8182V41.7656Z" fill="white"/>
<defs>
<linearGradient id="paint0_linear_4197_137625" x1="56.3429" y1="1.65714" x2="9.52857" y2="56.3429" gradientUnits="userSpaceOnUse">
<stop offset="0.28125" stop-color="#0099F9"/>
<stop offset="0.927083" stop-color="#0065E4"/>
</linearGradient>
</defs>
</svg>
