<svg width="58" height="58" viewBox="0 0 58 58" fill="none" xmlns="http://www.w3.org/2000/svg">
<rect width="58" height="58" rx="16" fill="url(#paint0_linear_4203_18397)"/>
<path d="M24.6769 29.7073C24.6769 32.0275 26.6158 33.9151 28.9991 33.9151C31.3826 33.9151 33.3217 32.0275 33.3217 29.7073C33.3217 27.3874 31.3826 25.5 28.9991 25.5C26.6158 25.5 24.6769 27.3873 24.6769 29.7073Z" fill="white"/>
<path d="M26.3217 43H31.6773C34.0606 43 35.9995 41.1126 35.9995 38.7927C35.9995 36.4727 34.0606 34.5853 31.6773 34.5853H26.3217C23.9384 34.5853 21.9995 36.4727 21.9995 38.7927C21.9995 41.1126 23.9384 43 26.3217 43Z" fill="white"/>
<path d="M16.2267 23.2285L17.6435 24.4297C17.7397 24.5115 17.7837 24.6299 17.761 24.7459L17.4258 26.4571C17.4118 26.5244 17.4429 26.5928 17.5058 26.6329C17.5687 26.6731 17.6522 26.678 17.7206 26.6454L19.4809 25.8356C19.5976 25.7835 19.7356 25.7835 19.8523 25.8356L21.6126 26.6454C21.681 26.678 21.7645 26.6731 21.8274 26.6329C21.8903 26.5928 21.9214 26.5244 21.9074 26.4571L21.5682 24.7487C21.5475 24.6322 21.5927 24.5142 21.6894 24.4326L23.1065 23.2285C23.1605 23.1814 23.1799 23.1115 23.1565 23.0478C23.1331 22.9841 23.071 22.9374 22.9959 22.927L21.0313 22.6783C20.9005 22.6624 20.7871 22.5906 20.7285 22.4865L19.8483 20.9337C19.8146 20.8724 19.744 20.8335 19.6666 20.8335C19.5892 20.8335 19.5187 20.8724 19.4849 20.9337L18.6048 22.4858C18.5461 22.5899 18.4328 22.6617 18.302 22.6776L16.3374 22.9263C16.2619 22.9365 16.1994 22.9834 16.176 23.0473C16.1526 23.1113 16.1722 23.1814 16.2267 23.2285Z" fill="white"/>
<path d="M34.8834 23.2285L36.064 24.4297C36.1442 24.5115 36.1809 24.6299 36.1619 24.7459L35.8827 26.4571C35.871 26.5244 35.8969 26.5928 35.9493 26.6329C36.0017 26.6731 36.0713 26.678 36.1283 26.6454L37.5952 25.8356C37.6925 25.7835 37.8075 25.7835 37.9047 25.8356L39.3717 26.6454C39.4286 26.678 39.4982 26.6731 39.5507 26.6329C39.6031 26.5928 39.629 26.5244 39.6173 26.4571L39.3347 24.7487C39.3174 24.6322 39.3551 24.5142 39.4356 24.4326L40.6165 23.2285C40.6616 23.1814 40.6777 23.1115 40.6582 23.0478C40.6387 22.9841 40.587 22.9374 40.5243 22.927L38.8872 22.6783C38.7782 22.6624 38.6837 22.5906 38.6348 22.4865L37.9014 20.9337C37.8733 20.8724 37.8145 20.8335 37.75 20.8335C37.6855 20.8335 37.6267 20.8724 37.5986 20.9337L36.8651 22.4858C36.8162 22.5899 36.7218 22.6617 36.6128 22.6776L34.9756 22.9263C34.9127 22.9365 34.8606 22.9834 34.8411 23.0473C34.8216 23.1113 34.838 23.1814 34.8834 23.2285Z" fill="white"/>
<path d="M23.267 18.832L25.6283 20.754C25.7887 20.8848 25.8621 21.0742 25.8241 21.2598L25.2656 23.9978C25.2421 24.1054 25.294 24.2148 25.3988 24.2791C25.5036 24.3434 25.6429 24.3511 25.7568 24.299L28.6906 23.0033C28.8852 22.92 29.1152 22.92 29.3097 23.0033L32.2436 24.299C32.3575 24.3511 32.4967 24.3434 32.6016 24.2791C32.7064 24.2148 32.7582 24.1054 32.7348 23.9978L32.1696 21.2643C32.135 21.078 32.2104 20.8892 32.3714 20.7585L34.7333 18.832C34.8234 18.7566 34.8556 18.6449 34.8167 18.5429C34.7777 18.441 34.6742 18.3663 34.5489 18.3495L31.2746 17.9517C31.0566 17.9263 30.8676 17.8114 30.7699 17.6449L29.303 15.1603C29.2468 15.0623 29.1292 15 29.0002 15C28.8712 15 28.7536 15.0623 28.6974 15.1603L27.2304 17.6437C27.1327 17.8103 26.9438 17.9252 26.7258 17.9506L23.4514 18.3484C23.3256 18.3648 23.2215 18.4398 23.1825 18.5422C23.1434 18.6445 23.1762 18.7567 23.267 18.832Z" fill="white"/>
<defs>
<linearGradient id="paint0_linear_4203_18397" x1="58" y1="0" x2="-11.83" y2="25.1388" gradientUnits="userSpaceOnUse">
<stop stop-color="#8060FF"/>
<stop offset="1" stop-color="#5731EC"/>
</linearGradient>
</defs>
</svg>
