<svg width="58" height="58" viewBox="0 0 58 58" fill="none" xmlns="http://www.w3.org/2000/svg">
<rect width="58" height="58" rx="16" fill="url(#paint0_linear_4203_17609)"/>
<path d="M16.6406 17.4609C16.6406 18.8179 17.7446 19.9219 19.1016 19.9219C20.4585 19.9219 21.5625 18.8179 21.5625 17.4609C21.5625 16.104 20.4585 15 19.1016 15C17.7446 15 16.6406 16.104 16.6406 17.4609Z" fill="white"/>
<path d="M42.1797 15H25.6641C25.2108 15 24.8438 15.367 24.8438 15.8203V19.9219H28.125C29.5069 19.9219 30.6861 20.7828 31.1689 21.9944L38.4767 18.3678C38.8831 18.1676 39.374 18.3293 39.5775 18.7346C39.7803 19.14 39.616 19.6326 39.2108 19.8354L31.3522 23.7372C31.0954 25.2921 29.7517 26.4844 28.125 26.4844H24.8438V27.7786C24.8438 28.232 25.2108 28.599 25.6641 28.599H42.1797C42.633 28.599 43 28.232 43 27.7786V15.8203C43 15.367 42.633 15 42.1797 15Z" fill="white"/>
<path d="M23.2031 34.7422C23.2031 33.8377 22.467 33.1016 21.5625 33.1016C20.658 33.1016 19.9219 33.8377 19.9219 34.7422C19.9219 35.6467 20.658 36.3828 21.5625 36.3828C22.467 36.3828 23.2031 35.6467 23.2031 34.7422Z" fill="white"/>
<path d="M24.8438 41.3047C24.8438 39.4951 23.3721 38.0234 21.5625 38.0234C19.7529 38.0234 18.2812 39.4951 18.2812 41.3047V43H24.8438V41.3047Z" fill="white"/>
<path d="M15.8203 43H16.6406V41.3047C16.6406 39.45 17.6837 37.8513 19.2028 37.0124C18.635 36.4223 18.2812 35.6242 18.2812 34.7422C18.2812 32.9326 19.7529 31.4609 21.5625 31.4609V24.8438H28.125C29.0295 24.8438 29.7656 24.1076 29.7656 23.2031C29.7656 22.2986 29.0295 21.5625 28.125 21.5625H18.2812C16.4691 21.5625 15 23.0316 15 24.8438V42.125C15 42.5781 15.3672 43 15.8203 43Z" fill="white"/>
<path fill-rule="evenodd" clip-rule="evenodd" d="M29 36.5832C29 33.0393 31.8728 30.1665 35.4167 30.1665C38.9605 30.1665 41.8333 33.0393 41.8333 36.5832C41.8333 40.127 38.9605 42.9998 35.4167 42.9998C31.8728 42.9998 29 40.127 29 36.5832ZM35.4167 33.5987C35.4167 33.269 35.1494 33.0018 34.8198 33.0018C34.4901 33.0018 34.2229 33.269 34.2229 33.5987V37.4183C34.2229 37.7176 34.3725 37.9972 34.6216 38.1633L37.4732 40.0643C37.7475 40.2472 38.1181 40.1731 38.3009 39.8988C38.4838 39.6245 38.4097 39.2539 38.1354 39.071L35.4167 37.2586V33.5987Z" fill="white"/>
<defs>
<linearGradient id="paint0_linear_4203_17609" x1="55.9286" y1="2.07143" x2="8.7" y2="58" gradientUnits="userSpaceOnUse">
<stop stop-color="#17BA92"/>
<stop offset="1" stop-color="#0C9D7A"/>
</linearGradient>
</defs>
</svg>
