<svg width="458" height="308" viewBox="0 0 458 308" fill="none" xmlns="http://www.w3.org/2000/svg">
    <g clip-path="url(#clip0_4451_47811)">
        <path d="M142.36 22.5398C-2.49435 82.0812 47.1329 240.511 134.383 262.556C153.948 267.507 168.083 252.94 187.934 253.357C206.928 253.774 214.774 266.1 229.87 275.168C265.545 296.561 325.773 281.526 350.093 251.794C394.134 197.907 366.722 68.0883 283.239 26.1097C275.133 22.0186 207.759 -4.35158 142.36 22.5398Z" fill="white"/>
        <path d="M115.598 61.0528C-3.29965 153.062 55.4216 284.913 148.336 285.486C179.126 285.669 182.79 267.689 203.602 263.233C223.505 258.986 231.637 271.259 249.15 274.49C311.613 286.007 349.886 257.24 372.958 221.854C414.765 157.752 358.2 32.6761 263.856 20.4812C234.288 16.6768 171.513 17.7712 115.598 61.0528Z" stroke="#123DB9" stroke-width="3" stroke-miterlimit="10" stroke-linecap="round" stroke-dasharray="10 10"/>
        <path d="M42.4041 187.119C35.051 137.453 79.7935 91.8528 100.034 76.5831C153.689 36.0115 260.946 4.5601 330.996 58.2386C368.229 86.7716 411.751 145.271 386.651 202.675C366.203 249.449 320.395 259.168 282.044 254.035C242.082 248.693 236.236 220.759 199.081 219.639C155.274 218.336 159.847 257.891 100.06 250.413C69.5562 246.582 47.159 219.118 42.4041 187.119Z" fill="#D6E7FF"/>
        <path d="M142.23 252.602C143.451 255.781 140.437 258.699 137.319 257.37C136.514 257.031 135.864 256.354 135.553 255.52C134.331 252.341 137.345 249.423 140.463 250.752C141.269 251.116 141.892 251.768 142.23 252.602Z" fill="#123DB9"/>
        <path d="M365.943 39.27C366.626 37.3751 365.647 35.284 363.758 34.5994C361.869 33.9148 359.783 34.8959 359.101 36.7908C358.418 38.6857 359.396 40.7768 361.286 41.4614C363.175 42.146 365.26 41.1649 365.943 39.27Z" fill="#123DB9"/>
        <path d="M4.44307 152.879C2.26051 160.071 0.857435 166.742 0 172.631C2.52034 176.54 12.7576 191.445 31.1794 194.806C36.6878 195.796 41.5986 195.536 45.522 194.91C46.977 194.493 48.562 193.998 50.2509 193.399C58.0717 190.689 68.283 186.025 78.1825 177.817C80.2091 176.149 82.2098 174.325 84.1845 172.318C88.9134 167.576 92.577 162.755 95.4091 158.378C89.8228 159.863 61.3715 166.768 35.8044 149.883C25.0995 142.821 18.6037 134.014 14.9142 127.864C11.3025 134.509 7.48307 142.899 4.44307 152.879Z" fill="#A6C3FD"/>
        <path d="M55.1877 182.715C54.4862 187.354 52.3816 190.845 50.251 193.373C58.0718 190.663 68.2831 185.999 78.1826 177.79C74.9087 178.051 70.9593 177.921 66.5163 176.931C61.2677 175.758 57.1105 173.804 54.4082 172.318C55.1617 174.976 55.8113 178.65 55.1877 182.715Z" fill="#92ACEF"/>
        <path d="M365.787 103.084C369.165 103.501 372.568 103.944 375.946 104.36C379.818 104.856 383.663 105.351 387.534 105.872C384.313 112.855 375.712 118.458 369.269 122.027C362.305 125.884 357.135 126.848 347.365 128.177C351.392 124.529 356.069 119.526 360.356 112.907C362.591 109.468 364.384 106.132 365.787 103.084Z" fill="#92ACEF"/>
        <path d="M431.705 67.7756C429.575 74.9936 426.145 83.0975 420.533 91.045C397.616 123.513 356.901 127.161 348.456 127.76C352.899 126.561 375.764 119.995 387.535 97.4291C393.485 86.042 394.186 75.2281 394.056 69.1046C406.606 68.6616 419.156 68.2186 431.705 67.7756Z" fill="#A6C3FD"/>
        <path d="M367.865 214.922C362.539 218.753 356.693 223.391 350.691 228.994C345.13 234.205 340.402 239.312 336.4 244.081C341.129 248.459 350.483 255.963 364.462 260.132C376.18 263.624 386.287 263.311 392.341 262.66C409.464 257.579 426.587 252.497 443.709 247.416C437.422 248.693 418.168 251.742 397.408 241.605C380.519 233.345 371.451 220.629 367.865 214.922Z" fill="#A6C3FD"/>
        <path d="M393.251 262.347L442.878 247.755C439.085 248.954 434.174 250.1 428.38 250.465C424.534 250.7 417.415 249.345 414.141 248.667C412.504 251.116 411.387 251.872 407.411 254.869C401.383 259.429 398.161 261.175 393.251 262.347Z" fill="#92ACEF"/>
        <path d="M309.43 1.35499L313.198 7.6088L307.611 10.9702L309.118 13.4717L314.705 10.0843L318.446 16.3381L320.681 15.0091L316.913 8.75533L322.499 5.36785L320.993 2.86633L315.406 6.25381L311.639 0L309.43 1.35499Z" fill="#92ACEF"/>
        <path d="M405.307 163.068L409.074 169.322L403.488 172.709L404.995 175.211L410.581 171.823L414.349 178.077L416.583 176.722L412.816 170.468L418.376 167.081L416.895 164.605L411.309 167.967L407.541 161.713L405.307 163.068Z" fill="#92ACEF"/>
        <path d="M440.41 115.826C434.979 116.607 431.238 121.663 432.017 127.109C432.797 132.555 437.837 136.307 443.268 135.525C448.698 134.744 452.44 129.688 451.66 124.242C450.855 118.796 445.814 115.044 440.41 115.826ZM442.722 131.981C439.24 132.477 436.019 130.079 435.525 126.588C435.031 123.096 437.422 119.865 440.903 119.37C444.385 118.874 447.607 121.272 448.101 124.763C448.62 128.229 446.204 131.46 442.722 131.981Z" fill="#92ACEF"/>
        <path d="M82.8853 275.663C77.4549 276.444 73.7133 281.499 74.4928 286.946C75.2723 292.392 80.313 296.144 85.7434 295.362C91.1738 294.58 94.9154 289.525 94.1359 284.079C93.3304 278.633 88.2897 274.855 82.8853 275.663ZM85.1978 291.818C81.7161 292.313 78.4942 289.916 78.0005 286.424C77.5068 282.933 79.8973 279.702 83.379 279.206C86.8607 278.711 90.0825 281.109 90.5762 284.6C91.0959 288.066 88.6795 291.297 85.1978 291.818Z" fill="#92ACEF"/>
        <path d="M106.081 114.182C108.074 113.039 108.766 110.492 107.626 108.493C106.486 106.495 103.947 105.801 101.953 106.944C99.9602 108.087 99.2684 110.634 100.408 112.633C101.548 114.631 104.088 115.325 106.081 114.182Z" fill="#123DB9"/>
        <path d="M212.548 282.227C213.147 280.004 211.836 277.716 209.619 277.115C207.403 276.515 205.12 277.83 204.521 280.053C203.923 282.276 205.234 284.564 207.451 285.165C209.667 285.765 211.95 284.45 212.548 282.227Z" fill="#123DB9"/>
        <path d="M50.1209 93.9895L42.7158 96.1783L40.7671 89.5076L37.805 90.3935L39.7538 97.0382L32.3486 99.227L33.1281 101.885L40.5332 99.6961L42.482 106.341L45.444 105.481L43.4953 98.8362L50.9004 96.6473L50.1209 93.9895Z" fill="#A6C3FD"/>
        <path d="M78.0786 61.8606C78.7282 56.0758 74.5969 50.8382 68.8027 50.1868C63.0345 49.5353 57.812 53.6785 57.1624 59.4893C56.5128 65.2741 60.6441 70.5117 66.4383 71.1631C72.1805 71.8145 77.4031 67.6453 78.0786 61.8606ZM60.904 59.9062C61.3197 56.2061 64.6715 53.5482 68.361 53.9651C72.0506 54.382 74.7009 57.7435 74.2851 61.4436C73.8694 65.1438 70.5176 67.8017 66.828 67.3848C63.1385 66.9418 60.4882 63.6064 60.904 59.9062Z" fill="#123DB9"/>
        <path d="M452.388 181.699C450.049 181.022 448.672 178.572 449.348 176.227C450.023 173.882 452.466 172.501 454.804 173.178C457.143 173.856 458.52 176.305 457.844 178.65C457.169 180.996 454.726 182.377 452.388 181.699Z" fill="#A6C3FD"/>
        <path d="M204.875 150.065C207.135 153.818 210.357 156.032 212.124 155.016L227.766 145.948C229.533 144.932 229.143 141.023 226.882 137.219C226.882 137.193 226.856 137.193 226.856 137.167C224.596 133.415 221.374 131.2 219.607 132.216L203.966 141.284C202.199 142.3 202.588 146.209 204.849 150.013C204.875 150.039 204.875 150.065 204.875 150.065Z" fill="#A6C3FD"/>
        <path d="M224.05 148.033L219.087 151.029L210.721 137.427L216.099 134.17C216.099 134.17 215.216 137.506 218.126 142.066C221.582 147.46 224.05 148.033 224.05 148.033Z" fill="#6687D1"/>
        <path d="M270.534 168.957C302.692 168.957 328.761 142.813 328.761 110.562C328.761 78.3114 302.692 52.1671 270.534 52.1671C238.375 52.1671 212.306 78.3114 212.306 110.562C212.306 142.813 238.375 168.957 270.534 168.957Z" fill="#92ACEF"/>
        <path d="M303.472 143.59C321.665 125.344 321.665 95.7622 303.472 77.5166C285.278 59.271 255.781 59.271 237.588 77.5166C219.395 95.7622 219.395 125.344 237.588 143.59C255.781 161.835 285.278 161.835 303.472 143.59Z" fill="#123DB9"/>
        <path d="M270.534 154.938C294.972 154.938 314.783 135.07 314.783 110.562C314.783 86.054 294.972 66.1862 270.534 66.1862C246.096 66.1862 226.285 86.054 226.285 110.562C226.285 135.07 246.096 154.938 270.534 154.938Z" fill="#E1EBFF"/>
        <path d="M100.086 203.952C99.9561 207.183 101.567 209.998 102.502 211.613C103.412 213.203 105.257 216.408 108.478 217.945C112.22 219.743 116.273 218.518 120.509 216.929C126.225 214.818 134.357 211.3 143.945 205.385L193.78 175.315C211.137 164.84 223.609 153.349 221.452 149.779C220.023 148.736 217.658 146.782 215.762 143.551C213.917 140.424 213.293 137.532 213.06 135.786C210.903 132.216 194.949 137.844 177.593 148.319L127.758 178.416C118.014 184.253 111.103 189.777 106.608 193.764C103.36 196.656 100.268 199.731 100.086 203.952Z" fill="#92ACEF"/>
        <path d="M275.314 148.658C276.38 150.43 278.536 151.342 280.589 150.743C296.802 146 304.415 135.369 307.923 127.291C313.483 114.471 312.47 99.8785 308.572 92.1134C307.429 89.8203 304.623 88.8822 302.337 90.0288C300.05 91.1753 299.115 93.9895 300.258 96.2826C302.7 101.155 304.051 112.829 299.4 123.539C295.451 132.659 288.254 138.782 277.991 141.779C275.522 142.509 274.093 145.088 274.821 147.564C274.951 147.955 275.106 148.319 275.314 148.658Z" fill="#F3F5FF"/>
        <path d="M302.908 124.242C303.142 124.633 303.506 124.972 303.948 125.154C305.117 125.675 306.494 125.154 307.014 123.982C309.69 118.041 310.833 111.526 310.313 105.168C309.976 100.764 308.832 96.4389 306.988 92.374C306.442 91.2014 305.065 90.6802 303.896 91.2274C302.726 91.7746 302.207 93.1557 302.752 94.3283C304.389 97.8982 305.377 101.677 305.662 105.533C306.234 112.595 304.389 118.405 302.752 122.053C302.441 122.809 302.519 123.617 302.908 124.242Z" fill="white"/>
        <path d="M250.364 101.441C251.542 96.6928 248.659 91.8858 243.925 90.7041C239.19 89.5224 234.397 92.4137 233.218 97.1618C232.04 101.91 234.923 106.717 239.658 107.899C244.392 109.08 249.186 106.189 250.364 101.441Z" fill="#F3F5FF"/>
        <path d="M246.793 103.9C248.741 103.052 249.634 100.78 248.788 98.8263C247.942 96.8728 245.676 95.9772 243.728 96.826C241.781 97.6747 240.888 99.9465 241.734 101.9C242.58 103.854 244.845 104.749 246.793 103.9Z" fill="white" stroke="white" stroke-miterlimit="10"/>
        <path d="M177.359 148.502L149.35 165.387C150.077 169.713 151.61 174.872 154.754 180.11C158.054 185.634 162.133 189.568 165.745 192.278L193.754 175.367C190.143 172.657 186.063 168.749 182.764 163.198C179.646 157.987 178.087 152.827 177.359 148.502Z" fill="#A6C3FD"/>
        <path d="M188.064 159.602C185.154 154.651 183.387 149.726 182.374 145.557C183.101 145.14 183.803 144.75 184.53 144.359C185.518 148.502 187.233 153.348 190.169 158.325C193.416 163.824 197.236 167.967 200.692 170.963C200.016 171.406 199.341 171.849 198.639 172.318C195.183 169.322 191.312 165.1 188.064 159.602Z" fill="#123DB9"/>
        <path d="M182.374 145.583C183.361 149.727 185.128 154.651 188.064 159.628C191.312 165.127 195.183 169.348 198.639 172.344C197.08 173.361 195.469 174.377 193.806 175.367L193.754 175.393C190.143 172.683 186.063 168.775 182.764 163.224C179.646 157.987 178.087 152.827 177.359 148.502L177.593 148.345C179.23 147.381 180.815 146.469 182.374 145.583Z" fill="#EBF1FF"/>
    </g>
    <defs>
        <clipPath id="clip0_4451_47811">
            <rect width="458" height="308" fill="white"/>
        </clipPath>
    </defs>
</svg>
