<svg width="360" height="247" viewBox="0 0 360 247" fill="none" xmlns="http://www.w3.org/2000/svg">
    <path d="M0 22C0 9.84974 9.84974 0 22 0H338C350.15 0 360 9.84974 360 22V247H0V22Z" fill="#EDF1FF"/>
    <path d="M110.745 71.8291C107.618 70.3607 102.443 72.7496 100.797 76.2454C97.6471 82.9152 107.832 92.5781 111.537 91.539C115.671 90.3812 116.485 74.5286 110.745 71.8291Z" stroke="#839EFF" stroke-miterlimit="10" stroke-linecap="round" stroke-dasharray="3 3"/>
    <path d="M95.0966 86.9419C93.9825 86.2981 82.1571 79.4645 75.4668 84.8749C70.7672 88.67 70.722 96.7856 74.2566 101.343C81.2466 110.374 102.935 106.324 105.186 99.8635C106.696 95.5092 99.5813 89.5341 95.0966 86.9419Z" stroke="#839EFF" stroke-miterlimit="10" stroke-linecap="round" stroke-dasharray="3 3"/>
    <path d="M110.315 198.453C139.095 191.32 171.795 184.057 222.574 185.294C250.975 185.983 257.406 177.184 278.93 166.245C298.113 156.491 307.535 137.098 301.749 126.108C295.907 115.01 278.115 119.432 263.542 102.913C256.902 95.3906 258.073 90.1158 254.239 81.7744C242.108 55.3608 196.627 34.7134 174.204 45.6414C144.575 60.0765 169.906 122.448 136.788 139.481C115.84 150.257 100.005 129.57 79.3238 145.366C69.0763 153.193 56.5383 164.166 55.5713 176.088C55.5713 176.088 54.214 205.23 110.315 198.453Z" stroke="#839EFF" stroke-miterlimit="10" stroke-linecap="round" stroke-dasharray="3 3"/>
    <path opacity="0.6" d="M269.316 165.996C269.316 165.996 264.101 172.898 258.887 182.368C254.187 190.908 250.613 202.417 249.822 212.024C247.61 211.916 245.178 211.82 242.549 211.73C226.979 211.177 204.499 210.832 179.503 210.832C151.085 210.832 125.918 211.278 110.462 211.967C109.93 211.99 109.41 212.012 108.901 212.041C89.5994 188.152 50.7358 146.529 86.5003 129.411C86.5003 129.411 89.1187 128.615 93.0492 126.904C105.48 121.488 131.031 106.906 128.186 79.4137C128.186 79.4137 127.219 74.2857 127.219 67.1472C127.219 50.4531 132.512 22.7858 167.836 24.0508C189.23 24.8189 208.933 35.6904 220.843 53.0905C232.527 70.1574 251.207 91.155 266.426 79.1709C269.938 76.4036 274.581 75.3757 278.918 76.5956C289.867 79.6509 302.309 95.5544 269.316 165.996Z" fill="white"/>
    <path d="M274.768 152.781L270.735 143.073L282.425 138.261L287.668 147.286C287.668 147.286 284.619 146.659 282.21 149.048L282.165 149.195C282.131 149.308 282.052 149.398 281.944 149.449L280.949 149.912C280.841 149.963 280.717 149.963 280.61 149.918L280.468 149.856C280.468 149.856 278.206 149.409 274.768 152.781Z" fill="#0A2982"/>
    <path d="M287.758 146.766C285.779 146.094 284.105 146.857 282.951 147.743C281.882 148.562 281.266 149.488 281.266 149.488C280.813 149.426 280.372 149.409 279.948 149.438C276.379 149.647 274.015 152.657 274.015 152.657L271.058 146.281L284.088 140.26L286.355 144.281L287.758 146.766Z" fill="#CDD7FB"/>
    <path d="M286.259 143.598C282.335 144.784 281.334 149.15 281.266 149.466C281.266 149.477 281.26 149.483 281.26 149.483C281.192 149.466 281.13 149.449 281.062 149.426C274.779 147.755 273.173 151.849 273.173 151.849L268.841 142.903C271.669 137.775 276.221 140.311 276.9 140.735C276.956 140.769 276.985 140.791 276.985 140.791C276.985 140.769 276.99 140.752 276.99 140.729C277.358 136.126 281.843 135.748 281.843 135.748L286.259 143.598Z" fill="#DEE4FC"/>
    <path d="M270.571 143.293C270.718 143.084 270.894 142.892 271.08 142.717C271.267 142.542 271.47 142.384 271.691 142.243C271.906 142.101 272.138 141.977 272.375 141.876C272.613 141.774 272.867 141.695 273.122 141.638C273.376 141.582 273.636 141.559 273.897 141.559L274.095 141.565L274.287 141.582C274.349 141.588 274.417 141.593 274.479 141.604C274.541 141.616 274.609 141.621 274.671 141.638C275.18 141.74 275.667 141.932 276.102 142.203C275.627 142.011 275.141 141.864 274.649 141.791C274.151 141.723 273.648 141.734 273.161 141.842C272.675 141.943 272.206 142.13 271.77 142.378C271.555 142.502 271.34 142.644 271.142 142.796C270.945 142.943 270.752 143.112 270.571 143.293Z" fill="#BDC9F9"/>
    <path d="M271.182 144.406C271.317 144.191 271.493 144.005 271.679 143.83C271.866 143.655 272.07 143.502 272.29 143.361C272.726 143.09 273.212 142.892 273.721 142.802C274.23 142.711 274.756 142.717 275.259 142.813C275.762 142.909 276.249 143.078 276.696 143.316C276.215 143.152 275.729 143.028 275.237 142.966C275.174 142.954 275.112 142.949 275.05 142.943L274.863 142.926C274.801 142.92 274.739 142.92 274.677 142.92H274.586H274.496C274.247 142.92 274.004 142.949 273.76 142.994C273.636 143.011 273.517 143.045 273.399 143.073L273.223 143.124C273.167 143.141 273.104 143.163 273.048 143.186C272.816 143.265 272.59 143.372 272.375 143.491C272.16 143.609 271.951 143.745 271.753 143.897C271.544 144.056 271.357 144.225 271.182 144.406Z" fill="#BDC9F9"/>
    <path d="M271.771 145.496C271.923 145.298 272.104 145.117 272.296 144.953C272.489 144.79 272.692 144.637 272.913 144.502C273.128 144.366 273.36 144.253 273.592 144.152C273.829 144.056 274.072 143.976 274.321 143.92C274.57 143.869 274.83 143.835 275.085 143.83C275.339 143.83 275.599 143.847 275.848 143.886C276.351 143.976 276.832 144.163 277.262 144.423C276.792 144.236 276.312 144.101 275.825 144.039C275.582 144.016 275.333 143.999 275.09 144.016C274.847 144.027 274.604 144.061 274.361 144.112C274.123 144.163 273.886 144.236 273.654 144.321C273.422 144.406 273.201 144.513 272.981 144.632C272.766 144.75 272.551 144.88 272.347 145.027C272.149 145.174 271.957 145.326 271.771 145.496Z" fill="#BDC9F9"/>
    <path d="M272.37 146.693C272.5 146.473 272.664 146.275 272.845 146.089C273.026 145.902 273.224 145.733 273.433 145.586C273.643 145.434 273.874 145.309 274.112 145.202C274.349 145.1 274.604 145.021 274.858 144.965C274.989 144.937 275.119 144.925 275.249 144.908C275.379 144.897 275.509 144.886 275.639 144.891C275.769 144.891 275.899 144.903 276.029 144.914L276.221 144.942L276.318 144.959L276.414 144.982C276.923 145.089 277.409 145.281 277.844 145.541C277.369 145.354 276.883 145.208 276.385 145.134L276.295 145.117L276.199 145.112L276.012 145.095C275.888 145.089 275.763 145.083 275.639 145.089C275.577 145.095 275.514 145.089 275.452 145.095L275.266 145.112C275.141 145.129 275.017 145.146 274.898 145.174C274.412 145.27 273.942 145.462 273.518 145.727C273.303 145.857 273.1 146.01 272.907 146.173C272.715 146.32 272.534 146.495 272.37 146.693Z" fill="#BDC9F9"/>
    <path d="M272.94 147.794C273.054 147.568 273.212 147.365 273.393 147.179C273.574 146.992 273.772 146.828 273.987 146.687C274.202 146.546 274.439 146.433 274.682 146.343C274.925 146.252 275.18 146.19 275.434 146.151C275.689 146.111 275.949 146.1 276.209 146.106L276.402 146.117C276.464 146.117 276.532 146.128 276.594 146.134C276.656 146.139 276.724 146.145 276.786 146.156L276.978 146.19C277.482 146.281 277.974 146.444 278.432 146.665C277.945 146.523 277.453 146.405 276.956 146.343C276.458 146.281 275.96 146.269 275.468 146.343C274.976 146.416 274.501 146.574 274.072 146.817C273.857 146.941 273.653 147.083 273.461 147.246C273.268 147.41 273.093 147.591 272.94 147.794Z" fill="#BDC9F9"/>
    <path d="M273.529 148.924C273.648 148.698 273.812 148.495 273.987 148.308C274.163 148.122 274.361 147.952 274.576 147.805C274.79 147.659 275.022 147.534 275.26 147.433C275.503 147.337 275.752 147.258 276.012 147.213C276.272 147.167 276.532 147.145 276.792 147.15C277.053 147.162 277.313 147.184 277.562 147.241C278.071 147.342 278.557 147.523 279.004 147.766C278.523 147.597 278.031 147.461 277.533 147.393C277.036 147.32 276.532 147.32 276.046 147.41C275.803 147.45 275.56 147.523 275.328 147.608C275.096 147.693 274.87 147.805 274.66 147.935C274.445 148.065 274.242 148.212 274.055 148.382C273.863 148.545 273.682 148.726 273.529 148.924Z" fill="#BDC9F9"/>
    <path d="M277.855 141.328C277.872 141.102 277.918 140.876 277.98 140.656C278.042 140.435 278.121 140.221 278.217 140.012C278.314 139.803 278.427 139.6 278.551 139.408C278.681 139.216 278.823 139.035 278.975 138.865C279.134 138.696 279.303 138.544 279.484 138.397L279.626 138.295C279.671 138.261 279.722 138.233 279.767 138.199C279.863 138.131 279.965 138.08 280.061 138.024C280.468 137.809 280.904 137.662 281.356 137.589C280.926 137.742 280.519 137.922 280.14 138.154C279.767 138.391 279.416 138.668 279.122 138.995C278.97 139.159 278.834 139.329 278.704 139.509C278.574 139.69 278.461 139.882 278.353 140.074C278.246 140.272 278.155 140.469 278.07 140.678C277.986 140.893 277.912 141.107 277.855 141.328Z" fill="#BDC9F9"/>
    <path d="M278.489 142.152C278.477 141.926 278.511 141.695 278.562 141.475C278.619 141.254 278.692 141.034 278.794 140.825C278.89 140.616 279.014 140.419 279.15 140.232C279.286 140.046 279.444 139.871 279.608 139.713C279.772 139.554 279.959 139.408 280.146 139.272C280.242 139.21 280.338 139.142 280.434 139.086C280.485 139.057 280.53 139.029 280.581 139.001L280.734 138.922C281.141 138.713 281.576 138.56 282.017 138.464C281.599 138.64 281.192 138.832 280.807 139.057C280.423 139.283 280.061 139.549 279.744 139.854C279.422 140.159 279.15 140.509 278.93 140.899C278.822 141.091 278.732 141.294 278.653 141.508C278.579 141.712 278.517 141.926 278.489 142.152Z" fill="#BDC9F9"/>
    <path d="M279.015 143.152C279.043 142.926 279.099 142.706 279.167 142.491C279.235 142.277 279.32 142.062 279.422 141.859C279.518 141.655 279.637 141.458 279.761 141.266C279.886 141.074 280.027 140.893 280.18 140.723C280.332 140.554 280.496 140.396 280.672 140.249C280.762 140.176 280.853 140.108 280.943 140.04C281.034 139.972 281.135 139.91 281.232 139.854C281.622 139.622 282.046 139.447 282.487 139.345C282.074 139.526 281.678 139.735 281.316 139.984C280.954 140.238 280.621 140.531 280.327 140.859C280.18 141.023 280.044 141.198 279.914 141.379C279.784 141.559 279.671 141.746 279.558 141.938C279.45 142.13 279.348 142.327 279.258 142.531C279.162 142.734 279.083 142.937 279.015 143.152Z" fill="#BDC9F9"/>
    <path d="M279.501 144.202C279.529 143.982 279.591 143.762 279.659 143.547C279.733 143.333 279.818 143.124 279.914 142.92C280.112 142.514 280.372 142.135 280.677 141.796C280.83 141.627 281 141.475 281.175 141.328C281.22 141.294 281.265 141.26 281.311 141.226C281.356 141.192 281.401 141.158 281.452 141.13C281.497 141.096 281.548 141.068 281.593 141.034L281.741 140.949C282.136 140.723 282.572 140.577 283.013 140.498C282.589 140.65 282.187 140.842 281.82 141.079C281.452 141.322 281.118 141.604 280.824 141.932C280.677 142.09 280.542 142.265 280.411 142.446C280.281 142.621 280.163 142.807 280.055 142.999C279.835 143.378 279.642 143.779 279.501 144.202Z" fill="#BDC9F9"/>
    <path d="M280.027 144.332L281.023 146.484C281.023 146.484 281.175 145.264 282.295 144.592L281.294 142.565L280.027 144.332Z" fill="#CDD7FB"/>
    <path d="M281.549 142.446C281.605 142.576 282.38 144.242 282.38 144.242C282.38 144.242 283.415 143.112 284.15 143.022L283.223 141.085L281.549 142.446Z" fill="#CDD7FB"/>
    <path opacity="0.1" d="M281.266 149.466C281.266 149.477 281.26 149.483 281.26 149.483C281.193 149.466 281.13 149.449 281.063 149.426L276.895 140.735C276.951 140.769 276.979 140.791 276.979 140.791C276.979 140.769 276.985 140.752 276.985 140.729C278.291 143.316 280.339 147.546 281.266 149.466Z" fill="black"/>
    <path d="M213.124 57.1511L219.311 48.5555L229.638 55.999L224.678 65.2666C224.678 65.2666 223.598 62.3242 220.272 61.5336L220.137 61.5675C220.012 61.6014 219.877 61.5788 219.769 61.5053L218.876 60.918C218.768 60.8446 218.695 60.7316 218.678 60.6017L218.655 60.4662C218.655 60.4662 217.841 58.2975 213.124 57.1511Z" fill="#0A2982"/>
    <path d="M225.176 65.0633C224.701 63.0189 223.157 61.9854 221.788 61.4715C220.521 60.9914 219.396 60.9519 219.396 60.9519C219.209 60.5283 218.989 60.1443 218.74 59.7941C216.664 56.8518 212.83 56.4282 212.83 56.4282L216.732 50.5152L228.812 58.4613L226.567 62.5332L225.176 65.0633Z" fill="#8B9FE9"/>
    <path d="M227.093 62.104C223.999 59.3762 219.718 60.8389 219.413 60.9462C219.401 60.9519 219.396 60.9519 219.396 60.9519C219.379 60.8841 219.356 60.8163 219.339 60.7542C217.433 54.4967 213.067 55.293 213.067 55.293L218.44 46.8387C224.339 46.5393 224.576 51.7746 224.576 52.5766C224.576 52.6443 224.576 52.6782 224.576 52.6782C224.593 52.6669 224.616 52.6613 224.633 52.65C228.772 50.5209 231.481 54.1579 231.481 54.1579L227.093 62.104Z" fill="white"/>
    <path d="M219.034 48.5273C219.294 48.5442 219.549 48.5951 219.798 48.6572C220.046 48.7249 220.295 48.8153 220.527 48.9283C220.765 49.0356 220.991 49.1711 221.206 49.3179C221.421 49.4704 221.619 49.6398 221.8 49.8319C221.981 50.0239 222.139 50.2328 222.28 50.4531L222.382 50.6225L222.473 50.7976C222.507 50.8541 222.529 50.9162 222.557 50.9727C222.58 51.0348 222.608 51.0913 222.631 51.1534C222.812 51.6447 222.902 52.1587 222.908 52.6726C222.823 52.1643 222.688 51.673 222.49 51.2099C222.28 50.7524 222.003 50.3232 221.658 49.9618C221.313 49.6003 220.906 49.2954 220.459 49.0582C220.239 48.9396 220.007 48.8323 219.769 48.7419C219.532 48.6572 219.283 48.5838 219.034 48.5273Z" fill="#99A6D8"/>
    <path d="M218.4 49.6398C218.655 49.6455 218.909 49.6963 219.158 49.7584C219.407 49.8262 219.65 49.9166 219.882 50.0295C220.346 50.2554 220.77 50.5717 221.121 50.9614C221.466 51.3511 221.743 51.7972 221.924 52.2829C222.11 52.7629 222.218 53.2712 222.252 53.7795C222.139 53.2825 221.986 52.8025 221.777 52.345C221.754 52.2885 221.726 52.2321 221.697 52.1756L221.613 52.0062C221.584 51.9497 221.55 51.8989 221.516 51.8424L221.471 51.7633L221.42 51.6843C221.29 51.4753 221.138 51.2776 220.968 51.0913C220.889 50.9953 220.798 50.9105 220.708 50.8258L220.566 50.7016C220.521 50.6621 220.47 50.6225 220.425 50.583C220.233 50.4249 220.023 50.2893 219.803 50.1651C219.582 50.0465 219.356 49.9335 219.124 49.8488C218.892 49.7641 218.649 49.6907 218.4 49.6398Z" fill="#99A6D8"/>
    <path d="M217.778 50.7185C218.033 50.7468 218.282 50.8089 218.525 50.8823C218.768 50.9614 219.006 51.0517 219.237 51.1703C219.469 51.2833 219.69 51.4188 219.899 51.5657C220.108 51.7182 220.306 51.8876 220.487 52.0683C220.663 52.2547 220.827 52.458 220.968 52.6726C221.104 52.8928 221.228 53.1187 221.324 53.3559C221.511 53.836 221.613 54.3443 221.613 54.8525C221.522 54.3556 221.386 53.8699 221.177 53.4181C221.07 53.1978 220.951 52.9776 220.81 52.7742C220.668 52.5709 220.51 52.3789 220.34 52.2038C220.171 52.0231 219.984 51.865 219.786 51.7125C219.588 51.56 219.379 51.4245 219.164 51.3002C218.949 51.176 218.723 51.0687 218.491 50.967C218.259 50.871 218.022 50.7863 217.778 50.7185Z" fill="#99A6D8"/>
    <path d="M224.582 53.7061C224.786 53.5988 225.001 53.5197 225.221 53.4576C225.442 53.3955 225.668 53.3446 225.9 53.3164C226.132 53.2882 226.363 53.2769 226.595 53.2825C226.827 53.2882 227.059 53.3164 227.285 53.3559C227.511 53.4011 227.738 53.4632 227.958 53.5423L228.122 53.6044C228.173 53.627 228.23 53.6552 228.281 53.6778C228.388 53.723 228.484 53.7851 228.586 53.836C228.988 54.0732 229.344 54.3668 229.644 54.7113C229.287 54.4233 228.914 54.1748 228.513 53.9715C228.111 53.7738 227.687 53.627 227.251 53.5479C227.031 53.5028 226.81 53.4802 226.59 53.4632C226.369 53.4463 226.143 53.4519 225.917 53.4632C225.69 53.4745 225.47 53.5028 225.249 53.5423C225.023 53.5931 224.803 53.644 224.582 53.7061Z" fill="#99A6D8"/>
    <path d="M224.208 54.6888C224.395 54.5589 224.61 54.4629 224.83 54.3894C225.051 54.316 225.277 54.2652 225.509 54.2426C225.741 54.2144 225.972 54.2144 226.204 54.2313C226.436 54.2482 226.668 54.2934 226.894 54.3443C227.121 54.4007 227.341 54.4798 227.556 54.5702C227.663 54.621 227.765 54.6662 227.867 54.7226C227.918 54.7509 227.969 54.7735 228.02 54.8017L228.167 54.8921C228.563 55.1293 228.925 55.4173 229.241 55.7448C228.868 55.4794 228.489 55.2309 228.088 55.022C227.686 54.813 227.273 54.6436 226.838 54.5363C226.408 54.4233 225.961 54.3725 225.514 54.3951C225.294 54.4064 225.068 54.4346 224.847 54.4798C224.638 54.5306 224.417 54.5927 224.208 54.6888Z" fill="#99A6D8"/>
    <path d="M223.632 55.6714C223.835 55.5754 224.056 55.5076 224.277 55.4512C224.497 55.3947 224.723 55.3552 224.955 55.3326C225.181 55.3043 225.413 55.2987 225.645 55.3043C225.877 55.31 226.103 55.3382 226.329 55.3721C226.556 55.4116 226.782 55.4681 227.002 55.5415C227.11 55.5811 227.217 55.6206 227.325 55.6658C227.432 55.7053 227.534 55.7618 227.636 55.8126C228.043 56.0216 228.422 56.2927 228.739 56.6146C228.365 56.3548 227.975 56.1289 227.568 55.9482C227.161 55.7731 226.731 55.6432 226.296 55.5698C226.075 55.5302 225.854 55.5076 225.634 55.4907C225.413 55.4738 225.187 55.4738 224.966 55.4851C224.746 55.4964 224.52 55.5133 224.299 55.5472C224.073 55.5754 223.852 55.615 223.632 55.6714Z" fill="#99A6D8"/>
    <path d="M222.987 56.6428C223.197 56.5524 223.411 56.4847 223.632 56.4282C223.853 56.3774 224.079 56.3378 224.305 56.3152C224.757 56.2701 225.221 56.287 225.674 56.3661C225.9 56.4113 226.12 56.4677 226.341 56.5411C226.397 56.5581 226.448 56.5807 226.499 56.6033C226.556 56.6259 226.607 56.6485 226.658 56.671C226.709 56.6936 226.765 56.7162 226.816 56.7445L226.969 56.8235C227.37 57.0438 227.732 57.3375 228.032 57.6763C227.676 57.3996 227.302 57.1511 226.901 56.9647C226.499 56.7783 226.075 56.6428 225.64 56.5637C225.425 56.5186 225.204 56.496 224.984 56.479C224.763 56.4621 224.543 56.4621 224.316 56.4677C223.875 56.4903 223.428 56.5411 222.987 56.6428Z" fill="#99A6D8"/>
    <path d="M222.274 57.9813C222.478 57.8853 222.699 57.8175 222.919 57.761C223.14 57.7045 223.366 57.665 223.598 57.6424C223.824 57.6142 224.056 57.6085 224.288 57.6142C224.52 57.6198 224.746 57.6481 224.972 57.682C225.198 57.7215 225.424 57.778 225.645 57.8514C225.752 57.8909 225.86 57.9304 225.967 57.9756C226.075 58.0152 226.177 58.0716 226.278 58.1225C226.686 58.3314 227.065 58.6025 227.381 58.9244C227.008 58.6646 226.618 58.4387 226.211 58.258C225.803 58.0829 225.374 57.953 224.938 57.8796C224.718 57.8401 224.497 57.8175 224.276 57.8005C224.056 57.7836 223.83 57.7836 223.609 57.7949C223.389 57.8062 223.162 57.8231 222.942 57.857C222.716 57.8853 222.495 57.9248 222.274 57.9813Z" fill="#99A6D8"/>
    <path d="M221.636 58.9527C221.845 58.8623 222.06 58.7945 222.28 58.738C222.501 58.6872 222.727 58.6477 222.953 58.6251C223.406 58.5799 223.87 58.5969 224.322 58.6759C224.548 58.7211 224.769 58.7776 224.989 58.851C225.046 58.8679 225.097 58.8905 225.148 58.9131C225.204 58.9357 225.255 58.9583 225.306 58.9809C225.357 59.0035 225.414 59.0261 225.464 59.0543L225.617 59.1334C226.019 59.3536 226.381 59.6473 226.68 59.9862C226.324 59.7094 225.951 59.4609 225.549 59.2746C225.148 59.0882 224.724 58.9527 224.288 58.8736C224.073 58.8284 223.853 58.8058 223.632 58.7889C223.412 58.7719 223.191 58.7719 222.965 58.7776C222.518 58.8002 222.077 58.851 221.636 58.9527Z" fill="#99A6D8"/>
    <path opacity="0.1" d="M219.413 60.9462C219.402 60.9519 219.396 60.9519 219.396 60.9519C219.379 60.8841 219.357 60.8164 219.34 60.7542L224.582 52.5766C224.582 52.6444 224.582 52.6782 224.582 52.6782C224.599 52.6669 224.622 52.6613 224.639 52.65C223.106 55.1349 220.567 59.1334 219.413 60.9462Z" fill="black"/>
    <path d="M219.673 58.1055C219.096 54.0167 215.771 54.0393 215.771 54.0393L217.071 51.8819C217.071 51.8819 220.142 51.7238 220.973 55.9482L219.673 58.1055Z" fill="#99A6D8"/>
    <path d="M210 124.802L212.04 127.297C212.163 127.452 212.351 127.542 212.548 127.542H228.105C228.105 127.542 230.964 108.963 230.964 109.209C230.964 109.454 216.029 108.71 216.029 108.71L210 124.802Z" fill="#0A2982"/>
    <path d="M210.958 123.714L212.58 126.511H227.203L229.882 110.91L227.326 107.802L215.005 108.734L210.958 123.714Z" fill="white"/>
    <path d="M214.916 107L229.383 107.245L225.959 124.957H210.262C210.115 124.957 210 124.818 210.033 124.671L214.408 107.393C214.465 107.155 214.678 107 214.916 107Z" fill="#205CE1"/>
    <path d="M214.326 125.701L213.515 129.056L214.76 128L215.571 129.056L216.374 125.701H214.326Z" fill="#829CF8"/>
    <path d="M158.262 91.0044L160.473 91.2529C160.609 91.2698 160.745 91.2246 160.841 91.1286L168.538 83.6456C168.538 83.6456 160.994 73.0791 161.112 73.2033C161.231 73.3276 153.483 80.1385 153.483 80.1385L158.262 91.0044Z" fill="#0A2982"/>
    <path d="M158.217 90.0048L160.366 90.609L167.599 83.5722L161.401 74.57L158.635 74.2594L152.991 80.6468L158.217 90.0048Z" fill="white"/>
    <path d="M152.109 79.8392L159.382 73L166.23 83.4084L158.465 90.9592C158.392 91.0326 158.267 91.0157 158.217 90.9253L152.047 80.274C151.967 80.1272 151.99 79.9465 152.109 79.8392Z" fill="#205CE1"/>
    <path d="M160.835 89.3722L162.051 91.4166L162.158 90.2984L163.069 90.4283L161.853 88.3839L160.835 89.3722Z" fill="#829CF8"/>
    <path d="M272.681 181.369V207.873H102.521C99.2262 207.873 96.2167 206.678 93.8948 204.689C91.0549 202.255 89.251 198.652 89.251 194.621C89.251 190.964 90.7334 187.647 93.1357 185.248C93.3768 185.007 93.6358 184.775 93.8948 184.543C96.2167 182.564 99.2262 181.36 102.521 181.36H272.681V181.369Z" fill="#FF854F"/>
    <path d="M272.681 181.369V207.873H192.861C189.566 207.873 186.557 206.678 184.235 204.689C181.395 202.255 179.591 198.652 179.591 194.621C179.591 190.964 181.073 187.647 183.476 185.248C183.717 185.007 183.976 184.775 184.235 184.543C186.557 182.564 189.566 181.36 192.861 181.36H272.681V181.369Z" fill="#CE673A"/>
    <path d="M272.681 184.552V204.689H194.237C188.673 204.689 184.154 200.168 184.154 194.621C184.154 189.065 188.682 184.552 194.237 184.552H272.681Z" fill="#EEF2FA"/>
    <path d="M192.646 181.369C189.351 181.369 186.342 182.564 184.02 184.552H93.9033C96.2252 182.573 99.2347 181.369 102.53 181.369H192.646Z" fill="#CE673A"/>
    <path d="M192.647 207.873H102.522C99.2269 207.873 96.2174 206.678 93.8955 204.689H184.012C186.343 206.678 189.352 207.873 192.647 207.873Z" fill="#CE673A"/>
    <path d="M172.348 197.805H96.2885C94.806 197.805 93.6094 196.61 93.6094 195.129V194.121C93.6094 192.641 94.806 191.446 96.2885 191.446H172.348C173.831 191.446 175.028 192.641 175.028 194.121V195.129C175.028 196.601 173.822 197.805 172.348 197.805Z" fill="#FFAD67"/>
    <path d="M282.513 168.125C282.513 172.156 280.709 175.768 277.869 178.193C275.547 180.173 272.537 181.377 269.242 181.377H99.0918V154.873H269.251C272.546 154.873 275.556 156.068 277.878 158.056C278.137 158.279 278.396 158.511 278.637 158.761C281.03 161.151 282.513 164.459 282.513 168.125Z" fill="#0B2581"/>
    <path d="M191.762 168.125C191.762 172.156 189.958 175.768 187.118 178.193C184.797 180.173 181.787 181.377 178.492 181.377H99.0918V154.873H178.492C181.787 154.873 184.797 156.068 187.118 158.056C187.377 158.279 187.636 158.511 187.877 158.761C190.28 161.151 191.762 164.459 191.762 168.125Z" fill="#0F31AC"/>
    <path d="M249.292 168.125C249.292 164.469 247.81 161.152 245.407 158.753C245.166 158.512 244.907 158.28 244.648 158.048C242.326 156.068 239.317 154.864 236.021 154.864H247.488C250.783 154.864 253.793 156.059 256.115 158.048C256.374 158.271 256.633 158.503 256.874 158.753C259.276 161.152 260.759 164.46 260.759 168.125C260.759 172.156 258.955 175.768 256.115 178.194C253.793 180.174 250.783 181.378 247.488 181.378H236.021C239.317 181.378 242.326 180.183 244.648 178.194C247.488 175.759 249.292 172.147 249.292 168.125Z" fill="#829CF8"/>
    <path d="M99.0918 158.048V178.185H177.536C183.1 178.185 187.618 173.664 187.618 168.117C187.618 162.561 183.091 158.048 177.536 158.048H99.0918Z" fill="#D1E1FF"/>
    <path opacity="0.15" d="M179.126 154.873C182.421 154.873 185.431 156.068 187.753 158.057H277.869C275.547 156.077 272.538 154.873 269.242 154.873H179.126Z" fill="#0F31AC"/>
    <path opacity="0.15" d="M179.126 181.369H269.251C272.547 181.369 275.556 180.174 277.878 178.185H187.753C185.431 180.174 182.421 181.369 179.126 181.369Z" fill="#0F31AC"/>
    <path d="M224.95 173.065C227.684 170.335 227.684 165.908 224.95 163.178C222.216 160.447 217.783 160.447 215.048 163.178C212.314 165.908 212.314 170.335 215.048 173.065C217.783 175.796 222.216 175.796 224.95 173.065Z" fill="#829CF8"/>
    <path d="M267.376 128.369V154.873H97.2168C93.9215 154.873 90.912 153.678 88.5901 151.69C85.7502 149.255 83.9463 145.652 83.9463 141.621C83.9463 137.965 85.4287 134.647 87.831 132.248C88.0721 132.007 88.3311 131.776 88.5901 131.544C90.912 129.564 93.9215 128.36 97.2168 128.36H267.376V128.369Z" fill="#0026AB"/>
    <path d="M267.375 128.369V154.873H187.556C184.26 154.873 181.251 153.678 178.929 151.69C176.089 149.255 174.285 145.652 174.285 141.621C174.285 137.965 175.768 134.647 178.17 132.248C178.411 132.007 178.67 131.776 178.929 131.544C181.251 129.564 184.26 128.36 187.556 128.36H267.375V128.369Z" fill="#002193"/>
    <path d="M162.283 141.621C162.283 137.965 163.765 134.647 166.168 132.248C166.409 132.007 166.668 131.776 166.927 131.544C169.249 129.564 172.258 128.36 175.554 128.36H151.245C147.95 128.36 144.94 129.555 142.618 131.544C142.359 131.767 142.1 131.999 141.859 132.248C139.457 134.647 137.975 137.956 137.975 141.621C137.975 145.652 139.779 149.264 142.618 151.69C144.94 153.669 147.95 154.873 151.245 154.873H175.554C172.258 154.873 169.249 153.678 166.927 151.69C164.087 149.264 162.283 145.652 162.283 141.621Z" fill="#E3E9F7"/>
    <path d="M117.177 141.621C117.177 137.965 118.659 134.647 121.061 132.248C121.302 132.007 121.561 131.776 121.82 131.544C124.142 129.564 127.152 128.36 130.447 128.36H118.98C115.685 128.36 112.676 129.555 110.354 131.544C110.095 131.767 109.836 131.999 109.595 132.248C107.192 134.647 105.71 137.956 105.71 141.621C105.71 145.652 107.514 149.264 110.354 151.69C112.676 153.669 115.685 154.873 118.98 154.873H130.447C127.152 154.873 124.142 153.678 121.82 151.69C118.972 149.264 117.177 145.652 117.177 141.621Z" fill="#E3E9F7"/>
    <path d="M267.376 131.553V151.69H188.932C183.368 151.69 178.85 147.168 178.85 141.621C178.85 136.065 183.377 131.553 188.932 131.553H267.376Z" fill="#D1E1FF"/>
    <path opacity="0.15" d="M187.333 128.369C184.038 128.369 181.028 129.564 178.706 131.553H88.5898C90.9117 129.573 93.9213 128.369 97.2166 128.369H187.333Z" fill="black"/>
    <path opacity="0.15" d="M187.333 154.873H97.2166C93.9213 154.873 90.9117 153.678 88.5898 151.69H178.706C181.028 153.669 184.046 154.873 187.333 154.873Z" fill="black"/>
    <path d="M142.012 173.209L137.448 168.652L132.885 173.209V162.293H142.012V173.209Z" fill="#F6471E"/>
    <path d="M211.437 146.071L206.873 141.514L202.301 146.071V135.156H211.437V146.071Z" fill="#FF854F"/>
    <path d="M92.1439 140.917C92.1439 140.917 89.1433 152.724 85.2407 157.076L80.6416 162.356L86.9911 163.176L94.4658 155.801C94.4658 155.801 93.0191 153.839 95.466 147.48L92.1439 140.917Z" fill="#FFE1BD"/>
    <path d="M82.7226 164.665C86.6252 165.316 87.8219 163.907 87.8219 163.907L90.76 161.615L93.2694 159.662L93.0193 163.417H94.1178L94.4661 159.225C95.0823 157.923 95.1805 156.907 95.0465 156.14C94.7965 154.731 93.9392 154.16 93.9392 154.16C93.2873 157.477 86.9646 161.187 86.9646 161.187C83.062 162.329 82.6155 160.09 82.6155 160.09L78.2128 162.168C76.8197 164.612 82.7226 164.665 82.7226 164.665Z" fill="#040C2B"/>
    <path opacity="0.15" d="M90.7604 161.606L93.2698 159.653L93.0198 163.408H94.1182L94.4665 159.216C95.0827 157.914 95.1809 156.898 95.047 156.131L94.3593 157.665C94.3593 157.665 90.5371 159.306 90.7604 161.606Z" fill="black"/>
    <path d="M88.8666 138.107L90.2776 139.338C90.3133 139.374 90.3579 139.409 90.3847 139.454C90.5276 139.623 90.5991 139.855 90.5901 140.087C90.5544 141.086 90.6616 141.915 90.7955 142.513C90.9473 143.182 91.117 143.556 91.117 143.556C91.1795 143.672 91.2331 143.779 91.2956 143.886C92.9388 146.883 94.3498 148.176 95.0285 148.666C95.3054 148.871 95.4661 148.934 95.4661 148.934L97.5379 145.456L101.583 138.66L102.664 136.85L103.369 135.664L103.923 134.736C104.227 134.469 104.521 134.219 104.816 133.969C105.879 133.078 106.879 132.329 107.817 131.686C108.076 131.508 108.326 131.339 108.576 131.178C108.969 130.928 109.344 130.697 109.71 130.483C111.139 129.653 112.362 129.109 113.354 128.752C115.131 128.11 116.122 128.092 116.122 128.092C117.524 128.315 118.837 128.485 120.06 128.619C122.32 128.851 124.267 128.931 125.937 128.913C128.312 128.886 130.116 128.663 131.42 128.405C133.697 127.95 135.546 126.113 136.144 123.669C136.903 120.539 136.43 117.07 135.992 115.019C135.858 114.403 135.733 113.922 135.653 113.601C135.581 113.333 135.537 113.19 135.537 113.19L130.232 114.002L126.088 114.466H126.07L124.677 114.626L121.721 114.956L121.087 115.028L110.844 116.187L96.9753 117.757L92.8138 126.015L91.6886 128.244L91.6439 128.333L91.2599 129.1L91.126 129.377L88.304 134.977C87.7592 136.038 88.0003 137.358 88.8666 138.107Z" fill="#040C2B"/>
    <path d="M93.7695 159.493H98.324L103.477 150.949L102.173 147.302L102.968 139.579L103.37 135.664L103.468 134.683L95.4663 130.875L95.9664 134.273L97.4131 144.038C97.4756 144.511 97.5113 144.983 97.5381 145.456C97.8864 152.858 93.7695 159.493 93.7695 159.493Z" fill="#FFE1BD"/>
    <path d="M102.12 148.176C102.12 148.176 105.567 148.88 104.924 153.348L104.424 154.169L104.325 157.433H103.477L103.075 155.096C103.075 155.096 101.923 155.587 99.6281 158.574C99.6281 158.574 98.6279 162.819 91.3765 162.115C91.3765 162.115 89.7601 160.42 94.645 157.896C94.645 157.896 96.5293 159.02 98.6279 157.272C98.619 157.263 102.977 151.333 102.12 148.176Z" fill="#040C2B"/>
    <path opacity="0.15" d="M91.6797 128.253L91.6886 129.707C91.6886 129.707 93.5461 132.239 95.9663 134.273C97.7166 135.744 99.7527 137.385 101.575 138.66C102.048 138.999 102.512 139.302 102.959 139.579L103.361 135.664L103.914 134.736C104.218 134.469 104.513 134.219 104.807 133.969L92.8049 126.015L91.6797 128.253Z" fill="black"/>
    <path opacity="0.15" d="M107.817 131.686C108.487 131.232 109.121 130.83 109.72 130.483C111.863 125.783 112.479 118.737 112.479 118.737L126.089 114.475L110.845 116.196L109.577 117.765L107.817 131.686Z" fill="black"/>
    <path opacity="0.15" d="M122.561 115.58C122.561 115.58 128.026 116.294 130.178 119.772C130.178 119.772 132.679 121.618 135.331 122.162L130.83 119.281C130.83 119.29 127.74 114.983 122.561 115.58Z" fill="black"/>
    <path opacity="0.15" d="M111.979 123.963C111.996 123.972 112.273 124.195 112.8 124.561C114.006 125.399 116.506 127.004 120.069 128.619C122.329 128.851 124.276 128.931 125.946 128.913C125.946 128.913 119.873 127.584 113.657 124.757C113.086 124.507 112.532 124.24 111.979 123.963Z" fill="black"/>
    <path d="M117.167 111.434C120.694 110.907 123.427 110.854 123.427 110.854L128.803 113.877L110.978 117.819C110.978 117.819 111.175 129.403 105.031 138.116C105.031 138.116 94.8321 132.89 91.126 128.975C91.126 128.975 94.2784 122.777 95.4751 117.605C95.4751 117.605 95.9484 113.217 98.2792 111.344C99.1901 110.613 100.842 109.98 102.468 110.096" fill="#040C2B"/>
    <path d="M91.0906 146.027L90.9834 145.706C91.037 145.893 91.0816 146 91.0906 146.027Z" fill="#758CFA"/>
    <path opacity="0.15" d="M90.5911 140.087C90.5554 141.086 90.6626 141.915 90.7965 142.513C90.9394 140.97 91.3859 138.928 92.4933 136.351L90.3857 139.454C90.5286 139.623 90.6001 139.855 90.5911 140.087Z" fill="black"/>
    <path opacity="0.15" d="M98.2793 111.344C100.565 112.459 104.772 114.296 107.799 114.252L121.864 115.081L117.167 111.425C112.22 111.764 105.593 111.933 102.218 110.792C102.128 110.765 102.039 110.729 101.95 110.711C100.387 110.265 99.1902 110.613 98.2793 111.344Z" fill="black"/>
    <path d="M105.495 108.758C105.495 108.758 105.558 109.659 106.344 109.998C106.54 110.087 106.79 110.132 107.094 110.123L108.996 109.302L114.247 109.9L118.114 105.039L118.703 104.299L115.149 103.809L114.917 104.13L112.934 106.85L112.648 107.233C112.648 107.233 111.398 108.161 110.246 107.073C110.246 107.073 109.675 106.181 108.808 106.181C108.505 106.181 108.156 106.288 107.79 106.591C107.799 106.582 105.897 107.67 105.495 108.758Z" fill="#DE995F"/>
    <path opacity="0.15" d="M106.344 109.998C106.54 110.087 106.79 110.132 107.094 110.123L108.996 109.302L114.247 109.9L118.114 105.039L115.73 104.638L114.908 104.139L112.925 106.859L112.64 107.242C112.64 107.242 111.389 108.17 110.237 107.082C110.237 107.082 109.666 106.19 108.8 106.19C107.96 106.948 106.683 108.33 106.344 109.998Z" fill="black"/>
    <path d="M120.479 86.8021L123.578 89.7985L129.597 83.0387L131.678 80.7111L127.079 70.2145L123.525 68.9571L121.819 78.9453L120.479 86.8021Z" fill="#FFE1BD"/>
    <path opacity="0.15" d="M121.82 78.9453L123.803 79.9263C123.803 79.9263 126.303 78.5083 128.804 82.3163C128.991 82.6017 129.259 82.8425 129.599 83.0387L131.679 80.7111L127.08 70.2146L123.526 68.966L121.82 78.9453Z" fill="black"/>
    <path d="M114.729 104.379C114.729 104.379 116.676 104.977 117.275 104.701C117.48 104.611 117.775 102.658 118.069 100.134C118.641 95.3009 119.221 88.3805 119.221 88.3805L118.168 87.5601C118.168 87.5601 117.775 89.6201 117.319 92.2599C116.819 95.185 116.248 98.8236 116.069 101.169C116.078 101.169 114.988 103.291 114.729 104.379Z" fill="#DFEAFD"/>
    <path d="M116.748 112.62C116.748 112.62 116.837 112.629 119.159 113.28C119.356 113.333 119.561 113.396 119.767 113.449C119.82 113.467 119.874 113.476 119.927 113.494C121.338 113.877 122.973 114.287 124.669 114.626C124.785 114.653 124.91 114.671 125.026 114.698C125.089 114.707 125.16 114.724 125.223 114.733C128.947 115.456 132.921 115.848 135.645 115.108C135.761 115.072 135.877 115.045 135.984 115.01C136.172 114.947 136.35 114.885 136.52 114.814L136.502 114.234L136.413 111.88L136.252 107.599V107.563L136.1 103.488L135.413 84.6974L135.323 82.1647C135.323 82.1647 135.305 82.1201 135.27 82.0398C135.02 81.4334 133.805 78.8918 131.001 79.1682C130.974 79.1682 130.947 79.1771 130.921 79.1771C130.921 79.1771 130.269 79.6676 129.313 80.6754C129.027 80.9786 128.715 81.3175 128.384 81.7188C127.232 83.0832 125.848 85.0184 124.625 87.5601C124.625 87.5601 122.973 89.0851 122.571 86.5791V80.9251H118.418C118.418 80.9251 118.043 82.1379 117.757 86.6683C117.686 87.8276 117.623 89.201 117.57 90.833C117.543 91.8229 117.516 92.893 117.498 94.0702C117.471 96.0054 117.454 98.2082 117.471 100.723L117.266 104.094L117.23 104.718L117.221 104.879L117.141 106.261L116.927 109.748L116.819 111.451L116.748 112.62Z" fill="#FF854F"/>
    <path d="M114.729 104.379C114.729 104.379 116.676 104.977 117.275 104.7C117.48 104.611 117.775 102.658 118.069 100.134L117.328 92.2599C116.828 95.185 116.257 98.8235 116.078 101.169C116.078 101.169 114.988 103.291 114.729 104.379Z" fill="#D97143"/>
    <path opacity="0.15" d="M119.158 113.289C119.355 113.342 119.56 113.404 119.765 113.458C119.819 113.476 119.873 113.485 119.926 113.503C121.337 113.886 122.971 114.296 124.668 114.635C124.784 114.662 124.909 114.68 125.025 114.706C125.088 114.715 125.159 114.733 125.222 114.742C128.946 115.465 132.92 115.857 135.644 115.117C135.76 115.081 135.876 115.054 135.983 115.019C136.001 115.01 136.019 115.01 136.037 115.001C136.206 114.947 136.367 114.885 136.519 114.822L136.501 114.243L136.43 112.254L136.421 111.888L136.26 107.608V107.572L136.108 103.497L135.42 84.7063L131.205 83.7699C131.143 83.8056 128.749 85.3484 129.884 95.1225L131.187 105.298C131.187 105.298 131.036 106.332 128.937 107.804L127.472 108.624L123.472 110.872L119.399 113.155L119.158 113.289Z" fill="black"/>
    <path d="M104.191 90.0304L98.2344 99.6618L105.289 107.171L110.174 100.259L104.968 90.0661C104.807 89.745 104.37 89.7272 104.191 90.0304Z" fill="#0A2982"/>
    <path d="M98.5742 99.7421L99.4315 99.6618L99.494 99.6529L99.6637 99.644L109.8 98.6719L110.085 98.6452L109.969 98.4401L106.817 92.7504L106.245 91.5286L105.888 90.7616L105.879 90.7527H105.87L104.263 90.4584L102.441 93.4638L98.9493 99.1357L98.86 99.2783L98.5742 99.7421Z" fill="#A5C0FF"/>
    <path opacity="0.1" d="M99.1094 100.108L99.2969 100.17L99.6631 99.644L104.861 92.1975C104.861 92.1975 105.539 91.27 105.888 90.7706L105.879 90.7617H105.87L104.861 92.1172L99.4309 99.6708L99.1094 100.108Z" fill="black"/>
    <path d="M98.9131 99.8759L99.9758 100.509H109.022L111.192 97.6196L107.451 90.833L106.432 91.9388L102.119 96.6119L101.932 96.817L100.655 98.1101L99.2614 99.5192L98.9131 99.8759Z" fill="white"/>
    <path d="M98.2344 99.6619C98.2344 99.7064 107.709 114.466 107.709 114.466L120.882 112.218C121.498 112.111 121.811 111.425 121.498 110.89L113.47 97.4234C113.282 97.1024 112.916 96.9419 112.55 97.0043L98.2344 99.6619Z" fill="#205CE1"/>
    <path d="M110.469 101.071L103.789 102.203C103.432 102.266 103.253 102.667 103.441 102.97L107.861 110.007C107.968 110.185 108.183 110.274 108.388 110.239L114.845 109.035C115.193 108.972 115.372 108.58 115.184 108.277L110.987 101.312C110.88 101.133 110.674 101.044 110.469 101.071Z" fill="#205CE1"/>
    <path d="M118.123 113.574L132.045 113.012L130.732 108.134L117.48 110.149L114.729 108.187C113.041 106.752 111.461 106.868 110.237 107.429C108.04 108.428 107.897 111.505 110.005 112.682C111.202 113.351 113.041 113.841 115.89 113.806C115.881 113.806 117.891 113.859 118.123 113.574Z" fill="#FFE1BD"/>
    <path d="M128.928 107.804L129.169 108.366L131.205 113.039L131.267 113.19L132.036 113.003L135.322 112.21C135.429 112.183 135.536 112.156 135.643 112.129C135.92 112.058 136.179 111.978 136.411 111.888C138.439 111.13 139.269 109.784 139.573 108.553C139.787 107.706 139.742 106.912 139.68 106.404C139.635 106.056 139.573 105.851 139.573 105.851L138.608 97.9318L137.224 86.6415C136.349 81.8793 135.322 82.1825 135.322 82.1825C133.223 81.3086 131.955 82.3341 131.196 83.7789C131 84.1623 130.83 84.5636 130.696 84.9739C130.178 86.5434 130.071 88.2468 130.348 89.8877L132.875 104.843L133 105.583L133.071 106.003L128.928 107.804Z" fill="#FF854F"/>
    <path d="M114.229 74.3436C114.229 74.3436 114.818 75.9132 115.497 77.5006C115.703 77.9732 115.765 78.5083 115.685 79.0255C115.417 80.7021 115.113 84.7509 117.855 86.7396C118.337 87.0874 118.909 87.3728 119.587 87.569C119.587 87.569 122.499 88.3716 124.043 84.1356C124.436 83.0743 124.731 81.692 124.883 79.8995V79.8906C124.91 79.5785 124.82 79.2752 124.651 79.0166L124.258 78.4459L120.873 72.4262L116.229 64.1681C116.229 64.1681 114.622 65.1848 113.97 67.9048C113.586 69.4565 113.515 71.5612 114.229 74.3436Z" fill="#040C2B"/>
    <path d="M121.123 79.7301C121.123 79.7301 124.124 81.5226 126.428 73.6391H130.277L127.625 65.5861L118.676 64.1681C118.676 64.177 111.728 73.9155 121.123 79.7301Z" fill="#FFE1BD"/>
    <path d="M119.23 60.6901C119.23 60.6901 126.705 56.9178 130.786 67.013C130.884 67.2627 131.009 67.5124 131.143 67.7353L133.143 71.0528C133.688 71.9625 134.018 73.0059 134.099 74.0939L134.188 75.3067C134.242 76.0469 134.599 76.7158 135.162 77.1349L138.126 79.3555L135.974 78.4815C135.974 78.4815 137.421 82.8335 139.627 84.198C139.627 84.198 135.278 81.3175 131.956 81.4601C131.679 81.4691 131.402 81.4423 131.134 81.3799C129.678 81.041 125.865 79.6855 127.169 74.8965C127.169 74.8965 126.919 73.0505 125.115 71.6325C125.115 71.6325 118.319 69.9648 116.39 73.6034C116.408 73.5945 111.925 63.4636 119.23 60.6901Z" fill="#040C2B"/>
    <path opacity="0.15" d="M132.857 104.799C132.857 104.799 133.599 106.859 136.403 107.617C136.403 107.617 133.018 107.635 132.857 104.799Z" fill="black"/>
    <path opacity="0.67" d="M277.225 206.946L279.181 207.784L278.61 210.843L275.261 209.683L277.225 206.946Z" fill="#050505"/>
    <path d="M249.899 200.168C249.899 200.168 244.675 199.481 243.523 202.594C243.523 202.594 243.442 210.343 246.711 210.87C246.711 210.87 249.488 211.182 251.283 209.817L261.741 208.497L268.849 207.971L249.899 200.168Z" fill="#040C2B"/>
    <path d="M281.307 203.887C281.307 203.887 284.048 208.765 282.423 210.709C282.173 211.012 282.521 211.378 283.048 211.369L294.086 211.342C294.086 211.342 300.373 212.609 301.605 207.284C301.605 207.284 302.338 201.648 294.336 200.694C286.334 199.74 294.256 200.382 294.256 200.382C294.256 200.382 284.941 201.122 281.307 203.887Z" fill="#040C2B"/>
    <path d="M285.683 204.128L285.656 204.44L285.031 210.878L273.386 209.746L277.217 204.199L277.262 204.128C285.683 204.333 285.683 204.128 285.683 204.128Z" fill="#FFE1BD"/>
    <path opacity="0.38" d="M285.683 204.128L285.656 204.44L279.521 204.627L277.226 204.199L277.27 204.128C285.683 204.333 285.683 204.128 285.683 204.128Z" fill="#050505"/>
    <path d="M303.544 193.016L289.987 195.923L272.198 199.74L258.07 196.101L235.762 190.358C234.744 181.895 250.792 186.764 250.792 186.764L261.241 188.057L267.376 188.815L281.262 190.92L285.674 188.994L290.898 186.711C304.999 185.382 303.544 193.016 303.544 193.016Z" fill="#081956"/>
    <path opacity="0.3" d="M289.987 195.932L272.197 199.749L258.07 196.11L254.229 193.577L261.249 188.075L267.384 188.833L281.271 190.947L285.682 189.011L289.987 195.932Z" fill="black"/>
    <path d="M252.346 202.647L271.546 197.109C271.546 197.109 285.272 191.473 287.638 191.785C287.638 191.785 304.633 182.136 303.49 193.943C303.49 193.943 305.455 203.218 275.145 204.645L252.346 202.647Z" fill="#081956"/>
    <path opacity="0.13" d="M265.545 198.821L267.67 198.135C269.278 199.321 272.296 200.302 274.288 201.3C276.538 202.424 279.271 203.459 281.887 204.145C280.173 204.377 278.458 204.6 276.744 204.832L265.545 198.821Z" fill="black"/>
    <path d="M280.414 204.306C280.414 204.306 274.814 209.238 278.574 210.87C278.574 210.87 256.856 208.176 239.486 197.448C238.173 196.636 237.236 195.602 236.798 194.46C235.208 190.322 233.011 180.914 250.149 188.949C250.149 188.949 264.295 193.462 267.849 198.251C268.545 199.196 269.688 199.829 270.84 200.471C273.582 201.996 278.244 204.377 280.414 204.306Z" fill="#081956"/>
    <path d="M267.134 149.603L277.261 149.621L280.53 156.416C280.53 156.416 274.153 167.064 265.009 157.575C265.42 156.05 266.768 153.803 267.17 152.278C267.831 150.7 267.75 150.807 267.134 149.603Z" fill="#FFE1BD"/>
    <path d="M279.432 154.071C277.271 155.524 275.484 156.443 274.02 156.969C273.118 157.29 272.332 157.459 271.653 157.504C270.189 157.611 269.197 157.174 268.537 156.505C267.385 155.988 266.063 155.248 264.545 154.249C260.419 155.506 252.051 158.316 252.775 160.242L253.605 167.564L253.676 168.161L255.043 180.281L256.311 180.263C256.293 180.352 256.275 180.406 256.275 180.406L272.582 187.522L289.782 186.675L293.434 160.723C294.372 158.173 279.432 154.071 279.432 154.071Z" fill="white"/>
    <path d="M273.949 156.978L274.378 188.681L256.579 188.869C256.883 187.567 258.758 168.866 257.919 168.331L253.516 168.161L253.445 167.564L252.614 160.242C251.891 158.316 260.259 155.506 264.385 154.249C265.715 153.848 266.608 153.598 266.608 153.598C268.216 154.686 269.618 155.471 270.832 156.015C272.002 156.541 273.002 156.844 273.86 156.969C273.895 156.969 273.922 156.978 273.949 156.978Z" fill="white"/>
    <path d="M258.865 182.109L258.151 188.753L250.095 186.051C248.274 185.435 247.023 184.285 246.791 182.965C246.595 181.788 246.72 180.12 247.666 177.784L249.461 168.982C249.461 168.982 248.604 162.891 252.766 159.466C252.766 159.466 254.275 169.561 256.972 171.247L257.543 179.683L258.865 182.109Z" fill="white"/>
    <path opacity="0.13" d="M258.177 181.877C258.177 181.877 255.186 179.772 251.604 179.558C251.604 179.558 252.399 179.086 254.596 179.558C254.596 179.558 252.605 178.453 250.31 178.872C250.301 178.872 255.087 177.24 258.177 181.877Z" fill="black"/>
    <path opacity="0.13" d="M257.07 171.202C257.07 171.202 252.989 162.347 253.801 161.874C253.801 161.874 253.971 163.613 257.07 171.202Z" fill="black"/>
    <path d="M286.335 181.77L287.049 188.414L295.105 185.712C296.926 185.096 298.177 183.946 298.409 182.626C298.605 181.449 298.48 179.781 297.534 177.445L295.739 168.643C295.739 168.643 296.596 162.552 292.434 159.127C292.434 159.127 290.925 169.222 288.228 170.908L287.657 179.344L286.335 181.77Z" fill="white"/>
    <path opacity="0.13" d="M267.099 152.127C267.099 152.127 271.948 159.858 278.306 151.779L276.333 148.595L268.286 149.603L267.099 152.127Z" fill="black"/>
    <path d="M265.009 138.66C265.009 138.66 274.323 133.024 278.083 137.974C278.083 137.974 285.843 146.669 273.752 154.472C273.752 154.472 265.911 158.316 265.009 138.66Z" fill="#FFE1BD"/>
    <path d="M266.018 146.874L264.429 142.397C263.875 141.362 264.357 137.884 264.429 136.796C264.652 133.381 271.028 130.688 276.529 132.07C276.529 132.07 281.78 133.06 281.021 143.244L279.146 147.775C279.146 147.775 279.387 139.606 276.529 139.186C276.529 139.186 269.992 140.765 265.742 140.658C265.75 140.658 265.625 146.276 266.018 146.874Z" fill="black"/>
    <path d="M268.278 145.937C269.496 145.937 270.484 145.299 270.484 144.511C270.484 143.722 269.496 143.084 268.278 143.084C267.06 143.084 266.072 143.722 266.072 144.511C266.072 145.299 267.06 145.937 268.278 145.937Z" stroke="black" stroke-width="0.4" stroke-miterlimit="10"/>
    <path d="M274.975 145.723C276.194 145.723 277.181 145.085 277.181 144.296C277.181 143.508 276.194 142.87 274.975 142.87C273.757 142.87 272.77 143.508 272.77 144.296C272.77 145.085 273.757 145.723 274.975 145.723Z" stroke="black" stroke-width="0.4" stroke-miterlimit="10"/>
    <path d="M270.466 144.296C270.466 144.296 271.466 145.037 272.779 144.296" stroke="black" stroke-width="0.4" stroke-miterlimit="10"/>
    <path d="M266.072 144.511L264.974 143.69" stroke="black" stroke-width="0.4" stroke-miterlimit="10"/>
    <path d="M277.182 144.296L279.959 143.931" stroke="black" stroke-width="0.4" stroke-miterlimit="10"/>
    <path opacity="0.13" d="M287.031 181.538C287.031 181.538 289.478 179.434 292.425 179.219C292.425 179.219 291.773 178.747 289.978 179.219C289.978 179.219 291.613 178.114 293.488 178.533C293.479 178.533 289.559 176.901 287.031 181.538Z" fill="black"/>
    <path opacity="0.13" d="M255.248 191.027C255.248 191.027 249.774 187.255 239.808 186.122C239.808 186.122 244.791 185.756 255.739 189.921L255.248 191.027Z" fill="black"/>
    <path opacity="0.13" d="M288.255 191.5C288.255 191.5 298.141 185.908 302.088 188.896C302.088 188.896 300.025 185.596 287.031 191.179L288.255 191.5Z" fill="black"/>
    <path opacity="0.13" d="M288.13 170.863C288.13 170.863 292.211 162.008 291.398 161.535C291.398 161.535 291.238 163.274 288.13 170.863Z" fill="black"/>
    <path d="M256.409 182.787C256.409 182.787 269.233 183.09 268.626 185.533C268.626 185.533 274.029 183.117 277.155 183.25C277.155 183.25 282.111 183.687 284.487 183.268L285.192 187.335L268.501 193.435L257.481 188.94L254.909 184.954L256.409 182.787Z" fill="#A5C0FF"/>
    <path d="M286.344 192.927L272.502 195.325L272.395 195.343L272.377 195.361L271.332 196.003L271.305 196.021L271.288 196.03L256.767 191.901L254.222 184.276L255.302 184.66L267.144 188.887L267.153 188.896L267.34 188.958L268.501 187.272L268.528 187.219L268.537 187.21L285.549 184.08L286.344 192.927Z" fill="#0A2982"/>
    <path opacity="0.1" d="M272.502 195.325L272.395 195.343L272.377 195.361L268.501 187.272L268.528 187.219L272.502 195.325Z" fill="black"/>
    <path opacity="0.1" d="M271.332 196.003L271.305 196.021L267.144 188.887L267.152 188.896L271.332 196.003Z" fill="black"/>
    <path opacity="0.13" d="M257.079 171.193L257.749 177.356L257.079 171.193Z" fill="black"/>
    <path opacity="0.13" d="M288.175 170.881L287.005 177.347L288.175 170.881Z" fill="black"/>
    <path d="M288.281 191.758C288.281 191.758 281.092 192.962 278.583 194.371L282.128 196.627L288.281 193.872V191.758Z" fill="#081956"/>
    <path d="M254.908 191.027C254.908 191.027 260.257 191.598 264.24 195.174L262.704 198.331L254.908 191.027Z" fill="#081956"/>
    <path d="M51.0391 116.35L47.8721 106.325L59.9406 102.553L64.3688 112.001C64.3688 112.001 61.3884 111.109 58.7756 113.277L58.7417 113.356C58.6795 113.509 58.5607 113.628 58.408 113.678L57.5088 114C57.3561 114.057 57.1865 114.04 57.0451 113.966L56.9715 113.927C56.9715 113.927 54.7546 113.283 51.0391 116.35Z" fill="#0A2982"/>
    <path d="M64.504 111.487C62.5925 110.646 60.8563 111.261 59.629 112.041C58.4923 112.763 57.7967 113.628 57.7967 113.628C57.3499 113.526 56.9088 113.469 56.4903 113.458C52.9161 113.356 50.2977 116.146 50.2977 116.146L47.9111 109.533L61.4218 104.671L63.3277 108.872L64.504 111.487Z" fill="#8B9FE9"/>
    <path d="M63.2884 108.206C59.2788 109.042 57.8932 113.306 57.8027 113.616C57.7971 113.628 57.7971 113.633 57.7971 113.633C57.7349 113.611 57.667 113.582 57.6048 113.56C51.4914 111.346 49.5289 115.282 49.5289 115.282L46 105.992C49.2688 101.135 53.5782 104.055 54.2172 104.535C54.2681 104.575 54.2964 104.597 54.2964 104.597C54.3021 104.575 54.3021 104.558 54.3077 104.535C55.0769 99.9831 59.5785 100 59.5785 100L63.2884 108.206Z" fill="white"/>
    <path d="M47.6914 106.529C47.8554 106.331 48.0477 106.161 48.2513 106.003C48.4549 105.845 48.6698 105.704 48.9017 105.58C49.1279 105.456 49.371 105.354 49.6199 105.275C49.8687 105.196 50.1232 105.139 50.3834 105.105C50.6435 105.071 50.9037 105.071 51.1638 105.094L51.3561 105.117L51.5484 105.151C51.6106 105.162 51.6784 105.173 51.7406 105.19C51.8029 105.207 51.8651 105.218 51.9273 105.241C52.4249 105.388 52.8943 105.625 53.3015 105.924C52.8491 105.693 52.374 105.501 51.8877 105.388C51.4013 105.28 50.898 105.247 50.4003 105.309C49.9083 105.365 49.4219 105.512 48.9695 105.721C48.7433 105.828 48.5227 105.947 48.3078 106.082C48.0929 106.212 47.8893 106.359 47.6914 106.529Z" fill="#99A6D8"/>
    <path d="M49.6543 111.222C49.79 111.007 49.9653 110.815 50.1576 110.646C50.3499 110.476 50.5648 110.329 50.791 110.211C51.0172 110.087 51.2604 109.996 51.5149 109.928C51.7637 109.861 52.0239 109.821 52.284 109.804C52.5442 109.787 52.8043 109.798 53.0588 109.827L53.2511 109.855C53.3133 109.861 53.3755 109.878 53.4434 109.889C53.5056 109.9 53.5678 109.911 53.63 109.928L53.8166 109.979C54.3143 110.115 54.7837 110.318 55.2248 110.578C54.7498 110.397 54.2691 110.233 53.7827 110.132C53.2963 110.03 52.793 109.968 52.301 110.002C51.809 110.03 51.317 110.143 50.8702 110.352C50.644 110.454 50.4291 110.583 50.2255 110.725C50.0162 110.866 49.824 111.03 49.6543 111.222Z" fill="#99A6D8"/>
    <path d="M50.1406 112.396C50.282 112.182 50.463 111.995 50.6496 111.82C50.8419 111.651 51.0568 111.498 51.2774 111.369C51.5036 111.239 51.7411 111.137 51.9899 111.058C52.2388 110.979 52.4989 110.928 52.7534 110.905C53.0136 110.883 53.2737 110.883 53.5338 110.911C53.794 110.945 54.0485 110.99 54.2973 111.064C54.795 111.21 55.2644 111.431 55.6885 111.713C55.2248 111.504 54.7497 111.329 54.2577 111.21C53.7714 111.097 53.268 111.047 52.776 111.097C52.5272 111.114 52.284 111.165 52.0465 111.233C51.809 111.301 51.5771 111.391 51.3509 111.504C51.1303 111.617 50.9098 111.747 50.7062 111.894C50.5082 112.046 50.3159 112.21 50.1406 112.396Z" fill="#99A6D8"/>
    <path d="M55.1172 105.207C55.1511 104.981 55.219 104.767 55.2982 104.552C55.3773 104.337 55.4791 104.128 55.5922 103.931C55.7053 103.733 55.8354 103.541 55.9768 103.36C56.1182 103.18 56.2822 103.01 56.4462 102.858C56.6159 102.705 56.8025 102.564 56.9948 102.44L57.1418 102.349C57.1927 102.321 57.2436 102.293 57.2945 102.265C57.3963 102.208 57.5038 102.163 57.6055 102.118C58.0297 101.943 58.4821 101.83 58.9346 101.802C58.4934 101.915 58.0693 102.061 57.6734 102.259C57.2775 102.462 56.9099 102.711 56.5819 103.01C56.4179 103.157 56.2652 103.321 56.1238 103.485C55.9768 103.654 55.8467 103.835 55.728 104.015C55.6035 104.202 55.4961 104.394 55.3943 104.591C55.2868 104.789 55.1964 104.992 55.1172 105.207Z" fill="#99A6D8"/>
    <path d="M55.6768 106.082C55.6824 105.856 55.739 105.631 55.8068 105.41C55.8804 105.196 55.9765 104.981 56.0953 104.783C56.2084 104.586 56.3497 104.399 56.5024 104.224C56.6551 104.049 56.8248 103.891 57.0058 103.744C57.1867 103.597 57.379 103.473 57.577 103.355C57.6788 103.298 57.7806 103.242 57.8823 103.197C57.9332 103.174 57.9841 103.146 58.0407 103.123L58.1991 103.061C58.6232 102.892 59.07 102.773 59.5224 102.716C59.0926 102.858 58.6684 103.01 58.2613 103.202C57.8597 103.394 57.4752 103.626 57.1302 103.902C56.7852 104.179 56.4798 104.501 56.231 104.868C56.1066 105.055 55.9991 105.247 55.903 105.45C55.8012 105.653 55.7277 105.862 55.6768 106.082Z" fill="#99A6D8"/>
    <path d="M56.1123 107.127C56.1575 106.907 56.2367 106.692 56.3216 106.483C56.412 106.274 56.5138 106.071 56.6269 105.873C56.7401 105.676 56.8758 105.489 57.0172 105.314C57.1585 105.134 57.3169 104.97 57.4809 104.812C57.6506 104.654 57.8259 104.512 58.0125 104.382C58.1087 104.32 58.2048 104.253 58.3009 104.196C58.3971 104.134 58.4989 104.083 58.6007 104.032C59.0135 103.835 59.449 103.699 59.8957 103.637C59.4659 103.778 59.0587 103.953 58.6742 104.168C58.2896 104.388 57.9333 104.648 57.6166 104.953C57.4583 105.105 57.3056 105.264 57.1642 105.433C57.0172 105.597 56.8871 105.777 56.7627 105.958C56.6383 106.139 56.5195 106.331 56.412 106.523C56.2989 106.721 56.1971 106.918 56.1123 107.127Z" fill="#99A6D8"/>
    <path d="M56.5029 108.217C56.5538 107.997 56.633 107.788 56.7178 107.579C56.8083 107.37 56.9101 107.172 57.0289 106.975C57.2607 106.585 57.5548 106.229 57.8828 105.919C58.0525 105.766 58.2278 105.625 58.4201 105.495C58.4653 105.461 58.5162 105.433 58.5671 105.405C58.6124 105.376 58.6633 105.348 58.7142 105.32C58.7651 105.292 58.8103 105.264 58.8669 105.241L59.0196 105.167C59.4324 104.981 59.8792 104.868 60.326 104.829C59.8905 104.947 59.472 105.1 59.0874 105.303C58.6972 105.512 58.3409 105.766 58.0186 106.065C57.8546 106.212 57.7075 106.37 57.5605 106.54C57.4134 106.704 57.2834 106.879 57.1533 107.059C56.9101 107.421 56.6839 107.805 56.5029 108.217Z" fill="#99A6D8"/>
    <path d="M57.1807 109.686C57.2259 109.465 57.3051 109.251 57.3899 109.042C57.4804 108.833 57.5822 108.629 57.6953 108.432C57.8084 108.234 57.9441 108.048 58.0855 107.873C58.2269 107.692 58.3853 107.528 58.5493 107.37C58.7189 107.212 58.8942 107.071 59.0809 106.941C59.177 106.879 59.2731 106.811 59.3693 106.754C59.4654 106.692 59.5672 106.642 59.669 106.591C60.0819 106.393 60.5173 106.257 60.9641 106.195C60.5343 106.337 60.1271 106.512 59.7425 106.726C59.358 106.946 59.0017 107.206 58.685 107.511C58.5266 107.664 58.3739 107.822 58.2326 107.991C58.0855 108.155 57.9554 108.336 57.831 108.517C57.7066 108.697 57.5878 108.889 57.4804 109.081C57.3673 109.273 57.2711 109.477 57.1807 109.686Z" fill="#99A6D8"/>
    <path d="M57.5771 110.77C57.628 110.55 57.7072 110.341 57.7921 110.132C57.8825 109.923 57.9843 109.725 58.1031 109.527C58.335 109.138 58.629 108.782 58.9571 108.471C59.1267 108.319 59.302 108.178 59.4943 108.048C59.5396 108.014 59.5905 107.986 59.6414 107.957C59.6866 107.929 59.7375 107.901 59.7884 107.873C59.8393 107.844 59.8845 107.816 59.9411 107.794L60.0938 107.72C60.5066 107.534 60.9534 107.421 61.4002 107.381C60.9647 107.5 60.5462 107.652 60.1617 107.856C59.7714 108.065 59.4151 108.319 59.0928 108.618C58.9288 108.765 58.7817 108.923 58.6347 109.093C58.4877 109.256 58.3576 109.431 58.2275 109.612C57.9787 109.979 57.7581 110.363 57.5771 110.77Z" fill="#99A6D8"/>
    <path opacity="0.1" d="M57.8023 113.616C57.7966 113.628 57.7966 113.633 57.7966 113.633C57.7344 113.611 57.6666 113.582 57.6044 113.56L54.2168 104.535C54.2677 104.575 54.296 104.597 54.296 104.597C54.3016 104.575 54.3016 104.558 54.3073 104.535C55.3761 107.223 57.0445 111.617 57.8023 113.616Z" fill="black"/>
    <path d="M54.738 109.392C51.3617 107.364 49.1844 110.07 49.1844 110.07L48.2061 107.692C48.2061 107.692 50.3551 105.241 53.7879 107.093L54.738 109.392Z" fill="#99A6D8"/>
</svg>
