<svg width="26" height="26" fill="none" xmlns="http://www.w3.org/2000/svg">
    <path d="M4.155 9.035H.903A.904.904 0 0 0 0 9.938v15.158A.904.904 0 0 0 .903 26h23.49a.904.904 0 0 0 .904-.904V9.938a.904.904 0 0 0-.903-.903H21.22l.237-.237a.904.904 0 0 0 0-1.278L14.202.265a.903.903 0 0 0-1.277 0l-8.77 8.77Z" fill="#46AA3F"/>
    <path d="M4.154 9.035h17.067l.237-.237a.904.904 0 0 0 0-1.278L14.202.265a.903.903 0 0 0-1.278 0l-8.77 8.77Z" fill="#AAF9A5"/>
    <path d="m10.461 9.035 6.253-6.253-1.38-1.413-7.666 7.666h2.793ZM18.408 9.035h-2.41l.326-1.629 2.51-.502-.426 2.13Z" fill="#062C03"/>
    <path d="M25.297 14.255v6.324h-5.873a3.164 3.164 0 0 1-3.162-3.162 3.164 3.164 0 0 1 3.162-3.162h5.873Z" fill="#AAF9A5"/>
    <path d="M19.537 15.497a1.92 1.92 0 1 0 .001 3.841 1.92 1.92 0 0 0 0-3.841Zm0 .904a1.017 1.017 0 1 1 0 2.033 1.017 1.017 0 0 1 0-2.034Z" fill="#062C03"/>
</svg>
