<svg width="34" height="24" fill="none" xmlns="http://www.w3.org/2000/svg">
    <path d="M31.344 0H2.656C1.192 0 0 1.17 0 2.609V21.39C0 22.83 1.192 24 2.656 24h28.688C32.808 24 34 22.83 34 21.391V2.61C34 1.17 32.808 0 31.344 0Z" fill="#5D647F"/>
    <path d="M11.688 10.435H5.311A1.053 1.053 0 0 1 4.25 9.39V5.217c0-.576.476-1.043 1.063-1.043h6.375c.586 0 1.062.467 1.062 1.043v4.174c0 .577-.476 1.044-1.063 1.044Z" fill="#FFD100"/>
    <path d="M7.969 17.217H5.312a1.053 1.053 0 0 1-1.062-1.043v-.522c0-.576.476-1.043 1.063-1.043h2.656c.587 0 1.062.467 1.062 1.043v.522c0 .576-.475 1.043-1.062 1.043ZM14.875 17.217h-2.656a1.053 1.053 0 0 1-1.063-1.043v-.522c0-.576.476-1.043 1.063-1.043h2.656c.587 0 1.063.467 1.063 1.043v.522c0 .576-.476 1.043-1.063 1.043ZM21.781 17.217h-2.656a1.053 1.053 0 0 1-1.063-1.043v-.522c0-.576.476-1.043 1.063-1.043h2.656c.587 0 1.063.467 1.063 1.043v.522c0 .576-.476 1.043-1.063 1.043ZM28.688 17.217H26.03a1.053 1.053 0 0 1-1.062-1.043v-.522c0-.576.475-1.043 1.062-1.043h2.657c.586 0 1.062.467 1.062 1.043v.522c0 .576-.476 1.043-1.063 1.043Z" fill="#B8BAC0"/>
    <path d="M15.406 20.348H4.781a.526.526 0 0 1-.531-.522c0-.288.238-.522.531-.522h10.625c.294 0 .531.234.531.522a.526.526 0 0 1-.53.522ZM22.313 20.348H17.53a.526.526 0 0 1-.531-.522c0-.288.238-.522.531-.522h4.782c.293 0 .53.234.53.522a.526.526 0 0 1-.53.522Z" fill="#8A8895"/>
    <path d="M12.75 7.826H7.437V6.783h5.313V5.739H7.437V4.174H6.375v6.26h1.063V8.87h5.312V7.826Z" fill="#FF9500"/>
    <path d="M26.563 10.435c1.76 0 3.187-1.402 3.187-3.13 0-1.73-1.427-3.131-3.188-3.131-1.76 0-3.187 1.401-3.187 3.13 0 1.73 1.427 3.13 3.188 3.13Z" fill="#FF4F19"/>
</svg>
